<svg id="Livello_1" data-name="Livello 1" xmlns="http://www.w3.org/2000/svg" viewBox="0 0 83.62 76.02"><defs><style>.cls-1{fill:#d95d5d;}.cls-2{fill:#b6212d;}.cls-3{fill:#3da4dd;}.cls-4{fill:#2486c8;}.cls-5{fill:#75cbef;}</style></defs><path class="cls-1" d="M377.49,292.8a1.8,1.8,0,0,1,.33-2.11l17.46-18.19c-3.69-4.61-7.2-14.18-9.27-20.57-5.87,6.67-14.77,17.4-15.5,21.89C369.52,279.74,376.06,290.54,377.49,292.8Z" transform="translate(-370.41 -217.86)"/><path class="cls-2" d="M413.17,278.92l-9,8.82a10.11,10.11,0,0,1-5.44,2.79l-19.26,3.31a1.79,1.79,0,0,1-1.73-.61l-.27-.42a1.83,1.83,0,0,1,.33-2.13l17.47-18.18a7.18,7.18,0,0,0,3,2.49l6,1.58Z" transform="translate(-370.41 -217.86)"/><path class="cls-3" d="M453.84,237.29a1.85,1.85,0,0,0-2-1.08h0L435.78,236a10.22,10.22,0,0,0-4,1.49,10.51,10.51,0,0,0-1.91,1.56L395.29,272.5c-3.71-4.61-7.21-14.18-9.28-20.57,2.82-3.19,4.94-5.43,5.15-5.64.6-.6,25.28-21.16,32.51-26.28.44-.32.82-.57,1.12-.76,4.09-2.58,7.63-.66,12.25-1.28a8.39,8.39,0,0,1,8.42,4.18C448.86,228.14,454.1,235.85,453.84,237.29Z" transform="translate(-370.41 -217.86)"/><path class="cls-4" d="M453.45,239.42l-6.1,6-34.18,33.52-8.89-2.35-6-1.58a7.18,7.18,0,0,1-3-2.49L429.82,239a10.51,10.51,0,0,1,1.91-1.56,10.22,10.22,0,0,1,4-1.49l16.07.24h0a1.85,1.85,0,0,1,2,1.08h0A1.86,1.86,0,0,1,453.45,239.42Z" transform="translate(-370.41 -217.86)"/><path class="cls-5" d="M453.84,237.29a1.85,1.85,0,0,0-2-1.08h0L435.78,236a10.22,10.22,0,0,0-4,1.49,16.25,16.25,0,0,0,1.76-3.16c1.89-5.08-4.76-9.91-7.19-13.55-.49-.74-1.44-.91-2.63-.74.44-.32.82-.57,1.12-.76,4.09-2.58,7.63-.66,12.25-1.28a8.39,8.39,0,0,1,8.42,4.18C448.86,228.14,454.1,235.85,453.84,237.29Z" transform="translate(-370.41 -217.86)"/></svg>