<svg xmlns="http://www.w3.org/2000/svg" xmlns:xlink="http://www.w3.org/1999/xlink" viewBox="0 0 88.15 192.91"><defs><style>.cls-1{isolation:isolate;}.cls-2{fill:url(#Áåçûìÿííûé_ãðàäèåíò_626);}.cls-3{fill:url(#Áåçûìÿííûé_ãðàäèåíò_611);}.cls-13,.cls-4,.cls-6{mix-blend-mode:screen;}.cls-4{fill:url(#Áåçûìÿííûé_ãðàäèåíò_610);}.cls-5{fill:url(#Áåçûìÿííûé_ãðàäèåíò_377);}.cls-11,.cls-12,.cls-6,.cls-7,.cls-8{fill-rule:evenodd;}.cls-6{fill:url(#Áåçûìÿííûé_ãðàäèåíò_615);}.cls-7{fill:url(#Áåçûìÿííûé_ãðàäèåíò_460);}.cls-8{fill:url(#Áåçûìÿííûé_ãðàäèåíò_460-2);}.cls-9{fill:url(#Áåçûìÿííûé_ãðàäèåíò_611-2);}.cls-10{fill:url(#Áåçûìÿííûé_ãðàäèåíò_614);}.cls-11{fill:url(#Áåçûìÿííûé_ãðàäèåíò_460-3);}.cls-12{fill:#fcf7cc;}.cls-13{fill:url(#Áåçûìÿííûé_ãðàäèåíò_622);}.cls-14{fill:#8a124b;opacity:0.2;mix-blend-mode:multiply;}.cls-15{fill:#fff;}</style><linearGradient id="Áåçûìÿííûé_ãðàäèåíò_626" x1="22.23" y1="185.61" x2="87.64" y2="185.61" gradientUnits="userSpaceOnUse"><stop offset="0" stop-color="#484b6b"/><stop offset="0.97" stop-color="#a28ca2"/></linearGradient><linearGradient id="Áåçûìÿííûé_ãðàäèåíò_611" x1="415.37" y1="304.9" x2="415.37" y2="177.79" gradientUnits="userSpaceOnUse"><stop offset="0.03" stop-color="#a28ca2"/><stop offset="0.99" stop-color="#484b6b"/></linearGradient><linearGradient id="Áåçûìÿííûé_ãðàäèåíò_610" x1="22.23" y1="188.23" x2="49.24" y2="188.23" gradientUnits="userSpaceOnUse"><stop offset="0" stop-color="#ed6b36"/><stop offset="1" stop-color="#3f3f3f"/></linearGradient><linearGradient id="Áåçûìÿííûé_ãðàäèåíò_377" x1="425.02" y1="190.68" x2="425.02" y2="161.05" gradientUnits="userSpaceOnUse"><stop offset="0.01" stop-color="#484b6b"/><stop offset="0.97" stop-color="#a28ca2"/></linearGradient><linearGradient id="Áåçûìÿííûé_ãðàäèåíò_615" x1="415.37" y1="165.82" x2="437.69" y2="165.82" gradientUnits="userSpaceOnUse"><stop offset="0" stop-color="#3b3d1a"/><stop offset="1" stop-color="#010101"/></linearGradient><linearGradient id="Áåçûìÿííûé_ãðàäèåíò_460" x1="415.77" y1="286.23" x2="415.77" y2="232.59" gradientUnits="userSpaceOnUse"><stop offset="0" stop-color="#ffebb9"/><stop offset="1" stop-color="#f8c6cb"/></linearGradient><linearGradient id="Áåçûìÿííûé_ãðàäèåíò_460-2" x1="28.74" y1="192.91" x2="28.74" y2="184.63" xlink:href="#Áåçûìÿííûé_ãðàäèåíò_460"/><linearGradient id="Áåçûìÿííûé_ãðàäèåíò_611-2" x1="352.17" y1="175.49" x2="416.46" y2="175.49" xlink:href="#Áåçûìÿííûé_ãðàäèåíò_611"/><linearGradient id="Áåçûìÿííûé_ãðàäèåíò_614" x1="374.73" y1="224.4" x2="374.73" y2="126.57" gradientUnits="userSpaceOnUse"><stop offset="0.01" stop-color="#6c6e87"/><stop offset="0.97" stop-color="#a28ca2"/></linearGradient><linearGradient id="Áåçûìÿííûé_ãðàäèåíò_460-3" x1="374.97" y1="219.26" x2="374.97" y2="130.25" xlink:href="#Áåçûìÿííûé_ãðàäèåíò_460"/><linearGradient id="Áåçûìÿííûé_ãðàäèåíò_622" x1="379.63" y1="219.26" x2="379.63" y2="188.41" gradientUnits="userSpaceOnUse"><stop offset="0" stop-color="#f3ed87"/><stop offset="1" stop-color="#010101"/></linearGradient></defs><g class="cls-1"><g id="Livello_1" data-name="Livello 1"><polygon class="cls-2" points="22.23 192.91 23.52 185.32 49.54 178.32 65.87 178.32 84.01 184.45 87.64 192.91 22.23 192.91"/><path class="cls-3" d="M404.39,304.9s17.13-54.11,17.43-127.11h4.38s2.25,70.59-10.88,127.11Z" transform="translate(-352.17 -126.57)"/><polygon class="cls-4" points="23.52 185.32 49.24 183.55 49.24 192.91 22.23 192.91 23.52 185.32"/><path class="cls-5" d="M410.79,161.05s19.93.76,26.75,5.75c0,0,8,14.51-3.17,21.76l-24.65,2.12S414.72,175,410.79,161.05Z" transform="translate(-352.17 -126.57)"/><path class="cls-6" d="M416.61,168.74s13.52-1.49,21.08,1.53a6.7,6.7,0,0,0-1.8-4.47s-7.1-3.57-20.52-4.44Z" transform="translate(-352.17 -126.57)"/><path class="cls-7" d="M411.47,286.23s6.91-33.38,8.61-53.64C420.08,232.59,420.08,265,411.47,286.23Z" transform="translate(-352.17 -126.57)"/><polygon class="cls-8" points="23.92 192.91 25.17 185.2 33.55 184.63 32.43 192.91 23.92 192.91"/><path class="cls-9" d="M414,158s-8.46-17.07-39.2-31.39c0,0-22.66,18.45-22.67,48.92,0,40.25,29.12,48.91,29.12,48.91s19.56-11.06,30-30.77C421,175.49,414,158,414,158Z" transform="translate(-352.17 -126.57)"/><path class="cls-10" d="M374.84,126.57s22.33,13,22.39,48.92c.07,36.43-15.94,48.91-15.94,48.91s-29.18-13.14-29.06-46.12S374.84,126.57,374.84,126.57Z" transform="translate(-352.17 -126.57)"/><path class="cls-11" d="M394.93,187.43c-3,20.59-15.22,31.83-15.22,31.83s-23.24-7.89-25.28-42.58c-1.57-26,20.3-46.43,20.3-46.43s13.66,7.78,18.92,31.17a80.47,80.47,0,0,1,1.66,10.39A66.6,66.6,0,0,1,394.93,187.43Z" transform="translate(-352.17 -126.57)"/><path class="cls-12" d="M394.93,187.43a9.63,9.63,0,0,1-5.15,1.52c-6.39,0-11.54-6.37-11.54-14.21s5.15-14.18,11.54-14.18a9,9,0,0,1,3.87.86,80.47,80.47,0,0,1,1.66,10.39A66.6,66.6,0,0,1,394.93,187.43Z" transform="translate(-352.17 -126.57)"/><path class="cls-13" d="M366.42,209.41,384.32,189l8.52-.54a98.23,98.23,0,0,1-13.13,30.85S370.25,214.57,366.42,209.41Z" transform="translate(-352.17 -126.57)"/><path class="cls-14" d="M362.35,146.44s14.19,1,27.43,14.12l3.87.86s-2.87-21-18.92-31.17A47.77,47.77,0,0,0,362.35,146.44Z" transform="translate(-352.17 -126.57)"/><path class="cls-15" d="M362.35,201.28s3.22,7.52,9.09,9.36c0,0,2.57-2.75,0-7S362.35,201.28,362.35,201.28Z" transform="translate(-352.17 -126.57)"/></g></g></svg>