<svg xmlns="http://www.w3.org/2000/svg" xmlns:xlink="http://www.w3.org/1999/xlink" viewBox="0 0 443.95 186.23"><defs><style>.cls-1{isolation:isolate;}.cls-2{fill:url(#Áåçûìÿííûé_ãðàäèåíò_307);}.cls-3{fill:#16162c;}.cls-21,.cls-25,.cls-4,.cls-7,.cls-8{opacity:0.5;}.cls-15,.cls-20,.cls-4,.cls-7{mix-blend-mode:screen;}.cls-4{fill:url(#Áåçûìÿííûé_ãðàäèåíò_208);}.cls-5{fill:url(#Áåçûìÿííûé_ãðàäèåíò_320);}.cls-6{fill:url(#Áåçûìÿííûé_ãðàäèåíò_365);}.cls-7{fill:url(#Áåçûìÿííûé_ãðàäèåíò_208-2);}.cls-21,.cls-25,.cls-8{mix-blend-mode:multiply;}.cls-8{fill:url(#Áåçûìÿííûé_ãðàäèåíò_319);}.cls-9{fill:url(#Áåçûìÿííûé_ãðàäèåíò_370);}.cls-10{fill:url(#Áåçûìÿííûé_ãðàäèåíò_361);}.cls-11{fill:#53415c;}.cls-12{fill:url(#Áåçûìÿííûé_ãðàäèåíò_320-2);}.cls-13{fill:url(#Áåçûìÿííûé_ãðàäèåíò_189);}.cls-14{fill:url(#Áåçûìÿííûé_ãðàäèåíò_182);}.cls-15{fill:url(#Áåçûìÿííûé_ãðàäèåíò_154);}.cls-16,.cls-17,.cls-18,.cls-19,.cls-20,.cls-21,.cls-22,.cls-23,.cls-24,.cls-25,.cls-26,.cls-27,.cls-31,.cls-32,.cls-35,.cls-36,.cls-37,.cls-38,.cls-39,.cls-41{fill-rule:evenodd;}.cls-16{fill:url(#Áåçûìÿííûé_ãðàäèåíò_221);}.cls-17{fill:url(#Áåçûìÿííûé_ãðàäèåíò_221-2);}.cls-18{fill:url(#Áåçûìÿííûé_ãðàäèåíò_221-3);}.cls-19{fill:url(#Áåçûìÿííûé_ãðàäèåíò_132);}.cls-20{fill:url(#Áåçûìÿííûé_ãðàäèåíò_214);}.cls-21{fill:#894166;}.cls-22{fill:url(#Áåçûìÿííûé_ãðàäèåíò_173);}.cls-23{fill:url(#Áåçûìÿííûé_ãðàäèåíò_124);}.cls-24{fill:url(#Áåçûìÿííûé_ãðàäèåíò_153);}.cls-25{fill:#6b3f6f;}.cls-26{fill:url(#Áåçûìÿííûé_ãðàäèåíò_13);}.cls-27{fill:url(#Áåçûìÿííûé_ãðàäèåíò_21);}.cls-28{fill:url(#Áåçûìÿííûé_ãðàäèåíò_345);}.cls-29{fill:url(#Áåçûìÿííûé_ãðàäèåíò_345-2);}.cls-30{fill:#e56d5a;}.cls-31{fill:url(#Áåçûìÿííûé_ãðàäèåíò_13-2);}.cls-32{fill:url(#Áåçûìÿííûé_ãðàäèåíò_21-2);}.cls-33{fill:url(#Áåçûìÿííûé_ãðàäèåíò_345-3);}.cls-34{fill:url(#Áåçûìÿííûé_ãðàäèåíò_345-4);}.cls-35{fill:url(#Áåçûìÿííûé_ãðàäèåíò_153-2);}.cls-36{fill:url(#Áåçûìÿííûé_ãðàäèåíò_158);}.cls-37{fill:url(#Áåçûìÿííûé_ãðàäèåíò_147);}.cls-38{fill:url(#Áåçûìÿííûé_ãðàäèåíò_147-2);}.cls-39{fill:url(#Áåçûìÿííûé_ãðàäèåíò_147-3);}.cls-40{fill:url(#Áåçûìÿííûé_ãðàäèåíò_219);}.cls-41{fill:url(#Áåçûìÿííûé_ãðàäèåíò_212);}</style><linearGradient id="Áåçûìÿííûé_ãðàäèåíò_307" x1="328.1" y1="164.08" x2="328.1" y2="68.86" gradientUnits="userSpaceOnUse"><stop offset="0.01" stop-color="#3b2b51"/><stop offset="1" stop-color="#4a465b"/></linearGradient><linearGradient id="Áåçûìÿííûé_ãðàäèåíò_208" x1="317.47" y1="163.75" x2="317.47" y2="70.43" gradientUnits="userSpaceOnUse"><stop offset="0" stop-color="#010101"/><stop offset="1" stop-color="#3e2d36"/></linearGradient><linearGradient id="Áåçûìÿííûé_ãðàäèåíò_320" x1="326.61" y1="153.28" x2="326.61" y2="88.2" gradientUnits="userSpaceOnUse"><stop offset="0.01" stop-color="#7e7a98"/><stop offset="0.97" stop-color="#dac0c3"/></linearGradient><linearGradient id="Áåçûìÿííûé_ãðàäèåíò_365" x1="326.61" y1="149.05" x2="326.61" y2="92.43" gradientUnits="userSpaceOnUse"><stop offset="0" stop-color="#4a465b"/><stop offset="0.99" stop-color="#261a40"/></linearGradient><linearGradient id="Áåçûìÿííûé_ãðàäèåíò_208-2" x1="493.04" y1="317.52" x2="493.04" y2="292.14" xlink:href="#Áåçûìÿííûé_ãðàäèåíò_208"/><linearGradient id="Áåçûìÿííûé_ãðàäèåíò_319" x1="495" y1="285.86" x2="495" y2="261.3" gradientUnits="userSpaceOnUse"><stop offset="0" stop-color="#4e2463"/><stop offset="1" stop-color="#90939a"/></linearGradient><linearGradient id="Áåçûìÿííûé_ãðàäèåíò_370" x1="501.87" y1="294.99" x2="501.87" y2="283.43" gradientUnits="userSpaceOnUse"><stop offset="0.01" stop-color="#251230"/><stop offset="1" stop-color="#4a465b"/></linearGradient><radialGradient id="Áåçûìÿííûé_ãðàäèåíò_361" cx="328.73" cy="77.59" r="15.89" gradientUnits="userSpaceOnUse"><stop offset="0" stop-color="#63a0d7"/><stop offset="0.98" stop-color="#91d0d6"/></radialGradient><linearGradient id="Áåçûìÿííûé_ãðàäèåíò_320-2" x1="48.79" y1="159.09" x2="135.93" y2="159.09" xlink:href="#Áåçûìÿííûé_ãðàäèåíò_320"/><linearGradient id="Áåçûìÿííûé_ãðàäèåíò_189" x1="261.74" y1="323.69" x2="261.74" y2="295.96" gradientUnits="userSpaceOnUse"><stop offset="0.01" stop-color="#7e7a98"/><stop offset="0.97" stop-color="#6c6691"/></linearGradient><radialGradient id="Áåçûìÿííûé_ãðàäèåíò_182" cx="245.77" cy="209.06" r="79.47" gradientUnits="userSpaceOnUse"><stop offset="0.03" stop-color="#6ac0ab"/><stop offset="0.99" stop-color="#1b769b"/></radialGradient><linearGradient id="Áåçûìÿííûé_ãðàäèåíò_154" x1="115.39" y1="166.24" x2="115.39" y2="152.32" gradientUnits="userSpaceOnUse"><stop offset="0" stop-color="#010101"/><stop offset="1" stop-color="#ed6b36"/></linearGradient><linearGradient id="Áåçûìÿííûé_ãðàäèåíò_221" x1="289.87" y1="292.23" x2="284.4" y2="186.26" gradientUnits="userSpaceOnUse"><stop offset="0" stop-color="#a9375c"/><stop offset="0.54" stop-color="#f07e55"/><stop offset="1" stop-color="#ffe04c"/></linearGradient><linearGradient id="Áåçûìÿííûé_ãðàäèåíò_221-2" x1="243.8" y1="463.96" x2="238.33" y2="357.98" gradientTransform="translate(244.8 -232.29) rotate(25.81)" xlink:href="#Áåçûìÿííûé_ãðàäèåíò_221"/><linearGradient id="Áåçûìÿííûé_ãðàäèåíò_221-3" x1="236.5" y1="294.99" x2="231.03" y2="189.01" xlink:href="#Áåçûìÿííûé_ãðàäèåíò_221"/><linearGradient id="Áåçûìÿííûé_ãðàäèåíò_132" x1="263.59" y1="183.95" x2="263.59" y2="183.47" gradientUnits="userSpaceOnUse"><stop offset="0" stop-color="#f9cdd3"/><stop offset="1" stop-color="#ffeacd"/></linearGradient><linearGradient id="Áåçûìÿííûé_ãðàäèåíò_214" x1="261.11" y1="241.58" x2="261.11" y2="184.9" gradientUnits="userSpaceOnUse"><stop offset="0" stop-color="#010101"/><stop offset="1" stop-color="#b26c2c"/></linearGradient><linearGradient id="Áåçûìÿííûé_ãðàäèåíò_173" x1="291.89" y1="340.84" x2="291.89" y2="227.2" gradientTransform="matrix(0.99, -0.12, 0.12, 0.99, -195.12, -139.76)" gradientUnits="userSpaceOnUse"><stop offset="0" stop-color="#f8c6cb"/><stop offset="1" stop-color="#ffebb9"/></linearGradient><linearGradient id="Áåçûìÿííûé_ãðàäèåíò_124" x1="316.7" y1="345.13" x2="316.7" y2="227.2" gradientTransform="matrix(0.99, -0.12, 0.12, 0.99, -195.12, -139.76)" gradientUnits="userSpaceOnUse"><stop offset="0" stop-color="#e56d5a"/><stop offset="0.98" stop-color="#f3a0a5"/></linearGradient><linearGradient id="Áåçûìÿííûé_ãðàäèåíò_153" x1="310.04" y1="311.18" x2="310.04" y2="264.87" gradientTransform="matrix(0.99, -0.12, 0.12, 0.99, -195.12, -139.76)" gradientUnits="userSpaceOnUse"><stop offset="0" stop-color="#a51926"/><stop offset="1" stop-color="#cd1d3f"/></linearGradient><linearGradient id="Áåçûìÿííûé_ãðàäèåíò_13" x1="191.01" y1="332.02" x2="191.01" y2="244.26" gradientTransform="matrix(-1, 0, 0, 1, 357.43, -168.47)" gradientUnits="userSpaceOnUse"><stop offset="0" stop-color="#d6482a"/><stop offset="1" stop-color="#f0833b"/></linearGradient><linearGradient id="Áåçûìÿííûé_ãðàäèåíò_21" x1="170.47" y1="332.02" x2="170.47" y2="244.26" gradientTransform="matrix(-1, 0, 0, 1, 357.43, -168.47)" gradientUnits="userSpaceOnUse"><stop offset="0.01" stop-color="#7a1d37"/><stop offset="0.98" stop-color="#9e3821"/></linearGradient><linearGradient id="Áåçûìÿííûé_ãðàäèåíò_345" x1="185.33" y1="257.49" x2="200.6" y2="257.49" gradientTransform="matrix(-1, 0, 0, 1, 357.43, -168.47)" gradientUnits="userSpaceOnUse"><stop offset="0" stop-color="#f6a11f"/><stop offset="1" stop-color="#ffcc1b"/></linearGradient><linearGradient id="Áåçûìÿííûé_ãðàäèåíò_345-2" x1="181.07" y1="323.82" x2="196.97" y2="323.82" xlink:href="#Áåçûìÿííûé_ãðàäèåíò_345"/><linearGradient id="Áåçûìÿííûé_ãðàäèåíò_13-2" x1="170.52" y1="332.02" x2="170.52" y2="244.26" xlink:href="#Áåçûìÿííûé_ãðàäèåíò_13"/><linearGradient id="Áåçûìÿííûé_ãðàäèåíò_21-2" x1="149.99" y1="332.02" x2="149.99" y2="244.26" xlink:href="#Áåçûìÿííûé_ãðàäèåíò_21"/><linearGradient id="Áåçûìÿííûé_ãðàäèåíò_345-3" x1="164.84" y1="257.49" x2="180.12" y2="257.49" xlink:href="#Áåçûìÿííûé_ãðàäèåíò_345"/><linearGradient id="Áåçûìÿííûé_ãðàäèåíò_345-4" x1="160.59" y1="323.82" x2="176.48" y2="323.82" xlink:href="#Áåçûìÿííûé_ãðàäèåíò_345"/><linearGradient id="Áåçûìÿííûé_ãðàäèåíò_153-2" x1="226.99" y1="163.55" x2="226.99" y2="61.38" gradientTransform="matrix(1, 0, 0, 1, 0, 0)" xlink:href="#Áåçûìÿííûé_ãðàäèåíò_153"/><linearGradient id="Áåçûìÿííûé_ãðàäèåíò_158" x1="263.79" y1="164.27" x2="251.49" y2="60.45" gradientUnits="userSpaceOnUse"><stop offset="0" stop-color="#5b101f"/><stop offset="1" stop-color="#98163b"/></linearGradient><linearGradient id="Áåçûìÿííûé_ãðàäèåíò_147" x1="214.62" y1="116.46" x2="236.33" y2="116.46" gradientUnits="userSpaceOnUse"><stop offset="0.04" stop-color="#f6a231"/><stop offset="0.31" stop-color="#ec6435"/><stop offset="1" stop-color="#f9c436"/></linearGradient><linearGradient id="Áåçûìÿííûé_ãðàäèåíò_147-2" x1="212.16" y1="79.44" x2="243.35" y2="79.44" xlink:href="#Áåçûìÿííûé_ãðàäèåíò_147"/><linearGradient id="Áåçûìÿííûé_ãðàäèåíò_147-3" x1="210.54" y1="153.62" x2="242.17" y2="153.62" xlink:href="#Áåçûìÿííûé_ãðàäèåíò_147"/><linearGradient id="Áåçûìÿííûé_ãðàäèåíò_219" x1="331.87" y1="173.97" x2="443.95" y2="173.97" gradientUnits="userSpaceOnUse"><stop offset="0.01" stop-color="#9b3236"/><stop offset="0.98" stop-color="#b54821"/></linearGradient><linearGradient id="Áåçûìÿííûé_ãðàäèåíò_212" y1="173.97" x2="335.42" y2="173.97" gradientUnits="userSpaceOnUse"><stop offset="0" stop-color="#f0833b"/><stop offset="1" stop-color="#e35d2b"/></linearGradient></defs><g class="cls-1"><g id="Livello_1" data-name="Livello 1"><polygon class="cls-2" points="287.18 163.75 289.43 70.63 369.02 68.86 363.96 164.08 287.18 163.75"/><polygon class="cls-3" points="369.02 68.86 394.31 80.88 387.76 165.92 361.61 163.9 369.02 68.86"/><polygon class="cls-4" points="347.76 70.43 305.63 163.75 287.18 163.75 289.43 70.63 347.76 70.43"/><circle class="cls-5" cx="326.61" cy="120.74" r="32.54"/><circle class="cls-6" cx="326.61" cy="120.74" r="28.31"/><path class="cls-7" d="M497.6,293.08l-18.35,17.65s8.86,7,18.35,6.79c1.32,0,9.23-25.38,9.23-25.38Z" transform="translate(-170.99 -168.47)"/><path class="cls-8" d="M479.25,267.67l18.35,17.27,9,.92,4.17-21.71S493.44,255.8,479.25,267.67Z" transform="translate(-170.99 -168.47)"/><path class="cls-9" d="M507.66,289.21a5.79,5.79,0,1,1-5.79-5.78A5.78,5.78,0,0,1,507.66,289.21Z" transform="translate(-170.99 -168.47)"/><polygon class="cls-10" points="306.5 75.44 310.02 80.88 346.91 80.13 350.97 74.29 306.5 75.44"/><path class="cls-11" d="M224.22,284.2l7.45-4.75,57.77-89.14,1-6.25s10.42,1.49,13.64,6.25L294,193.26l-56.23,90.11.1,7.23S229.47,290.43,224.22,284.2Z" transform="translate(-170.99 -168.47)"/><polygon class="cls-12" points="48.8 166.24 52.41 156.19 132.88 151.95 135.93 166.24 48.8 166.24"/><path class="cls-13" d="M241.87,323.69s12.64-4.39,17.47-27.73h4.77s2.23,18.8,17.51,25.63Z" transform="translate(-170.99 -168.47)"/><path class="cls-14" d="M316.57,236.69a52.07,52.07,0,0,1-1.88,14,53.21,53.21,0,0,1-51.34,39.24,51.59,51.59,0,0,1-8.38-.67,53.17,53.17,0,0,1-40.85-32.34v0a53.12,53.12,0,0,1,2.57-45.77,53.23,53.23,0,0,1,46.66-27.64h.33a3.24,3.24,0,0,1,.45,0,53.06,53.06,0,0,1,40.4,19.5,51.74,51.74,0,0,1,6.61,10.27A52.93,52.93,0,0,1,316.57,236.69Z" transform="translate(-170.99 -168.47)"/><path class="cls-11" d="M221.41,282.49,217,290.6c17.66,11.19,74.65,22.55,102.35-18.85,29.8-44.56-2.78-92.44-26.32-103.28l-6.84,13.29c26.26,13.11,44.63,44.13,31.14,77.18C299,303.81,245.39,298.29,221.41,282.49Z" transform="translate(-170.99 -168.47)"/><polygon class="cls-15" points="105.03 153.42 107.07 166.24 125.75 166.24 125.75 152.32 105.03 153.42"/><path class="cls-16" d="M316.57,236.69a52.07,52.07,0,0,1-1.88,14,11.47,11.47,0,0,1-5.77-.73c-2.74-1.19-5.56-2.08-8.31-3.43-5.52-2.71-4.83-7.5-7-12.59a50.91,50.91,0,0,0-2.7-6.23c-1.18-2.06-3.22-3.9-4.15-6-3.35,1,1.24,4.11,1.79,5.3,1.14,2.55-1,4.46-1.7,6.7-1.47,4.68-.65,10.26-5.23,13-1.64,1-3.28,2.26-4.88,3s-3.72.36-5.56,1c-2.71.91-8.16,7.76-10.44,4.34-1.36-2.06.9-4.41.49-6.29s-2-2.86-2.2-5.13c-.18-2.1-.29-4-.47-6a55.4,55.4,0,0,0-.86-5.59c-.36-2,0-4.16-.29-6.25-.16-1.13-.8-1.72-.77-2.92,0-1,.82-1.93.81-3-.06-2.73-2.32-2.87.51-4.82a22.25,22.25,0,0,1,4.88-2.35c1.55-.33,3.77-.06,5.56-.3a18.84,18.84,0,0,1,5.66,0c2.17.4,4.41,1.79,6.56,2,1.69.13,3.83,0,5.67-.07.58-2.44-4.12-4.72-6.16-5.69-.91,6.13-6.82-.09-9.15-.14,2-3.86,4.83-7.4,8.88-7.76,3.26-.29,9.09-1.1,11.87.49-3.13,5.37,9.31,6.43,11.74,7.92a40.6,40.6,0,0,0,7,3.89c.23.09.45.16.69.23A52.93,52.93,0,0,1,316.57,236.69Z" transform="translate(-170.99 -168.47)"/><path class="cls-17" d="M284.7,269.38c-.75-2.09-3.76-4.05-5.5-5.37-2.68-2-4.4-1.38-7.36-1.85-1.69-.27-1.33-.52-2.66-1.13s-2.14-1.3-3.69-1.11c-3.25.39-3.55,3.32-5.27,5.73-1.55,2.17-3.55,5.3-5.43,7.09a31.24,31.24,0,0,0,3.19.94,25.46,25.46,0,0,1,3.82,2.2c2.33,1.27,3.83,3.11,6,4.62,5,3.53,10.89-.32,14.75-3.91C283.93,275.28,288.14,270.65,284.7,269.38Z" transform="translate(-170.99 -168.47)"/><path class="cls-18" d="M246.41,194c-1,1.93-4,4.41-5.76,5.61-2.26,1.57-4.12,4-6.76,5.1-5,1.93-15.65,8.86-17.2,6.43a53.21,53.21,0,0,1,26.95-23.85C245.66,188.87,247.41,192,246.41,194Z" transform="translate(-170.99 -168.47)"/><path class="cls-19" d="M263.68,183.47a4.68,4.68,0,0,0-.18.48l.07-.48Z" transform="translate(-170.99 -168.47)"/><path class="cls-20" d="M224.22,202.93a52.16,52.16,0,0,0-10.91,33.76s24.29,13.12,48.43-3.64S309,216.27,309,216.27s-5-27.23-43.31-31.18C243.45,182.79,224.22,202.93,224.22,202.93Z" transform="translate(-170.99 -168.47)"/><path class="cls-21" d="M269,309.82l-18.13,6.31S256.57,308,258.1,301l7.08-.13A32.75,32.75,0,0,0,269,309.82Z" transform="translate(-170.99 -168.47)"/><polygon class="cls-22" points="131.32 163.59 114.99 53.65 128.11 50.71 141.49 163.55 131.32 163.59"/><polygon class="cls-23" points="128.11 50.71 163.93 69.56 177.98 163.55 141.49 163.55 128.11 50.71"/><polygon class="cls-24" points="120.46 90.47 132.54 88.11 169.02 103.57 172.96 129.96 136.33 120.03 125.23 122.61 120.46 90.47"/><polygon class="cls-25" points="136.33 120.03 132.54 88.11 169.02 103.57 172.96 129.96 136.33 120.03"/><polygon class="cls-26" points="161.1 163.55 156.17 75.79 171.14 75.79 176.68 163.55 161.1 163.55"/><polygon class="cls-27" points="171.14 75.79 199.53 95.84 202.78 163.55 176.68 163.55 171.14 75.79"/><polygon class="cls-28" points="156.83 87.57 171.81 86.42 172.1 90.96 157.06 91.62 156.83 87.57"/><polygon class="cls-29" points="175.97 152.25 160.46 152.25 160.81 158.45 176.36 158.45 175.97 152.25"/><polygon class="cls-30" points="202.38 155.35 175.97 152.25 176.36 158.45 202.6 159.91 202.38 155.35"/><polygon class="cls-30" points="171.81 86.42 199.83 102.06 199.96 104.75 172.1 90.96 171.81 86.42"/><polygon class="cls-31" points="181.58 163.55 176.65 75.79 191.63 75.79 197.16 163.55 181.58 163.55"/><polygon class="cls-32" points="191.63 75.79 220.01 95.84 223.26 163.55 197.16 163.55 191.63 75.79"/><polygon class="cls-33" points="177.31 87.57 192.3 86.42 192.59 90.96 177.54 91.62 177.31 87.57"/><polygon class="cls-34" points="196.45 152.25 180.95 152.25 181.29 158.45 196.84 158.45 196.45 152.25"/><polygon class="cls-30" points="222.87 155.35 196.45 152.25 196.84 158.45 223.09 159.91 222.87 155.35"/><polygon class="cls-30" points="192.3 86.42 220.31 102.06 220.44 104.75 192.59 90.96 192.3 86.42"/><polygon class="cls-35" points="241.97 163.55 243.6 61.38 212.57 63.58 210.38 163.55 241.97 163.55"/><polygon class="cls-36" points="243.6 61.38 274.63 72.27 275.96 162.82 241.97 163.55 243.6 61.38"/><polygon class="cls-37" points="214.62 117.61 225.78 96.53 236.33 118.15 225.03 136.38 214.62 117.61"/><polygon class="cls-38" points="212.29 76.35 243.35 77.28 243.26 82.53 212.16 82.53 212.29 76.35"/><polygon class="cls-39" points="210.66 150.9 242.17 150.9 242.1 155.35 210.54 156.34 210.66 150.9"/><polygon class="cls-40" points="335.42 161.7 443.95 166.72 443.95 186.23 331.87 186.23 335.42 161.7"/><polygon class="cls-41" points="0 162.89 335.42 161.7 331.87 186.23 0 182.41 0 162.89"/></g></g></svg>