<svg xmlns="http://www.w3.org/2000/svg" xmlns:xlink="http://www.w3.org/1999/xlink" viewBox="0 0 196.5 219.63"><defs><style>.cls-1{isolation:isolate;}.cls-2,.cls-3,.cls-4,.cls-5,.cls-6,.cls-7{fill-rule:evenodd;}.cls-2{fill:url(#Áåçûìÿííûé_ãðàäèåíò_59);}.cls-3{fill:url(#Áåçûìÿííûé_ãðàäèåíò_11);}.cls-4{fill:url(#Áåçûìÿííûé_ãðàäèåíò_11-2);}.cls-5{fill:url(#Áåçûìÿííûé_ãðàäèåíò_173);}.cls-6{fill:url(#Áåçûìÿííûé_ãðàäèåíò_118);}.cls-7{fill:#88222a;opacity:0.5;mix-blend-mode:multiply;}</style><linearGradient id="Áåçûìÿííûé_ãðàäèåíò_59" x1="96.18" y1="219.63" x2="96.18" gradientUnits="userSpaceOnUse"><stop offset="0" stop-color="#ec6438"/><stop offset="1" stop-color="#ef782c"/></linearGradient><linearGradient id="Áåçûìÿííûé_ãðàäèåíò_11" x1="189.77" y1="219.63" x2="189.77" gradientUnits="userSpaceOnUse"><stop offset="0.01" stop-color="#7a1d37"/><stop offset="0.98" stop-color="#a84121"/></linearGradient><linearGradient id="Áåçûìÿííûé_ãðàäèåíò_11-2" x1="94.5" y1="210.32" x2="94.5" y2="6.61" xlink:href="#Áåçûìÿííûé_ãðàäèåíò_11"/><linearGradient id="Áåçûìÿííûé_ãðàäèåíò_173" x1="96.26" y1="210.32" x2="96.26" y2="10.61" gradientUnits="userSpaceOnUse"><stop offset="0" stop-color="#f8c6cb"/><stop offset="1" stop-color="#ffebb9"/></linearGradient><linearGradient id="Áåçûìÿííûé_ãðàäèåíò_118" x1="94.9" y1="192.17" x2="94.9" y2="32.32" gradientUnits="userSpaceOnUse"><stop offset="0.01" stop-color="#173c6b"/><stop offset="1" stop-color="#1d5b73"/></linearGradient></defs><g class="cls-1"><g id="Livello_1" data-name="Livello 1"><polygon class="cls-2" points="2.52 218.46 0 0 192.35 0 183.03 219.63 2.52 218.46"/><polygon class="cls-3" points="192.35 0 196.5 1.67 189.41 219.63 183.03 219.63 192.35 0"/><polygon class="cls-4" points="11.88 210.32 8.89 6.61 180.11 6.61 180.11 10.61 12.42 11.07 14.34 210.32 11.88 210.32"/><polygon class="cls-5" points="12.42 11.07 14.34 210.32 175.45 210.32 180.11 10.61 12.42 11.07"/><polygon class="cls-6" points="35.57 192.17 33.79 32.32 156.01 32.32 150.51 192.17 35.57 192.17"/><polygon class="cls-7" points="8.89 6.61 12.42 24.92 14.53 16.77 179.9 16.77 180.11 6.61 8.89 6.61"/></g></g></svg>