<svg xmlns="http://www.w3.org/2000/svg" xmlns:xlink="http://www.w3.org/1999/xlink" viewBox="0 0 206.77 163.43"><defs><style>.cls-1{isolation:isolate;}.cls-2{fill:#363b40;}.cls-10,.cls-11,.cls-12,.cls-13,.cls-2,.cls-3,.cls-4,.cls-5,.cls-6,.cls-7,.cls-8,.cls-9{fill-rule:evenodd;}.cls-3{fill:url(#Áåçûìÿííûé_ãðàäèåíò_193);}.cls-4{fill:url(#Áåçûìÿííûé_ãðàäèåíò_193-2);}.cls-5{opacity:0.2;fill:url(#Áåçûìÿííûé_ãðàäèåíò_358);}.cls-10,.cls-13,.cls-5{mix-blend-mode:multiply;}.cls-6{fill:url(#Áåçûìÿííûé_ãðàäèåíò_173);}.cls-10,.cls-13,.cls-7{opacity:0.5;}.cls-7{mix-blend-mode:screen;fill:url(#Áåçûìÿííûé_ãðàäèåíò_346);}.cls-8{fill:url(#Áåçûìÿííûé_ãðàäèåíò_24);}.cls-9{fill:url(#Áåçûìÿííûé_ãðàäèåíò_173-2);}.cls-10{fill:url(#Áåçûìÿííûé_ãðàäèåíò_84);}.cls-11{fill:url(#Áåçûìÿííûé_ãðàäèåíò_2);}.cls-12{fill:url(#Áåçûìÿííûé_ãðàäèåíò_173-3);}.cls-13{fill:url(#Áåçûìÿííûé_ãðàäèåíò_84-2);}</style><linearGradient id="Áåçûìÿííûé_ãðàäèåíò_193" x1="491.43" y1="314.65" x2="491.43" y2="259.48" gradientUnits="userSpaceOnUse"><stop offset="0.03" stop-color="#5b8d66"/><stop offset="0.99" stop-color="#1a4a50"/></linearGradient><linearGradient id="Áåçûìÿííûé_ãðàäèåíò_193-2" x1="444.53" y1="327.7" x2="444.53" y2="242.44" xlink:href="#Áåçûìÿííûé_ãðàäèåíò_193"/><linearGradient id="Áåçûìÿííûé_ãðàäèåíò_358" x1="441.78" y1="327.7" x2="441.78" y2="246.6" gradientUnits="userSpaceOnUse"><stop offset="0" stop-color="#891353"/><stop offset="1" stop-color="#fff"/></linearGradient><linearGradient id="Áåçûìÿííûé_ãðàäèåíò_173" x1="463.45" y1="302.14" x2="463.45" y2="256.75" gradientUnits="userSpaceOnUse"><stop offset="0" stop-color="#f8c6cb"/><stop offset="1" stop-color="#ffebb9"/></linearGradient><linearGradient id="Áåçûìÿííûé_ãðàäèåíò_346" x1="471.75" y1="280.38" x2="471.75" y2="242.44" gradientUnits="userSpaceOnUse"><stop offset="0" stop-color="#010101"/><stop offset="1" stop-color="#f7b8a5"/></linearGradient><linearGradient id="Áåçûìÿííûé_ãðàäèåíò_24" x1="464.02" y1="405.87" x2="464.02" y2="373.81" gradientUnits="userSpaceOnUse"><stop offset="0" stop-color="#77721f"/><stop offset="1" stop-color="#818222"/></linearGradient><linearGradient id="Áåçûìÿííûé_ãðàäèåíò_173-2" x1="374.71" y1="390.9" x2="548.97" y2="390.9" xlink:href="#Áåçûìÿííûé_ãðàäèåíò_173"/><linearGradient id="Áåçûìÿííûé_ãðàäèåíò_84" x1="411.49" y1="405.87" x2="411.49" y2="373.81" gradientUnits="userSpaceOnUse"><stop offset="0" stop-color="#891353"/><stop offset="1" stop-color="#db6d57"/></linearGradient><linearGradient id="Áåçûìÿííûé_ãðàäèåíò_2" x1="449" y1="379.28" x2="449" y2="324.54" gradientUnits="userSpaceOnUse"><stop offset="0.01" stop-color="#9d1447"/><stop offset="1" stop-color="#d20f40"/></linearGradient><linearGradient id="Áåçûìÿííûé_ãðàäèåíò_173-3" x1="359.7" y1="352.97" x2="533.95" y2="352.97" xlink:href="#Áåçûìÿííûé_ãðàäèåíò_173"/><linearGradient id="Áåçûìÿííûé_ãðàäèåíò_84-2" x1="396.47" y1="379.28" x2="396.47" y2="324.54" xlink:href="#Áåçûìÿííûé_ãðàäèåíò_84"/></defs><g class="cls-1"><g id="Livello_1" data-name="Livello 1"><path class="cls-2" d="M472.56,304.69s17.22-12.77,22.16-38l5.4.29s-5.08,32.09-28.37,40.35Z" transform="translate(-353.02 -242.44)"/><path class="cls-3" d="M476.6,259.48h34.52s-1.68,45.94-39.37,55.17v-7.34S495.14,294.8,500.12,267l-23.68-1.84Z" transform="translate(-353.02 -242.44)"/><path class="cls-4" d="M420.76,327.7s-15-32.62-15-81.1l77.3-4.16s1.94,48.07-7.48,85.26Z" transform="translate(-353.02 -242.44)"/><path class="cls-5" d="M405.8,246.6s4.76,46.52,24.41,63.81,47.54,7.71,47.54,7.71l-2.13,9.58H420.76S405.8,289.82,405.8,246.6Z" transform="translate(-353.02 -242.44)"/><path class="cls-6" d="M480.05,279.44c0,12.54-7.43,22.7-16.6,22.7s-16.61-10.16-16.61-22.7,7.44-22.69,16.61-22.69S480.05,266.91,480.05,279.44Z" transform="translate(-353.02 -242.44)"/><path class="cls-7" d="M463.45,243.5s3.3,22.17,2.75,36.88l12.21-.94s1.64-25.64,1.64-37Z" transform="translate(-353.02 -242.44)"/><path class="cls-8" d="M369.52,405.87s-2.87-17,0-32.06l190.27,4.37v4.22H549s-2.23,10.18-.64,16.46l9.87.32.31,6Z" transform="translate(-353.02 -242.44)"/><path class="cls-9" d="M549,382.4H438.24l-62-2.09s-3.34,13.07,0,21.18l172.13-2.63S547.78,388.12,549,382.4Z" transform="translate(-353.02 -242.44)"/><path class="cls-10" d="M450.18,375.66l-2.07,6.74H455s-3.34,10.83-3.42,17.94h-2.79l.16,5.53H369.52s-3.34-19.41,0-32.06Z" transform="translate(-353.02 -242.44)"/><path class="cls-11" d="M354.5,379.28s-2.86-39.7,0-54.74l190.27,4.37v4.22H534s-2.22,32.85-.63,39.14l9.86.31.32,6Z" transform="translate(-353.02 -242.44)"/><path class="cls-12" d="M534,333.13H423.23L361.18,331s-3.34,35.74,0,43.85l172.14-2.62S532.76,338.85,534,333.13Z" transform="translate(-353.02 -242.44)"/><path class="cls-13" d="M435.16,326.4l-2.07,6.73h6.84s-3.34,33.5-3.42,40.61h-2.78l.16,5.54H354.5s-3.34-42.09,0-54.74Z" transform="translate(-353.02 -242.44)"/></g></g></svg>