<svg xmlns="http://www.w3.org/2000/svg" xmlns:xlink="http://www.w3.org/1999/xlink" viewBox="0 0 405.39 264.77"><defs><style>.cls-1{isolation:isolate;}.cls-2{fill:#16162c;}.cls-10,.cls-2,.cls-3,.cls-4,.cls-5,.cls-6,.cls-8,.cls-9{fill-rule:evenodd;}.cls-3{fill:url(#Áåçûìÿííûé_ãðàäèåíò_301);}.cls-4{fill:url(#Áåçûìÿííûé_ãðàäèåíò_307);}.cls-10,.cls-5,.cls-6{opacity:0.5;}.cls-10,.cls-5{mix-blend-mode:multiply;}.cls-5{fill:url(#Áåçûìÿííûé_ãðàäèåíò_319);}.cls-6{mix-blend-mode:screen;fill:url(#Áåçûìÿííûé_ãðàäèåíò_208);}.cls-7{fill:#e62a38;}.cls-8{fill:url(#Áåçûìÿííûé_ãðàäèåíò_329);}.cls-9{fill:url(#Áåçûìÿííûé_ãðàäèåíò_325);}.cls-10{fill:#894166;}</style><linearGradient id="Áåçûìÿííûé_ãðàäèåíò_301" x1="266.22" y1="407.99" x2="266.22" y2="175.09" gradientUnits="userSpaceOnUse"><stop offset="0.01" stop-color="#281b42"/><stop offset="1" stop-color="#332e46"/></linearGradient><linearGradient id="Áåçûìÿííûé_ãðàäèåíò_307" x1="212.4" y1="219.09" x2="212.4" y2="12.19" gradientUnits="userSpaceOnUse"><stop offset="0.01" stop-color="#3b2b51"/><stop offset="1" stop-color="#4a465b"/></linearGradient><linearGradient id="Áåçûìÿííûé_ãðàäèåíò_319" x1="266.22" y1="407.99" x2="266.22" y2="312.52" gradientUnits="userSpaceOnUse"><stop offset="0" stop-color="#4e2463"/><stop offset="1" stop-color="#90939a"/></linearGradient><linearGradient id="Áåçûìÿííûé_ãðàäèåíò_208" x1="340.62" y1="338.7" x2="340.62" y2="182.13" gradientUnits="userSpaceOnUse"><stop offset="0" stop-color="#010101"/><stop offset="1" stop-color="#3e2d36"/></linearGradient><linearGradient id="Áåçûìÿííûé_ãðàäèåíò_329" y1="45.58" x2="37.73" y2="45.58" gradientUnits="userSpaceOnUse"><stop offset="0" stop-color="#ffcc1f"/><stop offset="1" stop-color="#f59b38"/></linearGradient><linearGradient id="Áåçûìÿííûé_ãðàäèåíò_325" x1="3.74" y1="85.27" x2="43.21" y2="85.27" gradientUnits="userSpaceOnUse"><stop offset="0" stop-color="#b3b312"/><stop offset="1" stop-color="#a0a51d"/></linearGradient></defs><g class="cls-1"><g id="Livello_1" data-name="Livello 1"><polygon class="cls-2" points="192.51 225.26 201.25 261.13 229.39 261.13 240.72 225.26 192.51 225.26"/><path class="cls-2" d="M458.1,400.21a12.81,12.81,0,0,1-12.82,13.23H87.16a12.81,12.81,0,0,1-12.82-13.23L76.82,318l.28-125a12.8,12.8,0,0,1,12.74-12.41l349.09,7a12.82,12.82,0,0,1,12.91,12.42L457.41,378Z" transform="translate(-52.72 -175.09)"/><path class="cls-3" d="M458.1,394.76A12.81,12.81,0,0,1,445.28,408H87.16a12.81,12.81,0,0,1-12.82-13.23l2.48-82.24.28-125a12.79,12.79,0,0,1,12.74-12.41L438.93,182a12.81,12.81,0,0,1,12.91,12.42l5.57,178.12Z" transform="translate(-52.72 -175.09)"/><polygon class="cls-4" points="37.75 12.19 33.71 219.09 391.08 216.6 387.48 19.25 37.75 12.19"/><path class="cls-5" d="M458.1,394.76A12.81,12.81,0,0,1,445.28,408H87.16a12.81,12.81,0,0,1-12.82-13.23l2.48-82.24h77.35l0,69.88h13.34l-2.4-36.3,61.37-1.76v40.2h9.38l-2.16-20.22,223.69,8.26Z" transform="translate(-52.72 -175.09)"/><path class="cls-6" d="M226.31,183.64,454.93,338.7l-2.7-143.65A13.16,13.16,0,0,0,439,182.13Z" transform="translate(-52.72 -175.09)"/><circle class="cls-7" cx="378.2" cy="225.26" r="3.22"/><polygon class="cls-2" points="145.13 264.31 145.13 257.64 281.86 254.9 281.86 264.77 145.13 264.31"/><polygon class="cls-8" points="3.74 33.74 30.76 43.71 37.73 52.27 27.42 57.43 0 50.36 3.74 33.74"/><polygon class="cls-9" points="3.74 78.2 30.76 74.05 43.21 82.77 34.49 90.67 5.82 96.48 3.74 78.2"/><polygon class="cls-10" points="24.25 75.05 23.48 92.9 34.49 90.67 43.21 82.77 30.76 74.05 24.25 75.05"/><polygon class="cls-10" points="24.31 41.34 24.28 56.62 27.42 57.43 37.73 52.27 30.76 43.71 24.31 41.34"/></g></g></svg>