<svg id="Livello_1" data-name="Livello 1" xmlns="http://www.w3.org/2000/svg" viewBox="0 0 183.08 275.19"><defs><style>.cls-1,.cls-17{fill:#89a5b5;}.cls-1,.cls-10,.cls-11,.cls-12,.cls-13,.cls-14,.cls-15,.cls-16,.cls-18,.cls-19,.cls-2,.cls-3,.cls-4,.cls-5,.cls-6,.cls-7,.cls-8,.cls-9{fill-rule:evenodd;}.cls-2{fill:#43525b;}.cls-3{fill:#667983;}.cls-4{fill:#838a8f;}.cls-5{fill:#abced2;}.cls-6{fill:#39a0bb;}.cls-7{fill:#2c8ea7;}.cls-8{fill:#9dc5c9;}.cls-9{fill:#fff;}.cls-10{fill:#ce8d5d;}.cls-11{fill:#e0b490;}.cls-12{fill:#bed9da;}.cls-13{fill:#9ac4c6;}.cls-14{fill:#a6c3d2;}.cls-15{fill:#9bb7c6;}.cls-16{fill:#b7c9d1;}.cls-18{fill:#c4d7de;}.cls-19{fill:#466877;}</style></defs><path class="cls-1" d="M409.64,256.1s2.57-53.14,1.75-72.19a28.71,28.71,0,0,0-6.91-17.86c-2.44-3-5.28-5.15-8-5.53-4.85-.73-7.94.25-1.58,2.23,3.46,1.09,6,3.79,7.83,6.74,3.87,6.28,4.47,11.41,4.54,18.26l-.71,66.9Z" transform="translate(-329.89 -158.48)"/><path class="cls-1" d="M404.33,256.14s-17.88-50.24-22.41-68.78a28.86,28.86,0,0,1,1.66-19.08c1.53-3.53,3.65-6.4,6.11-7.53,4.47-2.05,7.7-2,2.15,1.73-3,2-4.71,5.29-5.64,8.65-2,7.11-1.12,12.18.73,18.79l19.91,64Z" transform="translate(-329.89 -158.48)"/><path class="cls-1" d="M400.4,255.89s-19.72-37.62-27.08-59.71,12.13-36.79,18.76-37.62c6.6-1.05,29.42,7.63,28.5,30.9s-8.75,64.8-8.75,64.8l-3.65.67c3.42-20.66,6.93-41.45,8.64-62.12.76-9.2-2.15-21.75-12.19-27.09-11.62-6.17-13.16-5.95-22.6,3.21-8.15,7.92-7.47,20.78-4.16,29.41,7.41,19.46,16.5,38.45,26.22,57.17Z" transform="translate(-329.89 -158.48)"/><path class="cls-2" d="M413.4,258.93c16.71,40.9,16,66.9,15.71,111.13,0,4.44-11.3,6.8-12.74,1.71-9.45-33.43-18.86-68.08-15.51-111.06l-2.56.36a4,4,0,0,1-4.5-3.37h0a4,4,0,0,1,3.38-4.5l18.61-2.64a4,4,0,0,1,4.49,3.37h0a4,4,0,0,1-3.37,4.5Z" transform="translate(-329.89 -158.48)"/><path class="cls-3" d="M423.09,374.52c-2.94.46-6-.25-6.72-2.75-9.45-33.43-18.86-68.08-15.51-111.06l-2.56.36a4,4,0,0,1-4.5-3.37h0a4,4,0,0,1,3.38-4.5l8.5-1.2Z" transform="translate(-329.89 -158.48)"/><polygon class="cls-2" points="71.04 102.05 83.23 100.3 82.96 102.85 70.77 104.58 71.04 102.05"/><path class="cls-4" d="M399.06,253.81a2.15,2.15,0,1,1,.61,4.24,2.15,2.15,0,1,1-.61-4.24Z" transform="translate(-329.89 -158.48)"/><path class="cls-4" d="M416.45,364.45c-8.34-30-15.75-61.49-13.27-99.44l2.35-.33c-2.46,37.94,4.93,69.41,13.27,99.43Z" transform="translate(-329.89 -158.48)"/><path class="cls-1" d="M441.67,389.94s-4.65-74.77-5.84-105.59c-.27-7.36-3.7-14.36-3.48-15.08,1.17-3.77,7.29-1,7.29-1s3.61-12,4.3-4.71c.39,4.09-2.3,25.57-1.77,31.09,3.3,35.07,8.59,92.82,7.55,94.1C448.25,390.57,441.67,389.94,441.67,389.94Z" transform="translate(-329.89 -158.48)"/><path class="cls-5" d="M443.1,277.49c-.59,6.9-1.21,14.25-.93,17.16,2.67,28.29,6.62,71.34,7.5,87.59-1.73,1.16-3.09,1.88-3.09,1.88s-6.87-86.91-6.4-93.47C440.48,286.27,441.68,280.55,443.1,277.49Z" transform="translate(-329.89 -158.48)"/><path class="cls-6" d="M440.85,409.28l-.35-37.85c0-.43,0-.17.24-.06a3.72,3.72,0,0,0,.38.11,7.21,7.21,0,0,0,3.52.51c2.41-.17,4.3-1.17,4.23-2.23a.89.89,0,0,0-.17-.43,1.17,1.17,0,0,0,.06-.38s6.51,31.73,6.8,40.47a2,2,0,0,1,.15.57,1.78,1.78,0,0,1-.18.9c0,.38-.13.64-.26.71a4,4,0,0,1-.47.26,10.6,10.6,0,0,1-6.2,2.18c-4.07.3-7.48-1.05-7.61-3a1.08,1.08,0,0,1,0-.4A3.92,3.92,0,0,1,440.85,409.28Z" transform="translate(-329.89 -158.48)"/><path class="cls-7" d="M445.67,371.85a5,5,0,0,0,2.94-1.35h.46c1.31,6.44,6.24,31.34,6.49,38.93a2,2,0,0,1,.15.57,1.78,1.78,0,0,1-.18.9c0,.38-.13.64-.26.71a4,4,0,0,1-.47.26,9.55,9.55,0,0,1-4.82,2Z" transform="translate(-329.89 -158.48)"/><path class="cls-5" d="M433.08,224.94l1.06-2.63a26.94,26.94,0,0,1,5.55,3.29c6.17,4.51,10.05,14,11.06,25.4.88,10-.41,22-4.94,27-1.31,1.46-2.46,2.23-3.12,4.36-.18.59-.83-1.07-1.17-2.12C439,272.32,433.08,224.94,433.08,224.94Z" transform="translate(-329.89 -158.48)"/><path class="cls-8" d="M441.81,228.65c4.34,5.09,7.07,13.13,7.89,22.42.88,10.05-.41,22-4.94,27a15.3,15.3,0,0,0-2.6,3.09l-.41-.12c2.69-3.68,4.27-10.56,5.15-15.35C449.21,253.26,446.25,239.76,441.81,228.65Z" transform="translate(-329.89 -158.48)"/><path class="cls-1" d="M430.33,253.53c1.21,17,5,30.6,8.53,30.34s5.35-14.24,4.12-31.24-5.05-30.6-8.54-30.35S429.11,236.53,430.33,253.53Z" transform="translate(-329.89 -158.48)"/><path class="cls-5" d="M431.37,253c1,14.27,4.24,25.67,7.17,25.46S443,266.48,442,252.21s-4.23-25.66-7.16-25.45S430.35,238.71,431.37,253Z" transform="translate(-329.89 -158.48)"/><path class="cls-8" d="M440.09,238a49.21,49.21,0,0,0-1.9-6.87,8.17,8.17,0,0,0-2.4-3.28,2.24,2.24,0,0,0-2.11-.4c-.95,1.22-1.68,3.9-2.13,7.53,3.39,1.67,8.17,6.45,8.63,6.38C440.38,241.36,440.36,240,440.09,238Z" transform="translate(-329.89 -158.48)"/><path class="cls-9" d="M441.7,375.08c1-.61,1.52.58,1.57,1.36s1.66,32.72.93,33.39-1.26.94-1.53.34S441.05,379.62,441.7,375.08Z" transform="translate(-329.89 -158.48)"/><path class="cls-10" d="M375.69,194l11.15,46.17c3.55,14.6-6.28,27.75-6.59,42.27L413.57,397l-.21.05c1.27,5.25-2.49,10.68-8.41,12.12s-11.74-1.68-13-6.93a9,9,0,0,1-.23-2.36L369.18,285.16c-7.32-12.08-24.12-17.87-27.5-31.9l-11.75-48.51c-1.57-6.44,43.93-18.27,45.76-10.76Zm25.22,199.78a3.62,3.62,0,1,0,4.37,2.67A3.62,3.62,0,0,0,400.91,393.77Z" transform="translate(-329.89 -158.48)"/><path class="cls-11" d="M375.69,194v.1l-45.67,11-.1-.38C328.36,198.31,373.86,186.48,375.69,194Z" transform="translate(-329.89 -158.48)"/><path class="cls-12" d="M417.62,407.36c10.53-31.07,39.32-99.42,47.27-123.55l7,2.26a83.92,83.92,0,0,0-4.21,10.18c-7.39,27.37-19.26,91.49-26.75,119.55C434,442,408.45,434.46,417.62,407.36Z" transform="translate(-329.89 -158.48)"/><path class="cls-5" d="M471.91,286.07a84.93,84.93,0,0,0-4.21,10.18c-8.2,30.4-18.88,92.44-24.27,109.64-4.87,20.26-9.47,22.69-9.47,22.69s31.3-133,33.22-137.25a32,32,0,0,1,3.11-5.78Z" transform="translate(-329.89 -158.48)"/><path class="cls-9" d="M466.85,284.44a4.37,4.37,0,0,1-.45,2.1S429,392.23,425,404c-.84,2.56-2.36,1.65-1.63-.6L466.08,284.2Z" transform="translate(-329.89 -158.48)"/><path class="cls-12" d="M464.5,286.05c4-10-7.61-41.41-2.44-64,8.54-37.3,61.53-21.47,49,12.93-7.48,20.55-34.62,40.87-39.16,51.08-1.38,3.08-6.63.64-6.63.64Z" transform="translate(-329.89 -158.48)"/><path class="cls-5" d="M467.1,279.85c3.62-9-6.83-37.13-2.19-57.37,7.66-33.48,55.19-19.28,43.95,11.58-6.71,18.43-31,36.66-35.12,45.8-1.24,2.79-5.95.59-5.95.59Z" transform="translate(-329.89 -158.48)"/><path class="cls-13" d="M467.88,274.81c.11-11.95-6.93-35-3-52.33,2.29-10,8.15-15.75,14.92-18.07,1.11,1.35,1.79,2.25,1.79,2.25C459,221.51,467,249.75,470.31,272.73A5.53,5.53,0,0,1,467.88,274.81Z" transform="translate(-329.89 -158.48)"/><path class="cls-13" d="M467.1,279.85a14.17,14.17,0,0,0,.78-5.1c9.55-8,13.2-9.61,17.53-20.33,8.29-20.5,8.14-37.2-6-49.86,15.95-5.79,37.35,7.69,29.42,29.5-6.71,18.43-31,36.66-35.12,45.8-1.24,2.79-5.95.59-5.95.59Z" transform="translate(-329.89 -158.48)"/><path class="cls-14" d="M365.85,288.72H472.2V427.57h0c-.79,3.39-24.29,6.09-53.14,6.09s-52.36-2.7-53.16-6.09h0V288.72Z" transform="translate(-329.89 -158.48)"/><path class="cls-15" d="M472.2,298.77v128.8h0c-.79,3.39-24.29,6.09-53.14,6.09s-52.36-2.7-53.16-6.09h0v-6.23A159.78,159.78,0,0,0,387,409.85C409.49,395.28,447.79,362.43,472.2,298.77Z" transform="translate(-329.89 -158.48)"/><path class="cls-14" d="M365.35,287.3H472.7a3.58,3.58,0,0,1,3.57,3.57h0a3.58,3.58,0,0,1-3.57,3.59H365.35a3.61,3.61,0,0,1-3.59-3.59h0A3.6,3.6,0,0,1,365.35,287.3Z" transform="translate(-329.89 -158.48)"/><path class="cls-16" d="M365.35,287.3H472.7a3.57,3.57,0,0,1,3.54,3.14H361.8A3.59,3.59,0,0,1,365.35,287.3Z" transform="translate(-329.89 -158.48)"/><rect class="cls-17" x="35.98" y="135.97" width="106.33" height="3.62"/><path class="cls-18" d="M389.51,317.82V408.9c0,8.77-13.29,8.77-13.29,0V317.82C376.22,309,389.51,309,389.51,317.82Z" transform="translate(-329.89 -158.48)"/><path class="cls-1" d="M462.39,311V417.61c0,10.27-37.24,10.27-37.24,0V311C425.15,300.69,462.39,300.69,462.39,311Z" transform="translate(-329.89 -158.48)"/><path class="cls-1" d="M382.58,321.74a7.77,7.77,0,1,0-7.77-7.76A7.78,7.78,0,0,0,382.58,321.74Z" transform="translate(-329.89 -158.48)"/><path class="cls-19" d="M383.11,321.05A7.07,7.07,0,1,0,376,314,7.08,7.08,0,0,0,383.11,321.05Z" transform="translate(-329.89 -158.48)"/><path class="cls-1" d="M381.19,361.73a7.76,7.76,0,1,0-7.76-7.76A7.77,7.77,0,0,0,381.19,361.73Z" transform="translate(-329.89 -158.48)"/><path class="cls-19" d="M381.72,361.05a7.08,7.08,0,1,0-7.08-7.08A7.09,7.09,0,0,0,381.72,361.05Z" transform="translate(-329.89 -158.48)"/><path class="cls-1" d="M379.8,401.73A7.77,7.77,0,1,0,372,394,7.78,7.78,0,0,0,379.8,401.73Z" transform="translate(-329.89 -158.48)"/><path class="cls-19" d="M380.33,401.05a7.08,7.08,0,1,0-7.07-7.08A7.09,7.09,0,0,0,380.33,401.05Z" transform="translate(-329.89 -158.48)"/><path class="cls-1" d="M407.8,321.74A7.77,7.77,0,1,0,400,314,7.78,7.78,0,0,0,407.8,321.74Z" transform="translate(-329.89 -158.48)"/><path class="cls-19" d="M408.33,321.05a7.07,7.07,0,1,0-7.08-7.07A7.08,7.08,0,0,0,408.33,321.05Z" transform="translate(-329.89 -158.48)"/><path class="cls-1" d="M406.42,361.73a7.76,7.76,0,1,0-7.77-7.76A7.77,7.77,0,0,0,406.42,361.73Z" transform="translate(-329.89 -158.48)"/><path class="cls-19" d="M406.94,361.05a7.08,7.08,0,1,0-7.07-7.08A7.09,7.09,0,0,0,406.94,361.05Z" transform="translate(-329.89 -158.48)"/><path class="cls-1" d="M405,401.73a7.77,7.77,0,1,0-7.77-7.76A7.77,7.77,0,0,0,405,401.73Z" transform="translate(-329.89 -158.48)"/><path class="cls-19" d="M405.56,401.05a7.08,7.08,0,1,0-7.08-7.08A7.09,7.09,0,0,0,405.56,401.05Z" transform="translate(-329.89 -158.48)"/><path class="cls-1" d="M433,321.74a7.77,7.77,0,1,0-7.77-7.76A7.77,7.77,0,0,0,433,321.74Z" transform="translate(-329.89 -158.48)"/><path class="cls-19" d="M433.56,321.05a7.07,7.07,0,1,0-7.08-7.07A7.08,7.08,0,0,0,433.56,321.05Z" transform="translate(-329.89 -158.48)"/><path class="cls-1" d="M431.64,361.73a7.76,7.76,0,1,0-7.76-7.76A7.78,7.78,0,0,0,431.64,361.73Z" transform="translate(-329.89 -158.48)"/><path class="cls-19" d="M432.17,361.05a7.08,7.08,0,1,0-7.08-7.08A7.09,7.09,0,0,0,432.17,361.05Z" transform="translate(-329.89 -158.48)"/><path class="cls-1" d="M430.25,401.73a7.77,7.77,0,1,0-7.76-7.76A7.78,7.78,0,0,0,430.25,401.73Z" transform="translate(-329.89 -158.48)"/><path class="cls-19" d="M430.78,401.05A7.08,7.08,0,1,0,423.7,394,7.09,7.09,0,0,0,430.78,401.05Z" transform="translate(-329.89 -158.48)"/><path class="cls-1" d="M458.26,321.74a7.77,7.77,0,1,0-7.77-7.76A7.78,7.78,0,0,0,458.26,321.74Z" transform="translate(-329.89 -158.48)"/><path class="cls-19" d="M458.78,321.05a7.07,7.07,0,1,0-7.07-7.07A7.08,7.08,0,0,0,458.78,321.05Z" transform="translate(-329.89 -158.48)"/><path class="cls-1" d="M456.87,361.73A7.76,7.76,0,1,0,449.1,354,7.77,7.77,0,0,0,456.87,361.73Z" transform="translate(-329.89 -158.48)"/><path class="cls-19" d="M457.39,361.05a7.08,7.08,0,1,0-7.07-7.08A7.09,7.09,0,0,0,457.39,361.05Z" transform="translate(-329.89 -158.48)"/><path class="cls-1" d="M455.48,401.73a7.77,7.77,0,1,0-7.76-7.76A7.78,7.78,0,0,0,455.48,401.73Z" transform="translate(-329.89 -158.48)"/><path class="cls-19" d="M456,401.05a7.08,7.08,0,1,0-7.08-7.08A7.08,7.08,0,0,0,456,401.05Z" transform="translate(-329.89 -158.48)"/><path class="cls-1" d="M394.37,340.22a7.76,7.76,0,1,0-7.77-7.76A7.77,7.77,0,0,0,394.37,340.22Z" transform="translate(-329.89 -158.48)"/><path class="cls-19" d="M394.9,339.54a7.08,7.08,0,1,0-7.08-7.08A7.08,7.08,0,0,0,394.9,339.54Z" transform="translate(-329.89 -158.48)"/><path class="cls-1" d="M393,380.22a7.76,7.76,0,1,0-7.77-7.76A7.78,7.78,0,0,0,393,380.22Z" transform="translate(-329.89 -158.48)"/><path class="cls-19" d="M393.5,379.54a7.08,7.08,0,1,0-7.07-7.08A7.09,7.09,0,0,0,393.5,379.54Z" transform="translate(-329.89 -158.48)"/><path class="cls-1" d="M391.59,420.22a7.77,7.77,0,1,0-7.76-7.77A7.78,7.78,0,0,0,391.59,420.22Z" transform="translate(-329.89 -158.48)"/><path class="cls-19" d="M392.12,419.54a7.09,7.09,0,1,0-7.08-7.09A7.1,7.1,0,0,0,392.12,419.54Z" transform="translate(-329.89 -158.48)"/><path class="cls-1" d="M419.59,340.22a7.76,7.76,0,1,0-7.76-7.76A7.78,7.78,0,0,0,419.59,340.22Z" transform="translate(-329.89 -158.48)"/><path class="cls-19" d="M420.12,339.54a7.08,7.08,0,1,0-7.08-7.08A7.09,7.09,0,0,0,420.12,339.54Z" transform="translate(-329.89 -158.48)"/><path class="cls-1" d="M418.21,380.22a7.76,7.76,0,1,0-7.77-7.76A7.77,7.77,0,0,0,418.21,380.22Z" transform="translate(-329.89 -158.48)"/><path class="cls-19" d="M418.74,379.54a7.08,7.08,0,1,0-7.08-7.08A7.09,7.09,0,0,0,418.74,379.54Z" transform="translate(-329.89 -158.48)"/><path class="cls-1" d="M416.82,420.22a7.77,7.77,0,1,0-7.77-7.77A7.78,7.78,0,0,0,416.82,420.22Z" transform="translate(-329.89 -158.48)"/><path class="cls-19" d="M417.35,419.54a7.09,7.09,0,1,0-7.08-7.09A7.1,7.1,0,0,0,417.35,419.54Z" transform="translate(-329.89 -158.48)"/><path class="cls-1" d="M444.82,340.22a7.76,7.76,0,1,0-7.77-7.76A7.77,7.77,0,0,0,444.82,340.22Z" transform="translate(-329.89 -158.48)"/><path class="cls-19" d="M445.35,339.54a7.08,7.08,0,1,0-7.08-7.08A7.08,7.08,0,0,0,445.35,339.54Z" transform="translate(-329.89 -158.48)"/><path class="cls-1" d="M443.43,380.22a7.76,7.76,0,1,0-7.76-7.76A7.78,7.78,0,0,0,443.43,380.22Z" transform="translate(-329.89 -158.48)"/><path class="cls-19" d="M444,379.54a7.08,7.08,0,1,0-7.07-7.08A7.08,7.08,0,0,0,444,379.54Z" transform="translate(-329.89 -158.48)"/><path class="cls-1" d="M442,420.22a7.77,7.77,0,1,0-7.76-7.77A7.78,7.78,0,0,0,442,420.22Z" transform="translate(-329.89 -158.48)"/><path class="cls-19" d="M442.57,419.54a7.09,7.09,0,1,0-7.08-7.09A7.1,7.1,0,0,0,442.57,419.54Z" transform="translate(-329.89 -158.48)"/></svg>