<svg id="Livello_1" data-name="Livello 1" xmlns="http://www.w3.org/2000/svg" viewBox="0 0 264.35 266.49"><defs><style>.cls-1{fill:#354446;}.cls-1,.cls-3,.cls-4,.cls-5,.cls-6{fill-rule:evenodd;}.cls-2{fill:#516063;}.cls-3{fill:#693633;}.cls-4{fill:#a6c3d2;}.cls-5{fill:#c2d4d9;}.cls-6{fill:#c9dbdf;}</style></defs><path class="cls-1" d="M305.21,241.09h233a15.7,15.7,0,0,1,15.66,15.66v7.84a15.71,15.71,0,0,1-15.66,15.67h-233a15.71,15.71,0,0,1-15.67-15.67v-7.84A15.71,15.71,0,0,1,305.21,241.09Z" transform="translate(-289.54 -165.21)"/><rect class="cls-2" x="19.28" y="83.85" width="229.41" height="7.96"/><rect class="cls-2" x="19.28" y="98.88" width="229.41" height="7.95"/><path class="cls-3" d="M452.55,321.19l12.9-2.78,28,98.09-.34.07c1.44,6.67-3.12,13.29-10.13,14.82s-13.89-2.68-15.34-9.33L452.55,321.19Zm25.5,91.36a3.9,3.9,0,1,0,4.62,3A3.89,3.89,0,0,0,478.05,412.55Z" transform="translate(-289.54 -165.21)"/><path class="cls-4" d="M452.55,321.19l14.35-3.1c9.83-7.81,42.83-25.17,38.88-36.66l-28.36-82.55c-1.37-4-2.07-7.25-7.54-6l-36.07,8.25c-7.41,1.7-6.67,2-5.31,8.28Z" transform="translate(-289.54 -165.21)"/><path class="cls-5" d="M489.35,233.64l-4.26-12.43c-2.29,4.48-6,11.46-10,16.69-2.93,3.86-6.07,6.75-8.91,7-9.15.78-13.53-4-17.61-.43-1.49,1.31-5.42,6.7-9.77,13l3.08,14.41,7.48-12.71c5.35-9.09,5.14-3.65,15.86-2.62,7.78.76,12.71-6.88,12.71-6.88Z" transform="translate(-289.54 -165.21)"/><path class="cls-6" d="M501.79,292c3.32-3.77,5.08-7.41,4-10.61l-28.36-82.55c-1.37-4-2.07-7.25-7.54-6l-1.73.4Z" transform="translate(-289.54 -165.21)"/><path class="cls-3" d="M325.65,312.93l13.05-1.82,5.16-1.12c.55,6.53,13.05,96.85,2.49,98.32-7.13,1-13.67-3.66-14.62-10.42Z" transform="translate(-289.54 -165.21)"/><path class="cls-4" d="M325.44,313.48,344.06,312l1.36-34.18c1.32-33.72-29-79.6-28.35-71.68l.36,4.6Z" transform="translate(-289.54 -165.21)"/><path class="cls-6" d="M339.06,312.36l5-.41,1.36-34.18c1.32-33.72-29-79.6-28.35-71.68l.28,3.49c9.43,13.77,16.94,31.33,18.93,35.35,3.07,6.15,6,29.22,5.25,34.51C340.93,283.85,339.13,304.14,339.06,312.36Z" transform="translate(-289.54 -165.21)"/><path class="cls-3" d="M404.13,319.88l-14.8-2.45L383.52,316l-18.36,95.36.39.05c-1.27,7.66,4.25,14.94,12.31,16.27s15.64-3.78,16.9-11.43Z" transform="translate(-289.54 -165.21)"/><path class="cls-4" d="M404.36,320.51l-16.61-1.74c-12.06-7.63-20.22-13.75-17.15-27.22,8.1-32.81,10.35-89.39,33.91-115.93,7.52-8.47,17-15.11,16.09-6.12l-.55,5.23Z" transform="translate(-289.54 -165.21)"/><path class="cls-6" d="M376.91,311c-5.52-5-8.3-10.63-6.31-19.43,8.1-32.81,10.35-89.39,33.91-115.93,6.15-6.93,13.61-12.61,15.63-9.56C386.35,199.59,383.06,267.68,376.91,311Z" transform="translate(-289.54 -165.21)"/></svg>