<svg id="Livello_1" data-name="Livello 1" xmlns="http://www.w3.org/2000/svg" viewBox="0 0 294.78 297.56"><defs><style>.cls-1,.cls-2{fill:#858f94;}.cls-1,.cls-3{fill-rule:evenodd;}.cls-3{fill:#354446;}</style></defs><path class="cls-1" d="M220.64,165.88H495c13.63,0,13.62,20.64,0,20.64H220.64C207,186.52,207,165.88,220.64,165.88Z" transform="translate(-210.43 -165.88)"/><rect class="cls-2" x="102.13" y="93.14" width="8.12" height="142.72"/><path class="cls-3" d="M316.56,167.89h0a9.87,9.87,0,0,1,9.85,9.84V259a9.88,9.88,0,0,1-9.85,9.86h0a9.88,9.88,0,0,1-9.85-9.86V177.73a9.87,9.87,0,0,1,9.85-9.84Zm-.09,5a4.21,4.21,0,1,0,4.21,4.2A4.21,4.21,0,0,0,316.47,172.86Z" transform="translate(-210.43 -165.88)"/><path class="cls-1" d="M316.62,385h0a15.21,15.21,0,0,1,15.17,15.17v63.28h-4l-4.69-59.55-14,.39-4.19,59.16h-3.48V400.16A15.21,15.21,0,0,1,316.62,385Z" transform="translate(-210.43 -165.88)"/><path class="cls-1" d="M381.24,225.43h8.12V345.51c9.72,3.37,17.06,18.61,17.06,36.89,0,20.75-9.46,37.58-21.12,37.58s-21.11-16.83-21.11-37.58c0-18.28,7.34-33.52,17.05-36.89Z" transform="translate(-210.43 -165.88)"/><path class="cls-3" d="M385.48,167.89h0a9.87,9.87,0,0,1,9.85,9.84V259a9.88,9.88,0,0,1-9.85,9.86h0a9.88,9.88,0,0,1-9.85-9.86V177.73a9.87,9.87,0,0,1,9.85-9.84Zm-.08,5a4.21,4.21,0,1,0,4.21,4.2A4.21,4.21,0,0,0,385.4,172.86Z" transform="translate(-210.43 -165.88)"/><path class="cls-3" d="M384.57,405.34c7.86,0,14.27-10.64,14.27-23.69S392.43,358,384.57,358s-14.28,10.63-14.28,23.68S376.71,405.34,384.57,405.34Z" transform="translate(-210.43 -165.88)"/><rect class="cls-2" x="35.09" y="59.55" width="8.12" height="160.78"/><path class="cls-3" d="M249.76,167.89h0a9.87,9.87,0,0,1,9.85,9.84V259a9.88,9.88,0,0,1-9.85,9.86h0a9.88,9.88,0,0,1-9.85-9.86V177.73a9.87,9.87,0,0,1,9.85-9.84Zm-.09,5a4.21,4.21,0,1,0,4.21,4.2A4.21,4.21,0,0,0,249.67,172.86Z" transform="translate(-210.43 -165.88)"/><rect class="cls-2" x="8.7" y="220.33" width="60.54" height="11.98"/><path class="cls-3" d="M219.12,398.19h60.54v6.34a6.35,6.35,0,0,1-6.34,6.34H225.47a6.36,6.36,0,0,1-6.35-6.34Z" transform="translate(-210.43 -165.88)"/><rect class="cls-2" x="238.93" y="59.55" width="8.12" height="160.78"/><path class="cls-3" d="M453.59,167.89h0a9.87,9.87,0,0,1,9.85,9.84V259a9.88,9.88,0,0,1-9.85,9.86h0a9.88,9.88,0,0,1-9.85-9.86V177.73a9.87,9.87,0,0,1,9.85-9.84Zm-.09,5a4.21,4.21,0,1,0,4.21,4.2A4.21,4.21,0,0,0,453.5,172.86Z" transform="translate(-210.43 -165.88)"/><path class="cls-1" d="M483.5,395.84V444.7c0,18.13-60.54,16.6-60.54.93V392.55c0-12.89,60.54-15.91,60.54,3.29Zm-49.14.47a5.05,5.05,0,0,0-5.05,5v36.07a5.06,5.06,0,0,0,5.05,5h0a5.06,5.06,0,0,0,5-5V401.35a5.05,5.05,0,0,0-5-5Zm36,0a5.06,5.06,0,0,0-5.05,5v36.07a5.07,5.07,0,0,0,5.05,5h0a5.05,5.05,0,0,0,5-5V401.35a5,5,0,0,0-5-5Zm-18.37,0a5.06,5.06,0,0,0-5,5v36.07a5.07,5.07,0,0,0,5,5h0a5.06,5.06,0,0,0,5.05-5V401.35a5.05,5.05,0,0,0-5.05-5Z" transform="translate(-210.43 -165.88)"/></svg>