<?xml version="1.0" encoding="UTF-8" standalone="no"?>
<svg
   xmlns:dc="http://purl.org/dc/elements/1.1/"
   xmlns:cc="http://creativecommons.org/ns#"
   xmlns:rdf="http://www.w3.org/1999/02/22-rdf-syntax-ns#"
   xmlns:svg="http://www.w3.org/2000/svg"
   xmlns="http://www.w3.org/2000/svg"
   viewBox="0 0 1122.52 793.70135"
   height="793.70135"
   width="1122.52"
   xml:space="preserve"
   id="svg2"
   version="1.1"><metadata
     id="metadata8"><rdf:RDF><cc:Work
         rdf:about=""><dc:format>image/svg+xml</dc:format><dc:type
           rdf:resource="http://purl.org/dc/dcmitype/StillImage" /></cc:Work></rdf:RDF></metadata><defs
     id="defs6"><clipPath
       id="clipPath18"
       clipPathUnits="userSpaceOnUse"><path
         id="path16"
         d="M 0,595.276 H 841.89 V 0 H 0 Z" /></clipPath></defs><g
     transform="matrix(1.3333333,0,0,-1.3333333,0,793.70133)"
     id="g10"><g
       id="g12"><g
         clip-path="url(#clipPath18)"
         id="g14"><g
           transform="translate(320.6865,163.5959)"
           id="g20"><path
             id="path22"
             style="fill:#879196;fill-opacity:1;fill-rule:evenodd;stroke:none"
             d="m 0,0 h 12.372 c 1.771,0 3.222,-1.449 3.222,-3.221 v -4.296 c 0,-1.772 -1.451,-3.221 -3.222,-3.221 H 0 c -1.773,0 -3.222,1.449 -3.222,3.221 v 4.296 C -3.222,-1.449 -1.773,0 0,0" /></g><g
           transform="translate(323.1943,155.0119)"
           id="g24"><path
             id="path26"
             style="fill:#6b848e;fill-opacity:1;fill-rule:evenodd;stroke:none"
             d="M 0,0 C 1.672,0 3.035,1.364 3.035,3.036 3.035,4.708 1.672,6.072 0,6.072 -1.672,6.072 -3.037,4.708 -3.037,3.036 -3.037,1.364 -1.672,0 0,0" /></g><g
           transform="translate(330.7002,155.0119)"
           id="g28"><path
             id="path30"
             style="fill:#6b848e;fill-opacity:1;fill-rule:evenodd;stroke:none"
             d="M 0,0 C 1.672,0 3.035,1.364 3.035,3.036 3.035,4.708 1.672,6.072 0,6.072 -1.672,6.072 -3.037,4.708 -3.037,3.036 -3.037,1.364 -1.672,0 0,0" /></g><g
           transform="translate(322.752,158.048)"
           id="g32"><path
             id="path34"
             style="fill:#475c63;fill-opacity:1;fill-rule:evenodd;stroke:none"
             d="m 0,0 c 0,-0.241 -0.195,-0.437 -0.437,-0.437 -0.241,0 -0.436,0.196 -0.436,0.437 0,0.241 0.195,0.437 0.436,0.437 C -0.195,0.437 0,0.241 0,0" /></g><g
           transform="translate(324.6382,158.048)"
           id="g36"><path
             id="path38"
             style="fill:#475c63;fill-opacity:1;fill-rule:evenodd;stroke:none"
             d="m 0,0 c 0,-0.241 -0.195,-0.437 -0.437,-0.437 -0.24,0 -0.436,0.196 -0.436,0.437 0,0.241 0.196,0.437 0.436,0.437 C -0.195,0.437 0,0.241 0,0" /></g><g
           transform="translate(330.3433,158.048)"
           id="g40"><path
             id="path42"
             style="fill:#475c63;fill-opacity:1;fill-rule:evenodd;stroke:none"
             d="m 0,0 c 0,-0.241 -0.196,-0.437 -0.437,-0.437 -0.241,0 -0.436,0.196 -0.436,0.437 0,0.241 0.195,0.437 0.436,0.437 C -0.196,0.437 0,0.241 0,0" /></g><g
           transform="translate(332.2295,158.048)"
           id="g44"><path
             id="path46"
             style="fill:#475c63;fill-opacity:1;fill-rule:evenodd;stroke:none"
             d="m 0,0 c 0,-0.241 -0.195,-0.437 -0.437,-0.437 -0.24,0 -0.436,0.196 -0.436,0.437 0,0.241 0.196,0.437 0.436,0.437 C -0.195,0.437 0,0.241 0,0" /></g></g></g></g></svg>