<svg id="Livello_1" data-name="Livello 1" xmlns="http://www.w3.org/2000/svg" viewBox="0 0 98.53 276.84"><defs><style>.cls-1{fill:#858f94;}.cls-1,.cls-2,.cls-3{fill-rule:evenodd;}.cls-2{fill:#837ea9;}.cls-3{fill:#737097;}</style></defs><path class="cls-1" d="M409.86,244.19c13.43,0,24.39-15.4,24.39-34.29s-11-34.28-24.39-34.28S385.48,191,385.48,209.9,396.43,244.19,409.86,244.19Z" transform="translate(-365.66 -175.62)"/><path class="cls-2" d="M397.63,223.48c-7,32.72-38,180.41-30.94,192.72,7.9,13.84,20.42,11.2,27.66,4.61l7.24-6.6s-2.17,38.25,17.73,38.25,19.9-30.33,19.9-30.33-3.38,7.25,9.79,8.57,13.83-24.39,15.15-34.95c1.09-8.71-28.6-130.3-42.47-172.33C414.65,202.09,402.4,201.09,397.63,223.48Z" transform="translate(-365.66 -175.62)"/><path class="cls-3" d="M390.26,423.76a22.29,22.29,0,0,0,4.09-2.95l7.24-6.6s-2.17,38.25,17.73,38.25,19.9-30.33,19.9-30.33-3.38,7.25,9.79,8.57,13.83-24.39,15.15-34.95c1.09-8.71-28.6-130.3-42.47-172.33-3.34-10.14-7.87-15.67-12.21-16.29,9.42,39.07,41.68,174.9,38.3,187.31-3.95,14.5-14.48,9.23-14.48,9.23s6.64,9.23-3.3,9.23-1.42-92.31-9.93-104.83,1.37,89.66-6.53,94.27-16.47,2-16.47-5.26,3.3-81.1,3.3-81.1S386.23,384.81,390.26,423.76Z" transform="translate(-365.66 -175.62)"/></svg>