<svg id="Livello_1" data-name="Livello 1" xmlns="http://www.w3.org/2000/svg" viewBox="0 0 185.6 180.25"><defs><style>.cls-1{fill:#fff;}.cls-2{fill:#d8831f;}.cls-3{fill:#f7c971;}.cls-4{fill:#f5b858;}.cls-5{fill:#290d0e;}</style></defs><path class="cls-1" d="M410.46,314.58a2.41,2.41,0,0,1,3.24,3,2.48,2.48,0,0,1-4.29.8A2.53,2.53,0,0,1,410.46,314.58Z" transform="translate(-346.31 -232.67)"/><path class="cls-2" d="M419.78,233.67c23.25-2,46.84-1.15,69.73,3.59a70.63,70.63,0,0,1,17.37,5.88,30.28,30.28,0,0,1,10,7.6c2.87,3.6,4.22,8.14,4.85,12.63.81,6.92-1.12,13.89-4.34,20-2,4-4.32,7.91-6.55,11.83-3.23,6-4.06,13-3.29,19.71.91,8.47,4.29,16.42,5.31,24.88,1.56,3.59,2.37,22.15,0,31.21a28.83,28.83,0,0,1-10.94,15.85c-5.81,4.36-12.89,6.6-20,7.82a210,210,0,0,1-22.62,3.15l-2.49.18a216.23,216.23,0,0,1-25.33.29L429,398.1a170.59,170.59,0,0,1-24-3,53.34,53.34,0,0,1-17.87-6.61,23.84,23.84,0,0,1-7.1-6.16c-5.45-6.63-7.81-15.25-8.32-23.69a85.68,85.68,0,0,1,.9-17.6c.1-.76.22-1.52.34-2.27,1.06-7.16,3.21-14.11,4.22-21.28.91-7.43.71-15.44-3.09-22.1-4.22-7.4-8.88-14.83-10.51-23.32-1.34-6.46-.73-13.56,2.88-19.21,2.68-4.31,6.79-7.5,11.16-10a60.72,60.72,0,0,1,16.64-6C402.62,235.06,411.22,234.36,419.78,233.67Zm-7.07,4.66c-10.53,1.07-21,3.38-30.67,7.89-5.07,2.65-10.21,6.07-12.72,11.42s-2,11.85-.15,17.47c2.28,7.72,7,14.38,10.41,21.57,2.31,5.15,2.67,10.93,2.22,16.48-.73,7.33-3.09,14.35-4.35,21.58-1.5,9.08-2.39,18.4-1.05,27.56.93,6.41,3.41,12.76,7.91,17.52,2.68,2.94,6.27,4.8,9.79,6.55,8.79,4.11,18.54,5.5,28.13,6.13A295.57,295.57,0,0,0,455,393c9-.62,18.09-1.71,26.46-5.16,5.2-2.16,10.33-5,13.89-9.47,4.9-5.88,6.8-13.65,7.18-21.16.55-11.05-1.19-22.1-3.9-32.79-2-7.83-3.34-16.18-1.24-24.13,1.09-4.3,3.7-7.95,5.65-11.88,3.57-6.9,6.76-14.48,6.09-22.42-.56-5.22-2.1-10.69-6-14.45-6.66-6.18-15.43-9.65-24.27-11.24-18.34-3.33-37-2.62-55.59-2.67C419.72,237.63,416.22,238,412.71,238.33Z" transform="translate(-346.31 -232.67)"/><path class="cls-3" d="M412.71,238.33c3.51-.29,7-.7,10.54-.74,18.54,0,37.25-.66,55.59,2.67,8.84,1.59,17.61,5.06,24.27,11.24,3.89,3.76,5.43,9.23,6,14.45.67,7.94-2.52,15.52-6.09,22.42-1.95,3.93-4.56,7.58-5.65,11.88-2.1,7.95-.76,16.3,1.24,24.13,2.71,10.69,4.45,21.74,3.9,32.79-.38,7.51-2.28,15.28-7.18,21.16-3.56,4.47-8.69,7.31-13.89,9.47C473.06,391.25,464,392.34,455,393a295.57,295.57,0,0,1-32.74-.46c-9.59-.63-19.34-2-28.13-6.13-3.52-1.75-7.11-3.61-9.79-6.55-4.5-4.76-7-11.11-7.91-17.52-1.34-9.16-.45-18.48,1.05-27.56,1.26-7.23,3.62-14.25,4.35-21.58.45-5.55.09-11.33-2.22-16.48-3.45-7.19-8.13-13.85-10.41-21.57-1.82-5.62-2.39-12,.15-17.47S377,248.87,382,246.22C391.66,241.71,402.18,239.4,412.71,238.33Zm-14.15,10.32c0,.79.06,1.59.09,2.39a4.85,4.85,0,0,0,2.69.21c.83-.66,1.11-2.22.09-2.85S399.47,248.39,398.56,248.65Zm68.34-.2a1.77,1.77,0,0,0-.12,2.84c1.1.58,3.06,0,2.87-1.49C469.72,248.38,468,247.94,466.9,248.45Zm24.49,11c-1,.32-1,1.62-.59,2.4.92,1.31,3.56.7,3.36-1.05C494.19,259.37,492.46,259,491.39,259.45ZM378.3,277a5.36,5.36,0,0,0,.06,2.58,2.31,2.31,0,0,0,3-.13,6.8,6.8,0,0,0-.05-2.25A10.15,10.15,0,0,0,378.3,277Zm15.07,5.59c-1.34.41-2.62,2.25-1.57,3.5.76,1.09,2.17,2.29,3.54,1.45s1.59-2.57,1.14-4A2.56,2.56,0,0,0,393.37,282.54Zm95.91,55.2a1.61,1.61,0,0,0-.2,2.05c.83,1.32,3.43,1.07,3.5-.67S490.39,336.9,489.28,337.74ZM384.1,347.92c-1.25.51-1,2.47.21,2.88,1.06.57,2.76-.18,2.51-1.52C386.92,347.89,385.14,347.46,384.1,347.92Zm51.32-.05c-1.19.18-1.05,1.7-.54,2.46a1.87,1.87,0,0,0,3.25-1C438.08,348,436.5,347.47,435.42,347.87Zm42.8,23.46a1.5,1.5,0,0,0-1.29,1.93,1.91,1.91,0,0,0,3.45.44C481.21,372.35,479.58,370.91,478.22,371.33Z" transform="translate(-346.31 -232.67)"/><path class="cls-4" d="M398.56,248.65c.91-.26,2-.75,2.87-.25s.74,2.19-.09,2.85a4.85,4.85,0,0,1-2.69-.21C398.62,250.24,398.6,249.44,398.56,248.65Z" transform="translate(-346.31 -232.67)"/><path class="cls-4" d="M466.9,248.45c1.07-.51,2.82-.07,2.75,1.35.19,1.5-1.77,2.07-2.87,1.49A1.77,1.77,0,0,1,466.9,248.45Z" transform="translate(-346.31 -232.67)"/><path class="cls-4" d="M491.39,259.45c1.07-.42,2.8-.08,2.77,1.35.2,1.75-2.44,2.36-3.36,1.05C490.38,261.07,490.42,259.77,491.39,259.45Z" transform="translate(-346.31 -232.67)"/><path class="cls-4" d="M378.3,277a10.15,10.15,0,0,1,3,.2,6.8,6.8,0,0,1,.05,2.25,2.31,2.31,0,0,1-3,.13A5.36,5.36,0,0,1,378.3,277Z" transform="translate(-346.31 -232.67)"/><path class="cls-4" d="M393.37,282.54a2.56,2.56,0,0,1,3.11,1c.45,1.39.35,3.26-1.14,4s-2.78-.36-3.54-1.45C390.75,284.79,392,283,393.37,282.54Z" transform="translate(-346.31 -232.67)"/><path class="cls-4" d="M489.28,337.74c1.11-.84,3.39-.27,3.3,1.38s-2.67,2-3.5.67A1.61,1.61,0,0,1,489.28,337.74Z" transform="translate(-346.31 -232.67)"/><path class="cls-4" d="M384.1,347.92c1-.46,2.82,0,2.72,1.36.25,1.34-1.45,2.09-2.51,1.52C383.12,350.39,382.85,348.43,384.1,347.92Z" transform="translate(-346.31 -232.67)"/><path class="cls-4" d="M435.42,347.87c1.08-.4,2.66.12,2.71,1.44a1.87,1.87,0,0,1-3.25,1C434.37,349.57,434.23,348.05,435.42,347.87Z" transform="translate(-346.31 -232.67)"/><path class="cls-4" d="M478.22,371.33c1.36-.42,3,1,2.16,2.37a1.91,1.91,0,0,1-3.45-.44A1.5,1.5,0,0,1,478.22,371.33Z" transform="translate(-346.31 -232.67)"/><path class="cls-5" d="M346.33,303.37a4.42,4.42,0,0,1,5.47-4.09,5.74,5.74,0,0,1,3.21,2.88c1,0,2.37.37,2.52,1.61.4,2.22-1.34,4-2.79,5.37a28.06,28.06,0,0,0,6.52,9.6c3.56,3.41,8.26,5.31,13,6.32-.13.75-.25,1.51-.35,2.27-6.19-1.16-12.29-3.95-16.46-8.79a34.83,34.83,0,0,1-5.18-8.86C349,309.55,346,306.73,346.33,303.37Z" transform="translate(-346.31 -232.67)"/><path class="cls-5" d="M509,317.74a1.16,1.16,0,0,0,1.43,1.39,27.64,27.64,0,0,0,6.95-4c4.38-3.47,8.05-8.11,9.47-13.59a38.88,38.88,0,0,0,1.16-8.18,6.32,6.32,0,0,0,3.84-5.95c0-2.8-2.68-5.41-5.52-4.66-2.14.39-3.23,2.51-3.5,4.48-.89.46-2,1.1-1.83,2.28.31,2.28,2.6,3.37,4.49,4.14-.15,6.69-2.69,13.47-7.73,18a32.48,32.48,0,0,1-6.38,4.61A13.63,13.63,0,0,0,509,317.74Z" transform="translate(-346.31 -232.67)"/><path class="cls-5" d="M429,398.1l2.54.17c.81,3.59,1.7,7.17,2.49,10.77.13.81.2,2-.71,2.38a13,13,0,0,1-5.68,1.5c-1.42,0-3.18-.22-4-1.54-.75-1.68.43-3.54,1.9-4.36a6.1,6.1,0,0,1,5.55,0C430.34,404,429.7,401.06,429,398.1Z" transform="translate(-346.31 -232.67)"/><path class="cls-5" d="M456.86,398l2.49-.18c-.4,2.69-.74,5.38-1.2,8.06,2-1.1,4.68-1.37,6.5.2,1.21.91,2.05,2.83.93,4.13s-3.19,1.39-4.86,1.29a10,10,0,0,1-5-1.37,3.11,3.11,0,0,1-.34-2.34C455.91,404.5,456.42,401.25,456.86,398Z" transform="translate(-346.31 -232.67)"/><path class="cls-1" d="M453.94,285.38c3.35-.18,3.17,5.33,0,5.23C450.57,290.75,450.72,285.33,453.94,285.38Z" transform="translate(-346.31 -232.67)"/><path class="cls-1" d="M418.09,289c3.17-1.11,4.29,0,3.35,3.23C418.25,293.32,417.13,292.23,418.09,289Z" transform="translate(-346.31 -232.67)"/><path class="cls-5" d="M409.08,263.56c3.32-1.45,6.87-.11,10.23.41a71.37,71.37,0,0,0-18.42,9.9C402.81,269.94,404.85,265.48,409.08,263.56Z" transform="translate(-346.31 -232.67)"/><path class="cls-5" d="M458.23,263.8c7.33-6,16.12.4,19,7.79C471.36,268,465.21,264.76,458.23,263.8Z" transform="translate(-346.31 -232.67)"/><path class="cls-5" d="M403.63,280.1c4.68-5.42,12.87-7.69,19.52-4.71,9.88,4,14.18,16.66,10.91,26.34-11.36,3.15-22.77,6.45-32.64,13.17,4.1-7.8,12.94-10.77,20.9-12.91l-.1-.65c-4.42-1.64-10-6.16-7.1-11.45,2.46-6,11.8-5.51,13.7.61,1.87,3.44-2.48,6.3-2,9.74,1.63.43,4.86,1.33,6.47,1.78,1.06-7.48.72-16.33-5.85-21.32-7.08-6.76-19.66-4.55-24.44,3.85-4.07,5.88-2.3,13.1-1.53,19.62C397.46,296.77,397.53,286.41,403.63,280.1ZM418.09,289c-1,3.27.16,4.36,3.35,3.23C422.38,288.94,421.26,287.85,418.09,289Z" transform="translate(-346.31 -232.67)"/><path class="cls-5" d="M444.93,301.39c-6-12.37,3.23-30.34,17.86-29.37,13.56,1.06,20.27,16.76,16.41,28.69-.35-6.61.69-14.12-4.2-19.42-5.64-8.33-18.93-9.29-25.44-1.51-5.66,5.46-5.23,13.73-4.24,20.88,11.35-.87,23.38.86,32.3,8.5.07.65.19,2,.25,2.61C468.08,305.1,456.28,303.45,444.93,301.39Z" transform="translate(-346.31 -232.67)"/><path class="cls-5" d="M452.18,284.14c5.38-4.06,13.68,2.43,11.05,8.6-1.45,4.87-7.92,6.47-11.7,3.39A7.44,7.44,0,0,1,452.18,284.14Zm1.76,1.24c-3.22-.05-3.37,5.37,0,5.23C457.11,290.71,457.29,285.2,453.94,285.38Z" transform="translate(-346.31 -232.67)"/><path class="cls-5" d="M414.34,320.83c1.45-1.85,2-5.45,4.79-5.65,5-1.58,8.22,3.48,12.31,5.31,3.95-.9,5.3-6.34,9.52-6.49,3.65,1.16,6.9,3.29,10.25,5.08a66.81,66.81,0,0,1,7.41-5.72c3.74.9,6.31,3.93,8.76,6.65,1.05-.71,3.11-2.19,4.16-2.91-1.47,2.52-3.08,5-4.77,7.35-.13-1.27-.41-3.82-.55-5.1-2.45-1.31-4.9-2.66-7.32-4-2.56,2-4.4,5.45-7.88,5.79-3.73-1.12-7-3.22-10.5-5-2.6,2.16-4.6,5.46-7.94,6.43-4.67,0-7.56-4.53-11.65-6.17C418.45,317.44,416.53,319.36,414.34,320.83Z" transform="translate(-346.31 -232.67)"/><path class="cls-5" d="M410.1,321.58c2.54-1.56,7.73,1.07,6.6,4.31C414.21,328.08,408.84,324.75,410.1,321.58Z" transform="translate(-346.31 -232.67)"/><path class="cls-5" d="M360.67,247.73c-1.56,2.82-3.08,5.68-4.76,8.43-.78-6.84,4.4-12.43,10.68-14.15C365.24,244.51,362.94,246.16,360.67,247.73Z" transform="translate(-346.31 -232.67)"/><path class="cls-5" d="M514.66,387.43c1.61-2.79,3.19-5.62,4.93-8.34.64,6.85-4.65,12.35-11,13.94C510,390.56,512.36,389,514.66,387.43Z" transform="translate(-346.31 -232.67)"/><path class="cls-5" d="M355.9,243c-1.28,2.32-2.53,4.67-3.91,6.93-.64-5.62,3.62-10.22,8.78-11.63A14.32,14.32,0,0,1,355.9,243Z" transform="translate(-346.31 -232.67)"/><path class="cls-5" d="M520.46,391.25c1.16-2,2.29-4,3.53-6,.47,4.91-3.33,8.85-7.86,10A12.64,12.64,0,0,1,520.46,391.25Z" transform="translate(-346.31 -232.67)"/></svg>