<svg id="Livello_1" data-name="Livello 1" xmlns="http://www.w3.org/2000/svg" viewBox="0 0 240.42 251.79"><defs><style>.cls-1{opacity:0.51;}.cls-2{fill:#fff;}.cls-3{fill:#d8831f;}.cls-4{fill:#f7c971;}.cls-5{fill:#f5b858;}.cls-6{fill:#290d0e;}.cls-7{fill:#e72d79;}</style></defs><g class="cls-1"><path class="cls-2" d="M334,250.74c2.49-1.32,5.56,1.56,4.52,4.14-.65,2.55-4.5,3.34-6,1.11A3.53,3.53,0,0,1,334,250.74Z" transform="translate(-252.2 -136.33)"/><path class="cls-3" d="M347,137.72c32.48-2.74,65.43-1.61,97.4,5a98.74,98.74,0,0,1,24.26,8.2c5.22,2.7,10.3,6,14,10.63,4,5,5.9,11.36,6.79,17.64,1.12,9.66-1.58,19.4-6.08,27.9-2.79,5.64-6,11.06-9.14,16.53-4.52,8.37-5.67,18.17-4.6,27.53,1.27,11.83,6,23,7.42,34.76,2.18,5,3.31,30.94,0,43.6a40.26,40.26,0,0,1-15.28,22.14c-8.11,6.08-18,9.22-27.9,10.93A294.76,294.76,0,0,1,402.27,367l-3.48.26a300.49,300.49,0,0,1-35.38.39c-1.19-.06-2.37-.15-3.55-.23-11.26-.8-22.54-1.82-33.58-4.21a74.69,74.69,0,0,1-25-9.24,33.39,33.39,0,0,1-9.91-8.6c-7.61-9.26-10.91-21.31-11.63-33.09a120.56,120.56,0,0,1,1.25-24.6c.15-1.06.31-2.11.49-3.16,1.48-10,4.48-19.72,5.89-29.74,1.28-10.37,1-21.56-4.32-30.86-5.89-10.34-12.4-20.71-14.68-32.58-1.87-9-1-18.94,4-26.83,3.75-6,9.5-10.48,15.6-13.93,7.2-4.08,15.19-6.57,23.24-8.39C323,139.67,335,138.69,347,137.72Zm-9.88,6.51c-14.7,1.5-29.4,4.72-42.84,11-7.08,3.7-14.26,8.48-17.76,15.95-3.56,7.67-2.76,16.55-.21,24.41,3.18,10.78,9.71,20.09,14.53,30.13,3.23,7.19,3.74,15.27,3.1,23-1,10.24-4.32,20.05-6.07,30.15-2.09,12.68-3.34,25.69-1.46,38.49,1.3,9,4.76,17.83,11,24.48,3.74,4.11,8.76,6.71,13.68,9.15,12.27,5.74,25.89,7.68,39.3,8.56,15.22.86,30.49,1.47,45.73.64,12.53-.86,25.26-2.38,37-7.21,7.26-3,14.43-7,19.4-13.22,6.84-8.21,9.5-19.08,10-29.56.77-15.44-1.66-30.87-5.45-45.81-2.8-10.94-4.66-22.6-1.73-33.71,1.53-6,5.17-11.1,7.89-16.59,5-9.64,9.45-20.22,8.51-31.32-.78-7.29-2.94-14.94-8.36-20.18-9.31-8.64-21.56-13.48-33.92-15.7-25.61-4.66-51.75-3.67-77.65-3.74C346.91,143.26,342,143.82,337.11,144.23Z" transform="translate(-252.2 -136.33)"/><path class="cls-4" d="M337.11,144.23c4.9-.41,9.8-1,14.72-1,25.9.07,52-.92,77.65,3.74,12.36,2.22,24.61,7.06,33.92,15.7,5.42,5.24,7.58,12.89,8.36,20.18.94,11.1-3.51,21.68-8.51,31.32-2.72,5.49-6.36,10.58-7.89,16.59-2.93,11.11-1.07,22.77,1.73,33.71,3.79,14.94,6.22,30.37,5.45,45.81-.53,10.48-3.19,21.35-10,29.56-5,6.24-12.14,10.2-19.4,13.22-11.7,4.83-24.43,6.35-37,7.21-15.24.83-30.51.22-45.73-.64-13.41-.88-27-2.82-39.3-8.56-4.92-2.44-9.94-5-13.68-9.15-6.28-6.65-9.74-15.52-11-24.48-1.88-12.8-.63-25.81,1.46-38.49,1.75-10.1,5.05-19.91,6.07-30.15.64-7.75.13-15.83-3.1-23-4.82-10-11.35-19.35-14.53-30.13-2.55-7.86-3.35-16.74.21-24.41,3.5-7.47,10.68-12.25,17.76-15.95C307.71,149,322.41,145.73,337.11,144.23Zm-19.76,14.41c0,1.11.09,2.23.13,3.35a6.86,6.86,0,0,0,3.75.29c1.16-.92,1.56-3.11.13-4C320.08,157.59,318.62,158.29,317.35,158.64Zm95.46-.27c-1.25.81-1.58,3.13-.16,4s4.27,0,4-2.07C416.75,158.27,414.31,157.65,412.81,158.37ZM447,173.73c-1.36.46-1.41,2.27-.82,3.35,1.28,1.83,5,1,4.69-1.47C450.94,173.62,448.52,173.14,447,173.73Zm-158,24.45a7.43,7.43,0,0,0,.08,3.6,3.23,3.23,0,0,0,4.19-.18,10.1,10.1,0,0,0-.06-3.15A14.53,14.53,0,0,0,289.05,198.18ZM310.1,206c-1.88.56-3.66,3.14-2.2,4.89,1.07,1.53,3,3.19,5,2,2.09-1,2.23-3.59,1.59-5.52A3.55,3.55,0,0,0,310.1,206Zm134,77.1c-.6.78-1.05,2-.28,2.87,1.16,1.85,4.79,1.49,4.89-.94S445.62,281.92,444.07,283.09ZM297.15,297.32c-1.74.71-1.37,3.44.29,4,1.49.79,3.85-.25,3.51-2.13C301.09,297.28,298.6,296.67,297.15,297.32Zm71.69-.07c-1.66.25-1.47,2.37-.76,3.43,1.28,1.72,4.53.76,4.54-1.42C372.56,297.42,370.35,296.69,368.84,297.25ZM428.62,330a2.09,2.09,0,0,0-1.8,2.69c.52,2.1,3.81,2.65,4.82.62C432.8,331.44,430.53,329.43,428.62,330Z" transform="translate(-252.2 -136.33)"/><path class="cls-5" d="M317.35,158.64c1.27-.35,2.73-1,4-.34,1.43.87,1,3.06-.13,4a6.86,6.86,0,0,1-3.75-.29C317.44,160.87,317.4,159.75,317.35,158.64Z" transform="translate(-252.2 -136.33)"/><path class="cls-5" d="M412.81,158.37c1.5-.72,3.94-.1,3.85,1.89.26,2.09-2.47,2.89-4,2.07S411.56,159.18,412.81,158.37Z" transform="translate(-252.2 -136.33)"/><path class="cls-5" d="M447,173.73c1.5-.59,3.92-.11,3.87,1.88.28,2.45-3.41,3.3-4.69,1.47C445.61,176,445.66,174.19,447,173.73Z" transform="translate(-252.2 -136.33)"/><path class="cls-5" d="M289.05,198.18a14.53,14.53,0,0,1,4.21.27,10.1,10.1,0,0,1,.06,3.15,3.23,3.23,0,0,1-4.19.18A7.43,7.43,0,0,1,289.05,198.18Z" transform="translate(-252.2 -136.33)"/><path class="cls-5" d="M310.1,206a3.55,3.55,0,0,1,4.34,1.39c.64,1.93.5,4.55-1.59,5.52-1.91,1.17-3.88-.49-5-2C306.44,209.13,308.22,206.55,310.1,206Z" transform="translate(-252.2 -136.33)"/><path class="cls-5" d="M444.07,283.09c1.55-1.17,4.74-.37,4.61,1.93s-3.73,2.79-4.89.94C443,285.13,443.47,283.87,444.07,283.09Z" transform="translate(-252.2 -136.33)"/><path class="cls-5" d="M297.15,297.32c1.45-.65,3.94,0,3.8,1.89.34,1.88-2,2.92-3.51,2.13C295.78,300.76,295.41,298,297.15,297.32Z" transform="translate(-252.2 -136.33)"/><path class="cls-5" d="M368.84,297.25c1.51-.56,3.72.17,3.78,2,0,2.18-3.26,3.14-4.54,1.42C367.37,299.62,367.18,297.5,368.84,297.25Z" transform="translate(-252.2 -136.33)"/><path class="cls-5" d="M428.62,330c1.91-.59,4.18,1.42,3,3.31-1,2-4.3,1.48-4.82-.62A2.09,2.09,0,0,1,428.62,330Z" transform="translate(-252.2 -136.33)"/><path class="cls-6" d="M359.86,367.41c1.18.08,2.36.17,3.55.23,1.13,5,2.37,10,3.47,15.05.19,1.13.28,2.77-1,3.33a18.36,18.36,0,0,1-7.93,2.1c-2,0-4.44-.31-5.59-2.16-1.05-2.35.6-4.94,2.66-6.09,2.35-1.41,5.31-1.11,7.74,0C361.75,375.7,360.85,371.54,359.86,367.41Z" transform="translate(-252.2 -136.33)"/><path class="cls-6" d="M398.79,367.25l3.48-.26c-.57,3.75-1,7.52-1.68,11.27,2.77-1.55,6.54-1.92,9.08.27,1.69,1.28,2.87,4,1.3,5.77-1.78,1.7-4.46,1.94-6.8,1.8s-4.92-.48-6.91-1.91c-.72-.89-.59-2.21-.47-3.28C397.46,376.36,398.17,371.81,398.79,367.25Z" transform="translate(-252.2 -136.33)"/><path class="cls-6" d="M264.42,157.36c-2.18,3.94-4.31,7.93-6.66,11.78-1.09-9.55,6.16-17.37,14.94-19.77C270.81,152.87,267.59,155.17,264.42,157.36Z" transform="translate(-252.2 -136.33)"/><path class="cls-6" d="M479.52,352.51c2.26-3.9,4.47-7.85,6.89-11.65.9,9.57-6.49,17.24-15.32,19.47C473.05,356.87,476.31,354.64,479.52,352.51Z" transform="translate(-252.2 -136.33)"/><path class="cls-6" d="M257.76,150.75c-1.79,3.24-3.54,6.52-5.47,9.69-.9-7.85,5.06-14.28,12.27-16.26C263,147.06,260.37,149,257.76,150.75Z" transform="translate(-252.2 -136.33)"/><path class="cls-6" d="M487.63,357.85c1.62-2.8,3.2-5.63,4.93-8.35.65,6.86-4.65,12.36-11,14C483,361,485.32,359.37,487.63,357.85Z" transform="translate(-252.2 -136.33)"/></g><path class="cls-7" d="M308,169.18l1.9,10.77a3.28,3.28,0,0,0,.28,1,1.29,1.29,0,0,0,.68.44,1.38,1.38,0,0,1,.85,1.13,3,3,0,0,1,0,1.6,1.17,1.17,0,0,1-.85.45l-9.93,1.75c-.57.1-.91-.23-1.05-1a9.23,9.23,0,0,1-.17-1.42.63.63,0,0,1,.39-.52,1.87,1.87,0,0,0,1-2.1l-4.48-25.45c-.17-.94-.64-1.45-1.43-1.52a1.6,1.6,0,0,1-.77-.22,2.19,2.19,0,0,1-.32-1c-.2-1.12,0-1.74.69-1.85l13-2.29a10.36,10.36,0,0,1,7.41,1.47,9.36,9.36,0,0,1,4.32,6.7q1.13,6.45-5.65,9.68,6.75.18,7.86,6.47l.91,5.17a1.05,1.05,0,0,0,.71.88,1.35,1.35,0,0,1,.85,1.09,3.65,3.65,0,0,1,.09,1.52c-.08.18-.35.31-.82.39l-6.31,1.11a2.17,2.17,0,0,1-2.07-.85,5.61,5.61,0,0,1-1.24-2.79l-1.54-8.76q-.45-2.55-3.25-2.07ZM305,152l2.58,14.63,1.53-.27q2.32-.4,1.57-4.73l-1.23-7a3.67,3.67,0,0,0-1.2-2.44,3.18,3.18,0,0,0-2.45-.35Z" transform="translate(-252.2 -136.33)"/><path class="cls-7" d="M336.05,159.78l-.39-4.23q-.17-1.76-1.71-1.62c-1.41.13-2,1.08-1.87,2.85a4.45,4.45,0,0,1-.18,2.16,3,3,0,0,1-1.56,1.24,8.45,8.45,0,0,1-2.73.71c-2,.18-3.11-.72-3.3-2.71a5.37,5.37,0,0,1,2.21-4.83,12.09,12.09,0,0,1,6.7-2.41,16.47,16.47,0,0,1,5.08.25,7.22,7.22,0,0,1,3.77,2,5.86,5.86,0,0,1,1.67,3.54l1.83,20a2.48,2.48,0,0,0,.77.6,1.1,1.1,0,0,1,.56.92,2.06,2.06,0,0,1-.15,1.26,2.5,2.5,0,0,1-1.21.79,8.63,8.63,0,0,1-2.5.54,6.91,6.91,0,0,1-3.15-.34,4.27,4.27,0,0,1-2.15-2.28,12.87,12.87,0,0,1-3.13,2.84,6.84,6.84,0,0,1-2.59.79,5.57,5.57,0,0,1-4.87-1.76c-1.24-1.35-2-3.68-2.31-7s0-5.64.92-7,2.82-2.74,5.72-4.09Q334.24,160.79,336.05,159.78Zm.26,2.86c-1.73.89-2.72,1.81-3,2.76a22.41,22.41,0,0,0,0,6.22,13.76,13.76,0,0,0,.84,4.42,1.52,1.52,0,0,0,1.56.8c1.22-.12,1.74-1.11,1.57-3Z" transform="translate(-252.2 -136.33)"/><path class="cls-7" d="M356.75,152.7a8.42,8.42,0,0,1,6.36-3.56,4.85,4.85,0,0,1,3.88,1.34,5.48,5.48,0,0,1,1.46,3.68l.82,21.11a1.23,1.23,0,0,0,.64,1.06c.38.19.58.71.61,1.56a2.23,2.23,0,0,1-.13,1.22,1,1,0,0,1-.74.23l-6.71.26a3.57,3.57,0,0,1-1.55-2.87l-.81-21c-.05-1.14-.58-1.69-1.6-1.65a3.44,3.44,0,0,0-2.13,1l.8,20.56a1.37,1.37,0,0,0,.88,1.2,1,1,0,0,1,.54.95l.05,1.12c0,.5-.36.76-1.14.79l-8.48.34a1.21,1.21,0,0,1-.79-.14,1.3,1.3,0,0,1-.2-.82l0-.81a1,1,0,0,1,.39-.92,2.08,2.08,0,0,0,.71-.74,3.74,3.74,0,0,0,.11-1.46l-.84-21.55a1.18,1.18,0,0,0-.85-1.09.7.7,0,0,1-.48-.69l0-1.16a.6.6,0,0,1,.64-.71l7.78-.31a1,1,0,0,1,.63.11.91.91,0,0,1,.14.55Z" transform="translate(-252.2 -136.33)"/><path class="cls-7" d="M381.61,169.64l0,5.91a1,1,0,0,0,.62.93.86.86,0,0,1,.47.86v1.17c0,.54-.31.81-.91.81l-8.65,0c-.57,0-.86-.34-.86-1v-1c0-.25.23-.54.69-.86a2,2,0,0,0,.64-.59,1.85,1.85,0,0,0,.06-.55l.1-26.4a2.26,2.26,0,0,0-.92-2c-.21-.15-.33-.28-.35-.4a7,7,0,0,1,0-.86,11.45,11.45,0,0,1,.06-1.65c0-.15.29-.22.73-.22l7.58,0a1.08,1.08,0,0,1,.74.17,1.47,1.47,0,0,1,.14.8l-.07,19.11,4.41-9.26a3.48,3.48,0,0,0,.43-1.19c0-.48-.37-.87-1.11-1.15a1.23,1.23,0,0,1-.66-.44,2.36,2.36,0,0,1-.16-1.08,2.21,2.21,0,0,1,.22-1.25,1.08,1.08,0,0,1,.81-.22l6.6,0q.54.07.54,1.17a2.89,2.89,0,0,1-.21,1.34,1.93,1.93,0,0,1-.89.69,3,3,0,0,0-1.51,1.29L388.43,157l5,18.15a2.23,2.23,0,0,0,1,1.31,1,1,0,0,1,.52.95v1.16c0,.55-.33.82-1,.82l-6.43,0c-.81,0-1.34-.49-1.57-1.46l-2.68-11.3Z" transform="translate(-252.2 -136.33)"/><path class="cls-7" d="M397.41,151.58l0-1.46c0-.48.35-.71,1-.69l7.62.26c.54,0,.8.27.79.76L406,175.79a2.12,2.12,0,0,0,0,.68c0,.11.18.21.41.3a1.3,1.3,0,0,1,.8,1.4,5.08,5.08,0,0,1-.17,1.45c-.09.16-.34.23-.77.21l-9.24-.31a.48.48,0,0,1-.42-.29,4.43,4.43,0,0,1-.06-1.23c0-.79.25-1.25.67-1.37s.78-.43.8-.85l.75-22a1.38,1.38,0,0,0-1-1.58A.58.58,0,0,1,397.41,151.58Zm7-8.21c1.8.06,2.68.65,2.64,1.76,0,.89-.66,1.61-1.88,2.18a8.82,8.82,0,0,1-4.13.77c-2-.07-2.94-.71-2.89-1.93,0-1,.75-1.69,2.15-2.15A11.5,11.5,0,0,1,404.39,143.37Z" transform="translate(-252.2 -136.33)"/><path class="cls-7" d="M419.89,153.41a8.37,8.37,0,0,1,6.7-2.86,4.83,4.83,0,0,1,3.71,1.74,5.43,5.43,0,0,1,1.07,3.81L430,177.18a1.21,1.21,0,0,0,.52,1.12c.35.23.5.77.44,1.62a2.29,2.29,0,0,1-.26,1.2,1,1,0,0,1-.76.14l-6.7-.44a3.58,3.58,0,0,1-1.23-3l1.4-20.92c.07-1.14-.4-1.75-1.41-1.82a3.53,3.53,0,0,0-2.24.83l-1.37,20.52a1.34,1.34,0,0,0,.75,1.29,1,1,0,0,1,.44,1l-.08,1.12c0,.5-.44.73-1.22.67l-8.46-.56a1.2,1.2,0,0,1-.77-.22c-.11-.12-.14-.39-.11-.83l.05-.82a1,1,0,0,1,.49-.87,2.12,2.12,0,0,0,.79-.66,4.06,4.06,0,0,0,.26-1.44l1.44-21.51a1.18,1.18,0,0,0-.74-1.18.7.7,0,0,1-.4-.73l.07-1.17a.6.6,0,0,1,.72-.64l7.77.52c.33,0,.53.08.61.18a.87.87,0,0,1,.08.55Z" transform="translate(-252.2 -136.33)"/><path class="cls-7" d="M449.53,153.17c.58-.42.89-.77.92-1s-.22-.8-.81-1.21a2,2,0,0,1-1.08-1.86c.16-1.36,1.26-1.92,3.28-1.67a4.26,4.26,0,0,1,2.62,1,2.17,2.17,0,0,1,.65,1.81c-.16,1.29-1.36,2.67-3.63,4.16a10.75,10.75,0,0,1,4.11,10,10.92,10.92,0,0,1-4,7.72,9.75,9.75,0,0,1-7.35,2.13,11,11,0,0,1-2.66-.69,6.3,6.3,0,0,0-1.18-.32,3.1,3.1,0,0,0-1.67.33c-.6.28-.93.63-1,1q-.12,1.06,2.46,1.38l6.47.78a11,11,0,0,1,5.51,2,4.56,4.56,0,0,1,1.7,4.48q-.73,6.18-12.13,4.81a25.2,25.2,0,0,1-6.95-1.66c-1.72-.75-2.51-1.72-2.36-2.88a2,2,0,0,1,.72-1.42,7.33,7.33,0,0,1,2.06-.94l.6-.19q-3.09-1.71-2.72-4.75c.27-2.29,2-3.82,5.26-4.58a10.23,10.23,0,0,1-3.34-9.2,11.39,11.39,0,0,1,3.94-7.69,9.64,9.64,0,0,1,7.61-2.29A15.92,15.92,0,0,1,449.53,153.17Zm-10.67,28.94c-1.08.26-1.65.66-1.71,1.22s.25,1,1,1.38a16.22,16.22,0,0,0,4.51,1q6,.72,6.21-1.21c.09-.73-.54-1.17-1.88-1.33l-6.57-.79C439.85,182.27,439.34,182.2,438.86,182.11Zm8.8-23.59c.23-1.9-.22-2.92-1.36-3.05a1.51,1.51,0,0,0-1.46.74,4.09,4.09,0,0,0-.74,1.88L442.79,169a2.38,2.38,0,0,0,.31,1.56,1.55,1.55,0,0,0,1.17.75,1.61,1.61,0,0,0,1.4-.49,2.61,2.61,0,0,0,.71-1.59Z" transform="translate(-252.2 -136.33)"/></svg>