<svg id="Livello_1" data-name="Livello 1" xmlns="http://www.w3.org/2000/svg" viewBox="0 0 164.8 172.59"><defs><style>.cls-1{fill:#fff;}.cls-2{fill:#d8831f;}.cls-3{fill:#f7c971;}.cls-4{fill:#f5b858;}.cls-5{fill:#290d0e;}</style></defs><path class="cls-1" d="M430.52,283.54a2.32,2.32,0,0,1,3.11,2.84,2.37,2.37,0,0,1-4.11.76A2.42,2.42,0,0,1,430.52,283.54Z" transform="translate(-374.47 -205.12)"/><path class="cls-2" d="M439.45,206.07c22.26-1.88,44.84-1.1,66.76,3.44a67.28,67.28,0,0,1,16.63,5.63,29.08,29.08,0,0,1,9.6,7.28c2.74,3.45,4,7.79,4.65,12.09.77,6.62-1.08,13.3-4.17,19.13-1.91,3.86-4.13,7.58-6.26,11.33-3.1,5.74-3.89,12.45-3.16,18.87.87,8.11,4.11,15.73,5.08,23.82,1.5,3.45,2.28,21.21,0,29.89a27.61,27.61,0,0,1-10.48,15.18c-5.56,4.17-12.34,6.32-19.12,7.49a202.51,202.51,0,0,1-21.66,3c-.79,0-1.59.11-2.38.18a206.55,206.55,0,0,1-24.25.27l-2.44-.16a163.34,163.34,0,0,1-23-2.89,51.2,51.2,0,0,1-17.12-6.33,23,23,0,0,1-6.79-5.9c-5.22-6.35-7.48-14.61-8-22.68a83.46,83.46,0,0,1,.85-16.86c.1-.73.22-1.45.34-2.17,1-6.86,3.07-13.51,4-20.38.87-7.11.67-14.78-3-21.16-4-7.09-8.51-14.2-10.07-22.33-1.28-6.18-.69-13,2.76-18.39,2.57-4.13,6.51-7.18,10.69-9.55A58.2,58.2,0,0,1,415,209.13C423,207.41,431.24,206.74,439.45,206.07Zm-6.78,4.47c-10.08,1-20.16,3.23-29.37,7.55-4.85,2.53-9.77,5.81-12.17,10.93s-1.89,11.35-.15,16.73c2.19,7.39,6.66,13.77,10,20.66,2.21,4.93,2.56,10.46,2.12,15.78-.7,7-3,13.74-4.16,20.66-1.43,8.7-2.29,17.61-1,26.39.89,6.14,3.26,12.22,7.57,16.78,2.56,2.81,6,4.6,9.37,6.27,8.42,3.93,17.75,5.26,26.94,5.86a282.69,282.69,0,0,0,31.35.45c8.59-.6,17.32-1.64,25.34-5,5-2.06,9.89-4.78,13.29-9.06,4.69-5.63,6.52-13.08,6.88-20.26.53-10.59-1.14-21.16-3.74-31.4-1.91-7.5-3.19-15.49-1.18-23.11,1-4.12,3.54-7.61,5.4-11.37,3.43-6.61,6.48-13.86,5.84-21.47-.54-5-2-10.24-5.74-13.83-6.37-5.93-14.77-9.24-23.24-10.77-17.56-3.19-35.48-2.51-53.23-2.56C439.39,209.87,436,210.25,432.67,210.54Z" transform="translate(-374.47 -205.12)"/><path class="cls-3" d="M432.67,210.54c3.36-.29,6.72-.67,10.09-.72,17.75.05,35.67-.63,53.23,2.56,8.47,1.53,16.87,4.84,23.24,10.77C523,226.74,524.43,232,525,237c.64,7.61-2.41,14.86-5.84,21.47-1.86,3.76-4.36,7.25-5.4,11.37-2,7.62-.73,15.61,1.18,23.11,2.6,10.24,4.27,20.81,3.74,31.4-.36,7.18-2.19,14.63-6.88,20.26-3.4,4.28-8.32,7-13.29,9.06-8,3.31-16.75,4.35-25.34,5a282.69,282.69,0,0,1-31.35-.45c-9.19-.6-18.52-1.93-26.94-5.86-3.37-1.67-6.81-3.46-9.37-6.27-4.31-4.56-6.68-10.64-7.57-16.78-1.29-8.78-.43-17.69,1-26.39,1.2-6.92,3.46-13.65,4.16-20.66.44-5.32.09-10.85-2.12-15.78-3.31-6.89-7.78-13.27-10-20.66-1.74-5.38-2.29-11.47.15-16.73s7.32-8.4,12.17-10.93C412.51,213.77,422.59,211.56,432.67,210.54Zm-13.55,9.87c0,.77.07,1.53.09,2.3a4.84,4.84,0,0,0,2.58.2c.79-.63,1.06-2.13.09-2.73S420,220.17,419.12,220.41Zm65.44-.19a1.69,1.69,0,0,0-.11,2.72c1.05.56,2.93,0,2.75-1.42C487.26,220.16,485.59,219.73,484.56,220.22ZM508,230.76c-.93.31-1,1.55-.56,2.29.87,1.26,3.4.67,3.21-1C510.69,230.68,509,230.35,508,230.76ZM399.73,247.51a5.15,5.15,0,0,0,0,2.47,2.2,2.2,0,0,0,2.87-.12,6.53,6.53,0,0,0,0-2.16A10,10,0,0,0,399.73,247.51Zm14.42,5.36c-1.28.38-2.5,2.15-1.5,3.35.73,1,2.08,2.19,3.39,1.39s1.53-2.47,1.09-3.79A2.44,2.44,0,0,0,414.15,252.87ZM506,305.72a1.54,1.54,0,0,0-.19,2c.79,1.27,3.28,1,3.35-.64S507.05,304.92,506,305.72Zm-100.71,9.75a1.53,1.53,0,0,0,.2,2.76c1,.54,2.64-.17,2.41-1.46C408,315.45,406.27,315,405.28,315.47Zm49.14-.05c-1.14.18-1,1.63-.52,2.36a1.79,1.79,0,0,0,3.11-1C457,315.54,455.45,315,454.42,315.42Zm41,22.47a1.43,1.43,0,0,0-1.24,1.84,1.84,1.84,0,0,0,3.31.43C498.26,338.86,496.7,337.48,495.4,337.89Z" transform="translate(-374.47 -205.12)"/><path class="cls-4" d="M419.12,220.41c.88-.24,1.88-.71,2.76-.23s.7,2.1-.09,2.73a4.84,4.84,0,0,1-2.58-.2C419.19,221.94,419.16,221.18,419.12,220.41Z" transform="translate(-374.47 -205.12)"/><path class="cls-4" d="M484.56,220.22c1-.49,2.7-.06,2.64,1.3.18,1.43-1.7,2-2.75,1.42A1.69,1.69,0,0,1,484.56,220.22Z" transform="translate(-374.47 -205.12)"/><path class="cls-4" d="M508,230.76c1-.41,2.68-.08,2.65,1.29.19,1.67-2.34,2.26-3.21,1C507.05,232.31,507.08,231.07,508,230.76Z" transform="translate(-374.47 -205.12)"/><path class="cls-4" d="M399.73,247.51a10,10,0,0,1,2.88.19,6.53,6.53,0,0,1,0,2.16,2.2,2.2,0,0,1-2.87.12A5.15,5.15,0,0,1,399.73,247.51Z" transform="translate(-374.47 -205.12)"/><path class="cls-4" d="M414.15,252.87a2.44,2.44,0,0,1,3,.95c.44,1.32.34,3.12-1.09,3.79s-2.66-.34-3.39-1.39C411.65,255,412.87,253.25,414.15,252.87Z" transform="translate(-374.47 -205.12)"/><path class="cls-4" d="M506,305.72c1.06-.8,3.25-.25,3.16,1.32s-2.56,1.91-3.35.64A1.54,1.54,0,0,1,506,305.72Z" transform="translate(-374.47 -205.12)"/><path class="cls-4" d="M405.28,315.47c1-.44,2.7,0,2.61,1.3.23,1.29-1.39,2-2.41,1.46A1.53,1.53,0,0,1,405.28,315.47Z" transform="translate(-374.47 -205.12)"/><path class="cls-4" d="M454.42,315.42c1-.38,2.55.12,2.59,1.38a1.79,1.79,0,0,1-3.11,1C453.42,317.05,453.28,315.6,454.42,315.42Z" transform="translate(-374.47 -205.12)"/><path class="cls-4" d="M495.4,337.89c1.3-.41,2.86,1,2.07,2.27a1.84,1.84,0,0,1-3.31-.43A1.43,1.43,0,0,1,495.4,337.89Z" transform="translate(-374.47 -205.12)"/><path class="cls-5" d="M448.26,363.52l2.44.16c.77,3.44,1.62,6.86,2.38,10.31.13.78.19,1.9-.68,2.28a12.38,12.38,0,0,1-5.44,1.44c-1.36,0-3-.21-3.83-1.48-.72-1.61.41-3.39,1.82-4.17a5.85,5.85,0,0,1,5.31,0C449.56,369.2,448.94,366.35,448.26,363.52Z" transform="translate(-374.47 -205.12)"/><path class="cls-5" d="M475,363.41c.79-.07,1.59-.13,2.38-.18-.38,2.57-.71,5.16-1.15,7.72,1.9-1.06,4.49-1.31,6.23.19,1.15.87,2,2.71.89,3.95a6.14,6.14,0,0,1-4.66,1.24A9.64,9.64,0,0,1,473.9,375a3,3,0,0,1-.32-2.25C474,369.65,474.52,366.53,475,363.41Z" transform="translate(-374.47 -205.12)"/><path class="cls-5" d="M382.84,219.53c-1.49,2.71-2.95,5.44-4.56,8.08-.75-6.55,4.22-11.91,10.24-13.55C387.22,216.45,385,218,382.84,219.53Z" transform="translate(-374.47 -205.12)"/><path class="cls-5" d="M530.29,353.3c1.55-2.67,3.06-5.38,4.72-8,.62,6.56-4.45,11.82-10.5,13.35C525.85,356.29,528.09,354.76,530.29,353.3Z" transform="translate(-374.47 -205.12)"/><path class="cls-5" d="M378.28,215c-1.23,2.22-2.43,4.47-3.75,6.63-.61-5.38,3.47-9.78,8.41-11.14A13.77,13.77,0,0,1,378.28,215Z" transform="translate(-374.47 -205.12)"/><path class="cls-5" d="M535.84,357c1.11-1.91,2.2-3.85,3.39-5.72.44,4.7-3.19,8.47-7.53,9.57A12.12,12.12,0,0,1,535.84,357Z" transform="translate(-374.47 -205.12)"/></svg>