<svg id="Livello_1" data-name="Livello 1" xmlns="http://www.w3.org/2000/svg" viewBox="0 0 60.88 60.88"><defs><style>.cls-1{fill:#d9841f;}.cls-2{fill:#fff;}</style></defs><circle class="cls-1" cx="30.44" cy="30.44" r="30.44"/><path class="cls-2" d="M413.31,297.29a8.06,8.06,0,1,0,8.06-8.06h0A8.06,8.06,0,0,0,413.31,297.29Z" transform="translate(-390.93 -266.85)"/><path class="cls-2" d="M438.25,304.09l2-.08a1.27,1.27,0,0,0,1.09-.86l.67-3.23a1.26,1.26,0,0,0-.65-1.23l-1.84-.88a1.62,1.62,0,0,1-.79-1.24s0-.24-.05-.79v-.2a1.39,1.39,0,0,1,.68-.84l1.73-1.09a1.24,1.24,0,0,0,.51-1.29l-1-3.13a1.23,1.23,0,0,0-1.17-.74l-2.05.15a1.44,1.44,0,0,1-1.24-.58c-.22-.35-.66-1.57-.44-2l1-1.8a1.25,1.25,0,0,0-.2-1.38l-2.55-2.2a1.24,1.24,0,0,0-1.39-.05L431,281.79a1.49,1.49,0,0,1-1.36.13c-.36-.2-1.36-1-1.38-1.52l-.08-2a1.2,1.2,0,0,0-.86-1.09l-3.22-.67a1.23,1.23,0,0,0-1.23.65l-.89,1.83a1.56,1.56,0,0,1-1.24.79s-.24,0-.79,0h-.2a1.38,1.38,0,0,1-.83-.68l-1.09-1.73a1.25,1.25,0,0,0-1.3-.51l-3.13,1a1.25,1.25,0,0,0-.74,1.18l.15,2a1.46,1.46,0,0,1-.57,1.25c-.36.21-1.58.65-2,.43l-1.8-1a1.24,1.24,0,0,0-1.38.21l-2.23,2.57a1.24,1.24,0,0,0,0,1.39l1.14,1.69a1.4,1.4,0,0,1,.13,1.37c-.2.36-1,1.35-1.52,1.37l-2,.08a1.26,1.26,0,0,0-1.09.87l-.67,3.22a1.27,1.27,0,0,0,.65,1.23l1.84.89A1.47,1.47,0,0,1,404,298v1a1.37,1.37,0,0,1-.68.84l-1.73,1.09a1.27,1.27,0,0,0-.51,1.29l1,3.13a1.28,1.28,0,0,0,1.18.74l2-.15a1.45,1.45,0,0,1,1.25.58c.21.35.65,1.57.43,2l-1,1.81a1.26,1.26,0,0,0,.21,1.37l2.45,2.2a1.32,1.32,0,0,0,1.39,0l1.69-1.15a1.43,1.43,0,0,1,1.37-.12c.36.19,1.35,1,1.37,1.51l.08,2a1.29,1.29,0,0,0,.87,1.09l3.22.67a1.27,1.27,0,0,0,1.23-.65l.89-1.84a1.53,1.53,0,0,1,1.24-.79s.23,0,.79-.05h.19a1.33,1.33,0,0,1,.84.68l1.09,1.73a1.3,1.3,0,0,0,1.3.51l3.12-1a1.23,1.23,0,0,0,.74-1.17l-.15-2.05a1.48,1.48,0,0,1,.58-1.24c.35-.22,1.57-.66,2-.44l1.81,1a1.25,1.25,0,0,0,1.37-.21l2.2-2.45a1.26,1.26,0,0,0,0-1.39l-1.15-1.69a1.46,1.46,0,0,1-.12-1.36C437,305.11,437.78,304.11,438.25,304.09Zm-16.88,7.23a14,14,0,1,1,14-14A14,14,0,0,1,421.37,311.32Z" transform="translate(-390.93 -266.85)"/></svg>