<?xml version="1.0" encoding="utf-8"?>
<!-- Generator: Adobe Illustrator 25.0.0, SVG Export Plug-In . SVG Version: 6.00 Build 0)  -->
<svg version="1.1" id="Livello_1" xmlns="http://www.w3.org/2000/svg" xmlns:xlink="http://www.w3.org/1999/xlink" x="0px" y="0px"
	 viewBox="0 0 841.9 595.3" style="enable-background:new 0 0 841.9 595.3;" xml:space="preserve">
<style type="text/css">
	.st0{fill:#E8307A;}
	.st1{fill:none;stroke:#E8307A;stroke-miterlimit:10;}
</style>
<g>
	<path class="st0" d="M354.5,289.7c0.7-0.6,1.4-1.1,1.9-1.4c0.6-0.3,1.3-0.5,2.1-0.5c1.8,0,3.2,0.9,4.1,2.6c0.9,1.8,1.3,4.6,1.3,8.5
		c0,2.5-0.1,4.6-0.4,6.2s-0.9,3-1.9,4s-2.1,1.6-3.3,1.6c-1.5,0-2.8-0.8-3.8-2.3v3.7c0,0.4,0.2,0.6,0.7,0.8c0.4,0.1,0.7,0.4,0.7,0.8
		v0.6c0,0.2,0,0.4-0.1,0.4c-0.1,0.1-0.2,0.1-0.5,0.1h-7c-0.5,0-0.7-0.1-0.7-0.3v-0.6c0-0.4,0.2-0.7,0.6-0.9c0.2-0.1,0.3-0.3,0.3-0.5
		v-21.6c0-0.4-0.2-0.7-0.5-0.9c-0.2-0.1-0.3-0.3-0.4-0.3c0-0.1-0.1-0.2-0.1-0.5v-0.5c0-0.3,0-0.5,0.1-0.5c0.1-0.1,0.2-0.1,0.5-0.1
		h5.5c0.3,0,0.6,0,0.6,0.1c0.1,0.1,0.1,0.3,0.1,0.6v0.9H354.5z M357.3,292.8c0-0.7-0.2-1.2-0.4-1.5c-0.3-0.3-0.6-0.5-1-0.5
		c-0.3,0-0.6,0.1-0.9,0.4c-0.3,0.3-0.5,0.6-0.5,1v13.9c0,0.3,0.2,0.6,0.5,0.9c0.3,0.3,0.7,0.5,1.2,0.5c0.7,0,1.1-0.5,1.1-1.6
		L357.3,292.8L357.3,292.8z"/>
	<path class="st0" d="M365.6,285.3v-0.8c0-0.4,0.3-0.5,0.8-0.5h5.6c0.3,0,0.5,0,0.6,0.1c0.1,0,0.1,0.2,0.1,0.6v23.2
		c0,0.5,0.2,0.8,0.5,0.9c0.3,0.1,0.4,0.3,0.4,0.6v0.9c0,0.3-0.3,0.5-0.8,0.5h-6.6c-0.4,0-0.6-0.2-0.6-0.5v-0.9
		c0-0.4,0.2-0.7,0.6-0.9c0.2-0.1,0.4-0.2,0.4-0.3c0.1-0.1,0.1-0.3,0.1-0.5v-20.6c0-0.4-0.2-0.6-0.5-0.8
		C365.8,286,365.6,285.7,365.6,285.3z"/>
	<path class="st0" d="M384.5,294.7v-3.2c0-0.9-0.4-1.3-1.2-1.3c-1.1,0-1.6,0.7-1.6,2c0,0.8-0.1,1.3-0.3,1.6
		c-0.2,0.3-0.6,0.6-1.3,0.8c-0.7,0.2-1.4,0.3-2.1,0.3c-1.5,0-2.3-0.8-2.3-2.3c0-1.4,0.7-2.6,2-3.5c1.3-0.9,3.1-1.3,5.2-1.3
		c1.4,0,2.7,0.2,3.8,0.5s2,1,2.7,1.8s1,1.8,1,2.8V308c0,0.1,0.2,0.2,0.5,0.5c0.2,0.2,0.4,0.4,0.4,0.7c0,0.4-0.1,0.8-0.2,0.9
		c-0.1,0.2-0.5,0.4-1,0.5s-1.1,0.2-1.9,0.2c-0.9,0-1.7-0.2-2.3-0.5s-1.1-0.9-1.5-1.9c-1,1-1.9,1.6-2.5,1.9s-1.3,0.4-2,0.4
		c-1.5,0-2.7-0.5-3.5-1.7c-0.8-1.1-1.3-2.9-1.3-5.4s0.4-4.2,1.2-5.2c0.8-1,2.3-1.9,4.6-2.7C382.3,295.5,383.5,295.1,384.5,294.7z
		 M384.5,296.8c-1.4,0.6-2.2,1.2-2.4,1.9c-0.3,0.7-0.4,2.2-0.4,4.7c0,1.8,0.1,2.9,0.3,3.4c0.2,0.5,0.6,0.7,1.1,0.7
		c0.9,0,1.4-0.7,1.4-2.1V296.8L384.5,296.8z"/>
	<path class="st0" d="M401.4,300.8l1.8-8.7c0-0.1,0.1-0.2,0.1-0.3c0.1-0.3,0.1-0.5,0.1-0.6c0-0.3-0.2-0.6-0.6-0.9
		c-0.2-0.1-0.3-0.3-0.4-0.5c0-0.2-0.1-0.6-0.1-1.1c0-0.4,0.2-0.5,0.5-0.5h3.1c0.3,0,0.6,0.1,0.7,0.2s0.2,0.5,0.2,1
		c0,0.3,0,0.5-0.1,0.6s-0.2,0.2-0.4,0.3c-0.3,0.2-0.6,0.7-0.7,1.5l-3,14.6c-0.5,2.5-0.9,4.2-1.2,4.9c-0.3,0.7-0.7,1.4-1.2,1.9
		c-0.5,0.6-1.2,1-1.9,1.3c-0.7,0.3-1.6,0.4-2.6,0.4c-1.1,0-1.9-0.2-2.4-0.7c-0.6-0.5-0.9-1.1-0.9-1.8c0-0.5,0.2-1,0.6-1.3
		s0.9-0.5,1.4-0.5c0.8,0,1.4,0.5,1.8,1.4c0.2,0.4,0.4,0.7,0.7,0.7c0.6,0,0.9-0.3,0.9-0.9c0-0.2-0.1-0.8-0.4-1.9l-3.8-17.2
		c-0.2-0.8-0.3-1.4-0.5-1.7c-0.1-0.3-0.3-0.5-0.5-0.6s-0.3-0.3-0.3-0.6v-0.9c0-0.3,0-0.5,0.1-0.6s0.3-0.1,0.6-0.1h6.3
		c0.3,0,0.6,0,0.7,0.1s0.2,0.2,0.2,0.5c0,0.5,0,0.9-0.1,1.1s-0.2,0.3-0.4,0.4c-0.4,0.1-0.5,0.4-0.5,0.8c0,0.2,0,0.6,0.1,0.9
		L401.4,300.8z"/>
	<path class="st0" d="M426.5,294.7v-3.2c0-0.9-0.4-1.3-1.2-1.3c-1.1,0-1.6,0.7-1.6,2c0,0.8-0.1,1.3-0.3,1.6s-0.6,0.6-1.3,0.8
		c-0.7,0.2-1.4,0.3-2.1,0.3c-1.5,0-2.3-0.8-2.3-2.3c0-1.4,0.7-2.6,2-3.5s3.1-1.3,5.2-1.3c1.4,0,2.7,0.2,3.8,0.5s2,1,2.7,1.8
		s1,1.8,1,2.8V308c0,0.1,0.2,0.2,0.5,0.5c0.2,0.2,0.4,0.4,0.4,0.7c0,0.4-0.1,0.8-0.2,0.9c-0.1,0.2-0.5,0.4-1,0.5s-1.1,0.2-1.9,0.2
		c-0.9,0-1.7-0.2-2.3-0.5c-0.6-0.3-1.1-0.9-1.5-1.9c-1,1-1.9,1.6-2.5,1.9s-1.3,0.4-2,0.4c-1.5,0-2.7-0.5-3.5-1.7
		c-0.8-1.1-1.3-2.9-1.3-5.4s0.4-4.2,1.2-5.2c0.8-1,2.3-1.9,4.6-2.7C424.3,295.5,425.5,295.1,426.5,294.7z M426.5,296.8
		c-1.4,0.6-2.2,1.2-2.4,1.9c-0.3,0.7-0.4,2.2-0.4,4.7c0,1.8,0.1,2.9,0.3,3.4s0.6,0.7,1.1,0.7c0.9,0,1.4-0.7,1.4-2.1V296.8z"/>
	<path class="st0" d="M445.1,288.1c0.4-0.4,0.6-0.7,0.6-0.9c0-0.3-0.2-0.6-0.7-0.8c-0.6-0.4-1-0.8-1-1.3c0-1,0.8-1.5,2.3-1.5
		c0.9,0,1.6,0.2,2,0.5c0.4,0.4,0.6,0.8,0.6,1.3c0,1-0.8,2.1-2.3,3.4c2.6,1.7,4,4.1,4,7.1c0,2.6-0.8,4.6-2.3,6.1s-3.3,2.3-5.3,2.3
		c-0.6,0-1.3-0.1-2.1-0.3c-0.4-0.1-0.7-0.1-0.9-0.1c-0.4,0-0.8,0.1-1.2,0.4s-0.6,0.6-0.6,0.9c0,0.5,0.7,0.8,2,0.8h4.9
		c1.8,0,3.2,0.3,4.3,1c1.1,0.7,1.7,1.7,1.7,3.2c0,3.1-2.9,4.7-8.6,4.7c-2.2,0-4-0.2-5.4-0.6s-2-1.1-2-1.9c0-0.5,0.1-0.8,0.4-1.1
		s0.8-0.6,1.5-0.9c0.1,0,0.2-0.1,0.4-0.2c-1.6-0.7-2.5-1.8-2.5-3.3c0-1.7,1.2-3,3.5-3.9c-2.2-1.6-3.3-3.8-3.3-6.6
		c0-2.5,0.8-4.5,2.3-6.1s3.3-2.4,5.5-2.4C443.4,287.8,444.2,287.9,445.1,288.1z M439.7,310.7c-0.8,0.3-1.2,0.6-1.2,1.1
		s0.3,0.7,0.8,0.9s1.7,0.3,3.5,0.3c3,0,4.5-0.5,4.5-1.5c0-0.6-0.5-0.8-1.5-0.8h-5C440.5,310.7,440.1,310.7,439.7,310.7z
		 M444.2,292.2c0-1.4-0.4-2.2-1.3-2.2c-0.4,0-0.8,0.2-1,0.7c-0.3,0.5-0.4,0.9-0.4,1.5v8.3c0,0.5,0.1,0.8,0.4,1.1
		c0.2,0.3,0.6,0.5,0.9,0.5c0.4,0,0.7-0.2,1-0.5s0.4-0.7,0.4-1.3V292.2z"/>
	<path class="st0" d="M461.8,294.7v-3.2c0-0.9-0.4-1.3-1.2-1.3c-1.1,0-1.6,0.7-1.6,2c0,0.8-0.1,1.3-0.3,1.6
		c-0.2,0.3-0.6,0.6-1.3,0.8c-0.7,0.2-1.4,0.3-2.1,0.3c-1.5,0-2.3-0.8-2.3-2.3c0-1.4,0.7-2.6,2-3.5s3.1-1.3,5.2-1.3
		c1.4,0,2.7,0.2,3.8,0.5c1.1,0.4,2,1,2.7,1.8s1,1.8,1,2.8V308c0,0.1,0.2,0.2,0.5,0.5c0.2,0.2,0.4,0.4,0.4,0.7c0,0.4-0.1,0.8-0.2,0.9
		c-0.1,0.2-0.5,0.4-1,0.5c-0.5,0.2-1.1,0.2-1.9,0.2c-0.9,0-1.7-0.2-2.3-0.5c-0.6-0.3-1.1-0.9-1.5-1.9c-1,1-1.9,1.6-2.5,1.9
		s-1.3,0.4-2,0.4c-1.5,0-2.7-0.5-3.5-1.7c-0.8-1.1-1.3-2.9-1.3-5.4s0.4-4.2,1.2-5.2c0.8-1,2.3-1.9,4.6-2.7
		C459.6,295.5,460.8,295.1,461.8,294.7z M461.8,296.8c-1.4,0.6-2.2,1.2-2.4,1.9c-0.3,0.7-0.4,2.2-0.4,4.7c0,1.8,0.1,2.9,0.3,3.4
		c0.2,0.5,0.6,0.7,1.1,0.7c0.9,0,1.4-0.7,1.4-2.1V296.8z"/>
	<path class="st0" d="M470.1,289.7v-1.1c0-0.4,0.2-0.5,0.7-0.5h5.7c0.4,0,0.6,0.2,0.6,0.5v19.1c0,0.3,0,0.4,0.1,0.5
		c0,0.1,0.1,0.1,0.3,0.2c0.4,0.2,0.6,0.5,0.6,1c0,0.6,0,1-0.1,1.1s-0.3,0.2-0.6,0.2h-7c-0.2,0-0.3-0.1-0.3-0.2
		c0-0.1-0.1-0.4-0.1-0.9c0-0.6,0.2-0.9,0.5-1c0.4-0.1,0.6-0.3,0.6-0.7v-16.6c0-0.6-0.3-1-0.8-1.2C470.2,290.1,470.1,290,470.1,289.7
		z M475.2,283.3c1.4,0,2,0.4,2,1.3c0,0.7-0.5,1.2-1.4,1.7s-1.9,0.7-3.1,0.7c-1.5,0-2.2-0.5-2.2-1.4c0-0.7,0.5-1.3,1.6-1.7
		C473.1,283.5,474.2,283.3,475.2,283.3z"/>
	<path class="st0" d="M486.6,290.3c1.4-1.7,3.1-2.5,4.9-2.5c1.3,0,2.2,0.4,2.9,1.1c0.7,0.7,1,1.7,1,2.8v15.9c0,0.4,0.2,0.6,0.5,0.8
		s0.4,0.6,0.4,1.2c0,0.5,0,0.8-0.1,0.9s-0.3,0.1-0.6,0.1h-5.1c-0.7-0.6-1.1-1.3-1.1-2.2v-15.8c0-0.9-0.4-1.3-1.2-1.3
		c-0.5,0-1,0.2-1.6,0.7v15.5c0,0.4,0.2,0.7,0.6,0.9c0.3,0.1,0.4,0.4,0.4,0.7v0.8c0,0.4-0.3,0.6-0.9,0.6h-6.4c-0.3,0-0.5,0-0.6-0.1
		s-0.1-0.3-0.1-0.6v-0.6c0-0.3,0.1-0.5,0.3-0.7c0.3-0.2,0.5-0.4,0.6-0.5c0.1-0.2,0.1-0.5,0.1-1.1v-16.2c0-0.4-0.2-0.7-0.6-0.8
		c-0.2-0.1-0.3-0.3-0.3-0.5v-0.9c0-0.3,0.2-0.5,0.5-0.5h5.9c0.3,0,0.4,0,0.5,0.1s0.1,0.2,0.1,0.4L486.6,290.3L486.6,290.3z"/>
</g>
<path class="st1" d="M341.2,309.9v-25c0-5.5,4.5-10,10-10h139.1c5.5,0,10,4.5,10,10v25c0,5.5-4.5,10-10,10H351.2
	C345.7,319.9,341.2,315.4,341.2,309.9z"/>
</svg>
