<svg id="Livello_1" data-name="Livello 1" xmlns="http://www.w3.org/2000/svg" viewBox="0 0 60.88 60.88"><defs><style>.cls-1{fill:#d8831f;}.cls-2{fill:#fff;}.cls-3{fill:#fdfbfb;stroke:#fdfdfb;stroke-miterlimit:10;stroke-width:2px;}</style></defs><circle class="cls-1" cx="30.44" cy="30.44" r="30.44"/><path class="cls-2" d="M307.65,419.84a2.63,2.63,0,1,0,2.63-2.63A2.63,2.63,0,0,0,307.65,419.84Z" transform="translate(-291.84 -399.26)"/><line class="cls-3" x1="23.38" y1="21.31" x2="45.5" y2="21.31"/><path class="cls-2" d="M307.65,429.7a2.63,2.63,0,1,0,2.63-2.63A2.63,2.63,0,0,0,307.65,429.7Z" transform="translate(-291.84 -399.26)"/><line class="cls-3" x1="23.38" y1="31.17" x2="45.5" y2="31.17"/><path class="cls-2" d="M307.65,439.74a2.63,2.63,0,1,0,2.63-2.63A2.63,2.63,0,0,0,307.65,439.74Z" transform="translate(-291.84 -399.26)"/><line class="cls-3" x1="23.38" y1="41.21" x2="45.5" y2="41.21"/></svg>