<svg id="Livello_1" data-name="Livello 1" xmlns="http://www.w3.org/2000/svg" viewBox="0 0 60.88 60.88"><defs><style>.cls-1{fill:#d9841f;}.cls-2{fill:#fff;}.cls-3{fill:#fefcfc;}</style></defs><circle class="cls-1" cx="30.44" cy="30.44" r="30.44"/><rect class="cls-2" x="39.48" y="24.92" width="3.86" height="11.02" rx="0.59"/><path class="cls-2" d="M415.55,304l-6.68-5.69a1.52,1.52,0,0,1,0-2l6.68-5.7,6.67-5.69c.54-.46,1.2.11,1.2,1v6h5.52a.5.5,0,0,1,.51.51h0v10a.51.51,0,0,1-.51.51h-5.52v5.8c0,.91-.66,1.47-1.2,1Z" transform="translate(-390.93 -266.85)"/><circle class="cls-1" cx="30.44" cy="30.44" r="30.44"/><path class="cls-3" d="M433.39,281.75l-.35-4.33c-12.65-2.13-31.54,6.09-31.54,6.09h0l.83-.33,6.72,17.32c10.52-4.85,19-5.22,23-5a18.29,18.29,0,0,1,2.46.23l-1.12-13.83.63.08c.14,2.45.38,4.9.5,7.34.1,2.1-.1,4.3,0,6.41-.27.27-.94-.17-2.24,2a15.32,15.32,0,0,1,8.29,1.51l2.85-14.81A32.26,32.26,0,0,0,433.39,281.75Z" transform="translate(-390.93 -266.85)"/><rect class="cls-2" x="408.57" y="281.43" width="1.16" height="41.17" transform="translate(-473.88 -93.13) rotate(-21.82)"/></svg>