<?xml version="1.0" encoding="utf-8"?>
<!-- Generator: Adobe Illustrator 25.0.0, SVG Export Plug-In . SVG Version: 6.00 Build 0)  -->
<svg version="1.1" id="Livello_1" xmlns="http://www.w3.org/2000/svg" xmlns:xlink="http://www.w3.org/1999/xlink" x="0px" y="0px"
	 viewBox="0 0 595.3 841.9" style="enable-background:new 0 0 595.3 841.9;" xml:space="preserve">
<style type="text/css">
	.st0{fill:#FFFFFF;}
	.st1{fill:#D8831F;}
	.st2{fill:#F7C971;}
	.st3{fill:#F5B858;}
	.st4{fill:#290D0E;}
	.st5{fill:#E72D79;}
</style>
<g>
	<g>
		<path class="st0" d="M226.3,392c4-2.1,9,2.5,7.3,6.7c-1.1,4.1-7.3,5.4-9.7,1.8C221.7,397.7,223.2,393.4,226.3,392z"/>
	</g>
	<g>
		<g>
			<path class="st1" d="M247.4,209.2c52.6-4.4,105.9-2.6,157.6,8.1c13.5,2.9,26.9,7,39.3,13.3c8.4,4.4,16.7,9.7,22.7,17.2
				c6.5,8.1,9.5,18.4,11,28.5c1.8,15.6-2.5,31.4-9.8,45.1c-4.5,9.1-9.8,17.9-14.8,26.7c-7.3,13.5-9.2,29.4-7.4,44.5
				c2,19.1,9.7,37.1,12,56.2c3.5,8.1,5.4,50.1,0,70.6c-3.7,14.4-12.8,27.1-24.7,35.8c-13.1,9.8-29.1,14.9-45.1,17.7
				c-16.9,3.2-33.9,5.8-51.1,7.1c-1.9,0.1-3.8,0.3-5.6,0.4c-19,1.3-38.2,1.6-57.2,0.6c-1.9-0.1-3.8-0.3-5.7-0.4
				c-18.2-1.3-36.5-3-54.3-6.8c-14.2-2.5-28-7.6-40.4-15c-6.1-3.6-11.8-8.2-16-13.9c-12.3-15-17.7-34.5-18.8-53.5
				c-0.9-13.3,0.2-26.6,2-39.8c0.2-1.7,0.5-3.4,0.8-5.1c2.4-16.2,7.2-31.9,9.5-48.1c2.1-16.8,1.6-34.9-7-49.9
				c-9.5-16.7-20.1-33.5-23.8-52.7c-3-14.6-1.6-30.6,6.5-43.4c6.1-9.7,15.4-17,25.2-22.5c11.7-6.6,24.6-10.6,37.6-13.6
				C208.6,212.3,228,210.7,247.4,209.2z M231.4,219.7c-23.8,2.4-47.6,7.6-69.3,17.8c-11.5,6-23.1,13.7-28.7,25.8
				c-5.8,12.4-4.5,26.8-0.3,39.5c5.2,17.4,15.7,32.5,23.5,48.8c5.2,11.6,6,24.7,5,37.2c-1.7,16.6-7,32.4-9.8,48.8
				c-3.4,20.5-5.4,41.6-2.4,62.3c2.1,14.5,7.7,28.9,17.9,39.6c6.1,6.6,14.2,10.9,22.1,14.8c19.9,9.3,41.9,12.4,63.6,13.8
				c24.6,1.4,49.3,2.4,74,1c20.3-1.4,40.9-3.9,59.8-11.7c11.7-4.9,23.3-11.3,31.4-21.4c11.1-13.3,15.4-30.9,16.2-47.8
				c1.2-25-2.7-50-8.8-74.1c-4.5-17.7-7.5-36.6-2.8-54.5c2.5-9.7,8.4-18,12.8-26.9c8.1-15.6,15.3-32.7,13.8-50.7
				c-1.3-11.8-4.8-24.2-13.5-32.7c-15.1-14-34.9-21.8-54.9-25.4c-41.4-7.5-83.7-5.9-125.6-6C247.2,218.1,239.3,219,231.4,219.7z"/>
		</g>
	</g>
	<g>
		<path class="st2" d="M231.4,219.7c7.9-0.7,15.8-1.6,23.8-1.7c41.9,0.1,84.2-1.5,125.6,6c20,3.6,39.8,11.4,54.9,25.4
			c8.8,8.5,12.3,20.8,13.5,32.7c1.5,18-5.7,35.1-13.8,50.7c-4.4,8.9-10.3,17.1-12.8,26.9c-4.7,18-1.7,36.8,2.8,54.5
			c6.1,24.2,10.1,49.1,8.8,74.1c-0.9,17-5.2,34.5-16.2,47.8c-8,10.1-19.6,16.5-31.4,21.4c-18.9,7.8-39.5,10.3-59.8,11.7
			c-24.7,1.3-49.4,0.3-74-1c-21.7-1.4-43.7-4.6-63.6-13.8c-8-3.9-16.1-8.2-22.1-14.8c-10.2-10.8-15.8-25.1-17.9-39.6
			c-3-20.7-1-41.8,2.4-62.3c2.8-16.3,8.2-32.2,9.8-48.8c1-12.5,0.2-25.6-5-37.2c-7.8-16.3-18.4-31.3-23.5-48.8
			c-4.1-12.7-5.4-27.1,0.3-39.5c5.7-12.1,17.3-19.8,28.7-25.8C183.8,227.3,207.6,222.1,231.4,219.7z M199.4,243
			c0.1,1.8,0.1,3.6,0.2,5.4c2,0.5,4.1,1.1,6.1,0.5c1.9-1.5,2.5-5,0.2-6.4C203.8,241.3,201.5,242.4,199.4,243z M353.9,242.6
			c-2,1.3-2.6,5.1-0.3,6.4c2.5,1.3,6.9,0,6.5-3.3C360.2,242.4,356.3,241.4,353.9,242.6z M409.2,267.4c-2.2,0.7-2.3,3.7-1.3,5.4
			c2.1,3,8,1.6,7.6-2.4C415.6,267.2,411.6,266.5,409.2,267.4z M153.6,307c-0.2,1.9-0.7,4,0.1,5.8c2,1.6,4.9,1.5,6.8-0.3
			c0.4-1.7,0-3.4-0.1-5.1C158.2,306.9,155.9,306.8,153.6,307z M187.7,319.6c-3,0.9-5.9,5.1-3.6,7.9c1.7,2.5,4.9,5.2,8,3.3
			c3.4-1.6,3.6-5.8,2.6-8.9C193.4,319.4,190.2,318.7,187.7,319.6z M404.4,444.4c-1,1.3-1.7,3.3-0.5,4.6c1.9,3,7.8,2.4,7.9-1.5
			C412.1,443.8,407,442.5,404.4,444.4z M166.7,467.4c-2.8,1.1-2.2,5.6,0.5,6.5c2.4,1.3,6.2-0.4,5.7-3.4
			C173.1,467.3,169.1,466.3,166.7,467.4z M282.7,467.3c-2.7,0.4-2.4,3.8-1.2,5.6c2.1,2.8,7.3,1.2,7.4-2.3
			C288.7,467.6,285.2,466.4,282.7,467.3z M379.4,520.3c-2,0.3-3.7,2.3-2.9,4.4c0.9,3.4,6.2,4.3,7.8,1
			C386.2,522.6,382.5,519.3,379.4,520.3z"/>
	</g>
	<g>
		<path class="st3" d="M199.4,243c2.1-0.6,4.4-1.7,6.5-0.6c2.3,1.4,1.7,5-0.2,6.4c-2,0.6-4.1,0-6.1-0.5
			C199.6,246.6,199.5,244.8,199.4,243z"/>
		<path class="st3" d="M353.9,242.6c2.4-1.2,6.4-0.2,6.2,3.1c0.4,3.4-4,4.7-6.5,3.3C351.3,247.6,351.8,243.9,353.9,242.6z"/>
		<path class="st3" d="M409.2,267.4c2.4-1,6.3-0.2,6.2,3c0.5,4-5.5,5.3-7.6,2.4C406.9,271.1,407,268.2,409.2,267.4z"/>
		<path class="st3" d="M153.6,307c2.3-0.2,4.6,0,6.8,0.4c0.1,1.7,0.5,3.4,0.1,5.1c-1.8,1.8-4.8,1.8-6.8,0.3
			C153,310.9,153.5,308.9,153.6,307z"/>
		<path class="st3" d="M187.7,319.6c2.5-0.9,5.7-0.2,7,2.2c1,3.1,0.8,7.4-2.6,8.9c-3.1,1.9-6.3-0.8-8-3.3
			C181.8,324.7,184.6,320.5,187.7,319.6z"/>
		<path class="st3" d="M404.4,444.4c2.5-1.9,7.7-0.6,7.5,3.1c-0.2,3.9-6,4.5-7.9,1.5C402.8,447.7,403.5,445.6,404.4,444.4z"/>
		<path class="st3" d="M166.7,467.4c2.3-1.1,6.4-0.1,6.2,3.1c0.5,3-3.3,4.7-5.7,3.4C164.5,473,163.9,468.5,166.7,467.4z"/>
		<path class="st3" d="M282.7,467.3c2.4-0.9,6,0.3,6.1,3.2c0,3.5-5.3,5.1-7.4,2.3C280.4,471.1,280,467.7,282.7,467.3z"/>
		<path class="st3" d="M379.4,520.3c3.1-1,6.8,2.3,4.9,5.4c-1.6,3.3-6.9,2.4-7.8-1C375.8,522.6,377.4,520.6,379.4,520.3z"/>
	</g>
	<g>
		<path class="st4" d="M113.8,240.9c-3.5,6.4-7,12.8-10.8,19.1c-1.8-15.4,10-28.1,24.2-32C124.1,233.7,118.9,237.4,113.8,240.9z"/>
	</g>
	<g>
		<path class="st4" d="M461.8,556.7c3.7-6.3,7.2-12.7,11.1-18.8c1.5,15.5-10.5,27.9-24.8,31.5C451.3,563.7,456.6,560.1,461.8,556.7z
			"/>
	</g>
	<g>
		<path class="st4" d="M103,230.2c-2.9,5.2-5.7,10.6-8.9,15.7c-1.4-12.7,8.2-23.1,19.9-26.3C111.5,224.3,107.2,227.3,103,230.2z"/>
	</g>
	<g>
		<path class="st4" d="M474.9,565.3c2.6-4.5,5.2-9.1,8-13.5c1,11.1-7.5,20-17.8,22.6C467.4,570.4,471.2,567.8,474.9,565.3z"/>
	</g>
</g>
<g>
	<path class="st5" d="M188,289.5c-1.4,2.5-3.4,3.9-6,4.4c-4.1,0.8-7.8-0.8-11.3-4.7c-3.4-3.9-5.7-8.9-6.9-15
		c-1.3-6.9-0.9-12.7,1.2-17.5c2.1-4.8,5.2-7.6,9.2-8.4c1.9-0.4,3.7-0.2,5.4,0.4c0.5,0.2,0.9,0.3,1.2,0.2c0.4-0.1,0.6-0.4,0.7-1.1
		c0.1-0.6,0.5-1,1.1-1.1l0.4-0.1l1-0.1c0.7,0,1.1,0.3,1.4,1l3.6,8.3c0.4,0.9,0.6,1.4,0.6,1.8c0.1,0.6-0.3,1.1-1.4,1.3
		c-1,0.2-1.7,0.2-2.1,0c-0.3-0.2-1.1-1.1-2.3-2.5c-1.6-2-3-3.3-4-4c-1.1-0.7-2.1-0.9-3.1-0.7c-2.7,0.5-3.7,2.8-2.9,6.7l5.6,29.4
		c0.4,2.2,1.4,3.1,2.8,2.8c1.6-0.3,2.2-1.5,1.8-3.7l-2.7-14.3c-0.2-0.9-0.6-1.5-1.4-1.6c-0.8-0.2-1.3-0.7-1.5-1.6
		c-0.2-1-0.2-1.6,0-1.8c0.2-0.2,0.6-0.4,1.2-0.5l12.5-2.4c0.6-0.1,1-0.1,1.3,0.1s0.4,0.6,0.6,1.3c0.1,0.8,0.2,1.3,0.1,1.6
		c-0.1,0.3-0.4,0.6-0.8,0.8c-0.7,0.4-0.9,0.9-0.8,1.7l3.6,18.6c0.2,1.1,0.3,1.8,0.2,2.1s-0.5,0.5-1.2,0.7c-0.6,0.1-1.1,0.2-1.3,0.1
		c-0.3,0-0.7-0.2-1.3-0.5C190.8,290.1,189.4,289.6,188,289.5z"/>
	<path class="st5" d="M212.7,279l-7.5,0.9l0,2.6c0,0.1,0,0.1,0,0.3c-0.1,0.6-0.1,1-0.1,1.5c0.1,0.7,0.6,1.2,1.6,1.5
		c0.5,0.2,0.9,0.4,1,0.6c0.1,0.2,0.3,0.7,0.3,1.3c0.1,0.8,0.1,1.2,0,1.4c-0.1,0.2-0.3,0.3-0.6,0.3l-7.9,0.9
		c-0.4,0.1-0.7-0.3-0.8-1.2c-0.1-1,0.1-1.9,0.8-2.6c0.6-0.6,0.9-1.3,0.9-2l1.7-33.2c0-0.5,0-0.9,0-1.3c-0.1-0.6-0.6-1-1.5-1.4
		c-0.4-0.2-0.7-0.6-0.8-1.4c-0.1-1-0.1-1.6,0-1.9c0.1-0.3,0.4-0.4,0.9-0.5l11.5-1.3c0.7-0.1,1.2,0.2,1.6,0.7s0.8,1.9,1.3,3.9
		c0.2,0.8,0.4,1.5,0.6,2.3l8.5,29.8c0.4,1.4,1.1,2.5,2.2,3.2c0.3,0.2,0.5,0.3,0.6,0.4c0.1,0.1,0.2,0.5,0.2,1.1
		c0.1,0.9,0.1,1.5,0,1.8c-0.1,0.2-0.4,0.4-0.9,0.4l-13.3,1.6c-0.4,0-0.6-0.3-0.7-1c-0.1-0.9-0.1-1.4,0-1.7c0.1-0.2,0.3-0.5,0.8-0.9
		c0.6-0.5,0.9-1,0.9-1.7C213.8,282.8,213.5,281.3,212.7,279z M206.2,254.6l-0.9,22l6.7-0.8L206.2,254.6z"/>
	<path class="st5" d="M247.6,240.5l10.7-0.7c0.7,0,1.2,0,1.4,0.2s0.4,0.7,0.4,1.5c0,0.7,0,1.2-0.1,1.5c-0.1,0.3-0.5,0.6-1,0.9
		c-0.5,0.3-0.8,0.5-0.9,0.8c-0.1,0.3-0.2,0.7-0.1,1.3l2.2,33c0,0.5,0.1,0.8,0.3,1c0.1,0.2,0.5,0.4,1,0.6c0.8,0.3,1.2,0.7,1.2,1.3
		c0.1,1.4,0.1,2.3,0,2.4c-0.1,0.2-0.4,0.3-1,0.3l-13.4,0.9c-0.6,0-0.9-0.4-1-1.3c-0.1-0.8-0.1-1.4,0-1.7c0-0.4,0.4-0.7,1.1-1
		c0.7-0.3,1.1-0.8,1-1.5l-1.6-23.4l-4.2,19.3l-3.3,0.2l-6.5-18l1.5,22.7c0,0.7,0.4,1.3,1.2,1.6c0.9,0.3,1.4,1,1.5,2.1
		c0.1,1.2-0.3,1.8-1.2,1.9l-6.5,0.4c-0.7,0-1.2-0.5-1.2-1.6c-0.1-0.8,0.2-1.4,0.8-1.9c0.4-0.4,0.7-0.7,0.8-0.9s0.1-0.6,0.1-1.1
		l-2.1-32.1c-0.1-0.9-0.2-1.6-0.4-2c-0.2-0.5-0.6-0.8-1.2-1.1c-0.6-0.3-0.9-0.5-1-0.9l0-1.2c0-0.9,0-1.4,0.1-1.6
		c0.1-0.2,0.4-0.3,0.8-0.4l11.1-0.7l6,16.9L247.6,240.5z"/>
	<path class="st5" d="M276.7,242.7l0.5,15.9l2.1-0.1c0.6,0,1-0.1,1.2-0.4c0.3-0.2,0.4-0.7,0.6-1.5c0.2-1.3,0.4-2.1,0.5-2.4
		c0.1-0.3,0.4-0.4,0.7-0.4c1.6,0,2.5,0,2.7,0.1s0.3,0.6,0.4,1.4l0.3,9.3c0,0.6-0.1,1-0.3,1.1c-0.2,0.2-0.8,0.3-1.9,0.3
		c-0.7,0-1.1-0.1-1.4-0.3c-0.2-0.2-0.5-0.9-0.7-1.9c-0.2-1-0.5-1.6-0.7-1.8c-0.2-0.2-0.5-0.3-1-0.3l-2.4,0.1l0.6,19.2l1.6,0
		c1,0,1.7-0.3,2-0.8c0.4-0.5,0.9-2,1.7-4.5c0.3-1,0.6-1.7,1-2c0.4-0.3,1-0.5,1.9-0.5c1.2,0,1.9,0.3,1.9,1.1c0,0.2,0,0.5-0.1,1
		l-0.9,6.4c-0.2,1.2-0.3,1.9-0.4,2.1c-0.1,0.2-0.5,0.4-1.2,0.4l-20.1,0.6c-0.5,0-0.8-0.1-1-0.3c-0.1-0.2-0.2-0.8-0.3-1.8
		c0-0.6,0.3-1.1,1-1.5c1.1-0.5,1.6-1.1,1.6-1.8l-1-34.7c0-0.4-0.5-0.7-1.4-1c-0.6-0.2-1-0.4-1.1-0.7s-0.2-0.8-0.2-1.6
		c0-0.7,0-1.2,0.1-1.3c0.1-0.1,0.5-0.2,1.1-0.2l19.3-0.6c0.5,0,0.8,0,1.1,0.2c0.2,0.1,0.4,0.5,0.5,1l1.7,7.1
		c0.1,0.4,0.1,0.6,0.1,0.7c0,0.5-0.5,0.8-1.4,0.8c-1.1,0-1.8-0.1-2.2-0.3c-0.4-0.2-0.7-0.8-1.1-1.7c-0.7-1.7-1.2-2.8-1.7-3.4
		c-0.5-0.6-1-0.9-1.5-0.9L276.7,242.7z"/>
	<path class="st5" d="M321.1,238.3c3,0,5.5,1,7.6,2.9c2.1,1.9,3.9,4.5,5.2,7.9s1.9,7.8,1.8,13c-0.1,6.4-1.5,11.7-4.3,16
		c-2.7,4.3-6.5,6.5-11.4,6.4c-4.6-0.1-8.2-2.3-10.8-6.6s-3.8-9.9-3.7-16.6c0.1-6.9,1.6-12.5,4.4-16.8
		C312.8,240.3,316.5,238.2,321.1,238.3z M323.4,244.9c0-2.3-0.8-3.5-2.4-3.5c-0.7,0-1.3,0.3-1.8,0.8c-0.5,0.6-0.7,1.3-0.8,2.1
		l-0.6,33.6c0,1.1,0.2,2,0.7,2.6s1,0.9,1.7,0.9c0.7,0,1.3-0.3,1.8-0.9c0.5-0.6,0.7-1.4,0.7-2.2L323.4,244.9z"/>
	<path class="st5" d="M355.6,267.7l5.7-21.3c0-0.2,0.1-0.4,0.1-0.6c0-0.7-0.4-1.4-1.5-1.9c-0.6-0.3-0.9-0.6-0.9-0.9
		c0-0.1,0-0.3,0-0.4l0-0.4c0-0.8,0.1-1.3,0.2-1.6c0.1-0.2,0.4-0.3,0.8-0.3l7.5,0.4c0.3,0,0.5,0.1,0.6,0.3c0.1,0.2,0.1,0.6,0,1.4
		c0,0.9-0.1,1.4-0.1,1.6c-0.1,0.2-0.2,0.4-0.4,0.5c-0.6,0.3-1,0.6-1.2,0.9c-0.2,0.3-0.4,0.9-0.7,2l-9.6,35.8l-0.6,2.2
		c-0.1,0.2-0.3,0.3-0.6,0.3l-6.1-0.3c-0.3,0-0.5-0.1-0.6-0.4c-0.1-0.2-0.3-1-0.5-2.2l-6.1-37.4c-0.1-0.9-0.6-1.6-1.3-2.1
		c-0.4-0.2-0.6-0.4-0.7-0.5c-0.1-0.1-0.1-0.4-0.1-0.8c0-0.1,0-0.3,0-0.4c0-0.2,0-0.4,0.1-0.6c0-0.1,0-0.2,0-0.4l0-0.4
		c0-0.6,0.3-0.9,0.8-0.9l13.7,0.7c0.5,0,0.7,0.4,0.6,1.2c0,0,0,0.6-0.1,1.6c-0.1,0.2-0.3,0.4-0.7,0.6c-0.9,0.3-1.4,0.9-1.4,1.8
		c0,0.2,0,0.4,0.1,0.7L355.6,267.7z"/>
	<path class="st5" d="M384,245.5l-1.3,15.9l2,0.2c0.6,0,1,0,1.3-0.2c0.3-0.2,0.5-0.7,0.7-1.4c0.3-1.3,0.6-2.1,0.8-2.3
		c0.2-0.2,0.4-0.4,0.7-0.3c1.6,0.1,2.5,0.3,2.7,0.4s0.3,0.6,0.2,1.4l-0.7,9.3c0,0.6-0.2,0.9-0.4,1.1c-0.2,0.2-0.8,0.2-1.9,0.1
		c-0.7-0.1-1.1-0.2-1.3-0.5c-0.2-0.2-0.4-0.9-0.5-2c-0.1-1-0.3-1.6-0.5-1.9c-0.2-0.2-0.5-0.4-1-0.4l-2.3-0.2l-1.5,19.1l1.6,0.1
		c1,0.1,1.7-0.1,2.1-0.6c0.4-0.5,1.1-1.9,2.1-4.3c0.4-1,0.8-1.6,1.2-1.9c0.4-0.3,1-0.4,1.9-0.3c1.2,0.1,1.8,0.5,1.8,1.3
		c0,0.2-0.1,0.5-0.2,1l-1.6,6.2c-0.3,1.1-0.5,1.8-0.7,2c-0.1,0.2-0.6,0.3-1.2,0.3l-20.1-1.6c-0.5,0-0.8-0.2-0.9-0.4
		c-0.1-0.2-0.1-0.8-0.1-1.9c0.1-0.6,0.5-1.1,1.2-1.3c1.1-0.3,1.7-0.9,1.8-1.6l2.7-34.6c0-0.4-0.4-0.7-1.3-1.2
		c-0.6-0.3-0.9-0.5-1-0.8s-0.1-0.8,0-1.6c0.1-0.7,0.2-1.1,0.3-1.3c0.1-0.1,0.5-0.2,1.1-0.1l19.2,1.5c0.5,0,0.8,0.1,1,0.3
		c0.2,0.2,0.4,0.5,0.4,1.1l1,7.3c0.1,0.4,0.1,0.6,0.1,0.8c0,0.5-0.5,0.7-1.5,0.6c-1.1-0.1-1.8-0.3-2.2-0.5c-0.3-0.3-0.7-0.9-0.9-1.8
		c-0.5-1.7-0.9-2.9-1.3-3.6c-0.4-0.7-0.9-1-1.4-1.1L384,245.5z"/>
	<path class="st5" d="M408.4,269.8l-1.7,13.7c-0.1,0.6-0.1,1.1,0,1.3c0.1,0.2,0.3,0.5,0.7,0.8c0.5,0.4,0.7,0.9,0.6,1.7
		c-0.1,1.1-0.3,1.7-0.6,1.9s-0.6,0.3-1.2,0.2l-12.7-1.5c-0.7-0.1-1-0.6-0.9-1.6c0.1-0.9,0.2-1.5,0.3-1.8c0.1-0.3,0.3-0.4,0.7-0.5
		c1.1-0.3,1.8-1,1.9-2.2l3.9-32.4c0.1-1.2-0.2-2-1.2-2.4c-0.5-0.2-0.7-0.4-0.8-0.5c-0.1-0.2-0.1-0.6,0-1.3c0.2-1.4,0.7-2.1,1.5-2
		l16.6,2c3.3,0.4,6.1,1.9,8.4,4.5c2.3,2.6,3.2,5.8,2.8,9.7c-0.7,5.5-4.1,8.7-10.4,9.6c5.4,1.8,7.8,5.4,7.1,10.7l-0.8,6.6
		c-0.1,0.6,0.1,1,0.5,1.3c0.5,0.4,0.7,0.9,0.6,1.6c-0.1,1.1-0.3,1.7-0.4,1.9c-0.2,0.2-0.5,0.2-1.1,0.2l-8-1c-1-0.1-1.7-0.7-2.2-1.8
		c-0.5-1.1-0.7-2.4-0.5-3.8l1.4-11.2c0.3-2.2-0.8-3.4-3.2-3.7L408.4,269.8z M411.1,247.9l-2.3,18.6l1.9,0.2c2,0.2,3.2-1.5,3.6-5.1
		l1.1-8.9c0.2-1.5,0-2.7-0.5-3.4c-0.6-0.7-1.5-1.1-2.8-1.3L411.1,247.9z"/>
</g>
<g>
	<path class="st5" d="M184.4,386.3h1.7c0.9,0,1.5-0.3,2-1c0.4-0.7,1-2.2,1.7-4.5c0.2-0.9,0.5-1.5,0.9-1.7c0.3-0.2,0.9-0.3,1.8-0.3
		c0.9,0,1.5,0.1,1.8,0.2c0.3,0.1,0.4,0.4,0.4,0.8c0,0.3-0.1,0.7-0.2,1.3l-1.1,6.7c-0.1,0.7-0.3,1.1-0.5,1.4s-0.6,0.3-1.2,0.3h-19.9
		c-0.8,0-1.3-0.5-1.3-1.4c0-0.7,0.1-1.2,0.2-1.4c0.1-0.2,0.3-0.4,0.7-0.5c1.1-0.3,1.7-1.3,1.7-2.9v-33.1c0-0.7-0.4-1.2-1.1-1.5
		c-0.6-0.2-1-0.5-1.1-0.8c-0.1-0.3-0.2-0.8-0.2-1.5c0-0.8,0.1-1.3,0.2-1.5c0.1-0.2,0.4-0.3,1-0.3h13.9c0.5,0,0.9,0.1,1.1,0.3
		c0.2,0.2,0.3,0.9,0.3,1.9c0,0.6-0.1,1-0.2,1.2c-0.1,0.2-0.5,0.4-1,0.6c-1,0.3-1.5,0.9-1.5,1.8V386.3z"/>
	<path class="st5" d="M207.7,369.9v11.4c0,1.5,0.3,2.7,1,3.5c0.6,0.9,1.4,1.3,2.4,1.3c1.5,0,2.8-0.6,3.7-1.8
		c0.9-1.2,1.4-2.8,1.5-4.9c0-1.1,0.1-1.8,0.3-2c0.2-0.2,0.9-0.3,2.2-0.3c1.1,0,1.8,0.1,2.1,0.3c0.3,0.2,0.4,0.7,0.4,1.5
		c0,2.9-1,5.4-3,7.6c-2,2.2-4.7,3.3-8,3.3c-3.8,0-7-1.6-9.7-4.8c-2.7-3.2-4-8-4-14.4c0-6.4,1.2-11.3,3.7-14.6c2.5-3.4,5.7-5,9.7-5
		c3.4,0,6.2,1.4,8.2,4.2c2.1,2.8,3.1,6.8,3.1,12v2.6H207.7z M211.7,366.4v-9.2c0-1.7-0.7-2.6-2-2.6c-1.4,0-2.1,0.9-2.1,2.6v9.2
		H211.7z"/>
	<path class="st5" d="M238.3,372.8l3.4-15.3c0.1-0.3,0.1-0.6,0.1-0.9c0-0.8-0.3-1.4-1-1.8c-0.4-0.2-0.6-0.6-0.6-1.2V352
		c0-0.4,0.2-0.6,0.7-0.6h5.8c0.5,0,0.7,0.1,0.9,0.2s0.2,0.4,0.2,0.8v1.3c0,0.4,0,0.6,0,0.7s-0.3,0.3-0.7,0.6
		c-0.6,0.4-1.1,1.2-1.4,2.5l-6.3,29.5c-0.3,1.7-0.6,2.6-0.6,2.7c-0.1,0.1-0.4,0.2-0.8,0.2h-5.2c-0.3,0-0.6-0.8-0.9-2.2l-6.6-30.8
		c-0.2-0.9-0.5-1.5-1-1.8c-0.5-0.4-0.8-0.8-0.8-1.1c0-1.3,0.1-2,0.2-2.2c0.1-0.2,0.5-0.3,1.1-0.3h10.6c0.6,0,1,0.1,1.2,0.3
		c0.2,0.2,0.3,0.8,0.3,1.7c0,0.5,0,0.9-0.1,1c-0.1,0.1-0.4,0.3-0.8,0.6c-0.5,0.3-0.8,0.7-0.8,1.2c0,0.4,0.1,0.8,0.2,1.3L238.3,372.8
		z"/>
	<path class="st5" d="M261.1,369.9v11.4c0,1.5,0.3,2.7,1,3.5c0.6,0.9,1.4,1.3,2.4,1.3c1.5,0,2.8-0.6,3.7-1.8
		c0.9-1.2,1.4-2.8,1.5-4.9c0-1.1,0.1-1.8,0.3-2c0.2-0.2,0.9-0.3,2.2-0.3c1.1,0,1.8,0.1,2.1,0.3c0.3,0.2,0.4,0.7,0.4,1.5
		c0,2.9-1,5.4-3,7.6c-2,2.2-4.7,3.3-8,3.3c-3.8,0-7-1.6-9.7-4.8c-2.7-3.2-4-8-4-14.4c0-6.4,1.2-11.3,3.7-14.6c2.5-3.4,5.7-5,9.7-5
		c3.4,0,6.2,1.4,8.2,4.2c2.1,2.8,3.1,6.8,3.1,12v2.6H261.1z M265.2,366.4v-9.2c0-1.7-0.7-2.6-2-2.6c-1.4,0-2.1,0.9-2.1,2.6v9.2
		H265.2z"/>
	<path class="st5" d="M277.4,346.8v-1.4c0-0.6,0.4-0.9,1.3-0.9h9.3c0.5,0,0.8,0,1,0.1s0.2,0.4,0.2,0.9v38.9c0,0.9,0.3,1.4,0.9,1.6
		c0.4,0.1,0.6,0.5,0.6,0.9v1.6c0,0.6-0.5,0.9-1.4,0.9h-11.1c-0.6,0-0.9-0.3-0.9-0.9V387c0-0.7,0.3-1.1,0.9-1.4
		c0.4-0.2,0.7-0.4,0.8-0.5c0.1-0.2,0.2-0.5,0.2-0.9v-34.5c0-0.6-0.3-1.1-0.8-1.3C277.8,348,277.4,347.5,277.4,346.8z"/>
</g>
<g>
	<path class="st5" d="M185.3,445.7v9.3c0,1.1,0.5,1.8,1.5,2.1c0.5,0.2,0.8,0.4,1,0.7c0.2,0.3,0.3,0.8,0.3,1.6c0,0.7-0.1,1.2-0.3,1.4
		c-0.2,0.2-0.7,0.3-1.3,0.3h-13.7c-0.7,0-1.1-0.6-1.1-1.8c0-0.9,0.1-1.5,0.2-1.7s0.4-0.4,1-0.6c0.5-0.1,0.9-0.3,1-0.5
		c0.1-0.2,0.2-0.5,0.2-0.9v-33.7c0-0.8-0.5-1.4-1.6-1.9c-0.6-0.3-0.9-0.7-0.9-1.3l0-1.3c0-0.6,0.1-0.9,0.2-1.1s0.5-0.3,1-0.3h15.5
		c4.4,0,8,1.3,10.6,3.9c2.6,2.6,4,6.3,4,10.9c0,2.6-0.4,5-1.2,7s-1.8,3.5-3.1,4.5c-1.2,1-2.7,1.8-4.3,2.4c-1.6,0.6-3.3,0.9-5.2,0.9
		H185.3z M185.3,419.1v23.4h2.1c0.7,0,1.4-0.4,1.9-1.1s0.9-2,0.9-3.7v-13.9c0-3.1-1.1-4.7-3.4-4.7H185.3z"/>
	<path class="st5" d="M218.8,422.6c3.8,0,6.9,1.6,9.5,4.7c2.5,3.1,3.8,7.8,3.8,14c0,6.7-1.3,11.7-3.9,15.1c-2.6,3.4-5.8,5.1-9.6,5.1
		c-2.7,0-5-0.8-6.9-2.3c-2-1.6-3.5-3.6-4.5-6.2c-1.1-2.6-1.6-6.2-1.6-10.7c0-6.4,1.2-11.3,3.6-14.6
		C211.7,424.2,214.9,422.6,218.8,422.6z M221,429.6c0-2.3-0.7-3.5-2.2-3.5c-1.6,0-2.4,1.4-2.4,4.2v23.2c0,2.8,0.7,4.2,2.1,4.2
		c1.6,0,2.4-1.4,2.4-4.2V429.6z"/>
	<path class="st5" d="M235.1,425.7v-1.8c0-0.6,0.4-0.9,1.2-0.9h9.6c0.7,0,1,0.3,1,0.9v32.1c0,0.4,0,0.7,0.1,0.9s0.2,0.3,0.5,0.4
		c0.7,0.3,1.1,0.8,1.1,1.7c0,1-0.1,1.6-0.2,1.8c-0.1,0.2-0.4,0.3-1,0.3h-11.7c-0.3,0-0.5-0.2-0.5-0.3c-0.1-0.2-0.1-0.7-0.1-1.5
		c0-1,0.3-1.6,0.8-1.8c0.6-0.2,1-0.6,1-1.1v-27.8c0-1.1-0.4-1.7-1.3-2C235.3,426.4,235.1,426.2,235.1,425.7z M243.5,415
		c2.3,0,3.4,0.7,3.4,2.1c0,1.1-0.8,2.1-2.3,2.8c-1.5,0.8-3.2,1.2-5.2,1.2c-2.5,0-3.7-0.8-3.7-2.3c0-1.2,0.9-2.2,2.6-2.8
		C240.1,415.4,241.9,415,243.5,415z"/>
	<path class="st5" d="M262.8,426.8c2.4-2.8,5.1-4.2,8.2-4.2c2.1,0,3.7,0.6,4.8,1.9c1.1,1.3,1.7,2.8,1.7,4.7v26.7
		c0,0.6,0.3,1,0.8,1.4c0.5,0.3,0.7,0.9,0.7,2c0,0.9-0.1,1.4-0.2,1.5s-0.5,0.3-1,0.3h-8.5c-1.2-0.9-1.8-2.2-1.8-3.7v-26.5
		c0-1.4-0.6-2.2-1.9-2.2c-0.8,0-1.8,0.4-2.7,1.2v26c0,0.7,0.4,1.2,1.1,1.6c0.4,0.2,0.6,0.6,0.6,1.2v1.4c0,0.6-0.5,0.9-1.5,0.9h-10.7
		c-0.5,0-0.9-0.1-1-0.2c-0.1-0.1-0.2-0.5-0.2-1v-1c0-0.5,0.2-0.9,0.5-1.1c0.5-0.3,0.8-0.6,0.9-0.9c0.1-0.3,0.2-0.9,0.2-1.8v-27.3
		c0-0.7-0.3-1.1-1-1.4c-0.4-0.2-0.6-0.5-0.6-0.9v-1.5c0-0.6,0.3-0.9,0.8-0.9h9.8c0.4,0,0.7,0.1,0.8,0.2c0.1,0.1,0.2,0.3,0.2,0.7
		V426.8z"/>
	<path class="st5" d="M283,426.8h-1.2c-0.3,0-0.6,0-0.6-0.1s-0.1-0.3-0.1-0.6v-2c0-0.4,0-0.6,0.1-0.7c0.1-0.1,0.4-0.2,0.8-0.3
		c1.5-0.2,2.9-0.9,4.4-2.2c1.5-1.3,2.3-2.7,2.6-4.1c0.1-0.5,0.2-0.8,0.4-1c0.2-0.1,0.5-0.2,0.9-0.2h2c0.5,0,0.8,0.3,0.8,1v6.4h1.9
		c0.7,0,1.1,0.3,1.1,0.9v2c0,0.6-0.4,0.9-1.1,0.9H293v28.9c0,1,0.5,1.7,1.4,2.1c0.5,0.2,0.8,0.5,0.9,0.8c0.1,0.3,0.2,0.8,0.2,1.6
		c0,0.5,0,0.8-0.1,0.8s-0.3,0.1-0.7,0.1h-9.5c-1.4-1.2-2.2-3-2.2-5.4V426.8z"/>
	<path class="st5" d="M314.1,423.6l1.7,7.7c0,0.2,0.1,0.5,0.1,0.6c0,0.5-0.5,0.8-1.6,0.8c-0.7,0-1.3-0.1-1.6-0.3
		c-0.3-0.2-0.7-0.6-1.1-1.3c-0.5-0.9-1.2-1.9-2.2-3c-1-1.2-1.9-1.8-2.7-1.8c-0.3,0-0.6,0.1-0.8,0.4c-0.2,0.3-0.3,0.6-0.3,0.9
		c0,0.9,1.5,3.6,4.4,8c2.5,3.8,4.3,6.9,5.2,9.1c0.9,2.2,1.4,4.7,1.4,7.4c0,2.9-0.7,5.2-2.1,6.8c-1.4,1.6-3,2.4-4.8,2.4
		c-1.2,0-2.4-0.4-3.7-1.2c-0.7-0.4-1.2-0.6-1.4-0.6c-0.3,0-0.4,0.2-0.5,0.6c-0.1,0.5-0.2,0.8-0.4,1c-0.2,0.1-0.7,0.2-1.6,0.2
		c-0.7,0-1.1-0.1-1.3-0.3s-0.3-0.5-0.4-1l-1.5-7.8c-0.1-0.4-0.1-0.6-0.1-0.7c0-0.5,0.7-0.8,2-0.8c0.7,0,1.2,0.1,1.5,0.2
		c0.3,0.2,0.6,0.7,1,1.5c1.6,3,3.1,4.5,4.5,4.5c0.9,0,1.4-0.5,1.4-1.5c0-0.9-0.3-2-1-3.3c-0.7-1.3-2-3.5-3.9-6.5
		c-2.1-3.2-3.5-5.9-4.5-8c-0.9-2.2-1.4-4.3-1.4-6.5c0-3,0.7-5.2,2.1-6.6c1.4-1.4,3-2.2,5-2.2c1,0,2.2,0.3,3.5,1
		c0.7,0.3,1.1,0.5,1.4,0.5c0.3,0,0.5-0.2,0.6-0.6c0.1-0.4,0.2-0.7,0.5-0.8c0.2-0.1,0.8-0.1,1.5-0.1c0.5,0,0.8,0.1,1,0.2
		C313.8,422.8,314,423.1,314.1,423.6z"/>
</g>
</svg>
