<svg id="Livello_1" data-name="Livello 1" xmlns="http://www.w3.org/2000/svg" viewBox="0 0 400.02 216.02"><defs><style>.cls-1{fill:#e72d79;}</style></defs><path class="cls-1" d="M233.43,154.52l21.13-1.46a2.67,2.67,0,0,1,1.64.21c.27.21.44.81.51,1.82a5.54,5.54,0,0,1-.17,2.5,2.56,2.56,0,0,1-1.42.94,2.72,2.72,0,0,0-1.56,1,4.92,4.92,0,0,0-.14,2.15l3.11,45a24.56,24.56,0,0,1-4.38,16.48q-5,7.07-16.51,7.86a6.27,6.27,0,0,1-2.63-.13c-.31-.18-.49-.62-.54-1.3l-.1-1.55a2.38,2.38,0,0,1,.11-1.24c.12-.2.53-.35,1.24-.46q7.49-1.12,6.76-11.64l-3.46-50c-.14-2-.42-3.25-.86-3.78a4,4,0,0,0-2.28-1.14,1.91,1.91,0,0,1-1.73-1.85,11,11,0,0,1,0-2.92C232.26,154.73,232.69,154.57,233.43,154.52Z" transform="translate(-232.06 -134.62)"/><path class="cls-1" d="M260.72,152.63l19.19-1.32q1-.08,1.26.3a5.93,5.93,0,0,1,.44,2.37,2.7,2.7,0,0,1-1.11,2.75,3.32,3.32,0,0,0-1.23,1.11,4.25,4.25,0,0,0-.19,2.07l3.17,45.84a4.12,4.12,0,0,0,1.36,3,3.93,3.93,0,0,0,3,1,3.63,3.63,0,0,0,2.7-1.5,4.37,4.37,0,0,0,.95-3l-3.17-45.8a3.78,3.78,0,0,0-.36-1.64,4.06,4.06,0,0,0-1.3-1.08,3.79,3.79,0,0,1-1.73-3.19c-.08-1.16,0-1.86.28-2.11a1.83,1.83,0,0,1,1.19-.44l9.57-.66c1.06-.07,1.63.38,1.7,1.36l.13,2a4.72,4.72,0,0,1-.06,1.67,1.77,1.77,0,0,1-1,.71,2.61,2.61,0,0,0-1.9,2.8l3.08,44.62q.45,6.34-3.25,10.31t-10.73,4.46q-7.89.56-12.3-3.09t-4.93-11l-3-43.11a2.71,2.71,0,0,0-2.12-2.4,2.52,2.52,0,0,1-1.23-.68,3.45,3.45,0,0,1-.3-1.47,8.53,8.53,0,0,1,.1-3C259.17,153,259.75,152.7,260.72,152.63Z" transform="translate(-232.06 -134.62)"/><path class="cls-1" d="M331.22,147.76l15.68-1.09A3.41,3.41,0,0,1,349,147c.34.26.55,1,.64,2.15a5.31,5.31,0,0,1-.18,2.25,3.27,3.27,0,0,1-1.54,1.32,2.92,2.92,0,0,0-1.39,1.17,4.19,4.19,0,0,0-.18,1.9l3.36,48.54a3.42,3.42,0,0,0,.38,1.54,3.15,3.15,0,0,0,1.53.92c1.13.42,1.72,1.05,1.78,1.89a13.79,13.79,0,0,1,0,3.56q-.19.36-1.53.45L332.15,214c-.86.06-1.33-.58-1.42-1.92a17.91,17.91,0,0,1-.05-2.56c.05-.57.57-1.06,1.55-1.49a2.21,2.21,0,0,0,1.53-2.28l-2.38-34.44-6.05,28.37-4.88.33-9.7-26.41,2.31,33.46a2.54,2.54,0,0,0,1.76,2.3,3.23,3.23,0,0,1,2.17,3.06c.12,1.74-.47,2.66-1.77,2.75l-9.61.66c-1.09.08-1.7-.72-1.81-2.38a3.08,3.08,0,0,1,1.18-2.79,4.89,4.89,0,0,0,1.2-1.34,3.5,3.5,0,0,0,.15-1.67l-3.26-47.24a9.24,9.24,0,0,0-.59-3,3.2,3.2,0,0,0-1.73-1.59c-.92-.37-1.39-.79-1.43-1.25l-.07-1.76a7.29,7.29,0,0,1,.12-2.42c.14-.32.52-.51,1.14-.55l16.4-1.13,8.83,24.78Z" transform="translate(-232.06 -134.62)"/><path class="cls-1" d="M374.9,188.46l1,13.62a3,3,0,0,0,2.43,2.95,2.87,2.87,0,0,1,1.55.9,4.65,4.65,0,0,1,.58,2.32c.08,1.09,0,1.78-.34,2.06a3.42,3.42,0,0,1-1.93.53l-20.07,1.38q-1.59.12-1.77-2.46a7.78,7.78,0,0,1,.05-2.53c.12-.33.6-.64,1.44-.94a3,3,0,0,0,1.4-.82,2.37,2.37,0,0,0,.19-1.35L356,154.72c-.08-1.18-.93-2.06-2.54-2.66a2.07,2.07,0,0,1-1.41-1.8l-.18-1.91a2.68,2.68,0,0,1,.22-1.64c.2-.28.69-.44,1.46-.49l22.68-1.57q9.8-.68,16,4.7T399.15,165a27.68,27.68,0,0,1-1.09,10.39,15.45,15.45,0,0,1-4.06,6.94A24,24,0,0,1,388,186.2a21.57,21.57,0,0,1-7.51,1.88Zm-2.69-39,2.37,34.28,3.1-.22a3.64,3.64,0,0,0,2.75-1.81q1.14-1.71.89-5.47l-1.41-20.41q-.48-6.87-5.44-6.52Z" transform="translate(-232.06 -134.62)"/><path class="cls-1" d="M400.93,146.39l-.15-2.17c0-.84.4-1.3,1.38-1.37l21.22-1.47a2.84,2.84,0,0,1,1.57.18c.25.18.41.74.48,1.7a8.52,8.52,0,0,1-.06,2.71,1.29,1.29,0,0,1-1,.73,3,3,0,0,0-2.52,3.42l3.4,49.16c.07,1,.79,1.81,2.16,2.32a3.59,3.59,0,0,1,1.62.91,3.26,3.26,0,0,1,.37,1.54l.11,1.59c.07.88,0,1.37-.16,1.49a3.36,3.36,0,0,1-1.36.26l-21.62,1.5c-.83.05-1.27-.22-1.31-.82a16.24,16.24,0,0,1,0-3.61c.11-.45.61-.82,1.48-1.13,1.56-.52,2.31-1.35,2.23-2.5l-3.36-48.54a6.09,6.09,0,0,0-.62-2.57,3.49,3.49,0,0,0-2.05-1.32,3.27,3.27,0,0,1-1.41-.7A2.54,2.54,0,0,1,400.93,146.39Z" transform="translate(-232.06 -134.62)"/><path class="cls-1" d="M440.16,169l2,28.87q.12,1.8,2.4,2.55c1.28.43,1.95,1.12,2,2.08a16.54,16.54,0,0,1,.08,3.32c-.09.22-.52.36-1.28.42l-11.75.81c-.59,0-1-.14-1.15-.56a12.87,12.87,0,0,1-.44-3.11,1.63,1.63,0,0,1,1.07-1.68q2.22-1.1,2.13-2.28L431.89,151a7.41,7.41,0,0,0-.54-2.62,2.88,2.88,0,0,0-1.67-1.34,3.34,3.34,0,0,1-1.54-1,4.37,4.37,0,0,1-.53-2.14c-.13-1.91.35-2.9,1.44-3l12.25-.85L458.43,171,456.8,147.5a2.87,2.87,0,0,0-2.37-2.63,3.22,3.22,0,0,1-1.74-1.1,6.15,6.15,0,0,1-.56-2.61,2.52,2.52,0,0,1,.16-1.51,1.5,1.5,0,0,1,1-.34l12.23-.84c.69,0,1.09.91,1.21,2.63a5.34,5.34,0,0,1-.07,1.93,1.57,1.57,0,0,1-.86.76,4.6,4.6,0,0,0-1.87,1.24,2.44,2.44,0,0,0-.3,1.5l4,58.12-7.53.52Z" transform="translate(-232.06 -134.62)"/><path class="cls-1" d="M504.77,198.06a12.41,12.41,0,0,1-9.51,5.42q-9.12.63-15.61-8.87t-7.43-23.07q-1.07-15.37,4.83-25.38t14.85-10.63a14.36,14.36,0,0,1,7.76,1.52,3.69,3.69,0,0,0,1.68.5c.54,0,1-.53,1.28-1.48a1.89,1.89,0,0,1,1.77-1.4l.54,0h1.42a2.07,2.07,0,0,1,1.9,1.72l3.74,12.8a17.65,17.65,0,0,1,.63,2.67c.06,1-.69,1.49-2.25,1.6s-2.54,0-3-.41a24,24,0,0,1-3-4.11,28.75,28.75,0,0,0-5.16-6.61,6.14,6.14,0,0,0-4.45-1.64q-6.07.42-5.45,9.33l3,43.93q.35,4.82,3.66,4.59,3.63-.26,3.3-5.07l-1.48-21.36a2.58,2.58,0,0,0-1.73-2.59,2.58,2.58,0,0,1-1.87-2.56c-.1-1.45,0-2.33.26-2.64a2.88,2.88,0,0,1,1.88-.57l18.74-1.29a2.69,2.69,0,0,1,1.87.32,3.12,3.12,0,0,1,.61,2,6.11,6.11,0,0,1-.13,2.28,2.3,2.3,0,0,1-1.34,1.05,2.17,2.17,0,0,0-1.43,2.36l1.92,27.77a8.22,8.22,0,0,1-.14,3.15c-.21.44-.82.69-1.82.76a7.41,7.41,0,0,1-2,0,5.55,5.55,0,0,1-1.74-1A14.57,14.57,0,0,0,504.77,198.06Z" transform="translate(-232.06 -134.62)"/><path class="cls-1" d="M297.23,282.14q14.29,3.56,20,9.85t6.54,18q1.23,17.83-7.86,27.25t-29.41,10.82l-37.35,2.58c-1.53.1-2.34-.57-2.44-2l-.29-4.23a2.78,2.78,0,0,1,1.88-2.75c2.81-1.47,4.13-3.42,4-5.87l-5.89-85.08a3.47,3.47,0,0,0-.78-2.35,14.36,14.36,0,0,0-3.8-1.72c-1-.36-1.68-.78-1.89-1.29a15.47,15.47,0,0,1-.53-3.79c-.12-1.78.06-3,.55-3.65a3.61,3.61,0,0,1,2.73-1.11l41.85-2.89q15.12-1.05,23.71,5.51a23.16,23.16,0,0,1,9.35,17.56,20.63,20.63,0,0,1-5.32,15.81A32.2,32.2,0,0,1,297.23,282.14Zm-22.84-39.57,2.56,37,4-.28a8.43,8.43,0,0,0,5.86-2.46q2-2.19,2-7t-.49-12q-.71-10.14-3-13t-7-2.53Zm3.11,45.05,3.65,52.65c4.68-.32,7.78-1.13,9.31-2.41s2.3-3.68,2.34-7.18-.23-9.38-.8-17.65q-.18-2.53-1-11.51t-1.66-10.75A5.66,5.66,0,0,0,286.7,288a9.85,9.85,0,0,0-5.15-.7Z" transform="translate(-232.06 -134.62)"/><path class="cls-1" d="M364.09,292.39l2.41,35a10.9,10.9,0,0,0,.57,3.29,4.23,4.23,0,0,0,2,1.63,4.29,4.29,0,0,1,2.3,3.87q.29,4.1-.45,5.1a3.69,3.69,0,0,1-2.87,1.15l-32.24,2.23q-2.75.19-3-3.47a26.68,26.68,0,0,1-.08-4.56,2,2,0,0,1,1.42-1.56,5.93,5.93,0,0,0,3.78-6.35l-5.71-82.61c-.21-3.05-1.56-4.83-4.05-5.32a5,5,0,0,1-2.37-1c-.33-.35-.56-1.44-.69-3.25-.25-3.65.7-5.54,2.83-5.69l42.24-2.92a33.1,33.1,0,0,1,23.09,7.19q10.5,8.06,11.52,22.79,1.44,20.93-21.25,28.95,21.45,2.83,22.87,23.28l1.16,16.77a3.45,3.45,0,0,0,2,3.05,4.26,4.26,0,0,1,2.33,3.74c.19,2.72.12,4.36-.2,4.9s-1.24.86-2.77,1L388.47,341q-3.66.25-6.3-3.42a17.85,17.85,0,0,1-3-9.32l-2-28.41q-.58-8.31-9.67-7.68Zm-3.86-55.68,3.29,47.51,5-.35q7.56-.51,6.59-14.55l-1.57-22.69c-.28-3.95-1.27-6.68-3-8.19s-4.28-2.15-7.69-1.91Z" transform="translate(-232.06 -134.62)"/><path class="cls-1" d="M444.67,231.5l2.78,40.25,5.2-.36a4.73,4.73,0,0,0,3.07-1.06c.62-.61,1-1.86,1.27-3.77a26.53,26.53,0,0,1,1.08-6.09,1.91,1.91,0,0,1,1.73-1.11q6-.42,6.86,0c.56.27.91,1.44,1,3.5l1.62,23.48c.1,1.45-.08,2.42-.56,2.91s-2,.81-4.69,1c-1.73.12-2.91-.09-3.54-.64s-1.31-2.16-2.06-4.85q-1.1-3.68-2-4.47a3.29,3.29,0,0,0-2.54-.67l-6,.41,3.36,48.57,4.05-.28c2.49-.17,4.17-.94,5-2.3s2.11-5.18,3.77-11.48c.69-2.65,1.46-4.4,2.33-5.26s2.43-1.38,4.72-1.53q4.74-.33,4.93,2.49a14.26,14.26,0,0,1-.13,2.49l-1.73,16.19a23.48,23.48,0,0,1-.89,5.34c-.29.61-1.3,1-3,1.1l-50.94,3.52c-1.27.09-2.11-.13-2.5-.64s-.68-2.07-.86-4.65q-.17-2.47,2.5-3.79,4.1-1.9,3.9-4.73l-6.08-87.9c-.12-.89-1.32-1.7-3.63-2.44-1.56-.51-2.51-1-2.83-1.58a11.76,11.76,0,0,1-.7-4.05c-.13-1.84,0-2.94.23-3.31s1.16-.62,2.64-.72l48.72-3.37a4.92,4.92,0,0,1,2.71.38,4.28,4.28,0,0,1,1.49,2.59l5.15,17.92a11.8,11.8,0,0,1,.44,1.88c.09,1.27-1.1,2-3.56,2.16-2.77.19-4.63,0-5.6-.5s-2-1.93-3-4.22a44.12,44.12,0,0,0-4.67-8.53c-1.26-1.57-2.59-2.3-4-2.2Z" transform="translate(-232.06 -134.62)"/><path class="cls-1" d="M517,307.67,498,309l-.44,6.54a2.21,2.21,0,0,1-.11.65,12,12,0,0,0-.39,3.7q.17,2.55,3.86,4.06a4.72,4.72,0,0,1,2.49,1.74,8.49,8.49,0,0,1,.68,3.21,10,10,0,0,1-.1,3.52c-.2.41-.74.65-1.6.71l-20.1,1.39c-1.11.08-1.75-1-1.9-3.13a8.09,8.09,0,0,1,2.24-6.46,7.86,7.86,0,0,0,2.58-4.85l8.41-83.94a16.56,16.56,0,0,0,.15-3.34c-.1-1.46-1.29-2.67-3.56-3.65-1.06-.49-1.66-1.7-1.79-3.63-.18-2.59-.14-4.2.13-4.83s1.05-1,2.38-1.08l29.16-2a3.79,3.79,0,0,1,3.9,2.07q1.23,2.25,2.84,10l1.33,5.93,17.9,76.6a13.49,13.49,0,0,0,5.1,8.29,6.17,6.17,0,0,1,1.38,1.14,6.92,6.92,0,0,1,.5,2.76c.17,2.4.09,3.88-.23,4.45s-1.06.88-2.23,1l-33.92,2.34c-1,.07-1.58-.79-1.71-2.57a14.07,14.07,0,0,1,.09-4.26,5.63,5.63,0,0,1,2.07-2.13q2.55-1.73,2.38-4.14A87.12,87.12,0,0,0,517,307.67Zm-13.52-62.56-4.81,55.68,17-1.17Z" transform="translate(-232.06 -134.62)"/><path class="cls-1" d="M561.75,313.29l-5.9-85.37c-.22-.93-1.19-1.57-2.9-1.92a4.51,4.51,0,0,1-2.79-1.47c-.51-.7-.84-2.25-1-4.64-.12-1.74.13-2.92.76-3.53s2.3-1,5.05-1.2l36.59-2.53q15.65-1.08,26.85,11.53t13.33,43.56q1.95,28.2-7,42.88t-25.31,15.8l-40.32,2.79a3,3,0,0,1-2.38-.58c-.47-.46-.76-1.54-.88-3.23a18,18,0,0,1,0-3.82c.12-.53.81-1.17,2.09-1.92C560.65,318.08,561.93,316,561.75,313.29Zm22.2-91.7,6.76,97.63,4-.28a6.82,6.82,0,0,0,6-3.71q1.76-3.42,1.18-11.81l-5-72a11.68,11.68,0,0,0-3-7.51,8.52,8.52,0,0,0-7.15-2.48Z" transform="translate(-232.06 -134.62)"/></svg>