<svg id="Livello_1" data-name="Livello 1" xmlns="http://www.w3.org/2000/svg" viewBox="0 0 163.36 266.44"><defs><style>.cls-1{fill:#f5faf8;}.cls-2{fill:#f9b21e;}.cls-3{fill:#45ab48;}.cls-4{fill:#e8c730;}.cls-5{fill:#fff7c5;}.cls-6,.cls-7{fill:#2f0d15;}.cls-7{font-size:17.51px;font-family:KaushanScript-Regular, KaushanScript Regular;}.cls-8{letter-spacing:-0.02em;}.cls-9{letter-spacing:-0.01em;}</style></defs><path class="cls-1" d="M506.2,224.54V399.19a21.11,21.11,0,0,1-21.12,21.12H366.26a21.12,21.12,0,0,1-21.11-21.12V224.54a21.11,21.11,0,0,1,21.11-21.11H485.08A21.11,21.11,0,0,1,506.2,224.54Z" transform="translate(-343.83 -156.48)"/><rect class="cls-2" x="1.08" width="161.53" height="37.01" rx="0.5"/><path class="cls-3" d="M506.11,236.5V354C507,389,512.67,418.77,485,422.93H366.17c-28.41-2.62-22-19-21.11-68.89V246.23c9.48-13.73,25.76-24.67,52.55-11.41C437.1,254.37,478.93,265.65,506.11,236.5Z" transform="translate(-343.83 -156.48)"/><circle class="cls-4" cx="85.65" cy="155.36" r="38.68"/><path class="cls-5" d="M441.72,327.21l1.12,2.05a1,1,0,0,0,.39.38l2,1.13a1,1,0,0,1,0,1.69l-2,1.12a1,1,0,0,0-.39.38L441.72,336a1,1,0,0,1-1.69,0L438.91,334a1,1,0,0,0-.39-.38l-2-1.12a1,1,0,0,1,0-1.69l2-1.13a1,1,0,0,0,.39-.38l1.12-2.05A1,1,0,0,1,441.72,327.21Z" transform="translate(-343.83 -156.48)"/><path class="cls-6" d="M440.88,337.47a1.92,1.92,0,0,1-1.69-1l-1.12-2.05L436,333.29a1.92,1.92,0,0,1,0-3.36l2.06-1.12,1.12-2.06a1.92,1.92,0,0,1,1.69-1h0a1.91,1.91,0,0,1,1.68,1l1.12,2.05,2.06,1.13a1.92,1.92,0,0,1,0,3.36l-2.06,1.13-1.12,2.05a1.91,1.91,0,0,1-1.68,1Zm0-9.81-1.14,2.06a2,2,0,0,1-.76.76l-2.05,1.12,2.05,1.15a1.92,1.92,0,0,1,.76.76l1.12,2.05,1.15-2.05a1.85,1.85,0,0,1,.76-.76l2.05-1.13-2.05-1.14a2,2,0,0,1-.76-.76l-1.12-2.06h0Z" transform="translate(-343.83 -156.48)"/><path class="cls-5" d="M429.13,270.7l.59,1.07a.48.48,0,0,0,.2.2l1.06.58a.5.5,0,0,1,0,.88l-1.06.59a.39.39,0,0,0-.2.2l-.59,1.06a.5.5,0,0,1-.88,0l-.59-1.06a.41.41,0,0,0-.19-.2l-1.07-.59a.5.5,0,0,1,0-.88l1.07-.58a.52.52,0,0,0,.19-.2l.59-1.07A.5.5,0,0,1,429.13,270.7Z" transform="translate(-343.83 -156.48)"/><path class="cls-6" d="M428.69,276a1,1,0,0,1-.88-.52l-.58-1.07-1.07-.58a1,1,0,0,1-.52-.88,1,1,0,0,1,.52-.87l1.07-.59.58-1.07a1,1,0,0,1,1.76,0h0l.58,1.07,1.07.59a1,1,0,0,1,.52.87,1,1,0,0,1-.52.88l-1.07.58-.58,1.07A1,1,0,0,1,428.69,276Zm0-5.11L428.1,272a1,1,0,0,1-.4.4l-1.07.58,1.07.6a1,1,0,0,1,.4.4l.58,1.07.6-1.07a1,1,0,0,1,.4-.4l1.07-.58-1.07-.6a1,1,0,0,1-.4-.4l-.58-1.07Z" transform="translate(-343.83 -156.48)"/><path class="cls-5" d="M441.32,345.66l.58,1.07a.64.64,0,0,0,.2.2l1.07.58a.51.51,0,0,1,0,.89l-1.07.58a.64.64,0,0,0-.2.2l-.58,1.07a.51.51,0,0,1-.89,0l-.58-1.07a.64.64,0,0,0-.2-.2l-1.07-.58a.51.51,0,0,1,0-.89l1.07-.58a.64.64,0,0,0,.2-.2l.58-1.07A.51.51,0,0,1,441.32,345.66Z" transform="translate(-343.83 -156.48)"/><path class="cls-6" d="M440.88,351a1,1,0,0,1-.88-.52l-.58-1.07-1.08-.59a1,1,0,0,1-.52-.87,1,1,0,0,1,.52-.88l1.07-.58.59-1.08a1,1,0,0,1,1.75,0h0l.59,1.07,1.07.59a1,1,0,0,1,.52.88,1,1,0,0,1-.52.87l-1.07.59-.59,1.07A1,1,0,0,1,440.88,351Zm0-5.11-.6,1.07a.92.92,0,0,1-.39.39l-1.07.59,1.07.6a.92.92,0,0,1,.39.39l.59,1.07.6-1.07a1,1,0,0,1,.39-.39l1.07-.59-1.07-.6a1,1,0,0,1-.39-.39l-.59-1.07Z" transform="translate(-343.83 -156.48)"/><path class="cls-5" d="M414.61,281.59l.73,1.34a.58.58,0,0,0,.25.24l1.33.73a.63.63,0,0,1,0,1.1l-1.33.73a.55.55,0,0,0-.25.25l-.73,1.33a.63.63,0,0,1-1.1,0l-.72-1.33a.6.6,0,0,0-.25-.25l-1.33-.73a.62.62,0,0,1,0-1.1l1.33-.73a.64.64,0,0,0,.25-.24l.72-1.34A.63.63,0,0,1,414.61,281.59Z" transform="translate(-343.83 -156.48)"/><path class="cls-6" d="M414.06,288.13a1.12,1.12,0,0,1-1-.59l-.73-1.33-.05,0-1.33-.73a1.12,1.12,0,0,1,0-2l1.33-.73.05-.05.73-1.33a1.12,1.12,0,0,1,1-.59h0a1.14,1.14,0,0,1,1,.59l.72,1.33s0,0,.06.05l1.33.73a1.12,1.12,0,0,1,0,2l-1.33.73s0,0-.06,0l-.72,1.33a1.14,1.14,0,0,1-1,.59Zm0-6.36a.13.13,0,0,0-.11.06l-.73,1.33a1.12,1.12,0,0,1-.44.45l-1.34.73a.13.13,0,0,0-.06.11.12.12,0,0,0,.06.11l1.34.73a1.19,1.19,0,0,1,.44.45l.73,1.33a.14.14,0,0,0,.11.07.14.14,0,0,0,.12-.07l.72-1.33a1.21,1.21,0,0,1,.45-.45l1.33-.73a.11.11,0,0,0,.07-.11.12.12,0,0,0-.07-.11l-1.33-.73a1.15,1.15,0,0,1-.45-.45l-.72-1.33h0a.13.13,0,0,0-.12-.06Z" transform="translate(-343.83 -156.48)"/><path class="cls-5" d="M399.34,298.09l.33.6a.38.38,0,0,0,.11.11l.6.33a.28.28,0,0,1,0,.49l-.6.33a.57.57,0,0,0-.11.11l-.33.6a.28.28,0,0,1-.49,0l-.33-.6a.29.29,0,0,0-.11-.11l-.6-.33a.28.28,0,0,1,0-.49l.6-.33a.23.23,0,0,0,.11-.11l.33-.6A.28.28,0,0,1,399.34,298.09Z" transform="translate(-343.83 -156.48)"/><path class="cls-6" d="M399.1,301.31a.79.79,0,0,1-.69-.41l-.29-.54-.55-.3a.79.79,0,0,1,0-1.37l.55-.29.29-.55a.79.79,0,0,1,1.37,0l.3.55.54.29a.78.78,0,0,1,0,1.37l-.54.3-.3.54A.79.79,0,0,1,399.1,301.31Zm-.71-1.93.26.14a.77.77,0,0,1,.31.31l.14.25.14-.25a.71.71,0,0,1,.31-.31l.25-.14-.25-.15a.75.75,0,0,1-.31-.3l-.14-.26-.14.26a.81.81,0,0,1-.31.3Zm1.76.18Z" transform="translate(-343.83 -156.48)"/><path class="cls-5" d="M445.7,340.2l.33.6a.29.29,0,0,0,.11.11l.6.33a.28.28,0,0,1,0,.5l-.6.32a.43.43,0,0,0-.11.12l-.33.6a.28.28,0,0,1-.49,0l-.33-.6a.32.32,0,0,0-.11-.12l-.6-.32a.28.28,0,0,1,0-.5l.6-.33a.23.23,0,0,0,.11-.11l.33-.6A.28.28,0,0,1,445.7,340.2Z" transform="translate(-343.83 -156.48)"/><path class="cls-6" d="M445.46,343.42a.79.79,0,0,1-.69-.41l-.29-.54-.55-.3a.78.78,0,0,1-.4-.68.76.76,0,0,1,.4-.68l.55-.3.29-.55a.79.79,0,0,1,1.37,0h0l.3.55.54.3a.76.76,0,0,1,.41.68.79.79,0,0,1-.41.68l-.54.3-.3.54A.79.79,0,0,1,445.46,343.42Zm-.71-1.93.26.14a.84.84,0,0,1,.31.31l.14.26.14-.26a.77.77,0,0,1,.31-.31l.25-.14-.25-.14a.77.77,0,0,1-.31-.31l-.14-.26-.14.26a.84.84,0,0,1-.31.31Zm1.72-.93Zm-1.2-.12Z" transform="translate(-343.83 -156.48)"/><path class="cls-5" d="M405.43,333.72l.33.6a.38.38,0,0,0,.11.11l.6.33a.28.28,0,0,1,0,.49l-.6.33-.11.11-.33.6a.28.28,0,0,1-.49,0l-.33-.6-.11-.11-.6-.33a.28.28,0,0,1,0-.49l.6-.33a.38.38,0,0,0,.11-.11l.33-.6A.28.28,0,0,1,405.43,333.72Z" transform="translate(-343.83 -156.48)"/><path class="cls-6" d="M405.19,336.94a.79.79,0,0,1-.69-.41l-.29-.54-.55-.3a.79.79,0,0,1,0-1.37l.55-.29.29-.55a.79.79,0,0,1,1.37,0l.3.55.54.29a.79.79,0,0,1,0,1.37l-.54.3-.3.54A.79.79,0,0,1,405.19,336.94Zm-.71-1.93.26.14a.75.75,0,0,1,.3.31l.15.25.14-.25a.75.75,0,0,1,.3-.31l.26-.14-.26-.14a.81.81,0,0,1-.3-.31l-.14-.26-.15.26a.81.81,0,0,1-.3.31Zm1.75.18h0Z" transform="translate(-343.83 -156.48)"/><path class="cls-5" d="M424.43,277.78l.32.6a.32.32,0,0,0,.12.11l.6.33a.28.28,0,0,1,0,.49l-.6.33a.43.43,0,0,0-.12.11l-.32.6a.28.28,0,0,1-.5,0l-.33-.6a.29.29,0,0,0-.11-.11l-.6-.33a.28.28,0,0,1,0-.49l.6-.33a.23.23,0,0,0,.11-.11l.33-.6A.28.28,0,0,1,424.43,277.78Z" transform="translate(-343.83 -156.48)"/><path class="cls-6" d="M424.18,281a.76.76,0,0,1-.68-.41l-.3-.54-.55-.3a.79.79,0,0,1,0-1.37l.55-.29.3-.55a.76.76,0,0,1,.68-.4.78.78,0,0,1,.68.4h0l.3.55.54.29a.78.78,0,0,1,0,1.37l-.54.3-.3.54A.79.79,0,0,1,424.18,281Zm-.93-.92h0Zm1.86,0h0Zm-1.64-1,.26.14a.71.71,0,0,1,.31.31l.14.25.14-.25a.71.71,0,0,1,.31-.31l.26-.14-.26-.14a.84.84,0,0,1-.31-.31l-.14-.26-.14.26a.84.84,0,0,1-.31.31Zm1.72-.93ZM424,278Z" transform="translate(-343.83 -156.48)"/><path class="cls-5" d="M437,279.16l.33.6a.2.2,0,0,0,.11.11l.6.33a.28.28,0,0,1,0,.49l-.6.33a.29.29,0,0,0-.11.11l-.33.6a.28.28,0,0,1-.5,0l-.32-.6a.43.43,0,0,0-.12-.11l-.6-.33a.28.28,0,0,1,0-.49l.6-.33a.25.25,0,0,0,.12-.11l.32-.6A.28.28,0,0,1,437,279.16Z" transform="translate(-343.83 -156.48)"/><path class="cls-6" d="M436.77,282.38a.79.79,0,0,1-.68-.41l-.3-.54-.54-.3a.78.78,0,0,1,0-1.37l.54-.29.3-.55a.78.78,0,0,1,.68-.4.76.76,0,0,1,.68.4l.3.55.55.29a.79.79,0,0,1,0,1.37l-.55.3-.3.54A.76.76,0,0,1,436.77,282.38Zm-.71-1.93.26.14a.77.77,0,0,1,.31.31l.14.25.14-.25a.77.77,0,0,1,.31-.31l.26-.14-.26-.14a.84.84,0,0,1-.31-.31l-.14-.26-.14.26a.84.84,0,0,1-.31.31Zm1.76.18Z" transform="translate(-343.83 -156.48)"/><text class="cls-7" transform="translate(51.29 165.76) rotate(-9.32)"><tspan class="cls-8">P</tspan><tspan x="9.03" y="0">ista</tspan><tspan class="cls-9" x="34.29" y="0">c</tspan><tspan x="42.03" y="0">chio</tspan></text></svg>