<svg id="Livello_1" data-name="Livello 1" xmlns="http://www.w3.org/2000/svg" viewBox="0 0 195.97 243.62"><defs><style>.cls-1{fill:#f5faf8;}.cls-2{fill:#864329;}.cls-3{fill:#f9b21e;}.cls-4{fill:#fff;opacity:0.3;}.cls-5{fill:#e8c730;}.cls-6{fill:#fff7c5;}.cls-7,.cls-8{fill:#2f0d15;}.cls-8{font-size:23.96px;font-family:KaushanScript-Regular, KaushanScript Regular;}.cls-9{letter-spacing:-0.01em;}.cls-10{letter-spacing:0em;}.cls-11{letter-spacing:0em;}.cls-12{letter-spacing:-0.01em;}</style></defs><path class="cls-1" d="M511.47,249.72V385.25a25.59,25.59,0,0,1-25.6,25.6h-144a25.6,25.6,0,0,1-25.6-25.6V249.72a25.6,25.6,0,0,1,25.6-25.6h144A25.59,25.59,0,0,1,511.47,249.72Z" transform="translate(-315.97 -167.22)"/><path class="cls-2" d="M511.47,281.55v81.52c1.11,24.21,2.6,47.78-25.6,47.78h-144c-25.6,0-26.64-13.17-25.6-47.78V288.3c11.51-9.52,31.23-17.11,63.7-7.91C427.82,293.94,478.53,301.77,511.47,281.55Z" transform="translate(-315.97 -167.22)"/><rect class="cls-3" width="195.79" height="44.86" rx="0.5"/><rect class="cls-4" x="23.84" y="68.14" width="33.06" height="158.91"/><circle class="cls-5" cx="108.31" cy="140.4" r="46.89"/><path class="cls-6" d="M439.11,326.25l1.36,2.48a1.18,1.18,0,0,0,.47.47l2.48,1.36a1.17,1.17,0,0,1,0,2.05L440.94,334a1.18,1.18,0,0,0-.47.47l-1.36,2.49a1.17,1.17,0,0,1-2.05,0l-1.36-2.49a1.18,1.18,0,0,0-.47-.47l-2.49-1.36a1.17,1.17,0,0,1,0-2.05l2.49-1.36a1.18,1.18,0,0,0,.47-.47l1.36-2.48A1.17,1.17,0,0,1,439.11,326.25Z" transform="translate(-315.97 -167.22)"/><path class="cls-7" d="M438.08,338.69a2.29,2.29,0,0,1-2-1.21L434.68,335l-2.49-1.37a2.29,2.29,0,0,1-1.21-2,2.32,2.32,0,0,1,1.21-2l2.49-1.36,1.37-2.5a2.31,2.31,0,0,1,2-1.21h0a2.36,2.36,0,0,1,2,1.21l1.36,2.49,2.5,1.37a2.34,2.34,0,0,1,1.21,2,2.31,2.31,0,0,1-1.21,2L441.49,335l-1.37,2.49a2.32,2.32,0,0,1-2,1.21Zm0-11.9-1.38,2.5a2.33,2.33,0,0,1-.92.92l-2.49,1.36,2.49,1.39a2.39,2.39,0,0,1,.92.92l1.36,2.49,1.39-2.49a2.26,2.26,0,0,1,.92-.92l2.49-1.36-2.49-1.39a2.26,2.26,0,0,1-.92-.92l-1.36-2.49h0Z" transform="translate(-315.97 -167.22)"/><path class="cls-6" d="M423.85,257.75l.71,1.3a.62.62,0,0,0,.24.24l1.29.71a.6.6,0,0,1,0,1.07l-1.29.7a.58.58,0,0,0-.24.25l-.71,1.29a.61.61,0,0,1-1.07,0l-.71-1.29a.64.64,0,0,0-.24-.25l-1.3-.7a.61.61,0,0,1,0-1.07l1.3-.71a.69.69,0,0,0,.24-.24l.71-1.3A.61.61,0,0,1,423.85,257.75Z" transform="translate(-315.97 -167.22)"/><path class="cls-7" d="M423.31,264.23a1.2,1.2,0,0,1-1.06-.63l-.71-1.3-1.3-.71a1.22,1.22,0,0,1,0-2.12l1.3-.71.71-1.3a1.21,1.21,0,0,1,2.12,0h0l.71,1.3,1.3.71a1.21,1.21,0,0,1,0,2.12l-1.29.71-.72,1.3A1.19,1.19,0,0,1,423.31,264.23Zm0-6.2-.72,1.3a1.17,1.17,0,0,1-.48.48l-1.3.71,1.3.73a1.23,1.23,0,0,1,.48.48l.71,1.29.72-1.29a1.23,1.23,0,0,1,.48-.48l1.3-.71-1.3-.72a1.26,1.26,0,0,1-.48-.49l-.71-1.29Z" transform="translate(-315.97 -167.22)"/><path class="cls-6" d="M438.62,348.62l.71,1.29a.56.56,0,0,0,.24.24l1.29.71a.61.61,0,0,1,0,1.07l-1.29.71a.62.62,0,0,0-.24.24l-.71,1.3a.61.61,0,0,1-1.07,0l-.71-1.3a.69.69,0,0,0-.24-.24l-1.3-.71a.61.61,0,0,1,0-1.07l1.3-.71a.62.62,0,0,0,.24-.24l.71-1.29A.61.61,0,0,1,438.62,348.62Z" transform="translate(-315.97 -167.22)"/><path class="cls-7" d="M438.08,355.1a1.22,1.22,0,0,1-1.06-.63l-.71-1.3-1.3-.71a1.22,1.22,0,0,1,0-2.12l1.3-.71.71-1.3a1.21,1.21,0,0,1,2.12,0h0l.71,1.29,1.3.72a1.21,1.21,0,0,1,0,2.12l-1.29.71-.72,1.3A1.21,1.21,0,0,1,438.08,355.1Zm0-6.2-.72,1.3a1.23,1.23,0,0,1-.48.48l-1.3.71,1.3.72a1.23,1.23,0,0,1,.48.48l.71,1.3.72-1.3a1.23,1.23,0,0,1,.48-.48l1.3-.71-1.3-.72a1.23,1.23,0,0,1-.48-.48l-.71-1.29Z" transform="translate(-315.97 -167.22)"/><path class="cls-6" d="M406.25,271l.88,1.61a.72.72,0,0,0,.3.3l1.61.89a.75.75,0,0,1,0,1.33l-1.61.88a.72.72,0,0,0-.3.3l-.88,1.61a.76.76,0,0,1-1.33,0l-.88-1.61a.75.75,0,0,0-.31-.3l-1.61-.88a.76.76,0,0,1,0-1.33l1.61-.89a.75.75,0,0,0,.31-.3l.88-1.61A.76.76,0,0,1,406.25,271Z" transform="translate(-315.97 -167.22)"/><path class="cls-7" d="M405.58,278.88a1.36,1.36,0,0,1-1.19-.71l-.88-1.61a.17.17,0,0,0-.06-.06l-1.62-.89a1.36,1.36,0,0,1,0-2.38l1.62-.88.06-.06.88-1.62a1.37,1.37,0,0,1,1.19-.7h0a1.35,1.35,0,0,1,1.19.7l.89,1.61a.13.13,0,0,0,.06.07l1.61.88a1.35,1.35,0,0,1,0,2.38l-1.61.89a.09.09,0,0,0-.06.06l-.89,1.61a1.34,1.34,0,0,1-1.19.71Zm0-7.71a.15.15,0,0,0-.14.08l-.88,1.61a1.28,1.28,0,0,1-.54.54l-1.61.88a.16.16,0,0,0,0,.28l1.61.88a1.34,1.34,0,0,1,.54.54l.88,1.62a.17.17,0,0,0,.14.08.16.16,0,0,0,.14-.08l.88-1.62a1.4,1.4,0,0,1,.54-.54l1.62-.88a.16.16,0,0,0,0-.28l-1.62-.88a1.4,1.4,0,0,1-.54-.54l-.88-1.61h0a.14.14,0,0,0-.14-.08Z" transform="translate(-315.97 -167.22)"/><path class="cls-6" d="M387.74,291l.4.73a.38.38,0,0,0,.14.14l.72.39a.34.34,0,0,1,0,.6l-.72.4a.32.32,0,0,0-.14.14l-.4.72a.34.34,0,0,1-.6,0l-.39-.72a.38.38,0,0,0-.14-.14l-.73-.4a.35.35,0,0,1,0-.6l.73-.39a.47.47,0,0,0,.14-.14l.39-.73A.34.34,0,0,1,387.74,291Z" transform="translate(-315.97 -167.22)"/><path class="cls-7" d="M387.44,294.85a.94.94,0,0,1-.82-.49l-.37-.66-.66-.36a1,1,0,0,1-.49-.83.94.94,0,0,1,.49-.82l.66-.37.37-.66a.94.94,0,0,1,.82-.49,1,1,0,0,1,.83.49l.36.66.66.37a.94.94,0,0,1,.49.82,1,1,0,0,1-.49.83l-.66.36-.36.66A1,1,0,0,1,387.44,294.85Zm-.85-2.34.31.17a.9.9,0,0,1,.37.38l.17.31.17-.31a1,1,0,0,1,.38-.38l.31-.17-.31-.17a1,1,0,0,1-.38-.37l-.17-.31-.17.31a.88.88,0,0,1-.37.37Zm2.13.23Z" transform="translate(-315.97 -167.22)"/><path class="cls-6" d="M443.94,342l.39.73a.35.35,0,0,0,.14.13l.73.4a.35.35,0,0,1,0,.6l-.73.4a.29.29,0,0,0-.14.13l-.39.73a.34.34,0,0,1-.6,0l-.4-.73a.29.29,0,0,0-.14-.13l-.72-.4a.34.34,0,0,1,0-.6l.72-.4a.35.35,0,0,0,.14-.13l.4-.73A.34.34,0,0,1,443.94,342Z" transform="translate(-315.97 -167.22)"/><path class="cls-7" d="M443.64,345.9a.94.94,0,0,1-.83-.49l-.36-.66-.66-.36a.94.94,0,0,1-.49-.83.93.93,0,0,1,.49-.83l.66-.36.36-.66a.94.94,0,0,1,1.65,0h0l.36.66.66.36a.93.93,0,0,1,.49.83.94.94,0,0,1-.49.83l-.66.36-.36.66A.94.94,0,0,1,443.64,345.9Zm-.86-2.34.31.17a1,1,0,0,1,.38.37l.17.32.17-.32a.94.94,0,0,1,.37-.37l.31-.17-.31-.17a.9.9,0,0,1-.37-.38l-.17-.31-.17.31a1,1,0,0,1-.38.38Zm2.08-1.12Zm-1.45-.15Z" transform="translate(-315.97 -167.22)"/><path class="cls-6" d="M395.12,334.14l.4.73a.29.29,0,0,0,.14.13l.72.4a.34.34,0,0,1,0,.6l-.72.4a.35.35,0,0,0-.14.13l-.4.73a.34.34,0,0,1-.6,0l-.39-.73a.44.44,0,0,0-.14-.13l-.73-.4a.35.35,0,0,1,0-.6l.73-.4a.35.35,0,0,0,.14-.13l.39-.73A.34.34,0,0,1,395.12,334.14Z" transform="translate(-315.97 -167.22)"/><path class="cls-7" d="M394.82,338a.94.94,0,0,1-.82-.49l-.37-.66-.66-.36a1,1,0,0,1-.49-.83,1,1,0,0,1,.49-.83l.66-.36.37-.66a.94.94,0,0,1,.82-.49,1,1,0,0,1,.83.49l.36.66.66.36a1,1,0,0,1,.49.83,1,1,0,0,1-.49.83l-.66.36-.36.66A1,1,0,0,1,394.82,338ZM394,335.7l.31.17a.9.9,0,0,1,.37.38l.17.31.17-.31a1,1,0,0,1,.38-.38l.31-.17-.31-.17a1,1,0,0,1-.38-.37l-.17-.32-.17.32a.94.94,0,0,1-.37.37Zm2.12.23h0Z" transform="translate(-315.97 -167.22)"/><path class="cls-6" d="M418.15,266.33l.39.73a.32.32,0,0,0,.14.14l.73.4a.34.34,0,0,1,0,.59l-.73.4a.32.32,0,0,0-.14.14l-.39.73a.35.35,0,0,1-.6,0l-.4-.73a.32.32,0,0,0-.14-.14l-.72-.4a.33.33,0,0,1,0-.59l.72-.4a.32.32,0,0,0,.14-.14l.4-.73A.35.35,0,0,1,418.15,266.33Z" transform="translate(-315.97 -167.22)"/><path class="cls-7" d="M417.85,270.23a.92.92,0,0,1-.83-.49l-.36-.66-.66-.36a.94.94,0,0,1,0-1.65l.66-.36.36-.66a.94.94,0,0,1,1.65,0h0l.36.66.66.36a.94.94,0,0,1,0,1.65l-.66.36-.36.66A.92.92,0,0,1,417.85,270.23Zm-1.13-1.11h0Zm2.25,0Zm-2-1.22.31.17a.9.9,0,0,1,.38.37l.17.31.17-.31a.83.83,0,0,1,.37-.37l.31-.17-.31-.18a.83.83,0,0,1-.37-.37l-.17-.31-.17.31a.9.9,0,0,1-.38.37Zm2.08-1.13Zm-1.45-.15Z" transform="translate(-315.97 -167.22)"/><path class="cls-6" d="M433.41,268l.4.72a.35.35,0,0,0,.13.14l.73.4a.34.34,0,0,1,0,.6l-.73.4a.33.33,0,0,0-.13.13l-.4.73a.34.34,0,0,1-.6,0l-.4-.73a.33.33,0,0,0-.13-.13l-.73-.4a.34.34,0,0,1,0-.6l.73-.4a.35.35,0,0,0,.13-.14l.4-.72A.34.34,0,0,1,433.41,268Z" transform="translate(-315.97 -167.22)"/><path class="cls-7" d="M433.11,271.91a1,1,0,0,1-.83-.49l-.36-.66-.66-.37a.94.94,0,0,1-.49-.82,1,1,0,0,1,.49-.83l.66-.36.36-.66a1,1,0,0,1,.83-.49,1,1,0,0,1,.83.49l.36.66.66.36a1,1,0,0,1,.49.83.94.94,0,0,1-.49.82l-.66.37-.36.66A1,1,0,0,1,433.11,271.91Zm-.86-2.34.31.17a1,1,0,0,1,.38.37l.17.32.17-.32a1.09,1.09,0,0,1,.37-.37l.32-.17-.32-.17a1,1,0,0,1-.37-.38l-.17-.31-.17.31a1,1,0,0,1-.38.38Zm2.13.23Z" transform="translate(-315.97 -167.22)"/><text class="cls-8" transform="translate(58.9 157.1) rotate(-9.32)">Cho<tspan class="cls-9" x="40.34" y="0">c</tspan><tspan class="cls-10" x="50.93" y="0">ol</tspan><tspan class="cls-11" x="69.73" y="0">a</tspan><tspan class="cls-12" x="81.19" y="0">t</tspan><tspan x="88.97" y="0">e</tspan></text></svg>