<svg id="Livello_1" data-name="Livello 1" xmlns="http://www.w3.org/2000/svg" viewBox="0 0 175.05 285.91"><defs><style>.cls-1{fill:#f5faf8;}.cls-2{fill:#f5d725;}.cls-3{fill:#f9b21e;}.cls-4{fill:#fff;opacity:0.3;}.cls-5{fill:#e8c730;}.cls-6{fill:#fff7c5;}.cls-7,.cls-8{fill:#2f0d15;}.cls-8{font-size:21.42px;font-family:KaushanScript-Regular, KaushanScript Regular;}</style></defs><path class="cls-1" d="M520.35,248.36V437.63a22.88,22.88,0,0,1-22.88,22.88H368.7a22.88,22.88,0,0,1-22.88-22.88V248.36a22.88,22.88,0,0,1,22.88-22.88H497.47A22.88,22.88,0,0,1,520.35,248.36Z" transform="translate(-345.56 -174.6)"/><path class="cls-2" d="M520.35,398.58v39.05a22.88,22.88,0,0,1-22.88,22.88H368.7a22.88,22.88,0,0,1-22.88-22.88V401.81c10.28-4.56,27.92-8.19,56.95-3.79C445.56,404.52,490.9,408.26,520.35,398.58Z" transform="translate(-345.56 -174.6)"/><rect class="cls-3" width="175.05" height="40.11" rx="0.5"/><rect class="cls-4" x="21.32" y="60.92" width="29.56" height="210.16"/><circle class="cls-5" cx="87.52" cy="151.9" r="41.92"/><path class="cls-6" d="M446.35,343.15l1.21,2.23a1.13,1.13,0,0,0,.42.42L450.2,347a1,1,0,0,1,0,1.84L448,350.06a1.06,1.06,0,0,0-.42.42l-1.21,2.22a1,1,0,0,1-1.84,0l-1.22-2.22a1,1,0,0,0-.41-.42l-2.23-1.21a1.05,1.05,0,0,1,0-1.84l2.23-1.21a1.1,1.1,0,0,0,.41-.42l1.22-2.23A1.05,1.05,0,0,1,446.35,343.15Z" transform="translate(-345.56 -174.6)"/><path class="cls-7" d="M445.43,354.28a2.08,2.08,0,0,1-1.82-1.08L442.39,351l-2.23-1.22a2.07,2.07,0,0,1,0-3.64l2.22-1.22,1.23-2.23a2.06,2.06,0,0,1,1.82-1.08h0a2.06,2.06,0,0,1,1.82,1.08l1.22,2.22,2.23,1.23a2.07,2.07,0,0,1,0,3.64L448.47,351l-1.22,2.23a2.08,2.08,0,0,1-1.82,1.08Zm0-10.64-1.24,2.23a2.07,2.07,0,0,1-.83.83l-2.22,1.22,2.22,1.24a2,2,0,0,1,.83.82l1.22,2.23,1.24-2.23a2.09,2.09,0,0,1,.82-.82l2.23-1.22-2.23-1.24a2.15,2.15,0,0,1-.82-.82l-1.22-2.23h0Z" transform="translate(-345.56 -174.6)"/><path class="cls-6" d="M432.7,281.92l.63,1.15a.52.52,0,0,0,.22.22l1.16.63a.55.55,0,0,1,0,1l-1.16.63a.58.58,0,0,0-.22.22l-.63,1.16a.55.55,0,0,1-.95,0l-.64-1.16a.56.56,0,0,0-.21-.22l-1.16-.63a.55.55,0,0,1,0-1l1.16-.63a.5.5,0,0,0,.21-.22l.64-1.15A.54.54,0,0,1,432.7,281.92Z" transform="translate(-345.56 -174.6)"/><path class="cls-7" d="M432.22,287.71a1.07,1.07,0,0,1-.94-.56l-.64-1.16-1.16-.64a1.07,1.07,0,0,1-.56-1,1.08,1.08,0,0,1,.56-.95l1.16-.63.64-1.16a1.05,1.05,0,0,1,.94-.56,1.07,1.07,0,0,1,.95.56h0l.64,1.16,1.16.63a1.1,1.1,0,0,1,.56.95,1.09,1.09,0,0,1-.56,1l-1.16.63-.64,1.17A1.09,1.09,0,0,1,432.22,287.71Zm0-5.54-.65,1.16a1,1,0,0,1-.43.43l-1.15.63,1.15.65a1,1,0,0,1,.43.43l.64,1.16.64-1.16a1.11,1.11,0,0,1,.43-.43l1.16-.63-1.16-.65a1.11,1.11,0,0,1-.43-.43l-.63-1.16Z" transform="translate(-345.56 -174.6)"/><path class="cls-6" d="M445.91,363.16l.63,1.15a.58.58,0,0,0,.22.22l1.16.63a.55.55,0,0,1,0,1l-1.16.63a.58.58,0,0,0-.22.22l-.63,1.16a.55.55,0,0,1-1,0l-.63-1.16a.58.58,0,0,0-.22-.22l-1.16-.63a.55.55,0,0,1,0-1l1.16-.63a.58.58,0,0,0,.22-.22l.63-1.15A.55.55,0,0,1,445.91,363.16Z" transform="translate(-345.56 -174.6)"/><path class="cls-7" d="M445.43,369a1.08,1.08,0,0,1-.95-.57l-.63-1.15-1.16-.64a1.08,1.08,0,0,1-.57-.95,1.09,1.09,0,0,1,.57-.95l1.15-.63.64-1.16a1.07,1.07,0,0,1,.95-.56,1.08,1.08,0,0,1,.95.56h0l.63,1.16,1.16.63a1.09,1.09,0,0,1,.57.95,1.08,1.08,0,0,1-.57.95l-1.16.63-.63,1.16A1.09,1.09,0,0,1,445.43,369Zm0-5.54-.64,1.16a1.11,1.11,0,0,1-.43.43l-1.16.63,1.16.65a1.11,1.11,0,0,1,.43.43l.63,1.16.65-1.16a1.11,1.11,0,0,1,.43-.43l1.16-.63L446.5,365a1.11,1.11,0,0,1-.43-.43l-.63-1.16Z" transform="translate(-345.56 -174.6)"/><path class="cls-6" d="M417,293.73l.78,1.44a.87.87,0,0,0,.27.27l1.45.79a.67.67,0,0,1,0,1.18l-1.45.79a.87.87,0,0,0-.27.27l-.78,1.45a.68.68,0,0,1-1.19,0l-.79-1.45a.78.78,0,0,0-.27-.27l-1.44-.79a.67.67,0,0,1,0-1.18l1.44-.79a.78.78,0,0,0,.27-.27l.79-1.44A.68.68,0,0,1,417,293.73Z" transform="translate(-345.56 -174.6)"/><path class="cls-7" d="M416.37,300.8a1.2,1.2,0,0,1-1.06-.63l-.79-1.44-.06-.06-1.44-.78a1.22,1.22,0,0,1,0-2.14l1.44-.78.06-.06.79-1.44a1.2,1.2,0,0,1,1.06-.63h0a1.22,1.22,0,0,1,1.07.63l.79,1.44,0,.06,1.44.78a1.21,1.21,0,0,1,0,2.14l-1.44.78,0,.06-.79,1.44a1.22,1.22,0,0,1-1.07.63Zm0-6.89a.12.12,0,0,0-.12.07l-.79,1.45a1.23,1.23,0,0,1-.48.48l-1.45.79a.14.14,0,0,0,0,.24l1.45.79a1.19,1.19,0,0,1,.48.49l.79,1.44a.14.14,0,0,0,.24,0l.79-1.44a1.22,1.22,0,0,1,.49-.49l1.44-.79a.14.14,0,0,0,0-.24l-1.44-.79a1.26,1.26,0,0,1-.49-.48l-.79-1.45h0a.12.12,0,0,0-.12-.07Z" transform="translate(-345.56 -174.6)"/><path class="cls-6" d="M400.42,311.6l.36.65a.28.28,0,0,0,.12.12l.65.36a.3.3,0,0,1,0,.53l-.65.36a.28.28,0,0,0-.12.12l-.36.65a.3.3,0,0,1-.53,0l-.36-.65a.34.34,0,0,0-.12-.12l-.65-.36a.3.3,0,0,1,0-.53l.65-.36a.34.34,0,0,0,.12-.12l.36-.65A.3.3,0,0,1,400.42,311.6Z" transform="translate(-345.56 -174.6)"/><path class="cls-7" d="M400.15,315.09a.86.86,0,0,1-.74-.44l-.32-.59-.59-.33a.83.83,0,0,1,0-1.47l.59-.33.32-.59a.86.86,0,0,1,.74-.44.85.85,0,0,1,.74.44l.33.59.59.33a.84.84,0,0,1,0,1.47l-.59.33-.33.59A.85.85,0,0,1,400.15,315.09Zm-.76-2.1.28.16a.87.87,0,0,1,.33.33l.15.28.16-.28a.81.81,0,0,1,.33-.33l.28-.16-.28-.15a.81.81,0,0,1-.33-.33l-.16-.28-.15.28a.87.87,0,0,1-.33.33Zm1.9.21Z" transform="translate(-345.56 -174.6)"/><path class="cls-6" d="M450.66,357.24l.36.65a.28.28,0,0,0,.12.12l.65.35a.31.31,0,0,1,0,.54l-.65.36a.23.23,0,0,0-.12.12l-.36.65a.3.3,0,0,1-.53,0l-.36-.65a.28.28,0,0,0-.12-.12l-.65-.36a.31.31,0,0,1,0-.54l.65-.35a.34.34,0,0,0,.12-.12l.36-.65A.3.3,0,0,1,450.66,357.24Z" transform="translate(-345.56 -174.6)"/><path class="cls-7" d="M450.39,360.72a.84.84,0,0,1-.74-.43l-.32-.59-.59-.33a.84.84,0,0,1,0-1.48l.59-.32.32-.59a.84.84,0,0,1,1.48,0h0l.33.59.59.32a.85.85,0,0,1,0,1.48l-.59.33-.33.59A.84.84,0,0,1,450.39,360.72Zm-.76-2.09.28.16a.81.81,0,0,1,.33.33l.15.28.16-.28a.75.75,0,0,1,.33-.33l.28-.16-.28-.15a.81.81,0,0,1-.33-.33l-.16-.28-.15.28a.87.87,0,0,1-.33.33Zm1.86-1Zm-1.3-.13Z" transform="translate(-345.56 -174.6)"/><path class="cls-6" d="M407,350.21l.35.65a.3.3,0,0,0,.13.12l.65.36a.31.31,0,0,1,0,.54l-.65.35a.37.37,0,0,0-.13.12L407,353a.31.31,0,0,1-.54,0l-.35-.65a.34.34,0,0,0-.12-.12l-.65-.35a.3.3,0,0,1,0-.54L406,351a.28.28,0,0,0,.12-.12l.35-.65A.31.31,0,0,1,407,350.21Z" transform="translate(-345.56 -174.6)"/><path class="cls-7" d="M406.75,353.7a.85.85,0,0,1-.74-.44l-.32-.59-.59-.32a.84.84,0,0,1,0-1.48l.59-.32.32-.6a.85.85,0,0,1,1.48,0l.32.6.59.32a.84.84,0,0,1,0,1.48l-.59.32-.32.59A.85.85,0,0,1,406.75,353.7Zm-.77-2.09.28.15a.8.8,0,0,1,.34.34l.15.27.15-.27a.86.86,0,0,1,.34-.34l.28-.15-.28-.15a.92.92,0,0,1-.34-.34l-.15-.28-.15.28a.77.77,0,0,1-.34.33Zm1.91.2Z" transform="translate(-345.56 -174.6)"/><path class="cls-6" d="M427.6,289.59l.36.65a.34.34,0,0,0,.12.12l.65.36a.3.3,0,0,1,0,.53l-.65.36a.34.34,0,0,0-.12.12l-.36.65a.3.3,0,0,1-.53,0l-.36-.65a.34.34,0,0,0-.12-.12l-.65-.36a.3.3,0,0,1,0-.53l.65-.36a.34.34,0,0,0,.12-.12l.36-.65A.3.3,0,0,1,427.6,289.59Z" transform="translate(-345.56 -174.6)"/><path class="cls-7" d="M427.34,293.08a.83.83,0,0,1-.74-.44l-.33-.59-.59-.33a.83.83,0,0,1,0-1.47l.59-.33.33-.59a.83.83,0,0,1,1.47,0h0l.33.59.59.33a.83.83,0,0,1,0,1.47l-.59.33-.33.59A.83.83,0,0,1,427.34,293.08Zm-1-1Zm2,0ZM426.57,291l.28.15a.75.75,0,0,1,.33.33l.16.28.15-.28a.81.81,0,0,1,.33-.33l.28-.15-.28-.16a.81.81,0,0,1-.33-.33l-.15-.28-.16.28a.75.75,0,0,1-.33.33Zm1.86-1Zm-1.3-.13Z" transform="translate(-345.56 -174.6)"/><path class="cls-6" d="M441.25,291.09l.36.65a.28.28,0,0,0,.12.12l.65.35a.31.31,0,0,1,0,.54l-.65.35a.25.25,0,0,0-.12.13l-.36.65a.31.31,0,0,1-.54,0l-.35-.65a.3.3,0,0,0-.12-.13l-.65-.35a.3.3,0,0,1,0-.54l.65-.35a.34.34,0,0,0,.12-.12l.35-.65A.3.3,0,0,1,441.25,291.09Z" transform="translate(-345.56 -174.6)"/><path class="cls-7" d="M441,294.57a.85.85,0,0,1-.74-.44l-.32-.59-.59-.32a.84.84,0,0,1,0-1.48l.59-.32.32-.59a.84.84,0,0,1,1.48,0l.32.59.59.32a.84.84,0,0,1,0,1.48l-.59.32-.32.59A.85.85,0,0,1,441,294.57Zm-.76-2.09.27.15a.86.86,0,0,1,.34.34l.15.28.15-.28a.92.92,0,0,1,.34-.34l.28-.15-.28-.15a.92.92,0,0,1-.34-.34l-.15-.28-.15.28a.86.86,0,0,1-.34.34Zm1.9.2Z" transform="translate(-345.56 -174.6)"/><text class="cls-8" transform="translate(60.64 161.86) rotate(-9.32)">Honey</text></svg>