<svg id="Livello_1" data-name="Livello 1" xmlns="http://www.w3.org/2000/svg" viewBox="0 0 147.58 183.47"><defs><style>.cls-1{fill:#f5faf8;}.cls-2{fill:#e41d17;}.cls-3{fill:#f9b21e;}.cls-4{fill:#fff;opacity:0.3;}.cls-5{fill:#e8c730;}.cls-6{fill:#fff7c5;}.cls-7,.cls-8{fill:#2f0d15;}.cls-8{font-size:13.98px;font-family:KaushanScript-Regular, KaushanScript Regular;}.cls-9{letter-spacing:0.01em;}.cls-10{letter-spacing:0em;}</style></defs><path class="cls-1" d="M559.63,349.24V451.3a19.27,19.27,0,0,1-19.27,19.28H431.9a19.28,19.28,0,0,1-19.28-19.28V349.24A19.28,19.28,0,0,1,431.9,330H540.36A19.27,19.27,0,0,1,559.63,349.24Z" transform="translate(-412.41 -287.11)"/><path class="cls-2" d="M559.63,373.21V434.6c.84,18.23,2,36-19.27,36H431.9c-19.28,0-20.06-9.92-19.28-36V378.29c8.66-7.17,23.52-12.88,48-6C496.64,382.54,534.83,388.43,559.63,373.21Z" transform="translate(-412.41 -287.11)"/><rect class="cls-3" width="147.44" height="33.79" rx="0.5"/><rect class="cls-4" x="17.96" y="51.32" width="24.9" height="119.67"/><circle class="cls-5" cx="73.22" cy="101.01" r="35.31"/><path class="cls-6" d="M496.8,402.15l1,1.87a.91.91,0,0,0,.35.35l1.88,1a.89.89,0,0,1,0,1.55l-1.88,1a1.06,1.06,0,0,0-.35.35l-1,1.88a.89.89,0,0,1-1.55,0l-1-1.88a1,1,0,0,0-.35-.35l-1.88-1a.89.89,0,0,1,0-1.55l1.88-1a.84.84,0,0,0,.35-.35l1-1.87A.88.88,0,0,1,496.8,402.15Z" transform="translate(-412.41 -287.11)"/><path class="cls-7" d="M496,411.52a1.76,1.76,0,0,1-1.54-.91l-1-1.88-1.88-1a1.75,1.75,0,0,1,0-3.07l1.87-1,1-1.88a1.76,1.76,0,0,1,1.54-.91h0a1.75,1.75,0,0,1,1.53.91l1,1.87,1.87,1a1.74,1.74,0,0,1,.91,1.54,1.72,1.72,0,0,1-.91,1.53l-1.87,1-1,1.88a1.75,1.75,0,0,1-1.53.91Zm0-9-1,1.88a1.76,1.76,0,0,1-.69.69l-1.88,1,1.88,1a1.72,1.72,0,0,1,.69.7l1,1.87,1-1.87a1.69,1.69,0,0,1,.7-.7l1.87-1-1.87-1.05a1.72,1.72,0,0,1-.7-.69l-1-1.88h0Z" transform="translate(-412.41 -287.11)"/><path class="cls-6" d="M485.31,350.56l.53,1a.39.39,0,0,0,.18.18l1,.54a.45.45,0,0,1,0,.8l-1,.53a.47.47,0,0,0-.18.19l-.53,1a.46.46,0,0,1-.81,0l-.53-1a.58.58,0,0,0-.19-.19l-1-.53a.45.45,0,0,1,0-.8l1-.54a.47.47,0,0,0,.19-.18l.53-1A.47.47,0,0,1,485.31,350.56Z" transform="translate(-412.41 -287.11)"/><path class="cls-7" d="M484.9,355.44a.92.92,0,0,1-.8-.47l-.53-1-1-.53a.92.92,0,0,1-.47-.8.9.9,0,0,1,.47-.8l1-.54.53-1a.91.91,0,0,1,.8-.48.89.89,0,0,1,.8.48h0l.54,1,1,.54a.89.89,0,0,1,.48.8.91.91,0,0,1-.48.8l-1,.53-.54,1A.9.9,0,0,1,484.9,355.44Zm0-4.66-.55,1a.89.89,0,0,1-.36.36l-1,.53,1,.55a.83.83,0,0,1,.36.36l.54,1,.54-1a1,1,0,0,1,.36-.36l1-.54-1-.54a1,1,0,0,1-.36-.36l-.53-1Z" transform="translate(-412.41 -287.11)"/><path class="cls-6" d="M496.43,419l.53,1a.52.52,0,0,0,.18.18l1,.53a.46.46,0,0,1,0,.81l-1,.53a.52.52,0,0,0-.18.18l-.53,1a.46.46,0,0,1-.81,0l-.53-1a.52.52,0,0,0-.18-.18l-1-.53a.46.46,0,0,1,0-.81l1-.53a.52.52,0,0,0,.18-.18l.53-1A.46.46,0,0,1,496.43,419Z" transform="translate(-412.41 -287.11)"/><path class="cls-7" d="M496,423.87a.9.9,0,0,1-.8-.47l-.54-1-1-.53a.92.92,0,0,1-.47-.8.9.9,0,0,1,.47-.8l1-.54.54-1a.89.89,0,0,1,.8-.48.91.91,0,0,1,.8.48h0l.53,1,1,.54a.9.9,0,0,1,.47.8.92.92,0,0,1-.47.8l-1,.53-.53,1A.92.92,0,0,1,496,423.87Zm0-4.66-.54,1a.94.94,0,0,1-.37.37l-1,.53,1,.55a.86.86,0,0,1,.37.36l.53,1,.55-1a.78.78,0,0,1,.36-.36l1-.54-1-.54a.89.89,0,0,1-.36-.36l-.54-1Z" transform="translate(-412.41 -287.11)"/><path class="cls-6" d="M472.05,360.51l.67,1.22a.58.58,0,0,0,.22.22l1.22.67a.57.57,0,0,1,0,1l-1.22.66a.61.61,0,0,0-.22.23l-.67,1.21a.57.57,0,0,1-1,0l-.66-1.21a.72.72,0,0,0-.23-.23l-1.22-.66a.57.57,0,0,1,0-1l1.22-.67a.69.69,0,0,0,.23-.22l.66-1.22A.57.57,0,0,1,472.05,360.51Z" transform="translate(-412.41 -287.11)"/><path class="cls-7" d="M471.55,366.47a1,1,0,0,1-.9-.53l-.66-1.21a.12.12,0,0,0-.05-.05l-1.21-.66a1,1,0,0,1-.54-.9,1,1,0,0,1,.54-.9l1.21-.66.05-.05.66-1.22a1,1,0,0,1,.9-.53h0a1,1,0,0,1,.9.53l.66,1.22a.12.12,0,0,0,.05.05l1.21.66a1,1,0,0,1,.54.9,1,1,0,0,1-.54.9l-1.21.66a.12.12,0,0,0-.05.05l-.66,1.21a1,1,0,0,1-.9.53Zm0-5.8a.1.1,0,0,0-.1.06l-.67,1.21a1,1,0,0,1-.4.41l-1.22.66a.13.13,0,0,0-.06.11.11.11,0,0,0,.06.1l1.22.67a1,1,0,0,1,.4.4l.67,1.22a.11.11,0,0,0,.2,0l.67-1.22a.93.93,0,0,1,.41-.4l1.21-.67a.11.11,0,0,0,.06-.1.13.13,0,0,0-.06-.11l-1.21-.66a.9.9,0,0,1-.41-.41l-.67-1.21h0a.1.1,0,0,0-.1-.06Z" transform="translate(-412.41 -287.11)"/><path class="cls-6" d="M458.12,375.57l.3.54a.21.21,0,0,0,.1.11l.55.3a.26.26,0,0,1,0,.45l-.55.3a.19.19,0,0,0-.1.1l-.3.55a.26.26,0,0,1-.46,0l-.3-.55a.19.19,0,0,0-.1-.1l-.55-.3a.26.26,0,0,1,0-.45l.55-.3a.21.21,0,0,0,.1-.11l.3-.54A.26.26,0,0,1,458.12,375.57Z" transform="translate(-412.41 -287.11)"/><path class="cls-7" d="M457.89,378.5a.7.7,0,0,1-.62-.37l-.27-.49-.5-.28a.7.7,0,0,1,0-1.24l.5-.27.27-.5a.7.7,0,0,1,1.24,0l.27.5.5.27a.7.7,0,0,1,0,1.24l-.5.28-.27.49A.7.7,0,0,1,457.89,378.5Zm-.65-1.76.24.13a.69.69,0,0,1,.28.28l.13.24.13-.24a.69.69,0,0,1,.28-.28l.24-.13-.24-.13a.63.63,0,0,1-.28-.28l-.13-.23-.13.23a.63.63,0,0,1-.28.28Zm1.61.17Z" transform="translate(-412.41 -287.11)"/><path class="cls-6" d="M500.43,414l.3.55a.47.47,0,0,0,.1.1l.55.3a.25.25,0,0,1,0,.45l-.55.3a.32.32,0,0,0-.1.1l-.3.55a.25.25,0,0,1-.45,0l-.3-.55a.24.24,0,0,0-.1-.1l-.55-.3a.25.25,0,0,1,0-.45l.55-.3a.32.32,0,0,0,.1-.1l.3-.55A.25.25,0,0,1,500.43,414Z" transform="translate(-412.41 -287.11)"/><path class="cls-7" d="M500.21,416.94a.73.73,0,0,1-.63-.36l-.27-.5-.5-.27a.73.73,0,0,1-.36-.63.72.72,0,0,1,.36-.62l.5-.27.27-.5a.72.72,0,0,1,.63-.37.7.7,0,0,1,.62.37h0l.27.5.5.27a.71.71,0,0,1,.37.62.72.72,0,0,1-.37.63l-.5.27-.27.5A.71.71,0,0,1,500.21,416.94Zm-.65-1.76.24.13a.75.75,0,0,1,.28.28l.13.24.13-.24a.69.69,0,0,1,.28-.28l.23-.13-.23-.13a.63.63,0,0,1-.28-.28l-.13-.23-.13.23a.69.69,0,0,1-.28.28Zm1.57-.84Zm-1.09-.12Z" transform="translate(-412.41 -287.11)"/><path class="cls-6" d="M463.67,408.09l.3.55a.27.27,0,0,0,.11.1l.54.3a.26.26,0,0,1,0,.45l-.54.3a.27.27,0,0,0-.11.1l-.3.55a.25.25,0,0,1-.45,0l-.3-.55a.24.24,0,0,0-.1-.1l-.55-.3a.25.25,0,0,1,0-.45l.55-.3a.24.24,0,0,0,.1-.1l.3-.55A.25.25,0,0,1,463.67,408.09Z" transform="translate(-412.41 -287.11)"/><path class="cls-7" d="M463.45,411a.72.72,0,0,1-.63-.37l-.27-.5-.49-.27a.71.71,0,0,1-.37-.62.72.72,0,0,1,.37-.63l.49-.27.27-.5a.74.74,0,0,1,.63-.37.72.72,0,0,1,.62.37l.27.5.5.27a.72.72,0,0,1,.37.63.71.71,0,0,1-.37.62l-.5.27-.27.5A.7.7,0,0,1,463.45,411Zm-.65-1.76.24.12a.78.78,0,0,1,.28.29l.13.23.13-.23a.71.71,0,0,1,.28-.29l.23-.12-.23-.13a.75.75,0,0,1-.28-.28l-.13-.24-.13.24a.83.83,0,0,1-.28.28Zm1.61.17Z" transform="translate(-412.41 -287.11)"/><path class="cls-6" d="M481,357l.3.55a.32.32,0,0,0,.1.1l.55.3a.25.25,0,0,1,0,.45l-.55.3a.24.24,0,0,0-.1.1l-.3.55a.26.26,0,0,1-.45,0l-.3-.55a.24.24,0,0,0-.1-.1l-.55-.3a.25.25,0,0,1,0-.45l.55-.3a.32.32,0,0,0,.1-.1l.3-.55A.25.25,0,0,1,481,357Z" transform="translate(-412.41 -287.11)"/><path class="cls-7" d="M480.79,360a.73.73,0,0,1-.63-.36l-.27-.5-.5-.27a.74.74,0,0,1-.37-.63.73.73,0,0,1,.37-.62l.5-.27.27-.5a.72.72,0,0,1,.63-.37.71.71,0,0,1,.62.37h0l.27.5.5.27a.71.71,0,0,1,.37.62.72.72,0,0,1-.37.63l-.5.27-.27.5A.72.72,0,0,1,480.79,360Zm-.85-.83Zm1.69,0h0Zm-1.49-.92.23.13a.78.78,0,0,1,.29.28l.13.24.12-.24a.78.78,0,0,1,.29-.28l.23-.13-.23-.13a.71.71,0,0,1-.29-.28l-.12-.23-.13.23a.71.71,0,0,1-.29.28Zm1.57-.84Zm-1.1-.12h0Z" transform="translate(-412.41 -287.11)"/><path class="cls-6" d="M492.51,358.29l.3.55a.24.24,0,0,0,.1.1l.54.3a.25.25,0,0,1,0,.45l-.54.3a.19.19,0,0,0-.1.1l-.3.55a.26.26,0,0,1-.46,0l-.3-.55a.19.19,0,0,0-.1-.1l-.55-.3a.26.26,0,0,1,0-.45l.55-.3a.24.24,0,0,0,.1-.1l.3-.55A.26.26,0,0,1,492.51,358.29Z" transform="translate(-412.41 -287.11)"/><path class="cls-7" d="M492.28,361.22a.71.71,0,0,1-.62-.36l-.28-.5-.49-.27a.72.72,0,0,1-.37-.63.7.7,0,0,1,.37-.62l.49-.27.28-.5a.7.7,0,0,1,1.24,0l.27.5.5.27a.7.7,0,0,1,.37.62.72.72,0,0,1-.37.63l-.5.27-.27.5A.71.71,0,0,1,492.28,361.22Zm-.65-1.76.24.13a.69.69,0,0,1,.28.28l.13.24.13-.24a.69.69,0,0,1,.28-.28l.24-.13-.24-.13a.63.63,0,0,1-.28-.28l-.13-.23-.13.23a.63.63,0,0,1-.28.28Zm1.61.17Z" transform="translate(-412.41 -287.11)"/><text class="cls-8" transform="translate(42.25 110.73) rotate(-9.32)"><tspan class="cls-9">M</tspan><tspan x="11.33" y="0">a</tspan><tspan class="cls-10" x="18.06" y="0">r</tspan><tspan x="22.69" y="0">malade</tspan></text></svg>