<svg xmlns="http://www.w3.org/2000/svg" viewBox="0 0 185.41 167.57"><defs><style>.cls-1{isolation:isolate;}.cls-2{fill:#ebebeb;}.cls-3{opacity:0.3;mix-blend-mode:multiply;}.cls-4{fill:#bababa;}.cls-5{fill:#f5f5f5;}.cls-6{fill:#717171;}.cls-7{fill:#535353;}.cls-8{fill:#cdcccc;}.cls-9{fill:#fff;}</style></defs><g class="cls-1"><g id="Livello_1" data-name="Livello 1"><path class="cls-2" d="M446.77,180H338.34c-10,0-18.19,23.7-18.19,52.93s8.15,52.93,18.19,52.93H446.77Z" transform="translate(-320.15 -179.97)"/><g class="cls-3"><path class="cls-4" d="M403.93,241.62a.71.71,0,0,0-1,0l-2,2a.75.75,0,0,0-.21.52.7.7,0,0,0,.21.5.72.72,0,0,0,1,0l2-2A.7.7,0,0,0,403.93,241.62Z" transform="translate(-320.15 -179.97)"/><path class="cls-4" d="M413,240l-2-2a.72.72,0,0,0-1,0,.71.71,0,0,0-.21.51.69.69,0,0,0,.22.5l2,2a.7.7,0,0,0,1,0A.71.71,0,0,0,413,240Z" transform="translate(-320.15 -179.97)"/><path class="cls-4" d="M416.06,243.05l-2-2a.72.72,0,0,0-1,1l2,2a.71.71,0,1,0,1-1Z" transform="translate(-320.15 -179.97)"/><path class="cls-4" d="M406,238.58l-2,2a.69.69,0,0,0-.21.51.72.72,0,0,0,.21.5.71.71,0,0,0,1,0l2.05-2a.72.72,0,0,0,0-1A.71.71,0,0,0,406,238.58Z" transform="translate(-320.15 -179.97)"/><path class="cls-4" d="M394.94,284.6a.7.7,0,0,0-1,0l-1.25,1.24h2l.22-.22A.71.71,0,0,0,394.94,284.6Z" transform="translate(-320.15 -179.97)"/><path class="cls-4" d="M406.73,269.89l1,1-.58.57a.73.73,0,0,0-.21.52.7.7,0,0,0,.21.49.71.71,0,0,0,1,0l.58-.58h0a.72.72,0,0,0,1,0,.71.71,0,0,0,0-1l.44-.43a.71.71,0,0,0,0-1,.72.72,0,0,0-1,0l-.45.45-1-1a.7.7,0,0,0-1,0,.69.69,0,0,0-.21.5A.73.73,0,0,0,406.73,269.89Z" transform="translate(-320.15 -179.97)"/><path class="cls-4" d="M416.33,264.4a.7.7,0,0,0,0-1,.71.71,0,0,0-1,0l-2,2a.71.71,0,0,0-.22.51.73.73,0,0,0,.21.51.71.71,0,0,0,1,0Z" transform="translate(-320.15 -179.97)"/><path class="cls-4" d="M424.14,270.11a.72.72,0,0,0,1-1l-2-2a.7.7,0,0,0-1,0,.7.7,0,0,0,0,1Z" transform="translate(-320.15 -179.97)"/><path class="cls-4" d="M422,284a.71.71,0,0,0-.21.51.75.75,0,0,0,.21.51l.8.79h2L423,284A.71.71,0,0,0,422,284Z" transform="translate(-320.15 -179.97)"/><path class="cls-4" d="M428.74,285.17a.72.72,0,0,0-1,0l-.66.67h1.86A.7.7,0,0,0,428.74,285.17Z" transform="translate(-320.15 -179.97)"/><path class="cls-4" d="M413.28,266.42a.72.72,0,0,0-1,0l-2,2a.73.73,0,0,0-.21.51.76.76,0,0,0,.2.51.72.72,0,0,0,1,0l2-2A.72.72,0,0,0,413.28,266.42Z" transform="translate(-320.15 -179.97)"/><path class="cls-4" d="M430.78,282.13l-2,2a.7.7,0,0,0-.22.51.69.69,0,0,0,.21.5.71.71,0,0,0,1,0l2-2a.72.72,0,0,0-1-1Z" transform="translate(-320.15 -179.97)"/><path class="cls-4" d="M446.07,267l-2,2a.69.69,0,0,0-.21.5.74.74,0,0,0,.2.51.72.72,0,0,0,1,0l1.73-1.72v-1.48A.68.68,0,0,0,446.07,267Z" transform="translate(-320.15 -179.97)"/><path class="cls-4" d="M406.72,268.87a.71.71,0,0,0,0-1l-2-2a.7.7,0,0,0-1,0,.67.67,0,0,0-.21.5.69.69,0,0,0,.21.5l2,2A.7.7,0,0,0,406.72,268.87Z" transform="translate(-320.15 -179.97)"/><path class="cls-4" d="M397.91,264.61a.74.74,0,0,0-1,0l-2,2a.69.69,0,0,0-.21.51.7.7,0,0,0,.2.51.72.72,0,0,0,1,0l2-2A.73.73,0,0,0,397.91,264.61Z" transform="translate(-320.15 -179.97)"/><path class="cls-4" d="M397.65,243.85l1.5,1.49-1.33,1.31a.73.73,0,0,0-.2.51.7.7,0,0,0,.2.51.72.72,0,0,0,1,0l1.72-1.71c.05,0,.1-.05.14-.1a.5.5,0,0,0,.08-.12l.09-.09a.71.71,0,0,0,0-1,.69.69,0,0,0-.59-.19l-1.62-1.62a.72.72,0,0,0-1,0,.71.71,0,0,0-.21.51A.72.72,0,0,0,397.65,243.85Z" transform="translate(-320.15 -179.97)"/><path class="cls-4" d="M407,219l.75.75-.84.83a.69.69,0,0,0-.21.51.68.68,0,0,0,.2.5.73.73,0,0,0,1,0l.84-.85.27.27a.71.71,0,1,0,1-1l-.26-.26.17-.18a.7.7,0,0,0,0-1,.72.72,0,0,0-1,0l-.18.18L408,218a.71.71,0,0,0-1,0,.7.7,0,0,0-.21.5A.72.72,0,0,0,407,219Z" transform="translate(-320.15 -179.97)"/><path class="cls-4" d="M388.56,216.8a.72.72,0,0,0,0-1l-2-2a.71.71,0,0,0-1.22.51.71.71,0,0,0,.21.51l2,2A.7.7,0,0,0,388.56,216.8Z" transform="translate(-320.15 -179.97)"/><path class="cls-4" d="M366.9,209.16a.74.74,0,0,0,0,1,.72.72,0,0,0,1,0l2-2a.73.73,0,0,0,0-1,.72.72,0,0,0-1,0Z" transform="translate(-320.15 -179.97)"/><path class="cls-4" d="M382.45,210.74a.7.7,0,0,0,0-1l-2-2a.73.73,0,0,0-1,0,.72.72,0,0,0-.2.5.73.73,0,0,0,.21.51l2,2A.7.7,0,0,0,382.45,210.74Z" transform="translate(-320.15 -179.97)"/><path class="cls-4" d="M407,218a.72.72,0,0,0,0-1l-2.05-2a.71.71,0,0,0-1.21.51.69.69,0,0,0,.21.5l2,2A.7.7,0,0,0,407,218Z" transform="translate(-320.15 -179.97)"/><path class="cls-4" d="M395.59,216.8l2.05-2a.71.71,0,0,0,0-1,.72.72,0,0,0-1,0l-2,2a.75.75,0,0,0-.21.52.74.74,0,0,0,.2.5A.7.7,0,0,0,395.59,216.8Z" transform="translate(-320.15 -179.97)"/><path class="cls-4" d="M382.07,211.47a.69.69,0,0,0,.2.5.76.76,0,0,0,.6.2l1.62,1.61a.7.7,0,0,0,1,0,.71.71,0,0,0,0-1l-1.5-1.49,1.32-1.31a.71.71,0,0,0,0-1,.72.72,0,0,0-1,0l-1.72,1.71a.45.45,0,0,0-.14.1.29.29,0,0,0-.08.13l-.09.08A.71.71,0,0,0,382.07,211.47Z" transform="translate(-320.15 -179.97)"/><path class="cls-4" d="M388.55,240.82a.71.71,0,0,0,0-1,.72.72,0,0,0-1,0l-2,2a.71.71,0,0,0-.21.51.7.7,0,0,0,.2.49.72.72,0,0,0,1,0Z" transform="translate(-320.15 -179.97)"/><path class="cls-4" d="M361.71,199.28l2-2a.72.72,0,1,0-1-1l-2,2a.72.72,0,0,0-.22.51.7.7,0,0,0,.21.5A.7.7,0,0,0,361.71,199.28Z" transform="translate(-320.15 -179.97)"/><path class="cls-4" d="M370,207.14a.71.71,0,0,0,1,0l2-2a.71.71,0,0,0-1-1l-2,2a.69.69,0,0,0-.21.51A.69.69,0,0,0,370,207.14Z" transform="translate(-320.15 -179.97)"/><path class="cls-4" d="M373.29,202.67l.08.08-.35.35a.71.71,0,0,0-.21.51.78.78,0,0,0,.2.51.73.73,0,0,0,1,0l.36-.36.93.93a.74.74,0,0,0,1,0,.72.72,0,0,0,0-1l-.92-.93.65-.65a.72.72,0,0,0,0-1,.73.73,0,0,0-1,0l-.67.67-.09-.1a.73.73,0,0,0-1,0,.74.74,0,0,0-.2.52A.7.7,0,0,0,373.29,202.67Z" transform="translate(-320.15 -179.97)"/><path class="cls-4" d="M357.7,204a.71.71,0,0,0,.21.51l2,2a.7.7,0,0,0,1,0,.72.72,0,0,0,0-1l-2-2a.71.71,0,0,0-1,0A.7.7,0,0,0,357.7,204Z" transform="translate(-320.15 -179.97)"/><path class="cls-4" d="M372.27,201.66a.7.7,0,0,0,1,0,.69.69,0,0,0,0-1l-2-2a.72.72,0,0,0-1,0,.74.74,0,0,0-.2.5.71.71,0,0,0,.21.51Z" transform="translate(-320.15 -179.97)"/><path class="cls-4" d="M397.73,226.9l1.42,1.41-1.42,1.4a.71.71,0,0,0,0,1,.72.72,0,0,0,1,0l1.63-1.62a.68.68,0,0,0,.42-.19.67.67,0,0,0,.18-.61.66.66,0,0,0-.18-.61.64.64,0,0,0-.42-.2l-1.63-1.62a.72.72,0,0,0-1,0,.75.75,0,0,0-.21.51A.73.73,0,0,0,397.73,226.9Z" transform="translate(-320.15 -179.97)"/><path class="cls-4" d="M387.46,222.86l-2,2a.71.71,0,0,0,0,1,.72.72,0,0,0,1,0l2-2a.7.7,0,0,0,0-1A.71.71,0,0,0,387.46,222.86Z" transform="translate(-320.15 -179.97)"/><path class="cls-4" d="M440.61,251.36a.68.68,0,0,0-.2.5.73.73,0,0,0,.21.51l1.5,1.49-1.23,1.23a.67.67,0,0,0-.22.51.7.7,0,0,0,.21.5.72.72,0,0,0,1,0l1.66-1.65.12-.08a.41.41,0,0,0,.07-.11l.19-.18a.72.72,0,0,0,0-1,.69.69,0,0,0-.73-.16l-1.58-1.56A.7.7,0,0,0,440.61,251.36Z" transform="translate(-320.15 -179.97)"/><path class="cls-4" d="M381.52,262.81l-2,2a.72.72,0,0,0,0,1,.7.7,0,0,0,1,0l2-2a.71.71,0,0,0,.17-.73l1.52,1.51a.71.71,0,1,0,1-1L384,262.38l1.58-1.58a.71.71,0,0,0,0-1,.72.72,0,0,0-1,0l-1.65,1.64a.69.69,0,0,0-.74.17.71.71,0,0,0,0,1l.05,0A.71.71,0,0,0,381.52,262.81Z" transform="translate(-320.15 -179.97)"/><path class="cls-4" d="M397.64,242.83a.7.7,0,0,0,0-1l-2.05-2a.71.71,0,0,0-1,0,.72.72,0,0,0-.21.5.71.71,0,0,0,.21.51l2,2A.71.71,0,0,0,397.64,242.83Z" transform="translate(-320.15 -179.97)"/><path class="cls-4" d="M394.47,223.37a.7.7,0,0,0,.21.5l2,2a.71.71,0,0,0,1,0,.7.7,0,0,0,0-1l-2-2a.71.71,0,0,0-1.22.51Z" transform="translate(-320.15 -179.97)"/><path class="cls-4" d="M403.84,224.67a.71.71,0,0,0-1,0l-2,2a.74.74,0,0,0,0,1,.72.72,0,0,0,1,0l2-2A.71.71,0,0,0,403.84,224.67Z" transform="translate(-320.15 -179.97)"/><path class="cls-4" d="M413.09,223.08l-2-2a.72.72,0,0,0-1.22.51.75.75,0,0,0,.21.51l2,2a.71.71,0,0,0,1,0A.7.7,0,0,0,413.09,223.08Z" transform="translate(-320.15 -179.97)"/><path class="cls-4" d="M403.85,223.65a.73.73,0,0,0-.21.51.72.72,0,0,0,1.21.51l2-2a.72.72,0,0,0-1-1Z" transform="translate(-320.15 -179.97)"/><path class="cls-4" d="M423.29,223.43l2-2a.71.71,0,0,0,0-1,.72.72,0,0,0-1,0l-2,2a.69.69,0,0,0-.21.5.67.67,0,0,0,.21.5A.7.7,0,0,0,423.29,223.43Z" transform="translate(-320.15 -179.97)"/><path class="cls-4" d="M416.15,226.11l-2-2a.71.71,0,0,0-1,0,.69.69,0,0,0-.21.51.7.7,0,0,0,.21.51l2,2a.71.71,0,1,0,1-1Z" transform="translate(-320.15 -179.97)"/><path class="cls-4" d="M410.8,271.9a.71.71,0,0,0-1,0,.65.65,0,0,0-.21.5.7.7,0,0,0,.21.51l2,2a.73.73,0,0,0,1,0,.71.71,0,0,0,0-1Z" transform="translate(-320.15 -179.97)"/><path class="cls-4" d="M397.46,276.73a.71.71,0,0,0,0-1l-2-2a.72.72,0,0,0-1,1l2,2A.7.7,0,0,0,397.46,276.73Z" transform="translate(-320.15 -179.97)"/><path class="cls-4" d="M397.47,277.75l1.68,1.66L398,280.55a.73.73,0,0,0-.21.51.69.69,0,0,0,.21.5.71.71,0,0,0,1,0l1.3-1.3a.76.76,0,0,0,.22.5l2,2a.72.72,0,0,0,1,0,.7.7,0,0,0,0-1l-2-2a.66.66,0,0,0-.49-.2h0a.71.71,0,0,0-.85-1.12l-1.72-1.7a.72.72,0,0,0-1,1Z" transform="translate(-320.15 -179.97)"/><path class="cls-4" d="M385.48,276.23a.69.69,0,0,0,.2.5.72.72,0,0,0,1,0l2-2a.71.71,0,1,0-1-1l-2,2A.73.73,0,0,0,385.48,276.23Z" transform="translate(-320.15 -179.97)"/><path class="cls-4" d="M412.93,259l2,2a.72.72,0,0,0,1,0,.71.71,0,0,0,0-1l-2-2a.72.72,0,0,0-1,0,.69.69,0,0,0-.21.5A.73.73,0,0,0,412.93,259Z" transform="translate(-320.15 -179.97)"/><path class="cls-4" d="M404,257.55a.72.72,0,0,0-.22.5.77.77,0,0,0,.21.51.72.72,0,0,0,1,0l2-2a.71.71,0,0,0,0-1,.73.73,0,0,0-1,0Z" transform="translate(-320.15 -179.97)"/><path class="cls-4" d="M384.94,282.07a.74.74,0,0,0,.22.51l2,2a.71.71,0,0,0,1-1l-2-2a.72.72,0,0,0-1,0A.73.73,0,0,0,384.94,282.07Z" transform="translate(-320.15 -179.97)"/><path class="cls-4" d="M390.61,270.84l-1.87,1.86a.7.7,0,0,0-.21.5.69.69,0,0,0,.21.5.72.72,0,0,0,1,0l1.82-1.81,1.83,1.81a.72.72,0,0,0,1,0,.71.71,0,0,0,0-1l-1.86-1.85a.63.63,0,0,0,.27-.16l2-2a.71.71,0,0,0,0-1,.7.7,0,0,0-1,0l-2,2a.73.73,0,0,0-.21.51.78.78,0,0,0,.09.33l-.11,0-.11,0a.71.71,0,0,0-.11-.84l-2-2a.72.72,0,0,0-1.22.5.73.73,0,0,0,.21.51l2,2A.63.63,0,0,0,390.61,270.84Z" transform="translate(-320.15 -179.97)"/><path class="cls-4" d="M403,258.55l-2,2a.72.72,0,0,0,0,1,.71.71,0,0,0,1,0l2-2a.72.72,0,0,0-1-1Z" transform="translate(-320.15 -179.97)"/><path class="cls-4" d="M397.35,260.29a.73.73,0,0,0,.21.51l1.59,1.58-1.24,1.23a.71.71,0,0,0,1,1l1.53-1.5a.71.71,0,0,0,0,.21.73.73,0,0,0,.21.51l2,2a.72.72,0,0,0,1-1l-2.05-2a.69.69,0,0,0-.71-.16l0,0a.71.71,0,0,0,0-1,.67.67,0,0,0-.73-.17l-1.67-1.64a.71.71,0,0,0-1,0A.69.69,0,0,0,397.35,260.29Z" transform="translate(-320.15 -179.97)"/><path class="cls-4" d="M375.49,285.83h1a.72.72,0,0,0-1,0Z" transform="translate(-320.15 -179.97)"/><path class="cls-4" d="M385,265.12a.72.72,0,0,0,.22.51l2,2a.7.7,0,0,0,1,0,.72.72,0,0,0,0-1l-2-2a.72.72,0,0,0-1.22.51Z" transform="translate(-320.15 -179.97)"/><path class="cls-4" d="M378.47,265.84l-2,2a.71.71,0,0,0-.21.51.72.72,0,0,0,.2.5.7.7,0,0,0,1,0l2.05-2a.71.71,0,0,0-1-1Z" transform="translate(-320.15 -179.97)"/><path class="cls-4" d="M378.56,282.79l-2,2a.71.71,0,0,0-.21.51.74.74,0,0,0,.2.5h1l2-2a.72.72,0,0,0,0-1A.71.71,0,0,0,378.56,282.79Z" transform="translate(-320.15 -179.97)"/><path class="cls-4" d="M444.59,271.33a.68.68,0,0,0-.7-.17L444,271a.71.71,0,0,0-.85-1.12l-1.63-1.61a.71.71,0,0,0-1,0,.73.73,0,0,0-.21.51.75.75,0,0,0,.21.51l1.59,1.57L441,272a.71.71,0,0,0,0,1,.7.7,0,0,0,1,0l1.44-1.42a.65.65,0,0,0,0,.21.76.76,0,0,0,.22.51l2,2a.72.72,0,0,0,1,0,1.48,1.48,0,0,0,.13-.21v-.6a1,1,0,0,0-.14-.21Z" transform="translate(-320.15 -179.97)"/><path class="cls-4" d="M386.34,247.66a.72.72,0,0,0-1,0,.71.71,0,0,0,0,1l2,2a.71.71,0,0,0,1-1Z" transform="translate(-320.15 -179.97)"/><path class="cls-4" d="M400.7,245.87a.7.7,0,0,0-.21.5.7.7,0,0,0,.22.51l2,2a.7.7,0,0,0,1,0,.71.71,0,0,0,0-1l-2-2A.72.72,0,0,0,400.7,245.87Z" transform="translate(-320.15 -179.97)"/><path class="cls-4" d="M406.81,251.93a.72.72,0,0,0,0-1l-2-2a.72.72,0,0,0-1,0,.74.74,0,0,0,0,1l2,2A.71.71,0,0,0,406.81,251.93Z" transform="translate(-320.15 -179.97)"/><path class="cls-4" d="M406.82,252.93l.93.93-.67.66a.69.69,0,0,0-.21.5.72.72,0,0,0,1.22.52l.67-.68.09.1a.72.72,0,0,0,1-1l-.09-.08.35-.35a.71.71,0,0,0-1-1l-.36.35-.93-.92a.71.71,0,0,0-1,0,.69.69,0,0,0-.21.51A.67.67,0,0,0,406.82,252.93Z" transform="translate(-320.15 -179.97)"/><path class="cls-4" d="M416.24,247.45a.71.71,0,1,0-1-1l-2,2a.72.72,0,0,0-.22.51.71.71,0,0,0,.21.49.72.72,0,0,0,1,0Z" transform="translate(-320.15 -179.97)"/><path class="cls-4" d="M395.78,250.7l2-2a.71.71,0,0,0-1-1l-2,2a.67.67,0,0,0-.21.51.69.69,0,0,0,.2.5A.72.72,0,0,0,395.78,250.7Z" transform="translate(-320.15 -179.97)"/><path class="cls-4" d="M431.35,258.2l-2-2a.72.72,0,0,0-1,1l2,2a.72.72,0,1,0,1-1Z" transform="translate(-320.15 -179.97)"/><path class="cls-4" d="M436.81,259.13l-2,2a.74.74,0,0,0-.19.41.68.68,0,0,0-.18-.32l-2-2a.72.72,0,0,0-1.22.5.73.73,0,0,0,.21.52l2,2a.54.54,0,0,0,.16.1l-1.85,1.83a.7.7,0,0,0-.21.5.73.73,0,0,0,.21.51.71.71,0,0,0,1,0l1.82-1.81,1.92,1.89a.69.69,0,0,0,1,0,.7.7,0,0,0,0-1l-1.95-1.94a.63.63,0,0,0,.27-.16l2-2a.71.71,0,0,0-1-1Zm-2.1,2.94h-.06l-.1-.06a.35.35,0,0,0,0-.17A.94.94,0,0,0,434.71,262.07Z" transform="translate(-320.15 -179.97)"/><path class="cls-4" d="M422.19,250.12a.73.73,0,0,0-.21.51.71.71,0,0,0,.21.51l2,2a.71.71,0,0,0,1,0,.73.73,0,0,0,0-1l-2-2A.72.72,0,0,0,422.19,250.12Z" transform="translate(-320.15 -179.97)"/><path class="cls-4" d="M428.29,255.17,427,253.86l1.59-1.57a.72.72,0,0,0,0-1,.71.71,0,0,0-1,0L425.84,253a.7.7,0,0,0-.8.7.74.74,0,0,0,.18.48.69.69,0,0,0-.73.16l-2,2a.73.73,0,0,0-.21.52.72.72,0,0,0,.21.5.71.71,0,0,0,1,0l2-2a.7.7,0,0,0,.17-.72l1.62,1.6a.72.72,0,0,0,1,0A.71.71,0,0,0,428.29,255.17Z" transform="translate(-320.15 -179.97)"/><path class="cls-4" d="M413.19,249.47a.72.72,0,0,0-1,0l-2,2a.69.69,0,0,0-.21.5.71.71,0,0,0,.21.51.72.72,0,0,0,1,0l2-2A.71.71,0,0,0,413.19,249.47Z" transform="translate(-320.15 -179.97)"/><path class="cls-4" d="M388,285.1a.73.73,0,0,0,.21.51l.23.22h2l-1.25-1.24a.7.7,0,0,0-1,0A.69.69,0,0,0,388,285.1Z" transform="translate(-320.15 -179.97)"/><path class="cls-4" d="M351.8,198.41l2,2a.72.72,0,0,0,1,0,.71.71,0,0,0,0-1l-2-2a.71.71,0,0,0-1,0,.72.72,0,0,0-.21.5A.71.71,0,0,0,351.8,198.41Z" transform="translate(-320.15 -179.97)"/><path class="cls-4" d="M412.84,274.93a.72.72,0,0,0-.21.5.7.7,0,0,0,.22.52l2,2a.72.72,0,0,0,1-1l-2-2A.73.73,0,0,0,412.84,274.93Z" transform="translate(-320.15 -179.97)"/><path class="cls-4" d="M421.53,274.27l-2,2a.73.73,0,0,0-.21.51.69.69,0,0,0,.2.5.72.72,0,0,0,1,0l2-2a.71.71,0,0,0,0-1A.7.7,0,0,0,421.53,274.27Z" transform="translate(-320.15 -179.97)"/><path class="cls-4" d="M431.26,275.15l-2-2a.72.72,0,0,0-1,0,.75.75,0,0,0-.21.51.72.72,0,0,0,.22.5l2,2a.72.72,0,0,0,1,0A.71.71,0,0,0,431.26,275.15Z" transform="translate(-320.15 -179.97)"/><path class="cls-4" d="M401.06,277.52a.73.73,0,0,0-.21.51.72.72,0,0,0,1.21.51l2-2a.71.71,0,0,0,0-1,.72.72,0,0,0-1,0Z" transform="translate(-320.15 -179.97)"/><path class="cls-4" d="M404.11,274.49a.79.79,0,0,0-.21.51.7.7,0,0,0,.21.5.71.71,0,0,0,1,0l2-2a.72.72,0,0,0,0-1,.73.73,0,0,0-1,0Z" transform="translate(-320.15 -179.97)"/><path class="cls-4" d="M406.64,285.83h1v0a.72.72,0,0,0-1,0Z" transform="translate(-320.15 -179.97)"/><path class="cls-4" d="M419,281a.69.69,0,0,0-.2.5.71.71,0,0,0,.21.51l2,2a.72.72,0,0,0,1-1L420,281A.71.71,0,0,0,419,281Z" transform="translate(-320.15 -179.97)"/><path class="cls-4" d="M412.35,283.36l-2,2a.65.65,0,0,0-.2.45h1.78l1.46-1.45a.72.72,0,1,0-1-1Z" transform="translate(-320.15 -179.97)"/><path class="cls-4" d="M413.37,282.35a.71.71,0,0,0-.21.51.72.72,0,0,0,1.22.51l2-2a.72.72,0,0,0-1-1Z" transform="translate(-320.15 -179.97)"/><path class="cls-4" d="M440.44,285.25a.71.71,0,0,0-.21.51s0,0,0,.07H442l-.59-.59A.72.72,0,0,0,440.44,285.25Z" transform="translate(-320.15 -179.97)"/><path class="cls-4" d="M410.88,255a.72.72,0,0,0-1.22.51.7.7,0,0,0,.22.51l2,2a.72.72,0,1,0,1-1Z" transform="translate(-320.15 -179.97)"/><path class="cls-4" d="M436.9,276.08l-2,2a.73.73,0,0,0-.21.51.7.7,0,0,0,.13.39h-.08l-.22-.08a.69.69,0,0,0-.17-.74l-2-2a.72.72,0,0,0-1.22.51.75.75,0,0,0,.21.51l2,2a.77.77,0,0,0,.27.17l-1.78,1.76a.73.73,0,0,0-.21.51.69.69,0,0,0,.21.5.7.7,0,0,0,1,0l1.73-1.72,1.83,1.8a.71.71,0,1,0,1-1l-1.93-1.91a.7.7,0,0,0,.42-.19l2-2a.73.73,0,0,0,0-1A.71.71,0,0,0,436.9,276.08Z" transform="translate(-320.15 -179.97)"/><path class="cls-4" d="M439.51,268.3a.71.71,0,1,0,1-1l-2-2a.72.72,0,0,0-1,1Z" transform="translate(-320.15 -179.97)"/><path class="cls-4" d="M419,264a.73.73,0,0,0-.21.51.69.69,0,0,0,.21.5l2,2a.71.71,0,1,0,1-1l-2-2A.72.72,0,0,0,419,264Z" transform="translate(-320.15 -179.97)"/><path class="cls-4" d="M430.69,265.19l-2,2a.72.72,0,1,0,1,1l2-2a.71.71,0,0,0-1-1Z" transform="translate(-320.15 -179.97)"/><path class="cls-4" d="M403.38,283.29a.75.75,0,0,0,.21.52l2,2h1a.73.73,0,0,0,0-1l-2.05-2a.71.71,0,0,0-1.21.5Z" transform="translate(-320.15 -179.97)"/><path class="cls-4" d="M422.44,258.34a.7.7,0,0,0,0-1,.71.71,0,0,0-1,0l-2,2a.7.7,0,0,0-.21.51.71.71,0,0,0,1.22.51Z" transform="translate(-320.15 -179.97)"/><path class="cls-4" d="M419,263l-.66-.65,1-1a.71.71,0,0,0-1-1l-1,1L417,261a.71.71,0,0,0-1.22.51.73.73,0,0,0,.21.51l.35.35a.7.7,0,0,0-.21.5.73.73,0,0,0,.21.51.71.71,0,0,0,1,0h0l.67.67a.71.71,0,0,0,1-1Z" transform="translate(-320.15 -179.97)"/><path class="cls-4" d="M398,281.57a.69.69,0,0,0-1,0l-2.05,2a.71.71,0,0,0-.21.51.69.69,0,0,0,.21.5.72.72,0,0,0,1,0l2-2A.71.71,0,0,0,398,281.57Z" transform="translate(-320.15 -179.97)"/><path class="cls-4" d="M439.42,285.25a.72.72,0,1,0,1-1l-2-2a.71.71,0,0,0-1,0,.71.71,0,0,0,0,1Z" transform="translate(-320.15 -179.97)"/><path class="cls-4" d="M446.77,274.28a.46.46,0,0,0-.13.08.7.7,0,0,0-.21.5.69.69,0,0,0,.21.51l.13.12Z" transform="translate(-320.15 -179.97)"/><path class="cls-4" d="M428.21,272.12,427,270.89l1.67-1.66a.7.7,0,0,0,0-1,.71.71,0,0,0-1,0l-1.74,1.72a.73.73,0,0,0-.75.16.74.74,0,0,0-.2.51.72.72,0,0,0,.16.43.69.69,0,0,0-.53.21l-2,2a.75.75,0,0,0-.21.51.76.76,0,0,0,.2.51.72.72,0,0,0,1,0l2-2a.73.73,0,0,0,.21-.51l1.4,1.38a.71.71,0,0,0,1-1Z" transform="translate(-320.15 -179.97)"/><path class="cls-4" d="M441,273.05a.72.72,0,0,0-1,0l-2,2a.72.72,0,0,0,0,1,.71.71,0,0,0,1,0l2-2A.72.72,0,0,0,441,273.05Z" transform="translate(-320.15 -179.97)"/><path class="cls-4" d="M375.78,273a.71.71,0,0,0,.21.51l2,2a.73.73,0,0,0,1,0,.72.72,0,0,0,0-1l-2-2a.71.71,0,0,0-1.22.51Z" transform="translate(-320.15 -179.97)"/><path class="cls-4" d="M422.53,181.32,421.16,180h-1.85a.62.62,0,0,0,.18.35l2,2a.71.71,0,0,0,1-1Z" transform="translate(-320.15 -179.97)"/><path class="cls-4" d="M428,183a.75.75,0,0,0,.21.51.71.71,0,0,0,1,0l2-2a.72.72,0,0,0,0-1,.71.71,0,0,0-1,0l-2,2A.72.72,0,0,0,428,183Z" transform="translate(-320.15 -179.97)"/><path class="cls-4" d="M412.83,182.69a.71.71,0,0,0,0-1,.72.72,0,0,0-1,0l-2,2a.67.67,0,0,0-.21.51.63.63,0,0,0,.21.49.71.71,0,0,0,1,0Z" transform="translate(-320.15 -179.97)"/><path class="cls-4" d="M361.62,182.34l2-2a.69.69,0,0,0,.18-.35H362l-1.37,1.35a.71.71,0,0,0,0,1A.73.73,0,0,0,361.62,182.34Z" transform="translate(-320.15 -179.97)"/><path class="cls-4" d="M409.78,185.72a.71.71,0,0,0,0-1,.72.72,0,0,0-1,0v0l-.58-.58a.72.72,0,0,0-1.22.51.7.7,0,0,0,.21.5l.58.57-1,1a.71.71,0,0,0,0,1,.72.72,0,0,0,1,0l1-1,.45.44a.71.71,0,0,0,1,0,.72.72,0,0,0,0-1Z" transform="translate(-320.15 -179.97)"/><path class="cls-4" d="M351.89,181.47l2,2a.71.71,0,1,0,1-1l-2-2a.71.71,0,0,0-1,0,.75.75,0,0,0-.21.51A.73.73,0,0,0,351.89,181.47Z" transform="translate(-320.15 -179.97)"/><path class="cls-4" d="M345.24,180.54a.73.73,0,0,0,1,0l.57-.57h-1.78a.14.14,0,0,0,0,.06A.75.75,0,0,0,345.24,180.54Z" transform="translate(-320.15 -179.97)"/><path class="cls-4" d="M375.78,183.63a.78.78,0,0,0,.2.51.72.72,0,0,0,1,0l2-2a.71.71,0,0,0,0-1,.73.73,0,0,0-1,0l-2,2A.73.73,0,0,0,375.78,183.63Z" transform="translate(-320.15 -179.97)"/><path class="cls-4" d="M403.46,190.27a.67.67,0,0,0,.21.49.7.7,0,0,0,1,0l2-2a.72.72,0,0,0,0-1,.71.71,0,0,0-1,0l-2,2A.73.73,0,0,0,403.46,190.27Z" transform="translate(-320.15 -179.97)"/><path class="cls-4" d="M423.11,189.54l2-2a.71.71,0,0,0,0-1,.72.72,0,0,0-1,0l-2,2a.71.71,0,0,0,0,1A.71.71,0,0,0,423.11,189.54Z" transform="translate(-320.15 -179.97)"/><path class="cls-4" d="M415.32,193.23a.71.71,0,0,0,1,0,.69.69,0,0,0,0-1l-2-2a.72.72,0,0,0-1,0,.75.75,0,0,0-.21.51.7.7,0,0,0,.22.51Z" transform="translate(-320.15 -179.97)"/><path class="cls-4" d="M413.27,189.18l-2-2a.72.72,0,0,0-1,0,.74.74,0,0,0-.2.5.73.73,0,0,0,.21.51l2,2a.73.73,0,0,0,1,0A.72.72,0,0,0,413.27,189.18Z" transform="translate(-320.15 -179.97)"/><path class="cls-4" d="M422.09,190.55a.71.71,0,0,0-1-1l-2,2a.71.71,0,0,0-.21.51.72.72,0,0,0,.21.5.71.71,0,0,0,1,0Z" transform="translate(-320.15 -179.97)"/><path class="cls-4" d="M431.7,190.41l-2-2a.73.73,0,0,0-1,0,.78.78,0,0,0-.2.51.69.69,0,0,0,.21.5l2,2a.72.72,0,0,0,1,0A.7.7,0,0,0,431.7,190.41Z" transform="translate(-320.15 -179.97)"/><path class="cls-4" d="M409.88,200.65a.69.69,0,0,0,0,1,.7.7,0,0,0,1,0l2-2a.72.72,0,0,0,0-1,.73.73,0,0,0-1,0Z" transform="translate(-320.15 -179.97)"/><path class="cls-4" d="M419.39,195.24l-1-1,.66-.66a.71.71,0,0,0,0-1,.72.72,0,0,0-1,0l-.67.67h0a.7.7,0,0,0-1,0,.69.69,0,0,0-.21.5.71.71,0,0,0,.21.51l-.35.35a.7.7,0,0,0-.21.5.74.74,0,0,0,.2.51.72.72,0,0,0,1,0l.36-.35,1,1a.72.72,0,0,0,1,0A.71.71,0,0,0,419.39,195.24Z" transform="translate(-320.15 -179.97)"/><path class="cls-4" d="M412.93,198.62a.7.7,0,0,0,1,0l2-2a.71.71,0,0,0-1-1l-2,2a.7.7,0,0,0-.21.5A.69.69,0,0,0,412.93,198.62Z" transform="translate(-320.15 -179.97)"/><path class="cls-4" d="M370.31,181.68a.73.73,0,0,0,0-1l-.71-.7h-2l1.74,1.71A.71.71,0,0,0,370.31,181.68Z" transform="translate(-320.15 -179.97)"/><path class="cls-4" d="M385,191.49a.69.69,0,0,0,.21.5.7.7,0,0,0,1,0l2-2a.71.71,0,0,0-1-1l-2,2A.74.74,0,0,0,385,191.49Z" transform="translate(-320.15 -179.97)"/><path class="cls-4" d="M372.36,184.72a.71.71,0,0,0,1-1l-2-2a.71.71,0,0,0-1,0,.72.72,0,0,0,0,1Z" transform="translate(-320.15 -179.97)"/><path class="cls-4" d="M376.43,188.76l2,2a.7.7,0,0,0,1,0,.72.72,0,0,0,0-1l-2.05-2a.71.71,0,0,0-1,0,.74.74,0,0,0-.2.5A.75.75,0,0,0,376.43,188.76Z" transform="translate(-320.15 -179.97)"/><path class="cls-4" d="M397.91,193l1.24,1.23-1.59,1.58a.7.7,0,0,0-.21.5.69.69,0,0,0,.21.5.71.71,0,0,0,1,0l1.66-1.64A.71.71,0,0,0,401,194l0,0a.71.71,0,0,0,.71-.16l2.05-2a.72.72,0,0,0,0-1,.73.73,0,0,0-1,0l-2,2a.7.7,0,0,0-.21.5.85.85,0,0,0,0,.22L398.92,192a.72.72,0,0,0-1,0,.71.71,0,0,0,0,1Z" transform="translate(-320.15 -179.97)"/><path class="cls-4" d="M397.91,192a.71.71,0,0,0,0-1l-2-2a.73.73,0,0,0-1,0,.69.69,0,0,0-.2.5.69.69,0,0,0,.21.51l2,2A.72.72,0,0,0,397.91,192Z" transform="translate(-320.15 -179.97)"/><path class="cls-4" d="M404,198.05a.71.71,0,0,0,0-1l-2-2a.72.72,0,0,0-1.22.51.7.7,0,0,0,.21.5l2,2A.72.72,0,0,0,404,198.05Z" transform="translate(-320.15 -179.97)"/><path class="cls-4" d="M422.44,198.27l-2-2a.71.71,0,0,0-1.22.51.69.69,0,0,0,.21.51l2,2a.71.71,0,0,0,1-1Z" transform="translate(-320.15 -179.97)"/><path class="cls-4" d="M443.93,203.54a.71.71,0,0,0,0-1l-.19-.18a.35.35,0,0,0-.07-.12l-.12-.08-1.66-1.64a.71.71,0,0,0-1,0,.73.73,0,0,0-.21.51.71.71,0,0,0,.22.51l1.23,1.22-1.5,1.49a.75.75,0,0,0-.21.51.71.71,0,0,0,1.21.51l1.58-1.55A.71.71,0,0,0,443.93,203.54Z" transform="translate(-320.15 -179.97)"/><path class="cls-4" d="M333.36,196.17a.71.71,0,0,0,0-1l-.93-.92.57-.58a.7.7,0,0,0,0-1,.72.72,0,0,0-1,0l-.59.58-.09-.09a.71.71,0,0,0-1,0,.72.72,0,0,0,0,1l.09.08-.44.43a.7.7,0,0,0-.21.5.74.74,0,0,0,.2.51.73.73,0,0,0,1,0l.44-.45.95.94A.7.7,0,0,0,333.36,196.17Z" transform="translate(-320.15 -179.97)"/><path class="cls-4" d="M338.92,186.09a.71.71,0,0,0,1.06.61l1.63,1.61a.72.72,0,0,0,1,0,.71.71,0,0,0,0-1l-1.6-1.58,1.16-1.14a.71.71,0,0,0,0-1,.73.73,0,0,0-1,0L339.74,185a.75.75,0,0,0-.18-.71l-2-2a.71.71,0,0,0-1,0,.73.73,0,0,0-.21.51.7.7,0,0,0,.22.51l2,2a.7.7,0,0,0,.7.16l-.12.13A.74.74,0,0,0,338.92,186.09Z" transform="translate(-320.15 -179.97)"/><path class="cls-4" d="M445.62,182.25l-2,2a.64.64,0,0,0-.18.71L442,183.56a.72.72,0,0,0-1.21.51.73.73,0,0,0,.21.51l1.15,1.14-1.59,1.58a.73.73,0,0,0-.21.51.7.7,0,0,0,.21.5.71.71,0,0,0,1,0l1.63-1.61a.68.68,0,0,0,.85-.11.71.71,0,0,0,0-1l-.13-.13a.7.7,0,0,0,.7-.16l2-2a.77.77,0,0,0,.14-.21v-.6a1.48,1.48,0,0,0-.13-.21A.72.72,0,0,0,445.62,182.25Z" transform="translate(-320.15 -179.97)"/><path class="cls-4" d="M367.08,212.55a.74.74,0,0,0,0,1l2,2a.73.73,0,0,0,1,0,.71.71,0,0,0,0-1l-2-2A.72.72,0,0,0,367.08,212.55Z" transform="translate(-320.15 -179.97)"/><path class="cls-4" d="M382,194.52a.71.71,0,0,0,.95.67l1.65,1.64a.72.72,0,0,0,1,0,.7.7,0,0,0,0-1L384,194.24l1.23-1.23a.71.71,0,0,0,0-1,.73.73,0,0,0-1,0l-1.52,1.52a.69.69,0,0,0-.17-.72l-2-2a.72.72,0,0,0-1,0,.69.69,0,0,0-.2.5.67.67,0,0,0,.21.51l2,2a.73.73,0,0,0,.72.16l-.05,0A.73.73,0,0,0,382,194.52Z" transform="translate(-320.15 -179.97)"/><path class="cls-4" d="M380.23,215l2-2a.71.71,0,0,0,0-1,.72.72,0,0,0-1,0l-2,2a.72.72,0,0,0,1,1Z" transform="translate(-320.15 -179.97)"/><path class="cls-4" d="M338.56,271.33l-2,2a.68.68,0,0,0-.22.5.73.73,0,0,0,.21.51.71.71,0,0,0,1,0l2-2a.73.73,0,0,0,.18-.72l1.43,1.42a.72.72,0,1,0,1-1L341,270.89l1.6-1.57a.72.72,0,1,0-1-1L340,269.91a.71.71,0,0,0-.85.11.7.7,0,0,0-.21.5.72.72,0,0,0,.22.51l.12.13A.68.68,0,0,0,338.56,271.33Z" transform="translate(-320.15 -179.97)"/><path class="cls-4" d="M333.28,213.12a.72.72,0,0,0,0-1l-.84-.83.66-.66a.7.7,0,0,0,0-1,.72.72,0,0,0-1,0l-.68.67-.18-.17a.71.71,0,1,0-1,1l.17.17-.35.35a.67.67,0,0,0-.21.5.74.74,0,0,0,.2.51.72.72,0,0,0,1,0l.35-.35.86.84A.71.71,0,0,0,333.28,213.12Z" transform="translate(-320.15 -179.97)"/><path class="cls-4" d="M345.59,207.28l-2-2a.71.71,0,0,0-1,0,.7.7,0,0,0-.21.5.67.67,0,0,0,.22.51l2,2a.73.73,0,0,0,1,0A.72.72,0,0,0,345.59,207.28Z" transform="translate(-320.15 -179.97)"/><path class="cls-4" d="M376.42,187.74a.71.71,0,0,0,0-1l-1-1,.57-.57a.72.72,0,0,0-1-1l-.59.58h0a.72.72,0,0,0-1,0,.71.71,0,0,0-.21.51.72.72,0,0,0,.21.5l-.44.43a.72.72,0,0,0,0,1,.71.71,0,0,0,1,0l.45-.44,1,1A.72.72,0,0,0,376.42,187.74Z" transform="translate(-320.15 -179.97)"/><path class="cls-4" d="M351.88,180.45a.7.7,0,0,0,.21-.48h-1.72l.5.48A.71.71,0,0,0,351.88,180.45Z" transform="translate(-320.15 -179.97)"/><path class="cls-4" d="M345.12,197a.69.69,0,0,0,.21.5.72.72,0,0,0,1,0l2-2a.81.81,0,0,0,.19-.41.67.67,0,0,0,.17.32l2,2a.71.71,0,0,0,1,0,.72.72,0,0,0,0-1l-2-2a.64.64,0,0,0-.16-.11l1.85-1.82a.72.72,0,0,0-1-1l-1.83,1.81-1.91-1.89a.71.71,0,0,0-1,0,.75.75,0,0,0-.21.51.73.73,0,0,0,.21.5l2,1.94a.92.92,0,0,0-.27.16l-2,2A.75.75,0,0,0,345.12,197Zm3.32-2.44h.06l.09.06a1,1,0,0,0,0,.17A.65.65,0,0,0,348.44,194.54Z" transform="translate(-320.15 -179.97)"/><path class="cls-4" d="M395.43,182.91l2-2a.7.7,0,0,0,.06-.93h-1.16l-1.95,1.93a.72.72,0,0,0-.2.5.78.78,0,0,0,.2.51A.72.72,0,0,0,395.43,182.91Z" transform="translate(-320.15 -179.97)"/><path class="cls-4" d="M407.17,184.14a.73.73,0,0,0,0-1l-2-2a.72.72,0,0,0-1,0,.71.71,0,0,0-.21.51.77.77,0,0,0,.21.5l2,2A.72.72,0,0,0,407.17,184.14Z" transform="translate(-320.15 -179.97)"/><path class="cls-4" d="M388.74,182.91a.72.72,0,0,0,0-1l-2-1.93h-1.15a.64.64,0,0,0-.15.42.75.75,0,0,0,.21.51l2,2A.72.72,0,0,0,388.74,182.91Z" transform="translate(-320.15 -179.97)"/><path class="cls-4" d="M432.28,180.45l.49-.48h-1.71a.75.75,0,0,0,.21.48A.71.71,0,0,0,432.28,180.45Z" transform="translate(-320.15 -179.97)"/><path class="cls-4" d="M413.85,181.68l1.73-1.71h-2l-.7.7a.68.68,0,0,0-.22.5.72.72,0,0,0,1.22.51Z" transform="translate(-320.15 -179.97)"/><path class="cls-4" d="M391.59,186.44a.73.73,0,0,0,.21.51l2,2a.7.7,0,0,0,1,0,.71.71,0,0,0,0-1l-2-2a.77.77,0,0,0-.27-.17l1.86-1.84a.72.72,0,0,0,0-1,.71.71,0,0,0-1,0l-1.83,1.81-1.82-1.81a.71.71,0,0,0-1,0,.72.72,0,0,0-.21.5.75.75,0,0,0,.21.52l1.87,1.84a.65.65,0,0,0-.27.17l-2,2a.73.73,0,0,0-.21.51.69.69,0,0,0,.21.5.7.7,0,0,0,1,0l2-2a.71.71,0,0,0,.11-.84.35.35,0,0,0,.11,0,.23.23,0,0,0,.11,0A.82.82,0,0,0,391.59,186.44Z" transform="translate(-320.15 -179.97)"/><path class="cls-4" d="M436.9,180.54a.71.71,0,0,0,1,0,.69.69,0,0,0,.19-.56h-1.78Z" transform="translate(-320.15 -179.97)"/><path class="cls-4" d="M378.84,180.6a.7.7,0,0,0,.2.51.72.72,0,0,0,1,0l1.15-1.14h-2l-.14.13A.68.68,0,0,0,378.84,180.6Z" transform="translate(-320.15 -179.97)"/><path class="cls-4" d="M385.55,180h-.76A.74.74,0,0,0,385.55,180Z" transform="translate(-320.15 -179.97)"/><path class="cls-4" d="M404.11,181.1a.7.7,0,0,0,0-1L404,180h-2l1.15,1.14A.72.72,0,0,0,404.11,181.1Z" transform="translate(-320.15 -179.97)"/><path class="cls-4" d="M398.36,180h-.76A.74.74,0,0,0,398.36,180Z" transform="translate(-320.15 -179.97)"/><path class="cls-4" d="M336.16,206.57a.71.71,0,0,0-1,0l-2,2a.76.76,0,0,0-.22.51.71.71,0,0,0,.21.51.72.72,0,0,0,1,0l2-2A.71.71,0,0,0,336.16,206.57Z" transform="translate(-320.15 -179.97)"/><path class="cls-4" d="M375.87,200.58a.74.74,0,0,0,.2.5.71.71,0,0,0,1,0l2-2a.72.72,0,0,0,0-1,.71.71,0,0,0-1,0l-2,2A.71.71,0,0,0,375.87,200.58Z" transform="translate(-320.15 -179.97)"/><path class="cls-4" d="M390.43,202.88l-2,2a.69.69,0,0,0-.21.51.67.67,0,0,0,.21.5.7.7,0,0,0,1,0l2-2a.46.46,0,0,0,.14-.2.72.72,0,0,0,.14.2l2,2a.7.7,0,0,0,1,0,.71.71,0,0,0,0-1l-2-2-.15-.1,1.92-1.91a.71.71,0,0,0-1-1l-1.92,1.9-1.91-1.9a.72.72,0,0,0-1,0,.69.69,0,0,0-.21.5.72.72,0,0,0,.22.51l1.92,1.91A.78.78,0,0,0,390.43,202.88Zm1.2.13-.06.08a.35.35,0,0,0-.05-.08l.05,0Z" transform="translate(-320.15 -179.97)"/><path class="cls-4" d="M403.93,215a.71.71,0,0,0,0-1l-2-2a.71.71,0,0,0-1,0,.69.69,0,0,0-.21.5.73.73,0,0,0,.21.51l2,2A.71.71,0,0,0,403.93,215Z" transform="translate(-320.15 -179.97)"/><path class="cls-4" d="M376.13,205.19a.71.71,0,0,0,.21.51l2,2a.71.71,0,0,0,1-1l-2-2a.71.71,0,0,0-1,0A.7.7,0,0,0,376.13,205.19Z" transform="translate(-320.15 -179.97)"/><path class="cls-4" d="M397.82,210l1.33,1.31-1.5,1.49a.73.73,0,0,0-.21.51.72.72,0,0,0,1.22.51l1.62-1.61a.73.73,0,0,0,.59-.2.71.71,0,0,0,0-1l-.09-.08a.41.41,0,0,0-.08-.13.42.42,0,0,0-.14-.09l-1.72-1.72a.72.72,0,0,0-1,0,.68.68,0,0,0-.2.5A.72.72,0,0,0,397.82,210Z" transform="translate(-320.15 -179.97)"/><path class="cls-4" d="M397.81,208.94a.7.7,0,0,0,0-1l-2-2a.72.72,0,0,0-1,0,.72.72,0,0,0,0,1l2,2A.71.71,0,0,0,397.81,208.94Z" transform="translate(-320.15 -179.97)"/><path class="cls-4" d="M385.12,208.44a.75.75,0,0,0,.21.5.72.72,0,0,0,1,0l2-2a.72.72,0,0,0-1-1l-2,2A.75.75,0,0,0,385.12,208.44Z" transform="translate(-320.15 -179.97)"/><path class="cls-4" d="M336.08,188.61a.71.71,0,0,0-.21.51.74.74,0,0,0,.2.5.71.71,0,0,0,1,0l2-2a.71.71,0,0,0,0-1,.72.72,0,0,0-1,0Z" transform="translate(-320.15 -179.97)"/><path class="cls-4" d="M352.46,191.42l2-2a.71.71,0,0,0,0-1,.72.72,0,0,0-1,0l-2,2a.67.67,0,0,0-.21.51.69.69,0,0,0,.2.5A.72.72,0,0,0,352.46,191.42Z" transform="translate(-320.15 -179.97)"/><path class="cls-4" d="M364.11,192.57a.71.71,0,0,0,0-1l-2-2a.73.73,0,0,0-1,0,.7.7,0,0,0-.21.5.72.72,0,0,0,.22.51l2,2A.71.71,0,0,0,364.11,192.57Z" transform="translate(-320.15 -179.97)"/><path class="cls-4" d="M364.12,193.58l.65.66-1,1a.71.71,0,0,0-.21.51.71.71,0,0,0,1.22.51l1-1,.36.35a.71.71,0,0,0,1-1l-.35-.35a.73.73,0,0,0,0-1,.71.71,0,0,0-1,0h0l-.67-.67a.72.72,0,0,0-1,0,.7.7,0,0,0-.21.5A.72.72,0,0,0,364.12,193.58Z" transform="translate(-320.15 -179.97)"/><path class="cls-4" d="M369.21,198.63a.71.71,0,0,0,1-1l-2-2a.72.72,0,0,0-1,0,.74.74,0,0,0-.2.51.7.7,0,0,0,.21.5Z" transform="translate(-320.15 -179.97)"/><path class="cls-4" d="M345.68,191.34a.72.72,0,0,0,0-1l-2-2a.71.71,0,0,0-1,0,.75.75,0,0,0-.21.51.7.7,0,0,0,.22.51l2,2A.71.71,0,0,0,345.68,191.34Z" transform="translate(-320.15 -179.97)"/><path class="cls-4" d="M413,215.57a.73.73,0,0,0,1,0l2-2a.71.71,0,0,0,0-1,.72.72,0,0,0-1,0l-2,2a.68.68,0,0,0-.21.49A.73.73,0,0,0,413,215.57Z" transform="translate(-320.15 -179.97)"/><path class="cls-4" d="M438.48,191.34l2-2a.73.73,0,0,0,0-1,.72.72,0,0,0-1,0l-2,2a.74.74,0,0,0-.2.52.69.69,0,0,0,.2.5A.71.71,0,0,0,438.48,191.34Z" transform="translate(-320.15 -179.97)"/><path class="cls-4" d="M438.57,208.3l2-2a.71.71,0,1,0-1-1l-2,2a.69.69,0,0,0-.21.51.7.7,0,0,0,.21.5A.72.72,0,0,0,438.57,208.3Z" transform="translate(-320.15 -179.97)"/><path class="cls-4" d="M332.8,192.15a.7.7,0,0,0,.21.5.72.72,0,0,0,1,0l2-2a.72.72,0,0,0,0-1,.71.71,0,0,0-1,0l-2,2A.74.74,0,0,0,332.8,192.15Z" transform="translate(-320.15 -179.97)"/><path class="cls-4" d="M446.77,199.23v-1.08l0,0a.75.75,0,0,0-.21.52.72.72,0,0,0,.21.5Z" transform="translate(-320.15 -179.97)"/><path class="cls-4" d="M440.87,199.5l-2-2a.7.7,0,0,0-1,0,.72.72,0,0,0,0,1l2,2a.71.71,0,1,0,1-1Z" transform="translate(-320.15 -179.97)"/><path class="cls-4" d="M425.42,219.26a.72.72,0,0,0,0-1l-2-2a.72.72,0,0,0-1,0,.76.76,0,0,0-.2.51.69.69,0,0,0,.21.5l2,2A.73.73,0,0,0,425.42,219.26Z" transform="translate(-320.15 -179.97)"/><path class="cls-4" d="M410,217.59a.7.7,0,0,0-.22.51.69.69,0,0,0,.21.5.72.72,0,0,0,1,0l2-2a.71.71,0,0,0,0-1,.7.7,0,0,0-1,0Z" transform="translate(-320.15 -179.97)"/><path class="cls-4" d="M422.36,215.22l-2-2a.71.71,0,0,0-1,0,.72.72,0,0,0,0,1l2,2a.7.7,0,0,0,1,0A.72.72,0,0,0,422.36,215.22Z" transform="translate(-320.15 -179.97)"/><path class="cls-4" d="M422.18,207.5a.71.71,0,0,0,0-1,.72.72,0,0,0-1,0l-2,2a.7.7,0,0,0-.22.52.72.72,0,0,0,1.22.5Z" transform="translate(-320.15 -179.97)"/><path class="cls-4" d="M419.3,212.19l-.93-.92.75-.74a.72.72,0,0,0,0-1,.71.71,0,0,0-1,0l-.76.74-.1-.1a.72.72,0,0,0-1.22.52.7.7,0,0,0,.22.51l.08.08-.26.26a.7.7,0,0,0-.21.51.68.68,0,0,0,.2.5.72.72,0,0,0,1,0l.27-.27.93.92a.71.71,0,0,0,1-1Z" transform="translate(-320.15 -179.97)"/><path class="cls-4" d="M431.61,207.36l-2-2a.72.72,0,0,0-1,0,.79.79,0,0,0-.21.51.76.76,0,0,0,.22.51l2,2a.7.7,0,0,0,1,0A.71.71,0,0,0,431.61,207.36Z" transform="translate(-320.15 -179.97)"/><path class="cls-4" d="M369.87,190.19a.72.72,0,0,0,1,0l2-2a.7.7,0,0,0,0-1,.71.71,0,0,0-1,0l-2,2a.76.76,0,0,0-.2.51A.68.68,0,0,0,369.87,190.19Z" transform="translate(-320.15 -179.97)"/><path class="cls-4" d="M366.82,192.22a.67.67,0,0,0-.21.5.74.74,0,0,0,.2.5.72.72,0,0,0,1,0l2-2a.72.72,0,1,0-1-1Z" transform="translate(-320.15 -179.97)"/><path class="cls-4" d="M361.05,189.54a.71.71,0,0,0,0-1l-2-2a.73.73,0,0,0-1,0,.74.74,0,0,0-.2.51.7.7,0,0,0,.21.5l2,2A.71.71,0,0,0,361.05,189.54Z" transform="translate(-320.15 -179.97)"/><path class="cls-4" d="M395.51,199.86l2-2a.72.72,0,0,0,0-1,.73.73,0,0,0-1,0l-2,2a.72.72,0,0,0-.2.51.68.68,0,0,0,.2.5A.7.7,0,0,0,395.51,199.86Z" transform="translate(-320.15 -179.97)"/><path class="cls-4" d="M388.65,199.85a.71.71,0,0,0,0-1l-2-2a.72.72,0,0,0-1,0,.67.67,0,0,0-.21.5.73.73,0,0,0,.21.51l2,2A.7.7,0,0,0,388.65,199.85Z" transform="translate(-320.15 -179.97)"/><path class="cls-4" d="M379.13,197a.73.73,0,0,0-.21.51.69.69,0,0,0,.21.5.72.72,0,0,0,1,0l2-2a.72.72,0,0,0,0-1,.71.71,0,0,0-1,0Z" transform="translate(-320.15 -179.97)"/><path class="cls-4" d="M441,182.55l-2-2a.71.71,0,0,0-1,0,.69.69,0,0,0-.21.5.73.73,0,0,0,.21.51l2,2a.72.72,0,1,0,1-1Z" transform="translate(-320.15 -179.97)"/><path class="cls-4" d="M428.64,187.38,427,185.72l1.24-1.23a.71.71,0,0,0-1-1l-1.4,1.39a.73.73,0,0,0-.21-.52l-2-2a.72.72,0,0,0-1,0,.74.74,0,0,0-.2.5.73.73,0,0,0,.21.51l2,2a.37.37,0,0,1,.37.63.74.74,0,0,0,.2.51.71.71,0,0,0,.75.17l1.74,1.72a.71.71,0,0,0,1,0A.7.7,0,0,0,428.64,187.38Z" transform="translate(-320.15 -179.97)"/><path class="cls-4" d="M354.94,184.49l1.24,1.23-1.68,1.66a.71.71,0,0,0-.21.51.69.69,0,0,0,.21.5.71.71,0,0,0,1,0l1.74-1.72a.69.69,0,0,0,.74-.17.7.7,0,0,0,.05-.94.76.76,0,0,0,.53-.2l2-2a.71.71,0,0,0-1-1l-2,2a.73.73,0,0,0-.21.51h0l-1.4-1.39a.71.71,0,0,0-1,0,.72.72,0,0,0-.21.5A.71.71,0,0,0,354.94,184.49Z" transform="translate(-320.15 -179.97)"/><path class="cls-4" d="M446.77,182.34v-1.23l-.13.13a.71.71,0,0,0-.21.51.69.69,0,0,0,.21.5A1,1,0,0,0,446.77,182.34Z" transform="translate(-320.15 -179.97)"/><path class="cls-4" d="M342.19,182.55a.71.71,0,0,0,0,1,.7.7,0,0,0,1,0l2.05-2a.72.72,0,0,0-1-1Z" transform="translate(-320.15 -179.97)"/><path class="cls-4" d="M407.08,202.1l.67.65-.93.93a.67.67,0,0,0-.21.5.71.71,0,0,0,.21.51.73.73,0,0,0,1,0l.93-.93.36.36a.72.72,0,1,0,1-1l-.35-.35.09-.08a.72.72,0,0,0,0-1,.74.74,0,0,0-1,0l-.09.1-.67-.67a.71.71,0,0,0-1,0,.71.71,0,0,0,0,1Z" transform="translate(-320.15 -179.97)"/><path class="cls-4" d="M428.56,204.33,427,202.76l1.32-1.32a.71.71,0,1,0-1-1L425.67,202a.71.71,0,0,0-.17-.73l-2-2a.72.72,0,0,0-1,0,.75.75,0,0,0-.21.51.71.71,0,0,0,.21.51l2,2a.42.42,0,1,1,.55.63.68.68,0,0,0,.8.7l1.71,1.69a.7.7,0,0,0,1,0A.71.71,0,0,0,428.56,204.33Z" transform="translate(-320.15 -179.97)"/><path class="cls-4" d="M431.35,198.41a.71.71,0,1,0-1-1l-2,2a.7.7,0,0,0-.21.5.72.72,0,0,0,1.22.52Z" transform="translate(-320.15 -179.97)"/><path class="cls-4" d="M407.08,201.08a.71.71,0,0,0,0-1l-2-2a.71.71,0,0,0-1,0,.73.73,0,0,0-.21.5.72.72,0,0,0,.22.51l2,2A.72.72,0,0,0,407.08,201.08Z" transform="translate(-320.15 -179.97)"/><path class="cls-4" d="M436.81,197.48a.71.71,0,0,0,1,0,.7.7,0,0,0,0-1l-2-2a.92.92,0,0,0-.27-.16l1.95-1.94a.71.71,0,0,0-1-1l-1.92,1.89-1.82-1.81a.72.72,0,0,0-1,1l1.85,1.82a.91.91,0,0,0-.16.11l-2,2a.75.75,0,0,0-.21.52.72.72,0,0,0,.21.5.71.71,0,0,0,1,0l2-2a.81.81,0,0,0,.18-.31.71.71,0,0,0,.19.4Zm-2.26-2.89a.33.33,0,0,0,.1-.06h.06a.94.94,0,0,0-.12.22A.38.38,0,0,0,434.55,194.59Z" transform="translate(-320.15 -179.97)"/><path class="cls-4" d="M444,186.59a.78.78,0,0,0-.2.51.73.73,0,0,0,.21.51l2,2a.66.66,0,0,0,.7.17v-1.48L445,186.59A.71.71,0,0,0,444,186.59Z" transform="translate(-320.15 -179.97)"/><path class="cls-4" d="M423.2,206.49l2-2a.73.73,0,0,0,0-1,.71.71,0,0,0-1,0l-2,2a.73.73,0,0,0-.21.51.72.72,0,0,0,1.22.51Z" transform="translate(-320.15 -179.97)"/><path class="cls-4" d="M403.76,206.71a.68.68,0,0,0-.2.5.69.69,0,0,0,.2.5.7.7,0,0,0,1,0l2-2a.71.71,0,0,0-1-1Z" transform="translate(-320.15 -179.97)"/><path class="cls-4" d="M336.51,182.25a.71.71,0,0,0,0-1l-.74-.73a8,8,0,0,0-1.33.69l1.07,1.06A.71.71,0,0,0,336.51,182.25Z" transform="translate(-320.15 -179.97)"/><path class="cls-4" d="M416.24,209.16l-2-2a.73.73,0,0,0-1,0,.77.77,0,0,0-.21.51.74.74,0,0,0,.22.51l2,2a.72.72,0,1,0,1-1Z" transform="translate(-320.15 -179.97)"/><path class="cls-4" d="M400.71,209.74a.66.66,0,0,0-.22.5.69.69,0,0,0,.21.5.7.7,0,0,0,1,0l2-2a.71.71,0,0,0,0-1,.72.72,0,0,0-1,0Z" transform="translate(-320.15 -179.97)"/><path class="cls-4" d="M413.19,206.13l-2-2a.7.7,0,0,0-1,0,.7.7,0,0,0,0,1l2,2a.72.72,0,0,0,1-1Z" transform="translate(-320.15 -179.97)"/><path class="cls-4" d="M416.36,279.43a.67.67,0,0,0-.14.4.74.74,0,0,0,.2.5.7.7,0,0,0,.92.07l.6.59a.7.7,0,0,0,1,0,.71.71,0,0,0,0-1l-.58-.57,1.1-1.09a.7.7,0,0,0,0-1,.72.72,0,0,0-1,0l-1.11,1.1-.45-.44a.72.72,0,0,0-1,0,.74.74,0,0,0-.2.5.69.69,0,0,0,.21.51Z" transform="translate(-320.15 -179.97)"/><path class="cls-4" d="M353.66,222.29l-2,2a.73.73,0,0,0-.21.51.72.72,0,0,0,1.22.51l2-2a.71.71,0,0,0-1-1Z" transform="translate(-320.15 -179.97)"/><path class="cls-4" d="M351.41,231.8a.73.73,0,0,0,.21.51l2,2a.72.72,0,0,0,1-1l-2-2a.72.72,0,0,0-1.22.51Z" transform="translate(-320.15 -179.97)"/><path class="cls-4" d="M373.37,219.79l-.26.26a.71.71,0,0,0,0,1,.7.7,0,0,0,1,0l.27-.27.85.85a.71.71,0,0,0,1-1l-.83-.83.75-.75a.72.72,0,0,0,0-1,.71.71,0,0,0-1,0l-.77.75-.18-.18a.7.7,0,0,0-1,0,.73.73,0,0,0-.21.5.7.7,0,0,0,.22.5Z" transform="translate(-320.15 -179.97)"/><path class="cls-4" d="M363.93,226.46a.71.71,0,0,0,0-1l-2-2a.72.72,0,0,0-1,1l2,2A.71.71,0,0,0,363.93,226.46Z" transform="translate(-320.15 -179.97)"/><path class="cls-4" d="M363.94,227.48l.83.83-.83.82a.74.74,0,0,0-.22.51.75.75,0,0,0,.21.51.72.72,0,0,0,1,0l.84-.83.19.17a.71.71,0,1,0,1-1l-.17-.17.17-.18a.71.71,0,0,0-1-1l-.19.19-.84-.84a.72.72,0,0,0-1,0,.75.75,0,0,0-.21.5A.74.74,0,0,0,363.94,227.48Z" transform="translate(-320.15 -179.97)"/><path class="cls-4" d="M360.88,232.16a.73.73,0,0,0-.21.51.75.75,0,0,0,.21.51.71.71,0,0,0,1,0l2-2a.71.71,0,1,0-1-1Z" transform="translate(-320.15 -179.97)"/><path class="cls-4" d="M357.61,220.91a.75.75,0,0,0,.21.51l2.05,2a.71.71,0,1,0,1-1l-2-2a.72.72,0,0,0-1,0A.75.75,0,0,0,357.61,220.91Z" transform="translate(-320.15 -179.97)"/><path class="cls-4" d="M323.9,204.54a.66.66,0,0,0,.22.5l2,2a.71.71,0,0,0,1,0,.7.7,0,0,0,0-1l-2-2a.71.71,0,0,0-1,0A.73.73,0,0,0,323.9,204.54Z" transform="translate(-320.15 -179.97)"/><path class="cls-4" d="M327.17,208.07l2,2a.71.71,0,0,0,1,0,.72.72,0,0,0,0-1l-2-2a.72.72,0,0,0-1,0,.74.74,0,0,0-.2.51A.69.69,0,0,0,327.17,208.07Z" transform="translate(-320.15 -179.97)"/><path class="cls-4" d="M345.21,213.92a.73.73,0,0,0,.21.51.71.71,0,0,0,1,0l2-2a.81.81,0,0,0,.12-.18l.06.1,2.05,2a.71.71,0,0,0,1,0,.72.72,0,0,0,0-1l-2-2a.1.1,0,0,0-.05,0l1.91-1.89a.71.71,0,1,0-1-1l-1.92,1.89-2-2a.7.7,0,0,0-1,0,.67.67,0,0,0-.21.49.71.71,0,0,0,.21.51l2,2-.15.1-2,2A.66.66,0,0,0,345.21,213.92Zm3.28-2.5h0l.06.05s0,0,0,0S348.51,211.45,348.49,211.42Z" transform="translate(-320.15 -179.97)"/><path class="cls-4" d="M357.52,218.76a.72.72,0,0,0,1.22.51l2-2a.71.71,0,1,0-1-1l-2,2A.7.7,0,0,0,357.52,218.76Z" transform="translate(-320.15 -179.97)"/><path class="cls-4" d="M351.71,215.36l2,2a.71.71,0,1,0,1-1l-2-2a.72.72,0,0,0-1,0,.71.71,0,0,0,0,1Z" transform="translate(-320.15 -179.97)"/><path class="cls-4" d="M326.69,258.41a.71.71,0,0,0,.22.51l2,2a.71.71,0,0,0,1-1l-2-2a.72.72,0,0,0-1.22.51Z" transform="translate(-320.15 -179.97)"/><path class="cls-4" d="M335.41,257.41l-2,2a.72.72,0,0,0,0,1,.72.72,0,0,0,1,0l2-2a.71.71,0,1,0-1-1Z" transform="translate(-320.15 -179.97)"/><path class="cls-4" d="M342.07,256.6a.69.69,0,0,0,.21.51l2,2a.72.72,0,0,0,1-1l-2-2a.7.7,0,0,0-1,0A.63.63,0,0,0,342.07,256.6Z" transform="translate(-320.15 -179.97)"/><path class="cls-4" d="M336.16,205.56a.75.75,0,0,0-.21.5.71.71,0,0,0,.21.51.72.72,0,0,0,1,0l2-2a.7.7,0,0,0,0-1,.72.72,0,0,0-1,0Z" transform="translate(-320.15 -179.97)"/><path class="cls-4" d="M344.49,231.37l-2,2a.66.66,0,0,0-.22.5.73.73,0,0,0,.21.51.71.71,0,0,0,1,0l2-2a.71.71,0,0,0,0-1A.73.73,0,0,0,344.49,231.37Z" transform="translate(-320.15 -179.97)"/><path class="cls-4" d="M354.59,252.29l1.59,1.57-1.32,1.31a.72.72,0,0,0-.22.51.75.75,0,0,0,.21.5.72.72,0,0,0,1,0l1.62-1.6a.72.72,0,0,0,0,.22.69.69,0,0,0,.21.5l2,2a.71.71,0,1,0,1-1l-2-2a.7.7,0,0,1-.75-1.14.7.7,0,0,0-.6-.2l-1.71-1.69a.71.71,0,0,0-1,0,.72.72,0,0,0,0,1Z" transform="translate(-320.15 -179.97)"/><path class="cls-4" d="M330,262l.44.43-.09.08a.71.71,0,0,0-.21.51.72.72,0,0,0,.21.5.71.71,0,0,0,1,0l.09-.09.59.58a.71.71,0,0,0,1,0,.7.7,0,0,0,0-1l-.57-.57.93-.93a.71.71,0,0,0,0-1,.7.7,0,0,0-1,0l-.95.93-.44-.44a.73.73,0,0,0-1,0,.76.76,0,0,0-.2.51A.75.75,0,0,0,330,262Z" transform="translate(-320.15 -179.97)"/><path class="cls-4" d="M342.33,250.85a.75.75,0,0,0,.21.51.72.72,0,0,0,1,0l2-2a.73.73,0,0,0,0-1,.74.74,0,0,0-1,0l-2,2A.7.7,0,0,0,342.33,250.85Z" transform="translate(-320.15 -179.97)"/><path class="cls-4" d="M342.16,239.66a.67.67,0,0,0,.21.5l2,2a.72.72,0,1,0,1-1l-2-2a.71.71,0,0,0-1.21.51Z" transform="translate(-320.15 -179.97)"/><path class="cls-4" d="M354.68,235.34l1.5,1.49-1.41,1.39a.72.72,0,1,0,1,1l1.8-1.79a.6.6,0,0,0,.31-.34.69.69,0,0,0-.49-1.1l-1.71-1.69a.71.71,0,0,0-1,0,.72.72,0,0,0,0,1Z" transform="translate(-320.15 -179.97)"/><path class="cls-4" d="M327.26,265.49a.7.7,0,0,0,0,1,.71.71,0,0,0,1,0l2-2a.72.72,0,0,0,0-1,.71.71,0,0,0-1,0Z" transform="translate(-320.15 -179.97)"/><path class="cls-4" d="M345.43,243.2l2,2a.72.72,0,0,0,.15.11l-2,2a.73.73,0,0,0-.21.51.72.72,0,0,0,1.21.51l2-2,1.92,1.9a.72.72,0,0,0,1,0,.7.7,0,0,0,0-1l-1.91-1.9h0l2.05-2a.71.71,0,0,0,0-1,.7.7,0,0,0-1,0l-2.05,2-.06.1a.71.71,0,0,0-.12-.18l-2-2a.72.72,0,0,0-1.22.51A.71.71,0,0,0,345.43,243.2Zm3.13,2-.06,0h0s0-.05.06-.07S348.55,245.14,348.56,245.16Z" transform="translate(-320.15 -179.97)"/><path class="cls-4" d="M332.89,247.52a.74.74,0,0,0,.22.51l2,2a.71.71,0,0,0,1-1l-2-2a.72.72,0,0,0-1.23.51Z" transform="translate(-320.15 -179.97)"/><path class="cls-4" d="M354.85,256.18a.72.72,0,0,0-1,0l-2,2a.71.71,0,0,0-.21.51.75.75,0,0,0,.21.51.73.73,0,0,0,1,0l2-2A.72.72,0,0,0,354.85,256.18Z" transform="translate(-320.15 -179.97)"/><path class="cls-4" d="M346.34,259.13a.7.7,0,0,0-1,0,.67.67,0,0,0-.21.5.76.76,0,0,0,.22.51l2,2a.63.63,0,0,0,.27.16l-2,1.94a.73.73,0,0,0-.21.5.75.75,0,0,0,.21.51.7.7,0,0,0,1,0l1.91-1.89,1.83,1.81a.71.71,0,0,0,1,0,.72.72,0,0,0,0-1l-1.85-1.82a.44.44,0,0,0,.16-.1l2-2a.71.71,0,0,0,0-1,.7.7,0,0,0-1,0l-2,2a.67.67,0,0,0-.17.32.74.74,0,0,0-.19-.41Zm2.25,2.89-.09.06h-.06a.65.65,0,0,0,.11-.22A.85.85,0,0,0,348.59,262Z" transform="translate(-320.15 -179.97)"/><path class="cls-4" d="M342.64,267.29a.67.67,0,0,0-.22.51.72.72,0,0,0,1.22.5l2-2a.71.71,0,1,0-1-1Z" transform="translate(-320.15 -179.97)"/><path class="cls-4" d="M361,249.12a.69.69,0,0,0-.21.5.74.74,0,0,0,.2.5.72.72,0,0,0,1,0l2-2a.71.71,0,0,0,0-1,.72.72,0,0,0-1,0Z" transform="translate(-320.15 -179.97)"/><path class="cls-4" d="M339,203a.7.7,0,0,0,.21.5.71.71,0,0,0,.73.17l1.57,1.55a.72.72,0,1,0,1-1L341,202.75l1.25-1.23a.71.71,0,1,0-1-1l-1.66,1.64a.83.83,0,0,0-.12.08.47.47,0,0,0-.07.12l-.19.18A.71.71,0,0,0,339,203Z" transform="translate(-320.15 -179.97)"/><path class="cls-4" d="M330.4,279.41a.69.69,0,0,0-.21.5.75.75,0,0,0,.21.51.71.71,0,0,0,1,0l2-2a.71.71,0,1,0-1-1Z" transform="translate(-320.15 -179.97)"/><path class="cls-4" d="M351.32,248.75a.73.73,0,0,0,.21.51l2,2a.71.71,0,0,0,1-1l-2-2a.7.7,0,0,0-1,0A.69.69,0,0,0,351.32,248.75Z" transform="translate(-320.15 -179.97)"/><path class="cls-4" d="M357.7,252.65a.7.7,0,0,0,.21.5.71.71,0,0,0,1,0l2-2a.72.72,0,0,0,0-1,.71.71,0,0,0-1,0l-2,2A.71.71,0,0,0,357.7,252.65Z" transform="translate(-320.15 -179.97)"/><path class="cls-4" d="M373.37,253.86l-.08.08a.73.73,0,0,0-.21.51.69.69,0,0,0,.2.5.7.7,0,0,0,1,0l.09-.1.67.68a.73.73,0,0,0,1,0,.71.71,0,0,0,0-1l-.65-.66.92-.91a.73.73,0,0,0,0-1,.72.72,0,0,0-1,0l-.94.92-.35-.35a.72.72,0,0,0-1,0,.74.74,0,0,0-.2.5.69.69,0,0,0,.21.51Z" transform="translate(-320.15 -179.97)"/><path class="cls-4" d="M360.49,257.83a.75.75,0,0,0,.21.51l2,2a.72.72,0,1,0,1-1l-2-2a.71.71,0,0,0-1,0A.7.7,0,0,0,360.49,257.83Z" transform="translate(-320.15 -179.97)"/><path class="cls-4" d="M370.23,257a.73.73,0,0,0-.21.51.72.72,0,0,0,.2.5.7.7,0,0,0,1,0l2-2a.7.7,0,0,0,0-1,.72.72,0,0,0-1,0Z" transform="translate(-320.15 -179.97)"/><path class="cls-4" d="M345.56,281.72a.7.7,0,0,0,.21.5.71.71,0,0,0,1,0l1.82-1.8,1.74,1.72a.7.7,0,0,0,1,0,.72.72,0,0,0,0-1l-1.78-1.77a.54.54,0,0,0,.26-.16l2.05-2a.72.72,0,0,0,0-1,.71.71,0,0,0-1,0l-2,2a.69.69,0,0,0-.21.51.59.59,0,0,0,.05.23,1,1,0,0,0-.21.08h-.09a.7.7,0,0,0-.08-.9l-2-2a.72.72,0,0,0-1,0,.7.7,0,0,0-.21.5.76.76,0,0,0,.22.52l2,2a.7.7,0,0,0,.42.19l-1.93,1.91A.69.69,0,0,0,345.56,281.72Z" transform="translate(-320.15 -179.97)"/><path class="cls-4" d="M446.77,215.21a.67.67,0,0,0,0,.87Z" transform="translate(-320.15 -179.97)"/><path class="cls-4" d="M443.26,220.68a.68.68,0,0,0,.58-.19,1.27,1.27,0,0,0-.08-1.31.74.74,0,0,0-.41-.19l-1.55-1.53a.71.71,0,0,0-1,0,.73.73,0,0,0-.21.51.69.69,0,0,0,.21.5l1.33,1.32-1.41,1.4a.74.74,0,0,0-.22.51.75.75,0,0,0,.21.5.72.72,0,0,0,1,0Z" transform="translate(-320.15 -179.97)"/><path class="cls-4" d="M440.78,216.45l-2-2a.7.7,0,0,0-1,0,.74.74,0,0,0-.2.51.7.7,0,0,0,.21.5l2,2a.72.72,0,0,0,1,0A.71.71,0,0,0,440.78,216.45Z" transform="translate(-320.15 -179.97)"/><path class="cls-4" d="M339.48,202.23a.73.73,0,0,0,0-1l-2-2a.72.72,0,0,0-1,0,.76.76,0,0,0-.2.51.69.69,0,0,0,.21.5l2,2A.71.71,0,0,0,339.48,202.23Z" transform="translate(-320.15 -179.97)"/><path class="cls-4" d="M324.86,201.74l2-2a.71.71,0,0,0,0-1,.7.7,0,0,0-1,0l-2,1.95c-.08.28-.15.57-.22.85a.65.65,0,0,0,.15.23A.71.71,0,0,0,324.86,201.74Z" transform="translate(-320.15 -179.97)"/><path class="cls-4" d="M443.35,237.63a.72.72,0,0,0,.41-.2.69.69,0,0,0,.2-.46.73.73,0,0,0-.12-.85.71.71,0,0,0-.58-.19l-1.54-1.52a.72.72,0,0,0-1,0,.73.73,0,0,0-.21.5.7.7,0,0,0,.22.51l1.41,1.41-1.33,1.32a.67.67,0,0,0-.21.5.7.7,0,0,0,.21.5.71.71,0,0,0,1,0Z" transform="translate(-320.15 -179.97)"/><path class="cls-4" d="M446.77,241.41v-.87a.67.67,0,0,0,0,.87Z" transform="translate(-320.15 -179.97)"/><path class="cls-4" d="M440.79,239.15a.73.73,0,0,0-1,0l-2,2a.71.71,0,0,0-.21.51.78.78,0,0,0,.2.51.72.72,0,0,0,1,0l2-2A.7.7,0,0,0,440.79,239.15Z" transform="translate(-320.15 -179.97)"/><path class="cls-4" d="M437.64,230.36l-2-2-.06,0a.06.06,0,0,1,0,0l2.06-2a.71.71,0,0,0,0-1,.72.72,0,0,0-1,0l-2,2,0,.06-2-2a.73.73,0,0,0-1,0,.71.71,0,0,0,0,1l2,2-2,2a.73.73,0,0,0-.21.51.69.69,0,0,0,.21.5.72.72,0,0,0,1,0l2-2,0,.06,2,2a.71.71,0,0,0,1,0A.72.72,0,0,0,437.64,230.36Zm-3-2.05v0h0s0,0,0,0Z" transform="translate(-320.15 -179.97)"/><path class="cls-4" d="M440.69,223.22a.71.71,0,1,0-1-1l-2,2a.72.72,0,0,0,0,1,.71.71,0,0,0,1,0Z" transform="translate(-320.15 -179.97)"/><path class="cls-4" d="M440.69,233.4l-2-2a.72.72,0,0,0-1,0,.7.7,0,0,0-.21.5.73.73,0,0,0,.21.51l2,2a.71.71,0,1,0,1-1Z" transform="translate(-320.15 -179.97)"/><path class="cls-4" d="M333.46,276.38a.7.7,0,0,0-.21.5.76.76,0,0,0,.2.51.72.72,0,0,0,1,0l2-2a.71.71,0,0,0,0-1,.7.7,0,0,0-1,0Z" transform="translate(-320.15 -179.97)"/><path class="cls-4" d="M339.39,219.17a.72.72,0,0,0,0-1l-2-2a.72.72,0,0,0-1,0,.69.69,0,0,0-.2.5.73.73,0,0,0,.21.51l2,2A.7.7,0,0,0,339.39,219.17Z" transform="translate(-320.15 -179.97)"/><path class="cls-4" d="M336.07,267a.71.71,0,0,0,0-1l-2-2a.72.72,0,0,0-1.23.5.76.76,0,0,0,.22.52l2,2A.7.7,0,0,0,336.07,267Z" transform="translate(-320.15 -179.97)"/><path class="cls-4" d="M323.81,221.48a.68.68,0,0,0,.22.51l2,2a.71.71,0,0,0,1-1l-2-2a.71.71,0,0,0-1,0A.72.72,0,0,0,323.81,221.48Z" transform="translate(-320.15 -179.97)"/><path class="cls-4" d="M327.25,267.51a.71.71,0,0,0-1-1l-1.51,1.5c.16.52.32,1,.49,1.52Z" transform="translate(-320.15 -179.97)"/><path class="cls-4" d="M336.25,222.5a.79.79,0,0,0-.21.51.76.76,0,0,0,.2.51.73.73,0,0,0,1,0l2-2a.71.71,0,1,0-1-1Z" transform="translate(-320.15 -179.97)"/><path class="cls-4" d="M339.1,220a.74.74,0,0,0,.21.5.67.67,0,0,0,.58.19l1.55,1.53a.71.71,0,0,0,1,0,.7.7,0,0,0,0-1l-1.42-1.4,1.34-1.32a.71.71,0,0,0,0-1,.72.72,0,0,0-1,0L339.8,219a.74.74,0,0,0-.41.19.77.77,0,0,0-.2.47A.78.78,0,0,0,339.1,220Z" transform="translate(-320.15 -179.97)"/><path class="cls-4" d="M323.94,218.69a.71.71,0,0,0,1,0l2-2a.71.71,0,0,0-1-1l-2,2a.69.69,0,0,0-.21.5A.73.73,0,0,0,323.94,218.69Z" transform="translate(-320.15 -179.97)"/><path class="cls-4" d="M323.64,255.38a.69.69,0,0,0,.21.5l2,2a.72.72,0,0,0,1-1l-2-2a.72.72,0,0,0-1.22.51Z" transform="translate(-320.15 -179.97)"/><path class="cls-4" d="M339.22,253.07a.71.71,0,0,0,0-1l-2-2a.71.71,0,0,0-1,0,.75.75,0,0,0-.21.51.77.77,0,0,0,.21.51l2,2A.72.72,0,0,0,339.22,253.07Z" transform="translate(-320.15 -179.97)"/><path class="cls-4" d="M327.17,248.54a.73.73,0,0,0-.21.51.74.74,0,0,0,.2.5.72.72,0,0,0,1,0l2-2a.73.73,0,0,0,0-1,.71.71,0,0,0-1,0Z" transform="translate(-320.15 -179.97)"/><path class="cls-4" d="M336.43,256.4a.7.7,0,0,0-.21.5.74.74,0,0,0,.2.51.72.72,0,0,0,1,0l2-2a.73.73,0,0,0,0-1,.71.71,0,0,0-1,0Z" transform="translate(-320.15 -179.97)"/><path class="cls-4" d="M339.22,254.09l.19.18a.41.41,0,0,0,.07.11.83.83,0,0,0,.12.08l1.66,1.65a.73.73,0,0,0,1,0,.72.72,0,0,0,0-1L341,253.86l1.51-1.49a.72.72,0,1,0-1-1L340,252.91a.69.69,0,0,0-.73.16.72.72,0,0,0,0,1Z" transform="translate(-320.15 -179.97)"/><path class="cls-4" d="M324.12,251.57a.68.68,0,0,0-.22.51.7.7,0,0,0,.21.5.72.72,0,0,0,1,0l2-2a.71.71,0,1,0-1-1Z" transform="translate(-320.15 -179.97)"/><path class="cls-4" d="M321.8,253.86l-.14.15c.09.57.17,1.14.26,1.7.05,0,.11-.05.14-.1l.76-.75v0a.72.72,0,1,0,1-1h0l.26-.26a.7.7,0,0,0,0-1,.69.69,0,0,0-1,0l-.28.27-1-1a.71.71,0,0,0-.47-.2c.09.68.18,1.35.28,2Z" transform="translate(-320.15 -179.97)"/><path class="cls-4" d="M321.8,219.79l-.92.91a.73.73,0,0,0-.21.51.69.69,0,0,0,.21.5.72.72,0,0,0,1,0l.93-.94.19.19a.71.71,0,0,0,1,0,.72.72,0,0,0,0-1l-.18-.17.09-.09a.71.71,0,0,0,0-1,.72.72,0,0,0-1,0l-.1.1L322,218a.7.7,0,0,0-1,0c-.05,0-.06.09-.09.13,0,.22-.05.44-.07.65a.73.73,0,0,0,.16.23Z" transform="translate(-320.15 -179.97)"/><path class="cls-4" d="M320.88,221.72a.63.63,0,0,0-.31-.17c0,.52-.07,1-.1,1.58l.4-.4A.72.72,0,0,0,320.88,221.72Z" transform="translate(-320.15 -179.97)"/><path class="cls-4" d="M321,239.68a.71.71,0,0,0-.71-1.19c0,.61.05,1.21.08,1.81Z" transform="translate(-320.15 -179.97)"/><path class="cls-4" d="M320.88,234.89a.72.72,0,0,0,0-1l-.72-.71c0,.64,0,1.27,0,1.9A.7.7,0,0,0,320.88,234.89Z" transform="translate(-320.15 -179.97)"/><path class="cls-4" d="M330.14,228.05l.26.26-.26.25a.72.72,0,0,0-.22.51.77.77,0,0,0,.21.51.72.72,0,0,0,1,0l.26-.26.77.75a.71.71,0,0,0,1-1l-.75-.74.75-.75a.71.71,0,1,0-1-1l-.77.76-.26-.27a.73.73,0,0,0-1,0,.75.75,0,0,0-.21.51A.73.73,0,0,0,330.14,228.05Z" transform="translate(-320.15 -179.97)"/><path class="cls-4" d="M327.08,231.59a.73.73,0,0,0-.21.51.71.71,0,0,0,1.22.51l2-2a.7.7,0,0,0,0-1,.71.71,0,0,0-1,0Z" transform="translate(-320.15 -179.97)"/><path class="cls-4" d="M327.08,225l2,2a.71.71,0,1,0,1-1l-2-2a.71.71,0,0,0-1.22.51A.69.69,0,0,0,327.08,225Z" transform="translate(-320.15 -179.97)"/><path class="cls-4" d="M324,234.62a.7.7,0,0,0,0,1,.71.71,0,0,0,1,0l2-2a.71.71,0,0,0,0-1,.72.72,0,0,0-1,0Z" transform="translate(-320.15 -179.97)"/><path class="cls-4" d="M326,241a.7.7,0,0,0,1,0,.72.72,0,0,0,0-1l-2-2a.72.72,0,0,0-1.21.51.71.71,0,0,0,.21.51Z" transform="translate(-320.15 -179.97)"/><path class="cls-4" d="M320.67,235.41a.7.7,0,0,0,.21.5l.92.92-.83.82a.71.71,0,0,0,1,1l.85-.85.1.11a.7.7,0,0,0,1,0,.71.71,0,0,0,0-1l-.09-.09.18-.17a.72.72,0,1,0-1-1l-.19.19-.93-.93a.72.72,0,0,0-1,0A.71.71,0,0,0,320.67,235.41Z" transform="translate(-320.15 -179.97)"/><path class="cls-4" d="M320.89,218,321,218a.72.72,0,0,0,0-1C321,217.32,320.92,217.66,320.89,218Z" transform="translate(-320.15 -179.97)"/><path class="cls-4" d="M445.8,216.15l-2,2a.73.73,0,0,0-.21.51.67.67,0,0,0,.21.5.7.7,0,0,0,1,0l2-2v-1.08A.71.71,0,0,0,445.8,216.15Z" transform="translate(-320.15 -179.97)"/><path class="cls-4" d="M446.69,224a.74.74,0,0,0,.08.3v-.6A.84.84,0,0,0,446.69,224Z" transform="translate(-320.15 -179.97)"/><path class="cls-4" d="M443.85,220.49a.71.71,0,0,0,0,1l2,2a.7.7,0,0,0,.88.08v-1.22l-1.91-1.89A.71.71,0,0,0,443.85,220.49Z" transform="translate(-320.15 -179.97)"/><path class="cls-4" d="M336.33,216.15a.72.72,0,0,0,0-1l-2-2a.71.71,0,0,0-1,0,.73.73,0,0,0-.21.51.7.7,0,0,0,.21.5l2,2A.71.71,0,0,0,336.33,216.15Z" transform="translate(-320.15 -179.97)"/><path class="cls-4" d="M324.1,204a.7.7,0,0,0,0-1l-.26-.27h0a.72.72,0,0,0,0-1,.94.94,0,0,0-.18-.12c-.2.79-.39,1.6-.58,2.41h0A.69.69,0,0,0,324.1,204Z" transform="translate(-320.15 -179.97)"/><path class="cls-4" d="M328,215.66l2-2a.71.71,0,0,0-1-1l-2,2a.66.66,0,0,0-.22.5.72.72,0,0,0,1.22.51Z" transform="translate(-320.15 -179.97)"/><path class="cls-4" d="M336.08,268l2,2a.72.72,0,0,0,1,0,.71.71,0,0,0,0-1l-2-2a.71.71,0,0,0-1,0,.76.76,0,0,0-.2.51A.67.67,0,0,0,336.08,268Z" transform="translate(-320.15 -179.97)"/><path class="cls-4" d="M446.77,232.89v-.6a.84.84,0,0,0-.08.3A.74.74,0,0,0,446.77,232.89Z" transform="translate(-320.15 -179.97)"/><path class="cls-4" d="M330.4,280.42a.46.46,0,0,0-.13-.08l.3.42A.78.78,0,0,0,330.4,280.42Z" transform="translate(-320.15 -179.97)"/><path class="cls-4" d="M330.05,245l.35.34-.17.17a.72.72,0,0,0-.22.51.7.7,0,0,0,.21.5.71.71,0,0,0,1,0l.18-.17.68.67a.71.71,0,0,0,1,0,.7.7,0,0,0,0-1l-.66-.66.84-.83a.71.71,0,0,0,0-1,.7.7,0,0,0-1,0l-.86.85-.35-.36a.72.72,0,0,0-1,0,.7.7,0,0,0-.2.5A.73.73,0,0,0,330.05,245Z" transform="translate(-320.15 -179.97)"/><path class="cls-4" d="M445.89,233.09l-2,2a.71.71,0,0,0,0,1,.7.7,0,0,0,1,0l1.91-1.9V233A.71.71,0,0,0,445.89,233.09Z" transform="translate(-320.15 -179.97)"/><path class="cls-4" d="M443.76,237.43a.72.72,0,0,0,0,1l2,2a.72.72,0,0,0,1,0v-1.07l-2-2A.72.72,0,0,0,443.76,237.43Z" transform="translate(-320.15 -179.97)"/><path class="cls-4" d="M336.25,234.11l2,2a.72.72,0,1,0,1-1l-2-2a.72.72,0,0,0-1,0,.74.74,0,0,0-.2.5A.75.75,0,0,0,336.25,234.11Z" transform="translate(-320.15 -179.97)"/><path class="cls-4" d="M336.34,239.45a.71.71,0,0,0-.21.51.69.69,0,0,0,.2.5.72.72,0,0,0,1,0l2-2a.73.73,0,0,0,0-1,.72.72,0,0,0-1,0Z" transform="translate(-320.15 -179.97)"/><path class="cls-4" d="M339.19,237a.77.77,0,0,0,.2.47.72.72,0,0,0,.41.2l1.55,1.53a.71.71,0,0,0,1,0,.7.7,0,0,0,0-1L341,236.83l1.42-1.41a.7.7,0,0,0,0-1,.71.71,0,0,0-1,0l-1.55,1.53a.7.7,0,0,0-.58.19.75.75,0,0,0-.21.51A.78.78,0,0,0,339.19,237Z" transform="translate(-320.15 -179.97)"/><path class="cls-4" d="M333.28,242.48a.72.72,0,0,0,1,1l2-2a.71.71,0,1,0-1-1Z" transform="translate(-320.15 -179.97)"/><path class="cls-4" d="M326.78,241.46a.68.68,0,0,0,.22.51l2,2a.72.72,0,0,0,1-1l-2-2a.71.71,0,0,0-1,0A.69.69,0,0,0,326.78,241.46Z" transform="translate(-320.15 -179.97)"/><path class="cls-4" d="M347.61,228.31s-.05,0-.06,0l-2,2a.68.68,0,0,0-.22.51.72.72,0,0,0,1.22.51l2-2a.13.13,0,0,0,0-.06l2,2a.71.71,0,0,0,1,0,.7.7,0,0,0,0-1l-2-2,2-2a.7.7,0,0,0,0-1,.72.72,0,0,0-1,0l-2,2,0-.06-2-2a.72.72,0,0,0-1,0,.7.7,0,0,0-.21.5.68.68,0,0,0,.22.51l2,2S347.59,228.29,347.61,228.31Zm.93,0v0l0,0,0,0Z" transform="translate(-320.15 -179.97)"/><path class="cls-4" d="M342.24,222.71a.68.68,0,0,0,.22.51l2,2a.72.72,0,1,0,1-1l-2-2a.73.73,0,0,0-1,0A.75.75,0,0,0,342.24,222.71Z" transform="translate(-320.15 -179.97)"/><path class="cls-4" d="M354.77,218.39l1.41,1.4-1.5,1.49a.7.7,0,0,0-.21.5.73.73,0,0,0,.21.51.71.71,0,0,0,1,0l1.71-1.69a.75.75,0,0,0,.42-.2.7.7,0,0,0,.07-.89.67.67,0,0,0-.16-.24.46.46,0,0,0-.16-.11l-1.79-1.79a.72.72,0,0,0-1,0,.7.7,0,0,0-.21.5A.72.72,0,0,0,354.77,218.39Z" transform="translate(-320.15 -179.97)"/><path class="cls-4" d="M333,230.57a.68.68,0,0,0,.22.51l2,2a.71.71,0,0,0,1,0,.72.72,0,0,0,0-1l-2-2a.72.72,0,0,0-1,0A.7.7,0,0,0,333,230.57Z" transform="translate(-320.15 -179.97)"/><path class="cls-4" d="M335.23,223.51l-2,2a.71.71,0,0,0-.22.51.73.73,0,0,0,.21.51.71.71,0,0,0,1,0l2-2a.71.71,0,0,0,0-1A.72.72,0,0,0,335.23,223.51Z" transform="translate(-320.15 -179.97)"/><path class="cls-4" d="M342.16,217a.71.71,0,0,0,1.21.51l2-2a.71.71,0,1,0-1-1l-2,2A.69.69,0,0,0,342.16,217Z" transform="translate(-320.15 -179.97)"/><path class="cls-4" d="M378.29,232l-2,2a.74.74,0,0,0-.21.51.7.7,0,0,0,.21.5.72.72,0,0,0,1,0l2-2a.71.71,0,1,0-1-1Z" transform="translate(-320.15 -179.97)"/><path class="cls-4" d="M394.3,257.26a.7.7,0,0,0,.2.51l2,2a.72.72,0,1,0,1-1l-2-2a.72.72,0,0,0-1,0A.68.68,0,0,0,394.3,257.26Z" transform="translate(-320.15 -179.97)"/><path class="cls-4" d="M390.57,236.82l-2,2a.72.72,0,0,0,0,1,.72.72,0,0,0,1,0l2-2,2,2a.7.7,0,0,0,1,0,.71.71,0,0,0,0-1l-2-2s0,0,.05,0l2-2a.71.71,0,0,0,0-1,.72.72,0,0,0-1,0l-2,2s0,0-.06.07,0-.06-.05-.07l-2-2a.73.73,0,0,0-1,0,.69.69,0,0,0-.2.5.71.71,0,0,0,.21.51l2,2S390.56,236.8,390.57,236.82Zm1-.08,0,0v0Z" transform="translate(-320.15 -179.97)"/><path class="cls-4" d="M367.08,243.05a.73.73,0,0,0-.2.51.72.72,0,0,0,.2.51.73.73,0,0,0,1,0l2-2a.72.72,0,0,0,0-1,.73.73,0,0,0-1,0Z" transform="translate(-320.15 -179.97)"/><path class="cls-4" d="M400.79,228.92a.69.69,0,0,0-.2.5.74.74,0,0,0,.2.52l2,2a.71.71,0,0,0,1,0,.72.72,0,0,0,0-1l-2-2A.71.71,0,0,0,400.79,228.92Z" transform="translate(-320.15 -179.97)"/><path class="cls-4" d="M376,239.09a.69.69,0,0,0,.21.5l2,2a.72.72,0,0,0,1,0,.71.71,0,0,0,0-1l-2-2a.72.72,0,0,0-1.22.51Z" transform="translate(-320.15 -179.97)"/><path class="cls-4" d="M373.19,238a.72.72,0,0,0-1,0l-2,2a.73.73,0,0,0-.21.51.72.72,0,0,0,1.22.51l2-2A.71.71,0,0,0,373.19,238Z" transform="translate(-320.15 -179.97)"/><path class="cls-4" d="M409.78,236.83l.26-.26a.72.72,0,1,0-1-1l-.26.27-.85-.84a.72.72,0,0,0-1,0,.68.68,0,0,0-.2.5.72.72,0,0,0,.21.52l.84.83-.75.74a.72.72,0,0,0-.22.51.72.72,0,0,0,1.22.5l.76-.75.18.18a.72.72,0,0,0,1,0,.7.7,0,0,0,0-1Z" transform="translate(-320.15 -179.97)"/><path class="cls-4" d="M397.73,230.73a.71.71,0,0,0-1,0l-2,2a.73.73,0,0,0-.21.51.71.71,0,0,0,1.22.51l2-2A.7.7,0,0,0,397.73,230.73Z" transform="translate(-320.15 -179.97)"/><path class="cls-4" d="M416.15,230.51a.71.71,0,1,0-1-1l-2,2a.67.67,0,0,0-.21.51.69.69,0,0,0,.2.5.73.73,0,0,0,1,0Z" transform="translate(-320.15 -179.97)"/><path class="cls-4" d="M406.9,235a.72.72,0,0,0,0-1l-2-2a.71.71,0,0,0-1.21.5.71.71,0,0,0,.21.51l2,2A.72.72,0,0,0,406.9,235Z" transform="translate(-320.15 -179.97)"/><path class="cls-4" d="M425.32,235.19l-2-2a.71.71,0,0,0-1,0,.71.71,0,0,0,0,1l2,2a.71.71,0,0,0,1,0A.72.72,0,0,0,425.32,235.19Z" transform="translate(-320.15 -179.97)"/><path class="cls-4" d="M413.1,232.53a.7.7,0,0,0-1,0l-2,2a.71.71,0,1,0,1,1l2-2A.69.69,0,0,0,413.1,232.53Z" transform="translate(-320.15 -179.97)"/><path class="cls-4" d="M385.21,231.22a.69.69,0,0,0,.21.51l2,2a.72.72,0,0,0,1,0,.71.71,0,0,0,0-1l-2-2a.71.71,0,0,0-1,0A.67.67,0,0,0,385.21,231.22Z" transform="translate(-320.15 -179.97)"/><path class="cls-4" d="M369.21,258l-2,2a.71.71,0,0,0-.21.51.71.71,0,0,0,1.22.51l2-2a.72.72,0,0,0-1-1Z" transform="translate(-320.15 -179.97)"/><path class="cls-4" d="M375.87,256a.74.74,0,0,0,.2.51l2,2a.72.72,0,0,0,1-1l-2-2a.73.73,0,0,0-1,0A.76.76,0,0,0,375.87,256Z" transform="translate(-320.15 -179.97)"/><path class="cls-4" d="M363.55,260.86a.71.71,0,0,0,.21.51l1,1-.65.65a.72.72,0,0,0-.22.51.7.7,0,0,0,.21.5.71.71,0,0,0,1,0l.67-.67h0a.71.71,0,0,0,1,0,.72.72,0,0,0,0-1l.35-.35a.71.71,0,0,0,0-1,.7.7,0,0,0-1,0l-.36.36-1-1a.72.72,0,0,0-1,0A.74.74,0,0,0,363.55,260.86Z" transform="translate(-320.15 -179.97)"/><path class="cls-4" d="M390.58,253.83l-1.92,1.91a.74.74,0,0,0-.22.51.69.69,0,0,0,.21.5.72.72,0,0,0,1,0l1.91-1.89,1.92,1.89a.71.71,0,0,0,1-1l-1.93-1.91.16-.1,2-2a.71.71,0,0,0,0-1,.7.7,0,0,0-1,0l-2,2a.72.72,0,0,0-.14.2.46.46,0,0,0-.14-.2l-2-2a.69.69,0,0,0-1,0,.67.67,0,0,0-.21.51.68.68,0,0,0,.21.5l2,2A.78.78,0,0,0,390.58,253.83Zm.94-.22a.9.9,0,0,0,.05-.09.7.7,0,0,1,.06.09l-.06,0S391.54,253.61,391.52,253.61Z" transform="translate(-320.15 -179.97)"/><path class="cls-4" d="M361.06,266.06a.72.72,0,0,0-.22.51.72.72,0,0,0,1.23.51l2-2a.71.71,0,0,0,0-1,.72.72,0,0,0-1,0Z" transform="translate(-320.15 -179.97)"/><path class="cls-4" d="M351.24,265.69a.67.67,0,0,0,.21.51l2,2a.72.72,0,1,0,1-1l-2-2a.72.72,0,0,0-1,0A.69.69,0,0,0,351.24,265.69Z" transform="translate(-320.15 -179.97)"/><path class="cls-4" d="M379.4,247.88a.73.73,0,0,0-.21.51.74.74,0,0,0,.2.5.72.72,0,0,0,1,0l2-2a.71.71,0,0,0,0-1,.72.72,0,0,0-1,0Z" transform="translate(-320.15 -179.97)"/><path class="cls-4" d="M382.28,245.65l.09.09s0,.09.08.12a.45.45,0,0,0,.14.1l1.72,1.71a.72.72,0,1,0,1-1L384,245.34l1.5-1.49a.71.71,0,0,0,0-1,.72.72,0,0,0-1,0l-1.62,1.62a.71.71,0,0,0-.6.19.69.69,0,0,0-.2.5A.71.71,0,0,0,382.28,245.65Z" transform="translate(-320.15 -179.97)"/><path class="cls-4" d="M382.27,244.64a.73.73,0,0,0,0-1l-2-2a.72.72,0,0,0-1,0,.71.71,0,0,0,0,1l2,2A.73.73,0,0,0,382.27,244.64Z" transform="translate(-320.15 -179.97)"/><path class="cls-4" d="M370,250.48l2,2a.72.72,0,0,0,1,0,.71.71,0,0,0,0-1l-2-2a.71.71,0,0,0-1.21.51A.67.67,0,0,0,370,250.48Z" transform="translate(-320.15 -179.97)"/><path class="cls-4" d="M366.7,246.94a.69.69,0,0,0,.21.51l2,2a.71.71,0,1,0,1-1l-2-2a.71.71,0,0,0-1,0A.74.74,0,0,0,366.7,246.94Z" transform="translate(-320.15 -179.97)"/><path class="cls-4" d="M377.35,251.93l2-2a.71.71,0,0,0,0-1,.72.72,0,0,0-1,0l-2,2a.71.71,0,0,0-.21.51.73.73,0,0,0,.21.51A.71.71,0,0,0,377.35,251.93Z" transform="translate(-320.15 -179.97)"/><path class="cls-4" d="M370.32,273.92a.71.71,0,0,0-.21.51.69.69,0,0,0,.2.5.72.72,0,0,0,1,0l2-2a.72.72,0,0,0,0-1,.71.71,0,0,0-1,0Z" transform="translate(-320.15 -179.97)"/><path class="cls-4" d="M373.37,270.89a.73.73,0,0,0-.21.51.7.7,0,0,0,.21.5.72.72,0,0,0,1,0h0l.59.58a.71.71,0,0,0,1,0,.72.72,0,0,0,0-1l-.57-.57,1-1a.71.71,0,0,0,0-1,.7.7,0,0,0-1,0l-1,1-.44-.45a.72.72,0,0,0-1,0,.71.71,0,0,0,0,1Z" transform="translate(-320.15 -179.97)"/><path class="cls-4" d="M367.26,277a.71.71,0,0,0-.21.51.69.69,0,0,0,.2.5.71.71,0,0,0,1,0l2.05-2a.74.74,0,0,0,0-1,.73.73,0,0,0-1,0Z" transform="translate(-320.15 -179.97)"/><path class="cls-4" d="M382.09,278.54a.72.72,0,0,0,0-1l-2-2a.72.72,0,0,0-1,0,.68.68,0,0,0-.2.5.72.72,0,0,0,.2.51l2,2A.73.73,0,0,0,382.09,278.54Z" transform="translate(-320.15 -179.97)"/><path class="cls-4" d="M382.1,279.55h0a.74.74,0,0,0-.5.2l-2,2a.71.71,0,0,0,0,1,.72.72,0,0,0,1,0l2-2a.69.69,0,0,0,.21-.5l1.31,1.3a.72.72,0,0,0,1-1L384,279.41l1.67-1.66a.72.72,0,0,0,0-1,.71.71,0,0,0-1,0l-1.72,1.7a.71.71,0,0,0-.86.11.69.69,0,0,0-.2.5A.73.73,0,0,0,382.1,279.55Z" transform="translate(-320.15 -179.97)"/><path class="cls-4" d="M360,267.07l-2,2a.71.71,0,0,0-.21.51.74.74,0,0,0,.2.5.72.72,0,0,0,1,0l2-2a.71.71,0,1,0-1-1Z" transform="translate(-320.15 -179.97)"/><path class="cls-4" d="M378.92,259.06a.71.71,0,0,0,.21.51l2,2a.71.71,0,0,0,1,0,.73.73,0,0,0,0-1l-2-2a.71.71,0,0,0-1,0A.7.7,0,0,0,378.92,259.06Z" transform="translate(-320.15 -179.97)"/><path class="cls-4" d="M387.64,256.75l-2,2a.75.75,0,0,0-.21.52.64.64,0,0,0,.21.49.71.71,0,0,0,1,0l2-2a.71.71,0,0,0,0-1A.72.72,0,0,0,387.64,256.75Z" transform="translate(-320.15 -179.97)"/><path class="cls-4" d="M366.52,280.84a.75.75,0,0,0,.21.51l2,2a.72.72,0,0,0,1-1l-2-2a.71.71,0,0,0-1,0A.7.7,0,0,0,366.52,280.84Z" transform="translate(-320.15 -179.97)"/><path class="cls-4" d="M369.87,267.43l2,2a.72.72,0,0,0,1-1l-2-2a.71.71,0,0,0-1,0,.69.69,0,0,0-.2.5A.74.74,0,0,0,369.87,267.43Z" transform="translate(-320.15 -179.97)"/><path class="cls-4" d="M366.61,263.89a.71.71,0,0,0,.21.51l2,2a.71.71,0,0,0,1,0,.73.73,0,0,0,0-1l-2-2a.72.72,0,0,0-1,0A.74.74,0,0,0,366.61,263.89Z" transform="translate(-320.15 -179.97)"/><path class="cls-4" d="M369.79,284.38l1.46,1.45H373a.65.65,0,0,0-.2-.45l-2-2a.72.72,0,0,0-1,0,.74.74,0,0,0-.2.5A.73.73,0,0,0,369.79,284.38Z" transform="translate(-320.15 -179.97)"/><path class="cls-4" d="M430.61,248.24l-2,2a.72.72,0,0,0-.22.5.77.77,0,0,0,.21.51.72.72,0,0,0,1,0l2-2a.71.71,0,0,0,0-1A.69.69,0,0,0,430.61,248.24Z" transform="translate(-320.15 -179.97)"/><path class="cls-4" d="M419.13,247.1a.7.7,0,0,0-.21.5.68.68,0,0,0,.22.51l2,2a.71.71,0,0,0,1,0,.7.7,0,0,0,0-1l-2-2A.72.72,0,0,0,419.13,247.1Z" transform="translate(-320.15 -179.97)"/><path class="cls-4" d="M419.12,246.08l-.75-.74.93-.91a.71.71,0,0,0,0-1,.7.7,0,0,0-1,0l-.93.92-.27-.26a.72.72,0,0,0-1,0,.69.69,0,0,0-.2.5.69.69,0,0,0,.21.51l.26.26-.08.09a.69.69,0,0,0-.22.5.72.72,0,0,0,1.22.51l.1-.09.76.75a.7.7,0,0,0,1,0A.72.72,0,0,0,419.12,246.08Z" transform="translate(-320.15 -179.97)"/><path class="cls-4" d="M440.61,250.34l-2-2a.72.72,0,0,0-1.22.51.71.71,0,0,0,.21.51l2,2a.72.72,0,1,0,1-1Z" transform="translate(-320.15 -179.97)"/><path class="cls-4" d="M422.36,241.4a.72.72,0,0,0,0-1,.7.7,0,0,0-1,0l-2,2a.71.71,0,0,0,0,1,.72.72,0,0,0,1,0Z" transform="translate(-320.15 -179.97)"/><path class="cls-4" d="M440.88,256.11a.72.72,0,0,0-1,0l-2,2a.71.71,0,0,0,0,1,.7.7,0,0,0,1,0l2-2A.7.7,0,0,0,440.88,256.11Z" transform="translate(-320.15 -179.97)"/><path class="cls-4" d="M360.12,284l-1.82,1.81h2l.8-.79a.72.72,0,1,0-1-1Z" transform="translate(-320.15 -179.97)"/><path class="cls-4" d="M354.2,285.67a.76.76,0,0,0,0,.16h1.86l-.67-.67a.71.71,0,0,0-1,0A.69.69,0,0,0,354.2,285.67Z" transform="translate(-320.15 -179.97)"/><path class="cls-4" d="M341.7,285.24l-.59.59h1.8a.71.71,0,0,0-1.21-.59Z" transform="translate(-320.15 -179.97)"/><path class="cls-4" d="M425.41,238.37a.73.73,0,0,0,0-1,.72.72,0,0,0-1,0l-2,2a.71.71,0,0,0-.21.51.74.74,0,0,0,.2.5.72.72,0,0,0,1,0Z" transform="translate(-320.15 -179.97)"/><path class="cls-4" d="M446.52,257.92a.75.75,0,0,0,.21.51l0,0v-1.07l0,0A.73.73,0,0,0,446.52,257.92Z" transform="translate(-320.15 -179.97)"/><path class="cls-4" d="M363.67,277.3a.71.71,0,0,0,0-1l-2-2a.71.71,0,0,0-1,0,.69.69,0,0,0-.21.5.74.74,0,0,0,.22.51l2,2A.72.72,0,0,0,363.67,277.3Z" transform="translate(-320.15 -179.97)"/><path class="cls-4" d="M377.17,218l2-2a.71.71,0,0,0,0-1,.72.72,0,0,0-1,0l-2,2a.72.72,0,0,0,1,1Z" transform="translate(-320.15 -179.97)"/><path class="cls-4" d="M372.18,218.61a.72.72,0,0,0,1,0,.71.71,0,0,0,0-1l-2-2a.72.72,0,0,0-1.22.51.73.73,0,0,0,.21.51Z" transform="translate(-320.15 -179.97)"/><path class="cls-4" d="M360.79,215.21a.75.75,0,0,0-.21.51.73.73,0,0,0,.21.51.71.71,0,0,0,1,0l2-2a.72.72,0,0,0,0-1,.71.71,0,0,0-1,0Z" transform="translate(-320.15 -179.97)"/><path class="cls-4" d="M390.52,219.84l-2,2a.71.71,0,0,0-.21.51.69.69,0,0,0,.2.5.72.72,0,0,0,1,0l2-2s0-.06.05-.07,0,0,.06.07l2,2a.72.72,0,0,0,1-1l-2-2-.05,0,2-2a.71.71,0,0,0-1-1l-2,2-2-2a.73.73,0,0,0-1,0,.71.71,0,0,0-.2.5.68.68,0,0,0,.21.51l2,2A.14.14,0,0,0,390.52,219.84Zm1.08,0a0,0,0,0,0,0,0l0,0h.05Z" transform="translate(-320.15 -179.97)"/><path class="cls-4" d="M376,222.14a.77.77,0,0,0,.21.51l2,2a.73.73,0,0,0,1,0,.72.72,0,0,0,0-1l-2-2a.72.72,0,0,0-1,0A.7.7,0,0,0,376,222.14Z" transform="translate(-320.15 -179.97)"/><path class="cls-4" d="M364,210.53l.74.74-.92.92a.71.71,0,0,0-.21.51.74.74,0,0,0,.2.5.72.72,0,0,0,1,0l.93-.92.28.27a.71.71,0,0,0,1-1l-.26-.26.09-.08a.73.73,0,0,0,0-1,.72.72,0,0,0-1,0l-.1.1-.75-.74a.72.72,0,0,0-1,0,.7.7,0,0,0-.21.5A.72.72,0,0,0,364,210.53Z" transform="translate(-320.15 -179.97)"/><path class="cls-4" d="M336.42,199.2a.72.72,0,0,0,0-1l-2-2a.72.72,0,0,0-1,0,.66.66,0,0,0-.2.5.73.73,0,0,0,.21.51l2,2A.71.71,0,0,0,336.42,199.2Z" transform="translate(-320.15 -179.97)"/><path class="cls-4" d="M364,209.52a.72.72,0,0,0,0-1l-2-2a.71.71,0,0,0-1.22.51.71.71,0,0,0,.21.51l2,2A.72.72,0,0,0,364,209.52Z" transform="translate(-320.15 -179.97)"/><path class="cls-4" d="M327.91,198.71l2-2a.71.71,0,0,0-1-1l-2,2a.68.68,0,0,0-.22.51.7.7,0,0,0,.21.5A.71.71,0,0,0,327.91,198.71Z" transform="translate(-320.15 -179.97)"/><path class="cls-4" d="M342.07,200a.67.67,0,0,0,.21.5.7.7,0,0,0,1,0l2-2a.72.72,0,0,0,0-1,.71.71,0,0,0-1,0l-2,2A.71.71,0,0,0,342.07,200Z" transform="translate(-320.15 -179.97)"/><path class="cls-4" d="M354.86,201.44l1.32,1.31-1.59,1.58a.71.71,0,0,0,0,1,.7.7,0,0,0,1,0l1.71-1.69a.72.72,0,0,0,.6-.19.7.7,0,0,0,0-1,.73.73,0,0,0,.74-.16l2-2a.71.71,0,1,0-1-1l-2,2a.71.71,0,0,0-.21.51.93.93,0,0,0,0,.22l-1.62-1.61a.71.71,0,0,0-1,0,.75.75,0,0,0-.21.5A.72.72,0,0,0,354.86,201.44Z" transform="translate(-320.15 -179.97)"/><path class="cls-4" d="M352.54,208.37l2-2a.72.72,0,0,0,0-1,.71.71,0,0,0-1,0l-2,2a.75.75,0,0,0-.21.52.7.7,0,0,0,.21.5A.71.71,0,0,0,352.54,208.37Z" transform="translate(-320.15 -179.97)"/><path class="cls-4" d="M373.1,221.06a.71.71,0,0,0-1,0l-2,2a.7.7,0,0,0-.21.5.75.75,0,0,0,.21.51.71.71,0,0,0,1,0l2-2A.72.72,0,0,0,373.1,221.06Z" transform="translate(-320.15 -179.97)"/><path class="cls-4" d="M367,226.11a.74.74,0,0,0-.2.51.66.66,0,0,0,.2.49.7.7,0,0,0,1,0l2-2a.72.72,0,1,0-1-1Z" transform="translate(-320.15 -179.97)"/><path class="cls-4" d="M373.37,236.83l-.17.17a.7.7,0,0,0-.22.5.73.73,0,0,0,.21.5.7.7,0,0,0,1,0l.18-.19.77.76a.7.7,0,0,0,1,0,.71.71,0,0,0,0-1l-.74-.74.83-.83a.72.72,0,0,0,0-1,.7.7,0,0,0-1,0l-.86.84-.26-.27a.71.71,0,0,0-1,0,.72.72,0,0,0,0,1Z" transform="translate(-320.15 -179.97)"/><path class="cls-4" d="M363.84,243.41a.71.71,0,0,0,0-1l-2-2a.7.7,0,0,0-1,0,.69.69,0,0,0-.21.5.73.73,0,0,0,.21.51l2,2A.72.72,0,0,0,363.84,243.41Z" transform="translate(-320.15 -179.97)"/><path class="cls-4" d="M359.87,233.18l-2.05,2a.79.79,0,0,0-.21.51.77.77,0,0,0,.21.51.71.71,0,0,0,1,0l2-2a.72.72,0,0,0,0-1A.71.71,0,0,0,359.87,233.18Z" transform="translate(-320.15 -179.97)"/><path class="cls-4" d="M353.75,239.24l-2,2a.72.72,0,0,0,0,1,.71.71,0,0,0,1,0l2-2a.71.71,0,1,0-1-1Z" transform="translate(-320.15 -179.97)"/><path class="cls-4" d="M357.52,237.86a.74.74,0,0,0,.22.51l2,2a.72.72,0,0,0,1,0,.71.71,0,0,0,0-1l-2-2a.71.71,0,0,0-1,0A.73.73,0,0,0,357.52,237.86Z" transform="translate(-320.15 -179.97)"/><path class="cls-4" d="M382.17,228.31s0,.06,0,.11a.75.75,0,0,0,.21.5.7.7,0,0,0,.42.19l1.62,1.62a.73.73,0,0,0,1,0,.72.72,0,0,0,0-1l-1.41-1.4,1.41-1.41a.72.72,0,0,0,0-1,.73.73,0,0,0-1,0l-1.62,1.62a.66.66,0,0,0-.42.2.73.73,0,0,0-.21.5S382.17,228.27,382.17,228.31Z" transform="translate(-320.15 -179.97)"/><path class="cls-4" d="M382.36,227.69a.72.72,0,0,0,0-1l-2-2a.72.72,0,0,0-1.22.51.75.75,0,0,0,.21.51l2,2A.73.73,0,0,0,382.36,227.69Z" transform="translate(-320.15 -179.97)"/><path class="cls-4" d="M366.79,230a.76.76,0,0,0,.2.51l2,2a.73.73,0,0,0,1,0,.71.71,0,0,0,0-1l-2-2a.71.71,0,0,0-1.21.51Z" transform="translate(-320.15 -179.97)"/><path class="cls-4" d="M370.05,233.53l2,2a.72.72,0,0,0,1,0,.71.71,0,0,0,0-1l-2-2a.7.7,0,0,0-1,0,.7.7,0,0,0,0,1Z" transform="translate(-320.15 -179.97)"/><path class="cls-4" d="M379.31,230.93a.73.73,0,0,0-.21.52.7.7,0,0,0,.21.5.71.71,0,0,0,1,0l2-2a.73.73,0,0,0,0-1,.72.72,0,0,0-1,0Z" transform="translate(-320.15 -179.97)"/><path class="cls-4" d="M431.53,224.3l-2-2a.72.72,0,0,0-1.22.51.7.7,0,0,0,.21.5l2,2a.7.7,0,0,0,1,0A.71.71,0,0,0,431.53,224.3Z" transform="translate(-320.15 -179.97)"/><path class="cls-4" d="M344.76,282.22l-2,2a.75.75,0,0,0-.21.51.72.72,0,0,0,1.21.51l2-2a.71.71,0,1,0-1-1Z" transform="translate(-320.15 -179.97)"/><path class="cls-4" d="M444.69,254.38a.72.72,0,0,0-1,0,.75.75,0,0,0-.21.51.7.7,0,0,0,.22.51l2,2a.72.72,0,0,0,1,0s0-.05,0-.07v-.87l0-.07Z" transform="translate(-320.15 -179.97)"/><path class="cls-4" d="M446,250l-2,2a.71.71,0,0,0-.21.51.74.74,0,0,0,.2.5.72.72,0,0,0,1,0l1.82-1.81V249.9A.71.71,0,0,0,446,250Z" transform="translate(-320.15 -179.97)"/><path class="cls-4" d="M436.72,242.18l-2,2a.52.52,0,0,0-.12.18.61.61,0,0,0-.07-.1l-2-2a.72.72,0,0,0-1.21.51.75.75,0,0,0,.21.51l2,2s0,0,.05,0l-1.92,1.9a.7.7,0,0,0-.21.5.72.72,0,0,0,1.22.52l1.91-1.9,2,2a.7.7,0,0,0,1,0,.71.71,0,0,0,0-1l-2-2a.53.53,0,0,0,.15-.11l2-2a.72.72,0,0,0,0-1A.7.7,0,0,0,436.72,242.18Zm-2.06,3h0l-.06,0s0,0,0,0Z" transform="translate(-320.15 -179.97)"/><path class="cls-4" d="M431.43,241.25l-2-2a.72.72,0,0,0-1.22.5.71.71,0,0,0,.21.51l2,2a.71.71,0,1,0,1-1Z" transform="translate(-320.15 -179.97)"/><path class="cls-4" d="M351.15,282.64a.73.73,0,0,0,.21.51l2,2a.72.72,0,0,0,1,0,.71.71,0,0,0,0-1l-2-2a.73.73,0,0,0-1,0A.76.76,0,0,0,351.15,282.64Z" transform="translate(-320.15 -179.97)"/><path class="cls-4" d="M361.15,283a.72.72,0,0,0-.22.51.7.7,0,0,0,.21.5.73.73,0,0,0,1,0l2-2a.71.71,0,0,0-1-1Z" transform="translate(-320.15 -179.97)"/><path class="cls-4" d="M343.2,273.05a.72.72,0,0,0-1.22.51.7.7,0,0,0,.21.5l2,2a.71.71,0,0,0,1,0,.72.72,0,0,0,0-1Z" transform="translate(-320.15 -179.97)"/><path class="cls-4" d="M352.9,276.17l2-2a.71.71,0,0,0,0-1,.72.72,0,0,0-1,0l-2,2a.71.71,0,0,0,0,1A.72.72,0,0,0,352.9,276.17Z" transform="translate(-320.15 -179.97)"/><path class="cls-4" d="M363.85,244.43l.92.91-.74.74a.72.72,0,0,0-.22.51.7.7,0,0,0,.21.5.72.72,0,0,0,1,0l.75-.75.1.09a.71.71,0,0,0,1,0,.72.72,0,0,0,0-1l-.09-.09.26-.26a.71.71,0,1,0-1-1l-.28.27-.93-.93a.71.71,0,0,0-1.22.51A.73.73,0,0,0,363.85,244.43Z" transform="translate(-320.15 -179.97)"/><path class="cls-4" d="M329.3,193.14a.7.7,0,0,0,1,0,.71.71,0,0,0,0-1l-2-2a.71.71,0,0,0-.52-.21c-.18.38-.36.76-.53,1.15a.56.56,0,0,1,.05.08Z" transform="translate(-320.15 -179.97)"/><path class="cls-4" d="M363.67,278.32l1.1,1.09-.57.57a.71.71,0,0,0,1,1l.6-.59a.69.69,0,0,0,.91-.07.7.7,0,0,0,.07-.9l.46-.46a.71.71,0,0,0-1-1l-.45.44-1.11-1.1a.72.72,0,0,0-1,0,.71.71,0,0,0,0,1Z" transform="translate(-320.15 -179.97)"/><path class="cls-4" d="M436.72,214.43a.71.71,0,0,0,1,0,.72.72,0,0,0,0-1l-2-2a.78.78,0,0,0-.15-.1l2-2a.71.71,0,0,0-1-1l-2,2-1.91-1.89a.72.72,0,0,0-1,1l1.92,1.89a.1.1,0,0,0-.05,0l-2,2a.73.73,0,0,0-.21.51.75.75,0,0,0,.21.51.71.71,0,0,0,1,0l2-2a.36.36,0,0,0,.07-.1.55.55,0,0,0,.12.19Zm-2.13-3,.06-.05h0a.56.56,0,0,1-.05.08S434.59,211.48,434.59,211.46Z" transform="translate(-320.15 -179.97)"/><path class="cls-4" d="M431.43,215.36a.7.7,0,0,0,0-1,.72.72,0,0,0-1,0l-2,2a.75.75,0,0,0-.21.51.72.72,0,0,0,1.22.51Z" transform="translate(-320.15 -179.97)"/><path class="cls-4" d="M428.47,221.28,427,219.79l1.42-1.4a.72.72,0,1,0-1-1l-1.8,1.8a.31.31,0,0,0-.15.1.57.57,0,0,0-.15.23.67.67,0,0,0-.14.4.68.68,0,0,0,.2.5.72.72,0,0,0,.42.2l1.71,1.69a.7.7,0,0,0,1,0A.71.71,0,0,0,428.47,221.28Z" transform="translate(-320.15 -179.97)"/><path class="cls-4" d="M446.73,199.2a.72.72,0,0,0-1,0l-2,2a.71.71,0,0,0-.22.51.72.72,0,0,0,1.23.51l2-2,0-.07v-.87S446.75,199.22,446.73,199.2Z" transform="translate(-320.15 -179.97)"/><path class="cls-4" d="M443.93,203.55a.72.72,0,0,0-.2.5.73.73,0,0,0,.21.51l2,2a.71.71,0,0,0,.79.15v-1.38l-1.82-1.8A.72.72,0,0,0,443.93,203.55Z" transform="translate(-320.15 -179.97)"/><path class="cls-4" d="M419.21,229.13l-.84-.82.84-.83a.72.72,0,1,0-1-1l-.84.84-.19-.19a.72.72,0,0,0-1.22.51.68.68,0,0,0,.22.51l.17.18-.17.17a.68.68,0,0,0-.22.51.7.7,0,0,0,.21.5.71.71,0,0,0,1,0l.19-.17.84.83a.72.72,0,0,0,1,0A.73.73,0,0,0,419.21,229.13Z" transform="translate(-320.15 -179.97)"/><path class="cls-4" d="M431.53,232.31a.71.71,0,0,0,0-1,.7.7,0,0,0-1,0l-2,2a.73.73,0,0,0-.21.51.69.69,0,0,0,.21.5.71.71,0,0,0,1,0Z" transform="translate(-320.15 -179.97)"/><path class="cls-4" d="M419.22,230.15a.71.71,0,0,0,0,1l2,2a.71.71,0,0,0,1,0,.72.72,0,0,0,0-1l-2-2A.71.71,0,0,0,419.22,230.15Z" transform="translate(-320.15 -179.97)"/><path class="cls-4" d="M422.27,224.45a.72.72,0,0,0-1-1l-2,2a.73.73,0,0,0-.21.51.69.69,0,0,0,.21.5.71.71,0,0,0,1,0Z" transform="translate(-320.15 -179.97)"/><path class="cls-4" d="M354.5,269.23l1.68,1.66-1.24,1.23a.71.71,0,0,0,0,1,.71.71,0,0,0,1,0l1.4-1.38h0a.71.71,0,0,0,.21.51l2,2a.71.71,0,0,0,1,0,.72.72,0,0,0,0-1l-2-2A.69.69,0,0,0,358,271a.7.7,0,0,0-.79-1.1l-1.74-1.72a.71.71,0,0,0-1,0,.71.71,0,0,0,0,1Z" transform="translate(-320.15 -179.97)"/><path class="cls-4" d="M428.38,238.22l-1.41-1.4,1.5-1.48a.72.72,0,0,0,0-1,.71.71,0,0,0-1,0l-1.7,1.69a.72.72,0,0,0-.43.2.69.69,0,0,0-.2.5.67.67,0,0,0,.14.4.61.61,0,0,0,.15.24.56.56,0,0,0,.15.1l1.8,1.79a.74.74,0,0,0,1,0A.73.73,0,0,0,428.38,238.22Z" transform="translate(-320.15 -179.97)"/></g><path class="cls-5" d="M445.19,347.45a265.28,265.28,0,0,1,0-61.53v-.09H340.72v.09a265.28,265.28,0,0,0,0,61.53v.08H445.19Z" transform="translate(-320.15 -179.97)"/><path class="cls-5" d="M446.77,285.83c-10,0-18.19-23.7-18.19-52.93S436.73,180,446.77,180,465,203.67,465,232.9,456.81,285.83,446.77,285.83Z" transform="translate(-320.15 -179.97)"/><path class="cls-6" d="M446.77,250.24c-3.29,0-6-7.77-6-17.34s2.67-17.34,6-17.34,6,7.76,6,17.34S450.06,250.24,446.77,250.24Z" transform="translate(-320.15 -179.97)"/><path class="cls-7" d="M445,216.36c2.42,2.21,4.17,8.78,4.17,16.54s-1.75,14.32-4.17,16.53a2.69,2.69,0,0,0,1.79.81c3.29,0,6-7.77,6-17.34s-2.67-17.34-6-17.34A2.67,2.67,0,0,0,445,216.36Z" transform="translate(-320.15 -179.97)"/><rect class="cls-8" x="120.87" y="45.2" width="47.99" height="12.82"/><path class="cls-9" d="M505.56,231.58A16.56,16.56,0,1,1,489,215,16.55,16.55,0,0,1,505.56,231.58Z" transform="translate(-320.15 -179.97)"/></g></g></svg>