<svg xmlns="http://www.w3.org/2000/svg" viewBox="0 0 348.21 130.04"><defs><style>.cls-1{isolation:isolate;}.cls-2{fill:#fed375;}.cls-3{fill:#fff;}.cls-4{fill:#98d0be;}.cls-5{fill:#dceeec;}.cls-6{opacity:0.7;}.cls-6,.cls-9{mix-blend-mode:multiply;}.cls-7{fill:#b6d6ce;}.cls-8{fill:#41617b;}.cls-10{fill:#ee744a;}.cls-11{fill:#56c0cf;}.cls-12{fill:#a8d9df;}</style></defs><g class="cls-1"><g id="Livello_1" data-name="Livello 1"><path class="cls-2" d="M516.88,285.42a18.24,18.24,0,0,0-36.47,0h0v83.4h0c.56,4,8.49,7.21,18.21,7.21s17.64-3.19,18.2-7.21h0v-83.4Z" transform="translate(-320.35 -250.91)"/><path class="cls-3" d="M482.8,289.83a.87.87,0,0,1-.76-.95c0-6.12,1.37-10.66,3.86-12.79a.68.68,0,0,1,1.07.24,1.08,1.08,0,0,1-.2,1.32c-2.06,1.76-3.2,5.75-3.2,11.23A.87.87,0,0,1,482.8,289.83Z" transform="translate(-320.35 -250.91)"/><path class="cls-3" d="M482.8,324.57a.87.87,0,0,1-.76-.95V294.38a.78.78,0,1,1,1.53,0v29.24A.87.87,0,0,1,482.8,324.57Z" transform="translate(-320.35 -250.91)"/><path class="cls-3" d="M510.27,324.34c0,15-5.21,27.2-11.62,27.2S487,339.36,487,324.34s5.21-27.2,11.63-27.2S510.27,309.32,510.27,324.34Z" transform="translate(-320.35 -250.91)"/><rect class="cls-4" x="170.84" width="14.91" height="17.84"/><rect class="cls-5" x="172.45" width="0.98" height="17.84"/><rect class="cls-5" x="175.13" width="0.98" height="17.84"/><rect class="cls-5" x="177.81" width="0.98" height="17.84"/><rect class="cls-5" x="180.48" width="0.98" height="17.84"/><rect class="cls-5" x="183.16" width="0.98" height="17.84"/><g class="cls-6"><rect class="cls-7" x="172.97" width="0.98" height="17.84"/><rect class="cls-7" x="175.65" width="0.98" height="17.84"/><rect class="cls-7" x="178.32" width="0.98" height="17.84"/><rect class="cls-7" x="181" width="0.99" height="17.84"/><rect class="cls-7" x="183.69" width="0.98" height="17.84"/></g><path class="cls-2" d="M473.52,285.42a18.24,18.24,0,0,0-36.48,0h0v83.4h0c.55,4,8.49,7.21,18.2,7.21s17.65-3.19,18.2-7.21h0v-83.4Z" transform="translate(-320.35 -250.91)"/><path class="cls-3" d="M439.44,289.83a.88.88,0,0,1-.77-.95c0-6.12,1.37-10.66,3.86-12.79a.68.68,0,0,1,1.07.24,1.08,1.08,0,0,1-.19,1.32c-2.06,1.76-3.2,5.75-3.2,11.23A.87.87,0,0,1,439.44,289.83Z" transform="translate(-320.35 -250.91)"/><path class="cls-3" d="M439.44,324.57a.88.88,0,0,1-.77-.95V294.38a.79.79,0,1,1,1.54,0v29.24A.87.87,0,0,1,439.44,324.57Z" transform="translate(-320.35 -250.91)"/><path class="cls-3" d="M466.9,324.34c0,15-5.2,27.2-11.62,27.2s-11.62-12.18-11.62-27.2,5.2-27.2,11.62-27.2S466.9,309.32,466.9,324.34Z" transform="translate(-320.35 -250.91)"/><rect class="cls-4" x="127.48" width="14.91" height="17.84"/><rect class="cls-5" x="129.09" width="0.98" height="17.84"/><rect class="cls-5" x="131.76" width="0.98" height="17.84"/><rect class="cls-5" x="134.44" width="0.98" height="17.84"/><rect class="cls-5" x="137.12" width="0.98" height="17.84"/><rect class="cls-5" x="139.8" width="0.98" height="17.84"/><g class="cls-6"><rect class="cls-7" x="129.61" width="0.98" height="17.84"/><rect class="cls-7" x="132.29" width="0.97" height="17.84"/><rect class="cls-7" x="134.96" width="0.98" height="17.84"/><rect class="cls-7" x="137.64" width="0.98" height="17.84"/><rect class="cls-7" x="140.32" width="0.98" height="17.84"/></g><rect class="cls-3" y="122.04" width="324.18" height="7.99"/><path class="cls-8" d="M661.92,305.94c0,7-5,12.57-11.3,12.57h-102c-6.26,0-11.32-5.61-11.32-12.57h0c0-6.95,5.06-12.56,11.32-12.56h102c6.26,0,11.3,5.61,11.3,12.56Z" transform="translate(-320.35 -250.91)"/><g class="cls-9"><path class="cls-10" d="M649.84,308.62H549.34a2.7,2.7,0,0,1,0-5.37h100.5a2.7,2.7,0,0,1,0,5.37Z" transform="translate(-320.35 -250.91)"/></g><path class="cls-8" d="M668.55,331.46c0,7-5,12.59-11.3,12.59h-102c-6.25,0-11.31-5.63-11.31-12.59h0c0-6.93,5.06-12.56,11.31-12.56h102c6.26,0,11.3,5.63,11.3,12.56Z" transform="translate(-320.35 -250.91)"/><g class="cls-9"><path class="cls-10" d="M656.47,334.15H556a2.71,2.71,0,0,1,0-5.38h100.5a2.7,2.7,0,0,1,0,5.38Z" transform="translate(-320.35 -250.91)"/></g><path class="cls-8" d="M655,358.38c0,7-5.09,12.6-11.33,12.6h-102c-6.26,0-11.33-5.64-11.33-12.6h0c0-6.92,5.07-12.56,11.33-12.56h102c6.24,0,11.33,5.64,11.33,12.56Z" transform="translate(-320.35 -250.91)"/><g class="cls-9"><path class="cls-10" d="M643,361.09H542.43a2.72,2.72,0,0,1,0-5.4H643a2.72,2.72,0,0,1,0,5.4Z" transform="translate(-320.35 -250.91)"/></g><g class="cls-9"><rect class="cls-11" x="357.81" y="356.19" width="10.64" height="22.25" transform="translate(-326.02 478.03) rotate(-89.76)"/></g><rect class="cls-10" x="357.81" y="356.19" width="10.64" height="22.25" transform="translate(-326.02 478.03) rotate(-89.76)"/><rect class="cls-5" x="349.82" y="366.55" width="10.64" height="1.46" transform="translate(-333.6 470.36) rotate(-89.82)"/><rect class="cls-5" x="353.81" y="366.57" width="10.63" height="1.46" transform="translate(-329.58 474.43) rotate(-89.83)"/><rect class="cls-5" x="357.81" y="366.58" width="10.64" height="1.47" transform="translate(-326.17 477.88) rotate(-89.74)"/><rect class="cls-5" x="361.81" y="366.6" width="10.64" height="1.46" transform="translate(-321.69 482.4) rotate(-89.82)"/><rect class="cls-5" x="365.8" y="366.61" width="10.63" height="1.46" transform="translate(-317.67 486.47) rotate(-89.83)"/><g class="cls-6"><polygon class="cls-7" points="36.27 121.7 34.81 121.69 34.85 111.06 36.31 111.06 36.27 121.7"/><rect class="cls-7" x="354.59" y="366.57" width="10.64" height="1.46" transform="translate(-329.14 474.86) rotate(-89.78)"/><rect class="cls-7" x="358.59" y="366.59" width="10.63" height="1.46" transform="translate(-325.4 478.65) rotate(-89.74)"/><rect class="cls-7" x="362.58" y="366.6" width="10.63" height="1.46" transform="translate(-322.01 482.09) rotate(-89.65)"/><polygon class="cls-7" points="52.26 121.76 50.8 121.75 50.85 111.12 52.31 111.13 52.26 121.76"/></g><polygon class="cls-8" points="56.86 111.15 28.74 111.03 26.5 32.83 59.73 32.96 56.86 111.15"/><polygon class="cls-10" points="59.53 38.56 59.58 37.04 26.62 36.91 26.66 38.43 59.53 38.56"/><rect class="cls-10" x="360.31" y="267.4" width="6.29" height="34.67" transform="matrix(0, -1, 1, 0, -243.09, 396.13)"/><rect class="cls-10" x="338.98" y="323.26" width="63.15" height="7.13" transform="translate(-278.18 445.09) rotate(-89.76)"/><path class="cls-3" d="M351.9,327.71a1,1,0,0,1-1-.94l-.5-24.63a.94.94,0,0,1,.93-1,1,1,0,0,1,1,.94l.51,24.62a1,1,0,0,1-.94,1Z" transform="translate(-320.35 -250.91)"/><path class="cls-3" d="M351.35,299.28a1,1,0,0,1-1-1l0-4.35a1,1,0,1,1,1.92,0l0,4.35A1,1,0,0,1,351.35,299.28Z" transform="translate(-320.35 -250.91)"/><g class="cls-9"><rect class="cls-11" x="399.61" y="356.46" width="10.63" height="22.25" transform="translate(-284.66 520.1) rotate(-89.77)"/></g><rect class="cls-10" x="399.61" y="356.46" width="10.63" height="22.25" transform="translate(-284.66 520.1) rotate(-89.77)"/><rect class="cls-5" x="391.62" y="366.83" width="10.64" height="1.46" transform="translate(-292.2 512.43) rotate(-89.82)"/><rect class="cls-5" x="395.61" y="366.84" width="10.63" height="1.46" transform="translate(-288.17 516.51) rotate(-89.83)"/><rect class="cls-5" x="399.61" y="366.85" width="10.64" height="1.47" transform="translate(-284.83 519.95) rotate(-89.74)"/><rect class="cls-5" x="403.61" y="366.87" width="10.64" height="1.46" transform="translate(-279.98 524.76) rotate(-89.87)"/><rect class="cls-5" x="407.6" y="366.89" width="10.63" height="1.46" transform="translate(-276.27 528.54) rotate(-89.83)"/><g class="cls-6"><polygon class="cls-7" points="78.07 121.97 76.61 121.96 76.65 111.33 78.11 111.33 78.07 121.97"/><rect class="cls-7" x="396.39" y="366.85" width="10.64" height="1.46" transform="translate(-287.72 516.99) rotate(-89.79)"/><rect class="cls-7" x="400.39" y="366.86" width="10.63" height="1.46" transform="translate(-283.75 521.01) rotate(-89.79)"/><rect class="cls-7" x="404.38" y="366.88" width="10.63" height="1.46" transform="translate(-280.73 524.16) rotate(-89.65)"/><polygon class="cls-7" points="94.06 122.04 92.6 122.03 92.64 111.39 94.11 111.4 94.06 122.04"/></g><polygon class="cls-10" points="98.66 111.42 70.54 111.3 68.3 33.1 101.53 33.23 98.66 111.42"/><polygon class="cls-10" points="101.33 38.84 101.38 37.31 68.42 37.18 68.46 38.7 101.33 38.84"/><rect class="cls-10" x="402.11" y="267.67" width="6.29" height="34.67" transform="translate(-201.73 438.21) rotate(-89.77)"/><rect class="cls-12" x="380.78" y="323.53" width="63.15" height="7.13" transform="translate(-236.83 487.16) rotate(-89.76)"/><path class="cls-3" d="M393.7,328a1,1,0,0,1-1-.94l-.5-24.62a1,1,0,1,1,1.91,0l.51,24.62a1,1,0,0,1-.94,1Z" transform="translate(-320.35 -250.91)"/><path class="cls-3" d="M393.15,299.56a1,1,0,0,1-.95-1l0-4.35a1,1,0,0,1,1-.95,1,1,0,0,1,1,1l0,4.35A1,1,0,0,1,393.15,299.56Z" transform="translate(-320.35 -250.91)"/></g></g></svg>