<svg xmlns="http://www.w3.org/2000/svg" viewBox="0 0 338.55 150.38"><defs><style>.cls-1{isolation:isolate;}.cls-2{fill:#e7e6e6;}.cls-11,.cls-17,.cls-3{mix-blend-mode:multiply;}.cls-4{fill:#d6d7d7;}.cls-5{fill:#41617b;}.cls-6{fill:#fff;}.cls-7{fill:#cac9c9;}.cls-8{fill:#b8b8b8;}.cls-9{fill:#aedce6;}.cls-10{fill:#fed375;}.cls-11{opacity:0.4;}.cls-12{fill:#01837c;}.cls-13{fill:#95cfe8;}.cls-14{fill:#e1dee2;}.cls-15{fill:#ee744a;}.cls-16{fill:#f29372;}.cls-17{opacity:0.2;}.cls-18{fill:#d9d9d9;}</style></defs><g class="cls-1"><g id="Livello_1" data-name="Livello 1"><rect class="cls-2" x="145.03" y="22.27" width="25.41" height="119.13"/><g class="cls-3"><rect class="cls-4" x="145.03" y="22.27" width="25.41" height="34.81"/></g><rect class="cls-5" x="144.21" y="22.27" width="27.05" height="33.17"/><rect class="cls-6" x="144.21" y="57.11" width="27.05" height="84.32"/><rect class="cls-5" x="144.21" y="72.57" width="27.05" height="1.03"/><rect class="cls-5" x="144.21" y="70.34" width="27.05" height="1.03"/><rect class="cls-5" x="144.21" y="131.06" width="27.05" height="1.03"/><rect class="cls-5" x="144.21" y="128.83" width="27.05" height="1.03"/><rect class="cls-5" x="147.54" y="79.42" width="20.41" height="36.38"/><rect class="cls-7" x="152.98" y="26.39" width="9.51" height="16.04"/><g class="cls-3"><rect class="cls-8" x="156.51" y="37.4" width="2.46" height="5.04"/></g><path class="cls-6" d="M204.4,273.28a.72.72,0,0,1-.72-.72v-13.4a.72.72,0,0,1,1.44,0v13.4A.72.72,0,0,1,204.4,273.28Z" transform="translate(-57.32 -225.09)"/><path class="cls-6" d="M204.4,257.11a.72.72,0,0,1-.72-.72v-4.74a.72.72,0,0,1,1.44,0v4.74A.72.72,0,0,1,204.4,257.11Z" transform="translate(-57.32 -225.09)"/><path class="cls-6" d="M204.17,294a.72.72,0,0,0,.72-.72v-7.94a.72.72,0,1,0-1.44,0v7.94A.72.72,0,0,0,204.17,294Z" transform="translate(-57.32 -225.09)"/><rect class="cls-9" x="203.03" y="45.58" width="10.04" height="14.06"/><rect class="cls-6" x="203.03" y="45.58" width="10.04" height="14.06"/><path class="cls-10" d="M246.92,354.7a12.8,12.8,0,0,0,1.57,10.66h33.75a12.8,12.8,0,0,0,1.57-10.66V343.65c0-13,2.73-42.21,2.73-42.21,1.28-13.58-8.25-24.71-21.16-24.71s-22.46,11.13-21.19,24.71c0,0,2.73,29.2,2.73,42.21Z" transform="translate(-57.32 -225.09)"/><path class="cls-6" d="M250,353.81a12.07,12.07,0,0,0,1.31,9.56h28.14a12.11,12.11,0,0,0,1.3-9.56V344c0-11.64,2.28-37.75,2.28-37.75,1.08-12.16-6.88-22.12-17.64-22.12s-18.75,10-17.67,22.12c0,0,2.28,26.11,2.28,37.75Z" transform="translate(-57.32 -225.09)"/><path class="cls-10" d="M252,352.59a12.51,12.51,0,0,0,1.13,9.05h24.43a12.51,12.51,0,0,0,1.13-9.05v-9.33c0-11,2-35.7,2-35.7.91-11.49-6-20.91-15.31-20.91s-16.26,9.42-15.35,20.91c0,0,2,24.69,2,35.7Z" transform="translate(-57.32 -225.09)"/><path class="cls-10" d="M272.17,275.25v-7.73c0-2.8-3.05-5.06-6.82-5.06s-6.79,2.26-6.79,5.06v7.73Z" transform="translate(-57.32 -225.09)"/><rect class="cls-6" x="198.67" y="77.88" width="18.74" height="20.76"/><rect class="cls-6" x="0.82" y="142.05" width="337.74" height="8.33"/><rect class="cls-6" x="248.17" y="94.59" width="18.99" height="44.39"/><g class="cls-11"><path class="cls-12" d="M305.49,362.25a17.68,17.68,0,0,0,4.7,1.83h9.58a17.74,17.74,0,0,0,4.71-1.83V335.76a19.35,19.35,0,0,0-19,0Z" transform="translate(-57.32 -225.09)"/></g><rect class="cls-13" x="249.15" y="91.49" width="17.02" height="7.21"/><rect class="cls-14" x="249.15" y="91.49" width="17.02" height="7.21"/><path class="cls-13" d="M333.62,343.93c0,11.13-8.35,20.15-18.63,20.15s-18.65-9-18.65-20.15,8.35-20.14,18.65-20.14S333.62,332.81,333.62,343.93Z" transform="translate(-57.32 -225.09)"/><path class="cls-6" d="M333.62,343.93c0,11.13-8.35,20.15-18.63,20.15s-18.65-9-18.65-20.15,8.35-20.14,18.65-20.14S333.62,332.81,333.62,343.93Z" transform="translate(-57.32 -225.09)"/><path class="cls-14" d="M330.89,343.93c0,9.52-7.12,17.21-15.9,17.21s-15.93-7.69-15.93-17.21,7.12-17.2,15.93-17.2S330.89,334.44,330.89,343.93Z" transform="translate(-57.32 -225.09)"/><path class="cls-6" d="M328.86,343.93c0,8.31-6.22,15-13.87,15s-13.89-6.72-13.89-15,6.21-15,13.89-15S328.86,335.65,328.86,343.93Z" transform="translate(-57.32 -225.09)"/><path class="cls-6" d="M324.68,317.5a12.24,12.24,0,0,0,.9-4.57c0-6.33-4.74-11.47-10.59-11.47s-10.61,5.14-10.61,11.47a12.24,12.24,0,0,0,.9,4.57Z" transform="translate(-57.32 -225.09)"/><rect class="cls-14" x="248.56" y="114.85" width="18.21" height="9.19"/><path class="cls-15" d="M341.71,364.81a3.29,3.29,0,0,1-.33-1.31l-3.31-58.74c0-2.42,3-4.38,6.65-4.38h32.56c3.64,0,6.67,2,6.67,4.38l-3.33,58.74a3.33,3.33,0,0,1-.35,1.31Z" transform="translate(-57.32 -225.09)"/><polygon class="cls-16" points="287.77 137.31 319.58 137.31 322.91 80.74 284.43 80.74 287.77 137.31"/><polygon class="cls-15" points="287.77 137.31 319.58 137.31 321.18 110.09 286.18 110.09 287.77 137.31"/><g class="cls-11"><path class="cls-15" d="M349,358.13a5,5,0,0,0,4.3-1.8c8.06-8.62,7.29-43.32,7.06-50.5h1.4c.27,7.56,1.05,42.48-7.47,51.61a6.44,6.44,0,0,1-4.79,2.26,3.55,3.55,0,0,1-.65,0,.72.72,0,0,1-.62-.84A.7.7,0,0,1,349,358.13Z" transform="translate(-57.32 -225.09)"/></g><rect class="cls-15" x="298.09" y="70.3" width="11.16" height="4.62"/><g class="cls-11"><rect class="cls-15" x="298.09" y="71.38" width="11.16" height="3.55"/></g><path class="cls-15" d="M367.26,296.47H354.72a10.49,10.49,0,0,1-2.78-7.25c0-5.56,4-10.05,9-10.05s9.09,4.49,9.09,10.05A10.51,10.51,0,0,1,367.26,296.47Z" transform="translate(-57.32 -225.09)"/><g class="cls-3"><path class="cls-15" d="M369.14,293.56H352.83a10.31,10.31,0,0,1-.72-2.46h17.76A9.11,9.11,0,0,1,369.14,293.56Z" transform="translate(-57.32 -225.09)"/></g><g class="cls-17"><rect class="cls-15" x="302.31" y="75.04" width="2.72" height="6.81"/></g><rect class="cls-2" x="99.75" width="29.99" height="140.57"/><g class="cls-3"><rect class="cls-4" x="99.75" width="29.99" height="41.07"/></g><rect class="cls-15" x="98.78" width="31.92" height="39.14"/><rect class="cls-6" x="98.78" y="41.11" width="31.92" height="99.5"/><rect class="cls-15" x="98.78" y="59.35" width="31.92" height="1.22"/><rect class="cls-15" x="98.78" y="56.72" width="31.92" height="1.22"/><rect class="cls-15" x="98.78" y="128.36" width="31.92" height="1.22"/><rect class="cls-15" x="98.78" y="125.74" width="31.92" height="1.21"/><rect class="cls-15" x="102.7" y="67.43" width="24.08" height="42.93"/><rect class="cls-7" x="109.13" y="4.86" width="11.22" height="18.93"/><g class="cls-3"><rect class="cls-8" x="113.29" y="17.85" width="2.9" height="5.94"/></g><path class="cls-6" d="M159.48,255.68a.86.86,0,0,1-.85-.86V239a.85.85,0,1,1,1.7,0v15.8A.86.86,0,0,1,159.48,255.68Z" transform="translate(-57.32 -225.09)"/><path class="cls-6" d="M159.48,236.59a.85.85,0,0,1-.85-.85v-5.6a.85.85,0,1,1,1.7,0v5.6A.85.85,0,0,1,159.48,236.59Z" transform="translate(-57.32 -225.09)"/><path class="cls-6" d="M159.21,280.11a.86.86,0,0,0,.85-.85v-9.38a.85.85,0,0,0-1.7,0v9.38A.86.86,0,0,0,159.21,280.11Z" transform="translate(-57.32 -225.09)"/><path class="cls-15" d="M91.73,319l1.7-47.31,5.69.2L97.41,319.2a42.77,42.77,0,0,1,1.43,9.6,4.62,4.62,0,1,1-9.23-.33A43.42,43.42,0,0,1,91.73,319Z" transform="translate(-57.32 -225.09)"/><path class="cls-15" d="M91.73,319l1.7-47.31,5.69.2L97.41,319.2a42.77,42.77,0,0,1,1.43,9.6,4.62,4.62,0,1,1-9.23-.33A43.42,43.42,0,0,1,91.73,319Z" transform="translate(-57.32 -225.09)"/><path class="cls-15" d="M90.31,328.49a42.48,42.48,0,0,1,2.07-9.25l0-.11,1.68-46.7,4.3.15-1.68,46.71,0,.11a43.68,43.68,0,0,1,1.4,9.37,3.93,3.93,0,1,1-7.84-.28Zm4.23-55.56-1.67,46.26-.06.22a43.36,43.36,0,0,0-2,9.1,3.47,3.47,0,1,0,6.92.25,42.13,42.13,0,0,0-1.38-9.22l0-.19,1.67-46.3Z" transform="translate(-57.32 -225.09)"/><rect class="cls-6" x="93.05" y="257.73" width="6.35" height="30.73" transform="translate(-237.47 134.34) rotate(-87.94)"/><rect class="cls-18" x="94.42" y="256.41" width="3.71" height="30.73" transform="translate(-236.11 133.12) rotate(-87.94)"/><polygon class="cls-15" points="55.27 43.38 55.19 45.41 54.97 51.75 54.15 51.72 54.38 45.38 23.67 44.27 23.44 50.62 22.62 50.59 22.85 44.24 22.93 42.22 55.27 43.38"/><path class="cls-15" d="M94.25,343.21l12.56-45.65,5.49,1.51L99.74,344.72a43.69,43.69,0,0,1-.82,9.67A4.63,4.63,0,1,1,90,351.94,43.27,43.27,0,0,1,94.25,343.21Z" transform="translate(-57.32 -225.09)"/><path class="cls-15" d="M94.25,343.21l12.56-45.65,5.49,1.51L99.74,344.72a43.69,43.69,0,0,1-.82,9.67A4.63,4.63,0,1,1,90,351.94,43.27,43.27,0,0,1,94.25,343.21Z" transform="translate(-57.32 -225.09)"/><path class="cls-15" d="M90.68,352.13a43.3,43.3,0,0,1,4.15-8.52l.07-.1,12.39-45.06,4.15,1.14L99,344.65v.12a43.7,43.7,0,0,1-.8,9.44,3.93,3.93,0,1,1-7.57-2.08ZM107.61,299,95.33,343.67l-.12.2a42.7,42.7,0,0,0-4.08,8.38,3.46,3.46,0,1,0,6.67,1.84,41.86,41.86,0,0,0,.78-9.3v-.19l12.3-44.67Z" transform="translate(-57.32 -225.09)"/><rect class="cls-6" x="106.04" y="284.22" width="6.35" height="30.73" transform="translate(-265.93 100.32) rotate(-74.62)"/><polygon class="cls-18" points="37.91 67.36 67.55 75.51 66.56 79.09 36.93 70.94 37.91 67.36"/><polygon class="cls-15" points="68.87 73.77 68.34 75.72 66.65 81.84 65.86 81.63 67.55 75.51 37.91 67.36 36.23 73.47 35.45 73.26 37.13 67.14 37.67 65.18 68.87 73.77"/><path class="cls-15" d="M93.65,330.18,76.46,286.06l-5.3,2.06,17.19,44.13a42.85,42.85,0,0,0,1.81,9.53,4.62,4.62,0,1,0,8.6-3.35A43.42,43.42,0,0,0,93.65,330.18Z" transform="translate(-57.32 -225.09)"/><path class="cls-15" d="M93.65,330.18,76.46,286.06l-5.3,2.06,17.19,44.13a42.85,42.85,0,0,0,1.81,9.53,4.62,4.62,0,1,0,8.6-3.35A43.42,43.42,0,0,0,93.65,330.18Z" transform="translate(-57.32 -225.09)"/><path class="cls-15" d="M96,344a4,4,0,0,1-5.16-2.43A43.69,43.69,0,0,1,89,332.22v-.12l-17-43.55,4-1.56,17,43.55.08.09a43.63,43.63,0,0,1,5,8.05A4,4,0,0,1,96,344ZM72.68,288.84,89.49,332l0,.19a42.53,42.53,0,0,0,1.72,9.16,3.47,3.47,0,1,0,6.46-2.51,42.6,42.6,0,0,0-4.93-7.92l-.13-.19-16.8-43.13Z" transform="translate(-57.32 -225.09)"/><rect class="cls-6" x="58.92" y="285.15" width="30.73" height="6.35" transform="translate(-156.92 -178.46) rotate(-21.29)"/><rect class="cls-18" x="58.45" y="285.24" width="30.73" height="3.71" transform="translate(-156.5 -178.71) rotate(-21.29)"/><polygon class="cls-15" points="0 64.25 0.74 66.14 3.04 72.06 3.8 71.76 1.5 65.85 30.13 54.69 32.44 60.6 33.2 60.31 30.9 54.39 30.16 52.5 0 64.25"/><polygon class="cls-5" points="36.87 91.83 32.01 91.83 15.4 91.83 22.52 141.75 32.01 141.75 36.87 141.75 46.35 141.75 53.47 91.83 36.87 91.83"/></g></g></svg>