<svg id="Livello_1" data-name="Livello 1" xmlns="http://www.w3.org/2000/svg" viewBox="0 0 194.17 202.86"><defs><style>.cls-1{fill:#ee744a;}.cls-2{fill:#fed375;}</style></defs><path class="cls-1" d="M353.58,210.66c0,4.92-41.49-4.27-40.19-8.92,4.66-16.88,9,0,20.07,0S353.58,205.74,353.58,210.66Z" transform="translate(-313.36 -162.69)"/><path class="cls-1" d="M353.58,204.55c0-4.86-41.49,4.27-40.19,8.93,4.66,16.86,9,0,20.07,0S353.58,209.53,353.58,204.55Z" transform="translate(-313.36 -162.69)"/><path class="cls-2" d="M411.23,209.25c0,25.74-18.76,46.57-41.91,46.57S327.41,235,327.41,209.25s18.76-46.56,41.91-46.56S411.23,183.56,411.23,209.25Z" transform="translate(-313.36 -162.69)"/><path class="cls-2" d="M507.44,255.82c-4.65,43.22-24.92,110.06-98.37,109.73-39.05-.1-70.69-29.74-70.69-66.51s31.69-66.48,70.69-66.48c21.57,0,38.4,13.26,53.87,23.47C486.19,271.34,509.18,239.54,507.44,255.82Z" transform="translate(-313.36 -162.69)"/><path class="cls-1" d="M463.85,268.42c-2.49,23.47-13.51,59.66-53.32,59.49-21.1-.1-38.29-16.12-38.29-36.08s17.19-36,38.29-36c11.73,0,20.82,7.2,29.21,12.71C452.34,276.86,464.77,259.65,463.85,268.42Z" transform="translate(-313.36 -162.69)"/><path class="cls-1" d="M365,203.14a4.19,4.19,0,1,1-4.12-4.6A4.39,4.39,0,0,1,365,203.14Z" transform="translate(-313.36 -162.69)"/></svg>