<?xml version="1.0" encoding="utf-8"?>
<!-- Generator: Adobe Illustrator 25.0.0, SVG Export Plug-In . SVG Version: 6.00 Build 0)  -->
<svg version="1.1" id="Livello_1" xmlns="http://www.w3.org/2000/svg" xmlns:xlink="http://www.w3.org/1999/xlink" x="0px" y="0px"
	 viewBox="0 0 841.9 595.3" style="enable-background:new 0 0 841.9 595.3;" xml:space="preserve">
<style type="text/css">
	.st0{fill:#D1408F;}
	.st1{fill:#F4D552;}
</style>
<g>
	<rect x="402.3" y="288.2" class="st0" width="28.2" height="28.2"/>
	<rect x="432.6" y="288.2" class="st0" width="28.2" height="28.2"/>
	<g>
		<path class="st1" d="M412.6,293C412.7,293,412.7,293,412.6,293c0.4-0.2,0.9-0.5,1.2-0.6c1.9-1,3.8-2,5.8-3.1
			c1.1-0.6,2.2-1.2,3.3-1.8c0.1-0.1,0.2-0.1,0.3-0.2c0.6-0.3,1.3-0.7,1.9-1c0.3-0.2,0.5-0.3,0.8-0.4c0,0,0.1,0,0.1-0.1c0,0,0,0,0,0
			c0,0,0,0,0,0c0,0,0-0.1-0.1-0.2c0-0.1,0-0.1,0-0.2c0,0,0,0,0-0.1c0-0.1,0-0.2-0.1-0.2c-0.3-0.6-0.5-1.2-0.8-1.7
			c-0.2-0.4-0.4-0.8-0.6-1.1c-0.2-0.4-0.4-0.7-0.6-1.1c0,0,0,0-0.1,0c0,0,0,0,0,0c0,0-0.1,0-0.1,0.1c-0.3,0.2-0.6,0.3-1,0.5
			c-0.6,0.3-1.3,0.7-1.9,1c-0.1,0.1-0.2,0.1-0.3,0.2c-1.1,0.6-2.2,1.2-3.3,1.8c-1.9,1-3.8,2-5.8,3.1c-0.3,0.2-0.3,0.2-0.6,0.3
			c0,0-0.2,0.1-0.2,0.1c0.2,0.4,0.3,0.8,0.5,1.1c0.2,0.4,0.3,0.8,0.5,1.2c0.3,0.6,0.5,1.2,0.8,1.7c0,0.1,0.1,0.1,0.1,0.2
			c0,0,0,0,0,0.1c0,0.1,0,0.1,0,0.2C412.6,292.9,412.6,292.9,412.6,293z"/>
	</g>
	<g>
		<path class="st1" d="M439.1,290.4C439.1,290.4,439.1,290.4,439.1,290.4c0.4,0,1-0.1,1.4-0.1c2.2-0.2,4.3-0.4,6.5-0.6
			c1.2-0.1,2.5-0.2,3.7-0.4c0.1,0,0.2,0,0.4,0c0.7-0.1,1.4-0.1,2.2-0.2c0.4,0,0.6-0.1,0.9-0.1c0,0,0.1,0,0.1,0c0,0,0,0,0,0
			c0,0,0,0,0.1,0c0-0.1,0-0.1,0-0.2c0-0.1,0-0.1,0-0.2c0,0,0,0,0-0.1c0-0.1,0-0.2,0-0.2c-0.1-0.6,0-1.3-0.1-1.9
			c0-0.4-0.1-0.9-0.1-1.3c0-0.4-0.1-0.8-0.1-1.2c0,0,0,0-0.1,0c0,0,0,0,0,0c-0.1,0-0.1,0-0.2,0c-0.4,0-0.7,0.1-1.1,0.1
			c-0.7,0.1-1.4,0.1-2.2,0.2c-0.1,0-0.2,0-0.4,0c-1.2,0.1-2.5,0.2-3.7,0.4c-2.2,0.2-4.3,0.4-6.5,0.6c-0.3,0-0.3,0-0.6,0.1
			c0,0-0.3,0-0.3,0c0,0.4,0,0.8,0,1.2c0,0.4,0,0.9,0,1.3c0.1,0.6,0,1.3,0.1,1.9c0,0.1,0,0.2,0,0.2c0,0,0,0,0,0.1c0,0.1,0,0.1,0,0.2
			C439.1,290.3,439.1,290.3,439.1,290.4z"/>
	</g>
</g>
</svg>
