<?xml version="1.0" encoding="utf-8"?>
<!-- Generator: Adobe Illustrator 25.0.0, SVG Export Plug-In . SVG Version: 6.00 Build 0)  -->
<svg version="1.1" id="Livello_1" xmlns="http://www.w3.org/2000/svg" xmlns:xlink="http://www.w3.org/1999/xlink" x="0px" y="0px"
	 viewBox="0 0 841.9 595.3" style="enable-background:new 0 0 841.9 595.3;" xml:space="preserve">
<style type="text/css">
	.st0{fill:#CCD73D;}
	.st1{fill:#F4D552;}
</style>
<rect x="417.4" y="302.1" class="st0" width="28.2" height="28.2"/>
<path class="st0" d="M442,300.1h-24.6v-28.2h28.2v24.6C445.7,298.5,444,300.1,442,300.1z"/>
<g>
	<path class="st1" d="M424.3,273.9C424.3,273.9,424.4,273.9,424.3,273.9c0.4,0,1-0.1,1.4-0.1c2.2-0.2,4.3-0.4,6.5-0.6
		c1.2-0.1,2.5-0.2,3.7-0.4c0.1,0,0.2,0,0.4,0c0.7-0.1,1.4-0.1,2.2-0.2c0.4,0,0.6-0.1,0.9-0.1c0,0,0.1,0,0.1,0c0,0,0,0,0,0
		c0,0,0,0,0.1,0c0-0.1,0-0.1,0-0.2c0-0.1,0-0.1,0-0.2c0,0,0,0,0-0.1c0-0.1,0-0.2,0-0.2c-0.1-0.6,0-1.3-0.1-1.9
		c0-0.4-0.1-0.9-0.1-1.3c0-0.4-0.1-0.8-0.1-1.2c0,0,0,0-0.1,0c0,0,0,0,0,0c-0.1,0-0.1,0-0.2,0c-0.4,0-0.7,0.1-1.1,0.1
		c-0.7,0.1-1.4,0.1-2.2,0.2c-0.1,0-0.2,0-0.4,0c-1.2,0.1-2.5,0.2-3.7,0.4c-2.2,0.2-4.3,0.4-6.5,0.6c-0.3,0-0.3,0-0.6,0.1
		c0,0-0.3,0-0.3,0c0,0.4,0,0.8,0,1.2c0,0.4,0,0.9,0,1.3c0.1,0.6,0,1.3,0.1,1.9c0,0.1,0,0.2,0,0.2c0,0,0,0,0,0.1c0,0.1,0,0.1,0,0.2
		C424.3,273.8,424.3,273.8,424.3,273.9z"/>
</g>
<g>
	<path class="st1" d="M425.5,303.9C425.5,303.9,425.5,303.9,425.5,303.9c0.4,0,1-0.1,1.4-0.1c2.2-0.2,4.3-0.4,6.5-0.6
		c1.2-0.1,2.5-0.2,3.7-0.4c0.1,0,0.2,0,0.4,0c0.7-0.1,1.4-0.1,2.2-0.2c0.4,0,0.6-0.1,0.9-0.1c0,0,0.1,0,0.1,0c0,0,0,0,0,0
		c0,0,0,0,0.1,0c0-0.1,0-0.1,0-0.2c0-0.1,0-0.1,0-0.2c0,0,0,0,0-0.1c0-0.1,0-0.2,0-0.2c-0.1-0.6,0-1.3-0.1-1.9
		c0-0.4-0.1-0.9-0.1-1.3c0-0.4-0.1-0.8-0.1-1.2c0,0,0,0-0.1,0c0,0,0,0,0,0c-0.1,0-0.1,0-0.2,0c-0.4,0-0.7,0.1-1.1,0.1
		c-0.7,0.1-1.4,0.1-2.2,0.2c-0.1,0-0.2,0-0.4,0c-1.2,0.1-2.5,0.2-3.7,0.4c-2.2,0.2-4.3,0.4-6.5,0.6c-0.3,0-0.3,0-0.6,0.1
		c0,0-0.3,0-0.3,0c0,0.4,0,0.8,0,1.2c0,0.4,0,0.9,0,1.3c0.1,0.6,0,1.3,0.1,1.9c0,0.1,0,0.2,0,0.2c0,0,0,0,0,0.1c0,0.1,0,0.1,0,0.2
		C425.5,303.8,425.5,303.9,425.5,303.9z"/>
</g>
</svg>
