<?xml version="1.0" encoding="utf-8"?>
<!-- Generator: Adobe Illustrator 25.0.0, SVG Export Plug-In . SVG Version: 6.00 Build 0)  -->
<svg version="1.1" id="Livello_1" xmlns="http://www.w3.org/2000/svg" xmlns:xlink="http://www.w3.org/1999/xlink" x="0px" y="0px"
	 viewBox="0 0 841.9 595.3" style="enable-background:new 0 0 841.9 595.3;" xml:space="preserve">
<style type="text/css">
	.st0{fill:#898888;}
	.st1{fill:#F4D552;}
</style>
<rect x="417.4" y="288.6" class="st0" width="28.2" height="28.2"/>
<path class="st1" d="M423.9,284.7C423.9,284.7,424,284.7,423.9,284.7c0.3,0.2,0.8,0.6,1.1,0.8c1.8,1.3,3.5,2.6,5.3,3.9
	c1,0.7,2,1.5,3,2.2c0.1,0.1,0.2,0.1,0.3,0.2c0.6,0.4,1.2,0.9,1.7,1.3c0.3,0.2,0.5,0.3,0.7,0.5c0,0,0.1,0.1,0.1,0.1c0,0,0,0,0,0
	c0,0,0,0,0,0c0,0,0.1-0.1,0.1-0.1c0,0,0.1-0.1,0.1-0.1c0,0,0,0,0.1,0c0.1-0.1,0.1-0.1,0.2-0.2c0.4-0.5,0.8-1,1.2-1.5
	c0.3-0.3,0.5-0.7,0.8-1c0.2-0.3,0.5-0.7,0.7-1c0,0,0,0,0,0c0,0,0,0,0,0c0,0-0.1-0.1-0.1-0.1c-0.3-0.2-0.6-0.4-0.9-0.6
	c-0.6-0.4-1.2-0.9-1.7-1.3c-0.1-0.1-0.2-0.1-0.3-0.2c-1-0.7-2-1.5-3-2.2c-1.8-1.3-3.5-2.6-5.3-3.9c-0.3-0.2-0.3-0.2-0.5-0.4
	c0,0-0.2-0.2-0.2-0.2c-0.2,0.3-0.6,0.6-0.8,0.9c-0.3,0.3-0.6,0.6-0.9,1c-0.4,0.5-0.8,1-1.2,1.5c0,0.1-0.1,0.1-0.2,0.2c0,0,0,0-0.1,0
	c0,0-0.1,0.1-0.1,0.1C424,284.6,424,284.7,423.9,284.7z"/>
</svg>
