<?xml version="1.0" encoding="UTF-8" standalone="no"?>
<svg
   xmlns:dc="http://purl.org/dc/elements/1.1/"
   xmlns:cc="http://creativecommons.org/ns#"
   xmlns:rdf="http://www.w3.org/1999/02/22-rdf-syntax-ns#"
   xmlns:svg="http://www.w3.org/2000/svg"
   xmlns="http://www.w3.org/2000/svg"
   viewBox="0 0 1122.52 793.70135"
   height="793.70135"
   width="1122.52"
   xml:space="preserve"
   id="svg2"
   version="1.1"><metadata
     id="metadata8"><rdf:RDF><cc:Work
         rdf:about=""><dc:format>image/svg+xml</dc:format><dc:type
           rdf:resource="http://purl.org/dc/dcmitype/StillImage" /></cc:Work></rdf:RDF></metadata><defs
     id="defs6"><clipPath
       id="clipPath52"
       clipPathUnits="userSpaceOnUse"><path
         id="path50"
         d="M 0,595.276 H 841.89 V 0 H 0 Z" /></clipPath></defs><g
     transform="matrix(1.3333333,0,0,-1.3333333,0,793.70133)"
     id="g10"><path
       id="path12"
       style="fill:#f8bfa9;fill-opacity:1;fill-rule:nonzero;stroke:none"
       d="M 281.874,223.781 H 44.519 v 129.006 h 237.355 z" /><path
       id="path14"
       style="fill:#d6ecef;fill-opacity:1;fill-rule:nonzero;stroke:none"
       d="m 65.708,215.674 h -1.133 v 137.114 h 1.133 z" /><path
       id="path16"
       style="fill:#d6ecef;fill-opacity:1;fill-rule:nonzero;stroke:none"
       d="m 87.498,215.674 h -1.133 v 137.114 h 1.133 z" /><path
       id="path18"
       style="fill:#d6ecef;fill-opacity:1;fill-rule:nonzero;stroke:none"
       d="m 109.288,215.674 h -1.133 v 137.114 h 1.133 z" /><path
       id="path20"
       style="fill:#d6ecef;fill-opacity:1;fill-rule:nonzero;stroke:none"
       d="m 131.077,215.674 h -1.133 v 137.114 h 1.133 z" /><path
       id="path22"
       style="fill:#d6ecef;fill-opacity:1;fill-rule:nonzero;stroke:none"
       d="m 152.867,215.674 h -1.133 v 137.114 h 1.133 z" /><path
       id="path24"
       style="fill:#d6ecef;fill-opacity:1;fill-rule:nonzero;stroke:none"
       d="m 174.657,215.674 h -1.133 v 137.114 h 1.133 z" /><path
       id="path26"
       style="fill:#d6ecef;fill-opacity:1;fill-rule:nonzero;stroke:none"
       d="m 196.447,215.674 h -1.133 v 137.114 h 1.133 z" /><path
       id="path28"
       style="fill:#d6ecef;fill-opacity:1;fill-rule:nonzero;stroke:none"
       d="m 218.237,215.674 h -1.132 v 137.114 h 1.132 z" /><path
       id="path30"
       style="fill:#d6ecef;fill-opacity:1;fill-rule:nonzero;stroke:none"
       d="m 240.027,215.674 h -1.133 v 137.114 h 1.133 z" /><path
       id="path32"
       style="fill:#d6ecef;fill-opacity:1;fill-rule:nonzero;stroke:none"
       d="m 261.817,215.674 h -1.133 v 137.114 h 1.133 z" /><path
       id="path34"
       style="fill:#d6ecef;fill-opacity:1;fill-rule:nonzero;stroke:none"
       d="m 44.518,332.731 h 237.355 v -1.133 H 44.518 Z" /><path
       id="path36"
       style="fill:#d6ecef;fill-opacity:1;fill-rule:nonzero;stroke:none"
       d="m 44.518,310.941 h 237.355 v -1.133 H 44.518 Z" /><path
       id="path38"
       style="fill:#d6ecef;fill-opacity:1;fill-rule:nonzero;stroke:none"
       d="m 44.518,289.152 h 237.355 v -1.133 H 44.518 Z" /><path
       id="path40"
       style="fill:#d6ecef;fill-opacity:1;fill-rule:nonzero;stroke:none"
       d="m 44.518,267.362 h 237.355 v -1.133 H 44.518 Z" /><path
       id="path42"
       style="fill:#d6ecef;fill-opacity:1;fill-rule:nonzero;stroke:none"
       d="m 44.518,245.571 h 237.355 v -1.133 H 44.518 Z" /><path
       id="path44"
       style="fill:#d6ecef;fill-opacity:1;fill-rule:nonzero;stroke:none"
       d="m 44.518,223.781 h 237.355 v -1.133 H 44.518 Z" /><g
       id="g46"><g
         clip-path="url(#clipPath52)"
         id="g48"><g
           transform="translate(110.6802,264.2687)"
           id="g54"><path
             id="path56"
             style="fill:#2f2d2e;fill-opacity:1;fill-rule:nonzero;stroke:none"
             d="M 0,0 C -0.054,0 -0.054,-0.084 0,-0.084 0.054,-0.084 0.054,0 0,0" /></g></g></g></g></svg>