<?xml version="1.0" encoding="UTF-8" standalone="no"?>
<svg
   xmlns:dc="http://purl.org/dc/elements/1.1/"
   xmlns:cc="http://creativecommons.org/ns#"
   xmlns:rdf="http://www.w3.org/1999/02/22-rdf-syntax-ns#"
   xmlns:svg="http://www.w3.org/2000/svg"
   xmlns="http://www.w3.org/2000/svg"
   viewBox="0 0 1122.52 793.70135"
   height="793.70135"
   width="1122.52"
   xml:space="preserve"
   id="svg2"
   version="1.1"><metadata
     id="metadata8"><rdf:RDF><cc:Work
         rdf:about=""><dc:format>image/svg+xml</dc:format><dc:type
           rdf:resource="http://purl.org/dc/dcmitype/StillImage" /></cc:Work></rdf:RDF></metadata><defs
     id="defs6"><clipPath
       id="clipPath20"
       clipPathUnits="userSpaceOnUse"><path
         id="path18"
         d="M 0,595.276 H 841.89 V 0 H 0 Z" /></clipPath><clipPath
       id="clipPath28"
       clipPathUnits="userSpaceOnUse"><path
         id="path26"
         d="m 358.963,569.193 h 257.44 V 429.591 h -257.44 z" /></clipPath></defs><g
     transform="matrix(1.3333333,0,0,-1.3333333,0,793.70133)"
     id="g10"><path
       id="path12"
       style="fill:#a6d2ac;fill-opacity:1;fill-rule:nonzero;stroke:none"
       d="M 616.402,429.591 H 358.963 v 139.602 h 257.439 z" /><g
       id="g14"><g
         clip-path="url(#clipPath20)"
         id="g16"><g
           id="g22"><g
             id="g24" /><g
             id="g34"><g
               style="opacity:0.80000299"
               id="g32"
               clip-path="url(#clipPath28)"><path
                 id="path30"
                 style="fill:#ffffff;fill-opacity:1;fill-rule:nonzero;stroke:none"
                 d="m 603.53,553.681 h -12.358 v 14.89 h 12.358 z m 0,-15.512 h -12.358 v 14.893 h 12.358 z m 0,-15.508 h -12.358 v 14.887 h 12.358 z m 0,-15.515 h -12.358 v 14.893 h 12.358 z m 0,-15.509 h -12.358 v 14.89 h 12.358 z m 0,-15.511 h -12.358 v 14.89 h 12.358 z m 0,-15.512 h -12.358 v 14.89 h 12.358 z m 0,-15.511 h -12.358 v 14.89 h 12.358 z m -25.23,14.889 h 12.359 v -14.89 H 578.3 Z m -12.872,0 h 12.359 v -14.89 h -12.359 z m -12.872,0 h 12.359 v -14.89 h -12.359 z m -12.872,0 h 12.359 v -14.89 h -12.359 z m -12.872,0 h 12.359 v -14.89 h -12.359 z m -12.873,0 h 12.359 v -14.89 h -12.359 z m -12.872,0 h 12.359 v -14.89 h -12.359 z m -12.869,0 h 12.356 v -14.89 h -12.356 z m -12.872,0 h 12.356 v -14.89 h -12.356 z m -12.872,0 h 12.356 v -14.89 h -12.356 z m -12.872,0 h 12.356 v -14.89 h -12.356 z m -12.872,0 h 12.357 v -14.89 H 436.71 Z m -12.872,0 h 12.357 v -14.89 h -12.357 z m -12.872,0 h 12.357 v -14.89 h -12.357 z m -12.872,0 h 12.357 v -14.89 h -12.357 z m -12.872,0 h 12.357 v -14.89 h -12.357 z m -12.871,0 h 12.356 v -14.89 h -12.356 z m -12.872,0 h 12.356 v -14.89 h -12.356 z m 0,15.512 h 12.356 v -14.89 h -12.356 z m 0,15.511 h 12.356 v -14.89 h -12.356 z m 0,15.512 h 12.356 v -14.89 h -12.356 z m 0,15.512 h 12.356 v -14.893 h -12.356 z m 0,15.509 h 12.356 v -14.887 h -12.356 z m 0,15.514 h 12.356 v -14.893 h -12.356 z m 0,15.509 h 12.356 v -14.89 h -12.356 z m 25.228,-14.89 h -12.356 v 14.89 h 12.356 z m 12.872,0 h -12.357 v 14.89 h 12.357 z m 12.872,0 h -12.357 v 14.89 h 12.357 z m 12.872,0 h -12.357 v 14.89 h 12.357 z m 12.872,0 h -12.357 v 14.89 h 12.357 z m 12.872,0 H 436.71 v 14.89 h 12.357 z m 12.871,0 h -12.356 v 14.89 h 12.356 z m 12.873,0 h -12.356 v 14.89 h 12.356 z m 12.872,0 h -12.356 v 14.89 h 12.356 z m 12.872,0 h -12.356 v 14.89 h 12.356 z m 12.872,0 h -12.359 v 14.89 h 12.359 z m 12.872,0 H 513.94 v 14.89 h 12.359 z m 12.872,0 h -12.359 v 14.89 h 12.359 z m 12.872,0 h -12.359 v 14.89 h 12.359 z m 12.872,0 h -12.359 v 14.89 h 12.359 z m 12.872,0 h -12.359 v 14.89 h 12.359 z m 0.513,-0.619 h 12.359 V 538.169 H 578.3 Z m 0,-15.514 h 12.359 V 522.661 H 578.3 Z m 0,-15.509 h 12.359 V 507.146 H 578.3 Z m 0,-15.512 h 12.359 v -14.89 H 578.3 Z m 0,-15.512 h 12.359 v -14.89 H 578.3 Z m 0,-15.511 h 12.359 v -14.89 H 578.3 Z m -12.872,0 h 12.359 v -14.89 h -12.359 z m -12.872,0 h 12.359 v -14.89 h -12.359 z m -12.872,0 h 12.359 v -14.89 h -12.359 z m -12.872,0 h 12.359 v -14.89 h -12.359 z m -12.873,0 h 12.359 v -14.89 h -12.359 z m -12.872,0 h 12.359 v -14.89 h -12.359 z m -12.869,0 h 12.356 v -14.89 h -12.356 z m -12.872,0 h 12.356 v -14.89 h -12.356 z m -12.872,0 h 12.356 v -14.89 h -12.356 z m -12.872,0 h 12.356 v -14.89 h -12.356 z m -12.872,0 h 12.357 v -14.89 H 436.71 Z m -12.872,0 h 12.357 v -14.89 h -12.357 z m -12.872,0 h 12.357 v -14.89 h -12.357 z m -12.872,0 h 12.357 v -14.89 h -12.357 z m -12.872,0 h 12.357 v -14.89 h -12.357 z m -0.515,-14.89 h -12.356 v 14.89 h 12.356 z m 0,15.512 h -12.356 v 14.89 h 12.356 z m 0,15.511 h -12.356 v 14.89 h 12.356 z m 0,15.509 h -12.356 v 14.893 h 12.356 z m 0,15.515 h -12.356 v 14.887 h 12.356 z m 0,15.508 h -12.356 v 14.893 h 12.356 z m 12.872,0 h -12.357 v 14.893 h 12.357 z m 12.872,0 h -12.357 v 14.893 h 12.357 z m 12.872,0 h -12.357 v 14.893 h 12.357 z m 12.872,0 h -12.357 v 14.893 h 12.357 z m 12.872,0 H 436.71 v 14.893 h 12.357 z m 12.871,0 h -12.356 v 14.893 h 12.356 z m 12.873,0 h -12.356 v 14.893 h 12.356 z m 12.872,0 h -12.356 v 14.893 h 12.356 z m 12.872,0 h -12.356 v 14.893 h 12.356 z m 12.872,0 h -12.359 v 14.893 h 12.359 z m 12.872,0 H 513.94 v 14.893 h 12.359 z m 12.872,0 h -12.359 v 14.893 h 12.359 z m 12.872,0 h -12.359 v 14.893 h 12.359 z m 12.872,0 h -12.359 v 14.893 h 12.359 z m 0.513,14.893 h 12.359 v -14.893 h -12.359 z m 0,-15.514 h 12.359 v -14.887 h -12.359 z m 0,-15.509 h 12.359 v -14.893 h -12.359 z m 0,-15.512 h 12.359 v -14.89 h -12.359 z m 0,-15.512 h 12.359 v -14.89 h -12.359 z m -12.872,0 h 12.359 v -14.89 h -12.359 z m -12.872,0 h 12.359 v -14.89 h -12.359 z m -12.872,0 h 12.359 v -14.89 h -12.359 z m -12.873,0 h 12.359 v -14.89 h -12.359 z m -12.872,0 h 12.359 v -14.89 h -12.359 z m -12.869,0 h 12.356 v -14.89 h -12.356 z m -12.872,0 h 12.356 v -14.89 h -12.356 z m -12.872,0 h 12.356 v -14.89 h -12.356 z m -12.872,0 h 12.356 v -14.89 h -12.356 z m -12.872,0 h 12.357 v -14.89 H 436.71 Z m -12.872,0 h 12.357 v -14.89 h -12.357 z m -12.872,0 h 12.357 v -14.89 h -12.357 z m -12.872,0 h 12.357 v -14.89 h -12.357 z m -0.515,-14.889 h -12.357 v 14.89 h 12.357 z m 0,15.511 h -12.357 v 14.89 h 12.357 z m 0,15.509 h -12.357 v 14.893 h 12.357 z m 0,15.515 h -12.357 v 14.887 h 12.357 z m 12.872,0 h -12.357 v 14.887 h 12.357 z m 12.872,0 h -12.357 v 14.887 h 12.357 z m 12.872,0 h -12.357 v 14.887 h 12.357 z m 12.872,0 H 436.71 v 14.887 h 12.357 z m 12.871,0 h -12.356 v 14.887 h 12.356 z m 12.873,0 h -12.356 v 14.887 h 12.356 z m 12.872,0 h -12.356 v 14.887 h 12.356 z m 12.872,0 h -12.356 v 14.887 h 12.356 z m 12.872,0 h -12.359 v 14.887 h 12.359 z m 12.872,0 H 513.94 v 14.887 h 12.359 z m 12.872,0 h -12.359 v 14.887 h 12.359 z m 12.872,0 h -12.359 v 14.887 h 12.359 z m 0.513,14.887 h 12.359 v -14.887 h -12.359 z m 0,-15.509 h 12.359 v -14.893 h -12.359 z m 0,-15.512 h 12.359 v -14.89 h -12.359 z m -12.872,0 h 12.359 v -14.89 h -12.359 z m -12.872,0 h 12.359 v -14.89 h -12.359 z m -12.873,0 h 12.359 v -14.89 h -12.359 z m -12.872,0 h 12.359 v -14.89 h -12.359 z m -12.869,0 h 12.356 v -14.89 h -12.356 z m -12.872,0 h 12.356 v -14.89 h -12.356 z m -12.872,0 h 12.356 v -14.89 h -12.356 z m -12.872,0 h 12.356 v -14.89 h -12.356 z m -12.872,0 h 12.357 v -14.89 H 436.71 Z m -12.872,0 h 12.357 v -14.89 h -12.357 z m -12.872,0 h 12.357 v -14.89 h -12.357 z m -0.515,-14.89 h -12.357 v 14.89 h 12.357 z m 0,15.509 h -12.357 v 14.893 h 12.357 z m 12.872,0 h -12.357 v 14.893 h 12.357 z m 12.872,0 h -12.357 v 14.893 h 12.357 z m 12.872,0 H 436.71 v 14.893 h 12.357 z m 12.871,0 h -12.356 v 14.893 h 12.356 z m 12.873,0 h -12.356 v 14.893 h 12.356 z m 12.872,0 h -12.356 v 14.893 h 12.356 z m 12.872,0 h -12.356 v 14.893 h 12.356 z m 12.872,0 h -12.359 v 14.893 h 12.359 z m 12.872,0 H 513.94 v 14.893 h 12.359 z m 13.385,14.893 h 12.359 v -14.893 h -12.359 z m -0.513,-14.893 h -12.359 v 14.893 h 12.359 z m 51.488,46.535 H 578.3 v 14.89 h 12.359 z m 25.743,14.89 v 0.622 h -12.358 -0.514 -12.358 -0.513 -12.359 -0.513 -12.359 -0.513 -12.359 -0.513 -12.359 -0.513 -12.359 -0.513 -12.36 -0.512 -12.36 -0.512 -12.357 -0.515 -12.357 -0.515 -12.357 -0.516 -12.356 -0.515 -12.357 -0.515 -12.357 -0.515 -12.357 -0.515 -12.357 -0.515 -12.357 -0.515 -12.356 -0.516 -12.356 -0.516 v -0.622 -14.89 -0.619 -14.893 -0.621 -14.887 -0.622 -14.893 -0.619 -14.89 -0.622 -14.889 -0.622 -14.89 -0.622 -14.889 -0.622 -14.89 h 0.516 v 14.89 h 12.356 v -14.89 h 0.516 v 14.89 h 12.356 v -14.89 h 0.515 v 14.89 h 12.357 v -14.89 h 0.515 v 14.89 h 12.357 v -14.89 h 0.515 v 14.89 h 12.357 v -14.89 h 0.515 v 14.89 h 12.357 v -14.89 h 0.515 v 14.89 h 12.357 v -14.89 h 0.515 v 14.89 h 12.356 v -14.89 h 0.516 v 14.89 h 12.357 v -14.89 h 0.515 v 14.89 h 12.357 v -14.89 h 0.515 v 14.89 h 12.357 v -14.89 h 0.512 v 14.89 h 12.36 v -14.89 h 0.512 v 14.89 h 12.36 v -14.89 h 0.513 v 14.89 h 12.359 v -14.89 h 0.513 v 14.89 h 12.359 v -14.89 h 0.513 v 14.89 h 12.359 v -14.89 h 0.513 v 14.89 h 12.359 v -14.89 h 0.513 v 14.89 h 12.359 v -14.89 h 0.513 v 14.89 h 12.358 v -14.89 h 0.514 v 14.89 h 12.358 v 0.622 h -12.358 v 14.889 h 12.358 v 0.622 h -12.358 v 14.89 h 12.358 v 0.622 h -12.358 v 14.889 h 12.358 v 0.622 h -12.358 v 14.89 h 12.358 v 0.619 h -12.358 v 14.893 h 12.358 v 0.622 h -12.358 v 14.887 h 12.358 v 0.621 h -12.358 v 14.893 h 12.358 v 0.619 h -12.358 v 14.89 z" /></g></g></g></g></g></g></svg>