<?xml version="1.0" encoding="UTF-8" standalone="no"?>
<svg
   xmlns:dc="http://purl.org/dc/elements/1.1/"
   xmlns:cc="http://creativecommons.org/ns#"
   xmlns:rdf="http://www.w3.org/1999/02/22-rdf-syntax-ns#"
   xmlns:svg="http://www.w3.org/2000/svg"
   xmlns="http://www.w3.org/2000/svg"
   viewBox="0 0 1122.52 793.70135"
   height="793.70135"
   width="1122.52"
   xml:space="preserve"
   id="svg2"
   version="1.1"><metadata
     id="metadata8"><rdf:RDF><cc:Work
         rdf:about=""><dc:format>image/svg+xml</dc:format><dc:type
           rdf:resource="http://purl.org/dc/dcmitype/StillImage" /></cc:Work></rdf:RDF></metadata><defs
     id="defs6" /><g
     transform="matrix(1.3333333,0,0,-1.3333333,0,793.70133)"
     id="g10"><path
       id="path12"
       style="fill:#b0dce2;fill-opacity:1;fill-rule:nonzero;stroke:none"
       d="M 283.481,434.517 H 46.125 v 129.006 h 237.356 z" /><path
       id="path14"
       style="fill:#d6ecef;fill-opacity:1;fill-rule:nonzero;stroke:none"
       d="m 67.315,426.41 h -1.133 v 137.113 h 1.133 z" /><path
       id="path16"
       style="fill:#d6ecef;fill-opacity:1;fill-rule:nonzero;stroke:none"
       d="m 89.104,426.41 h -1.133 v 137.113 h 1.133 z" /><path
       id="path18"
       style="fill:#d6ecef;fill-opacity:1;fill-rule:nonzero;stroke:none"
       d="m 110.895,426.41 h -1.133 v 137.113 h 1.133 z" /><path
       id="path20"
       style="fill:#d6ecef;fill-opacity:1;fill-rule:nonzero;stroke:none"
       d="m 132.685,426.41 h -1.133 v 137.113 h 1.133 z" /><path
       id="path22"
       style="fill:#d6ecef;fill-opacity:1;fill-rule:nonzero;stroke:none"
       d="m 154.475,426.41 h -1.133 v 137.113 h 1.133 z" /><path
       id="path24"
       style="fill:#d6ecef;fill-opacity:1;fill-rule:nonzero;stroke:none"
       d="m 176.264,426.41 h -1.132 v 137.113 h 1.132 z" /><path
       id="path26"
       style="fill:#d6ecef;fill-opacity:1;fill-rule:nonzero;stroke:none"
       d="m 198.054,426.41 h -1.133 v 137.113 h 1.133 z" /><path
       id="path28"
       style="fill:#d6ecef;fill-opacity:1;fill-rule:nonzero;stroke:none"
       d="m 219.844,426.41 h -1.133 v 137.113 h 1.133 z" /><path
       id="path30"
       style="fill:#d6ecef;fill-opacity:1;fill-rule:nonzero;stroke:none"
       d="m 241.634,426.41 h -1.133 v 137.113 h 1.133 z" /><path
       id="path32"
       style="fill:#d6ecef;fill-opacity:1;fill-rule:nonzero;stroke:none"
       d="m 263.424,426.41 h -1.133 v 137.113 h 1.133 z" /><path
       id="path34"
       style="fill:#d6ecef;fill-opacity:1;fill-rule:nonzero;stroke:none"
       d="m 46.125,543.467 h 237.356 v -1.133 H 46.125 Z" /><path
       id="path36"
       style="fill:#d6ecef;fill-opacity:1;fill-rule:nonzero;stroke:none"
       d="m 46.125,521.677 h 237.356 v -1.133 H 46.125 Z" /><path
       id="path38"
       style="fill:#d6ecef;fill-opacity:1;fill-rule:nonzero;stroke:none"
       d="m 46.125,499.887 h 237.356 v -1.133 H 46.125 Z" /><path
       id="path40"
       style="fill:#d6ecef;fill-opacity:1;fill-rule:nonzero;stroke:none"
       d="m 46.125,478.097 h 237.356 v -1.133 H 46.125 Z" /><path
       id="path42"
       style="fill:#d6ecef;fill-opacity:1;fill-rule:nonzero;stroke:none"
       d="m 46.125,456.307 h 237.356 v -1.133 H 46.125 Z" /><path
       id="path44"
       style="fill:#d6ecef;fill-opacity:1;fill-rule:nonzero;stroke:none"
       d="m 46.125,434.517 h 237.356 v -1.133 H 46.125 Z" /></g></svg>