<?xml version="1.0" encoding="UTF-8" standalone="no"?>
<svg
   xmlns:dc="http://purl.org/dc/elements/1.1/"
   xmlns:cc="http://creativecommons.org/ns#"
   xmlns:rdf="http://www.w3.org/1999/02/22-rdf-syntax-ns#"
   xmlns:svg="http://www.w3.org/2000/svg"
   xmlns="http://www.w3.org/2000/svg"
   viewBox="0 0 1122.52 793.70135"
   height="793.70135"
   width="1122.52"
   xml:space="preserve"
   id="svg2"
   version="1.1"><metadata
     id="metadata8"><rdf:RDF><cc:Work
         rdf:about=""><dc:format>image/svg+xml</dc:format><dc:type
           rdf:resource="http://purl.org/dc/dcmitype/StillImage" /></cc:Work></rdf:RDF></metadata><defs
     id="defs6"><clipPath
       id="clipPath20"
       clipPathUnits="userSpaceOnUse"><path
         id="path18"
         d="M 0,595.276 H 841.89 V 0 H 0 Z" /></clipPath><clipPath
       id="clipPath28"
       clipPathUnits="userSpaceOnUse"><path
         id="path26"
         d="m 355.827,370.848 h 289.31 V 213.964 h -289.31 z" /></clipPath></defs><g
     transform="matrix(1.3333333,0,0,-1.3333333,0,793.70133)"
     id="g10"><path
       id="path12"
       style="fill:#f7ae6f;fill-opacity:1;fill-rule:nonzero;stroke:none"
       d="m 645.137,213.964 h -289.31 v 156.884 h 289.31 z" /><g
       id="g14"><g
         clip-path="url(#clipPath20)"
         id="g16"><g
           id="g22"><g
             id="g24" /><g
             id="g34"><g
               style="opacity:0.80000299"
               id="g32"
               clip-path="url(#clipPath28)"><path
                 id="path30"
                 style="fill:#f7ae6f;fill-opacity:1;fill-rule:nonzero;stroke:none"
                 d="m 630.672,353.417 h -13.89 v 16.733 h 13.89 z m 0,-17.432 h -13.89 v 16.737 h 13.89 z m 0,-17.429 h -13.89 v 16.73 h 13.89 z m 0,-17.435 h -13.89 v 16.736 h 13.89 z m 0,-17.429 h -13.89 v 16.733 h 13.89 z m 0,-17.432 h -13.89 v 16.733 h 13.89 z m 0,-17.432 h -13.89 v 16.732 h 13.89 z m 0,-17.431 h -13.89 v 16.732 h 13.89 z m -28.356,16.732 h 13.89 v -16.732 h -13.89 z m -14.464,0 h 13.889 v -16.732 h -13.889 z m -14.466,0 h 13.89 v -16.732 h -13.89 z m -14.466,0 h 13.89 v -16.732 h -13.89 z m -14.465,0 h 13.889 v -16.732 h -13.889 z m -14.466,0 h 13.89 v -16.732 h -13.89 z m -14.466,0 h 13.89 v -16.732 h -13.89 z m -14.462,0 h 13.887 v -16.732 h -13.887 z m -14.465,0 h 13.886 v -16.732 h -13.886 z m -14.466,0 h 13.887 V 231.397 H 472.13 Z m -14.466,0 h 13.887 v -16.732 h -13.887 z m -14.465,0 h 13.886 v -16.732 h -13.886 z m -14.466,0 h 13.887 v -16.732 h -13.887 z m -14.465,0 h 13.886 v -16.732 h -13.886 z m -14.466,0 h 13.886 v -16.732 h -13.886 z m -14.465,0 h 13.886 v -16.732 h -13.886 z m -14.466,0 h 13.887 v -16.732 h -13.887 z m -14.465,0 h 13.886 v -16.732 h -13.886 z m 0,17.432 h 13.886 v -16.732 h -13.886 z m 0,17.432 h 13.886 V 266.26 h -13.886 z m 0,17.432 h 13.886 v -16.733 h -13.886 z m 0,17.432 h 13.886 v -16.736 h -13.886 z m 0,17.429 h 13.886 v -16.73 h -13.886 z m 0,17.435 h 13.886 v -16.737 h -13.886 z m 0,17.429 h 13.886 v -16.733 h -13.886 z m 28.352,-16.733 h -13.887 v 16.733 h 13.887 z m 14.465,0 h -13.886 v 16.733 h 13.886 z m 14.465,0 h -13.886 v 16.733 h 13.886 z m 14.466,0 h -13.886 v 16.733 h 13.886 z m 14.466,0 h -13.887 v 16.733 h 13.887 z m 14.465,0 h -13.886 v 16.733 h 13.886 z m 14.466,0 h -13.887 v 16.733 h 13.887 z m 14.466,0 H 472.13 v 16.733 h 13.887 z m 14.464,0 h -13.886 v 16.733 h 13.886 z m 14.466,0 H 501.06 v 16.733 h 13.887 z m 14.466,0 h -13.89 v 16.733 h 13.89 z m 14.466,0 h -13.89 v 16.733 h 13.89 z m 14.465,0 h -13.889 v 16.733 h 13.889 z m 14.466,0 h -13.89 v 16.733 h 13.89 z m 14.465,0 h -13.89 v 16.733 h 13.89 z m 14.465,0 h -13.889 v 16.733 h 13.889 z m 0.576,-0.696 h 13.89 v -16.737 h -13.89 z m 0,-17.435 h 13.89 v -16.73 h -13.89 z m 0,-17.429 h 13.89 v -16.736 h -13.89 z m 0,-17.432 h 13.89 v -16.733 h -13.89 z m 0,-17.432 h 13.89 V 266.26 h -13.89 z m 0,-17.432 h 13.89 v -16.732 h -13.89 z m -14.464,0 h 13.889 v -16.732 h -13.889 z m -14.466,0 h 13.89 v -16.732 h -13.89 z m -14.466,0 h 13.89 v -16.732 h -13.89 z m -14.465,0 h 13.889 v -16.732 h -13.889 z m -14.466,0 h 13.89 v -16.732 h -13.89 z m -14.466,0 h 13.89 v -16.732 h -13.89 z m -14.462,0 h 13.887 v -16.732 h -13.887 z m -14.465,0 h 13.886 v -16.732 h -13.886 z m -14.466,0 h 13.887 V 248.829 H 472.13 Z m -14.466,0 h 13.887 v -16.732 h -13.887 z m -14.465,0 h 13.886 v -16.732 h -13.886 z m -14.466,0 h 13.887 v -16.732 h -13.887 z m -14.465,0 h 13.886 v -16.732 h -13.886 z m -14.466,0 h 13.886 v -16.732 h -13.886 z m -14.465,0 h 13.886 v -16.732 h -13.886 z m -0.579,-16.733 h -13.887 v 16.732 h 13.887 z m 0,17.432 h -13.887 v 16.733 h 13.887 z m 0,17.432 h -13.887 v 16.733 h 13.887 z m 0,17.429 h -13.887 v 16.736 h 13.887 z m 0,17.435 h -13.887 v 16.73 h 13.887 z m 0,17.429 h -13.887 v 16.737 h 13.887 z m 14.465,0 h -13.886 v 16.737 h 13.886 z m 14.465,0 h -13.886 v 16.737 h 13.886 z m 14.466,0 h -13.886 v 16.737 h 13.886 z m 14.466,0 h -13.887 v 16.737 h 13.887 z m 14.465,0 h -13.886 v 16.737 h 13.886 z m 14.466,0 h -13.887 v 16.737 h 13.887 z m 14.466,0 H 472.13 v 16.737 h 13.887 z m 14.464,0 h -13.886 v 16.737 h 13.886 z m 14.466,0 H 501.06 v 16.737 h 13.887 z m 14.466,0 h -13.89 v 16.737 h 13.89 z m 14.466,0 h -13.89 v 16.737 h 13.89 z m 14.465,0 h -13.889 v 16.737 h 13.889 z m 14.466,0 h -13.89 v 16.737 h 13.89 z m 14.465,0 h -13.89 v 16.737 h 13.89 z m 0.577,16.736 h 13.889 v -16.737 h -13.889 z m 0,-17.435 h 13.889 v -16.73 h -13.889 z m 0,-17.429 h 13.889 v -16.736 h -13.889 z m 0,-17.432 h 13.889 v -16.733 h -13.889 z m 0,-17.432 h 13.889 V 266.26 h -13.889 z m -14.466,0 h 13.89 V 266.26 h -13.89 z m -14.466,0 h 13.89 V 266.26 h -13.89 z m -14.465,0 h 13.889 V 266.26 h -13.889 z m -14.466,0 h 13.89 V 266.26 h -13.89 z m -14.466,0 h 13.89 V 266.26 h -13.89 z m -14.462,0 h 13.887 V 266.26 h -13.887 z m -14.465,0 h 13.886 V 266.26 h -13.886 z m -14.466,0 h 13.887 V 266.26 H 472.13 Z m -14.466,0 h 13.887 V 266.26 h -13.887 z m -14.465,0 h 13.886 V 266.26 h -13.886 z m -14.466,0 H 442.62 V 266.26 h -13.887 z m -14.465,0 h 13.886 V 266.26 h -13.886 z m -14.466,0 h 13.886 V 266.26 h -13.886 z m -0.579,-16.733 h -13.886 v 16.733 h 13.886 z m 0,17.432 h -13.886 v 16.733 h 13.886 z m 0,17.429 h -13.886 v 16.736 h 13.886 z m 0,17.435 h -13.886 v 16.73 h 13.886 z m 14.465,0 h -13.886 v 16.73 h 13.886 z m 14.466,0 h -13.886 v 16.73 h 13.886 z m 14.466,0 h -13.887 v 16.73 h 13.887 z m 14.465,0 h -13.886 v 16.73 h 13.886 z m 14.466,0 h -13.887 v 16.73 h 13.887 z m 14.466,0 H 472.13 v 16.73 h 13.887 z m 14.464,0 h -13.886 v 16.73 h 13.886 z m 14.466,0 H 501.06 v 16.73 h 13.887 z m 14.466,0 h -13.89 v 16.73 h 13.89 z m 14.466,0 h -13.89 v 16.73 h 13.89 z m 14.465,0 h -13.889 v 16.73 h 13.889 z m 14.466,0 h -13.89 v 16.73 h 13.89 z m 0.576,16.73 h 13.89 v -16.73 h -13.89 z m 0,-17.429 h 13.89 v -16.736 h -13.89 z m 0,-17.432 h 13.89 v -16.733 h -13.89 z m -14.466,0 h 13.89 v -16.733 h -13.89 z m -14.465,0 h 13.889 v -16.733 h -13.889 z m -14.466,0 h 13.89 v -16.733 h -13.89 z m -14.466,0 h 13.89 v -16.733 h -13.89 z m -14.462,0 h 13.887 v -16.733 h -13.887 z m -14.465,0 h 13.886 v -16.733 h -13.886 z m -14.466,0 h 13.887 V 283.692 H 472.13 Z m -14.466,0 h 13.887 v -16.733 h -13.887 z m -14.465,0 h 13.886 v -16.733 h -13.886 z m -14.466,0 h 13.887 v -16.733 h -13.887 z m -14.465,0 h 13.886 v -16.733 h -13.886 z m -0.58,-16.733 h -13.886 v 16.733 h 13.886 z m 0,17.429 h -13.886 v 16.736 h 13.886 z m 14.466,0 h -13.886 v 16.736 h 13.886 z m 14.466,0 h -13.887 v 16.736 h 13.887 z m 14.465,0 h -13.886 v 16.736 h 13.886 z m 14.466,0 h -13.887 v 16.736 h 13.887 z m 14.466,0 H 472.13 v 16.736 h 13.887 z m 14.464,0 h -13.886 v 16.736 h 13.886 z m 14.466,0 H 501.06 v 16.736 h 13.887 z m 14.466,0 h -13.89 v 16.736 h 13.89 z m 14.466,0 h -13.89 v 16.736 h 13.89 z m 15.041,16.736 h 13.89 v -16.736 h -13.89 z m -0.576,-16.736 h -13.889 v 16.736 h 13.889 z m 57.862,52.296 h -13.89 v 16.733 h 13.89 z m 28.931,16.733 v 0.698 h -13.889 -0.576 -13.89 -0.576 -13.89 -0.576 -13.888 -0.577 -13.889 -0.576 -13.89 -0.576 -13.889 -0.576 -13.89 -0.576 -13.89 -0.576 -13.886 -0.58 -13.885 -0.579 -13.887 -0.579 -13.887 -0.579 -13.886 -0.579 -13.887 -0.579 -13.886 -0.58 -13.886 -0.579 -13.886 -0.579 -13.887 -0.579 -13.886 -0.579 v -0.698 -16.733 -0.696 -16.736 -0.699 -16.73 -0.699 -16.736 -0.696 -16.733 -0.699 -16.733 -0.699 -16.733 -0.699 -16.732 -0.7 -16.733 h 0.579 v 16.733 h 13.886 v -16.733 h 0.579 v 16.733 h 13.887 v -16.733 h 0.579 v 16.733 h 13.886 v -16.733 h 0.579 v 16.733 h 13.886 v -16.733 h 0.58 v 16.733 h 13.886 v -16.733 h 0.579 v 16.733 h 13.887 v -16.733 h 0.579 v 16.733 h 13.886 v -16.733 h 0.579 v 16.733 h 13.887 v -16.733 h 0.579 v 16.733 h 13.887 v -16.733 h 0.579 v 16.733 h 13.885 v -16.733 h 0.58 v 16.733 h 13.886 v -16.733 h 0.576 v 16.733 h 13.89 v -16.733 h 0.576 v 16.733 h 13.89 v -16.733 h 0.576 v 16.733 h 13.889 v -16.733 h 0.576 v 16.733 h 13.89 v -16.733 h 0.576 v 16.733 h 13.889 v -16.733 h 0.577 v 16.733 h 13.888 v -16.733 h 0.576 v 16.733 h 13.89 v -16.733 h 0.576 v 16.733 h 13.89 v -16.733 h 0.576 v 16.733 h 13.889 v 0.7 h -13.889 v 16.732 h 13.889 v 0.699 h -13.889 v 16.733 h 13.889 v 0.699 h -13.889 v 16.733 h 13.889 v 0.699 h -13.889 v 16.733 h 13.889 v 0.696 h -13.889 v 16.736 h 13.889 v 0.699 h -13.889 v 16.73 h 13.889 v 0.699 h -13.889 v 16.736 h 13.889 v 0.696 h -13.889 v 16.733 z" /></g></g></g></g></g></g></svg>