<svg id="Livello_1" data-name="Livello 1" xmlns="http://www.w3.org/2000/svg" viewBox="0 0 176.8 104.65"><defs><style>.cls-1{fill:#ecb56e;}.cls-2{fill:#fedea8;}.cls-3{fill:#d8831f;}.cls-4{fill:#e49535;}.cls-5{fill:#45ab48;}.cls-6{fill:#aec452;}.cls-7{fill:#fff;}.cls-8{fill:#290d0e;}</style></defs><path class="cls-1" d="M431.19,239c3-.94,6.48-1.34,9.72-2,.68,1.61-2,2.25-4.15,2.54A18.48,18.48,0,0,1,431.19,239Z" transform="translate(-333.69 -231.75)"/><path class="cls-1" d="M446.07,237.83c1.61,0,5,.16,4.61,1.57-1.15,1-3.23-.06-4.71-.44C446,238.68,446.05,238.11,446.07,237.83Z" transform="translate(-333.69 -231.75)"/><path class="cls-1" d="M405.84,234.92a4.36,4.36,0,0,1,2.79.25C409,236.45,403.14,235.76,405.84,234.92Z" transform="translate(-333.69 -231.75)"/><path class="cls-1" d="M462,245.63a5.69,5.69,0,0,1,5.24,2C465.66,247,461.56,247.07,462,245.63Z" transform="translate(-333.69 -231.75)"/><path class="cls-1" d="M456.73,246.57c1.78-1.22,3.29,1.45,3.28,2.33C458.34,248.49,456.48,247.74,456.73,246.57Z" transform="translate(-333.69 -231.75)"/><path class="cls-1" d="M369.46,241.09c1.25-1.12,3.64-1.25,5.77-1.5l.88,1A19.65,19.65,0,0,1,369.46,241.09Z" transform="translate(-333.69 -231.75)"/><path class="cls-1" d="M384,240.56c.73-.62,2.91.18,1.77.77C385,241.93,382.87,241.15,384,240.56Z" transform="translate(-333.69 -231.75)"/><path class="cls-1" d="M360.3,245.63c1.86.77-2.26,1.92-2.65.73C358,245.77,359.24,245.49,360.3,245.63Z" transform="translate(-333.69 -231.75)"/><path class="cls-1" d="M469.34,256.45c1.92.69,2,2,2.4,3.1C468.93,259.35,469.4,257.56,469.34,256.45Z" transform="translate(-333.69 -231.75)"/><path class="cls-1" d="M348.77,247.18a3.37,3.37,0,0,1,3.13.21c-1.95,1.39-4,2.92-7.45,3.14C345.17,249.12,346.85,248,348.77,247.18Z" transform="translate(-333.69 -231.75)"/><path class="cls-1" d="M477.57,267c-1.53-1.25-3.33-2.79-2.44-4.27C476.81,264,478,265.45,477.57,267Z" transform="translate(-333.69 -231.75)"/><path class="cls-1" d="M352.72,251.19c1.52-.14,1.95,1.32.44,1.35C351.58,252.72,351.12,251.18,352.72,251.19Z" transform="translate(-333.69 -231.75)"/><path class="cls-1" d="M346.17,255.47c.71-1,2.22-1.64,3.92-2.05C351.8,255,348.25,255.72,346.17,255.47Z" transform="translate(-333.69 -231.75)"/><path class="cls-1" d="M340.57,260.77c.07-1.43,1.7-2.84,4.51-2.14A6.59,6.59,0,0,1,340.57,260.77Z" transform="translate(-333.69 -231.75)"/><path class="cls-1" d="M345.77,265.63c-.32-2.34-.29-5.74,4.21-6.35a26.54,26.54,0,0,1-3.07,6Z" transform="translate(-333.69 -231.75)"/><path class="cls-1" d="M482.2,273.78c1.12.27,2.53.43,2.73,1.29-.79.44-1.6.86-2.45,1.25A3.54,3.54,0,0,1,482.2,273.78Z" transform="translate(-333.69 -231.75)"/><path class="cls-1" d="M454,274.9c1.71,1,3.64,2,4.61,3.3,1.32,1.66,1,3.44,1.06,5.14-2.11-.76-5.36-1.24-5.88-2.9C453.35,278.57,453.84,276.73,454,274.9Z" transform="translate(-333.69 -231.75)"/><path class="cls-1" d="M348.12,272.42c-1.7-1.25-2.95-2.83-1.62-4.21C348.21,269.42,349.48,271.09,348.12,272.42Z" transform="translate(-333.69 -231.75)"/><path class="cls-1" d="M488.52,284.29c1.33-.68,2.36.69,2.8,1.29a2.15,2.15,0,0,1-.42,3.08C489.27,287.36,488.36,285.8,488.52,284.29Z" transform="translate(-333.69 -231.75)"/><path class="cls-1" d="M492.34,294.75c1.23-.36,2.16,1,1.12,1.3C492.23,296.4,491.32,295.09,492.34,294.75Z" transform="translate(-333.69 -231.75)"/><path class="cls-1" d="M498.47,299.84c-1.1-1.51-2.07-3.22-.72-4.62C498.77,296.64,501.16,298.84,498.47,299.84Z" transform="translate(-333.69 -231.75)"/><path class="cls-1" d="M356.42,286.18c1.45-.14,2.16,1.44,1.36,1.94C356.31,288.2,355.52,286.69,356.42,286.18Z" transform="translate(-333.69 -231.75)"/><path class="cls-1" d="M496.28,304.19c1.5-.26,2.35,1.73.71,1.7C495.92,305.6,495.5,304.61,496.28,304.19Z" transform="translate(-333.69 -231.75)"/><path class="cls-1" d="M483.18,314.25c1.85-1.58,5.6-1.62,8.76-1.2C490.22,314.73,486.32,314.59,483.18,314.25Z" transform="translate(-333.69 -231.75)"/><path class="cls-1" d="M461.2,315.27c1.53-1.36,4.57-1.41,7.18-1.58C467.92,315.66,464.1,316,461.2,315.27Z" transform="translate(-333.69 -231.75)"/><path class="cls-1" d="M423.83,320.43c.12-2.07,5.29-2,7-.4C429.4,321.37,426.22,320.92,423.83,320.43Z" transform="translate(-333.69 -231.75)"/><path class="cls-1" d="M364,313.9c1.93,1.23,6,3.25,3.3,4.72A5.19,5.19,0,0,1,364,313.9Z" transform="translate(-333.69 -231.75)"/><path class="cls-1" d="M390.39,322.73c1.15-1.05,3.39-.87,5.38-.64C395,323.56,392.49,323.13,390.39,322.73Z" transform="translate(-333.69 -231.75)"/><path class="cls-2" d="M439.32,236a28.81,28.81,0,0,1,15.68.39c4.43,1.61,6.14,4.71,5.92,7.43,2.69.14,5.81.51,7.53,2,6,4.68,5.45,10.48,9,15.61,4,7.63,10.93,14.72,16.38,22.07,5,8.09,8.73,16.42,10.34,24.76.66,2.71-.78,5.76-5.17,6.76-6.29,1.48-13.25,2-20,2.84-9.15.91-18.1,2.25-27.29,3.07-16.7,1.5-33.87,2.07-50.09,4.55-7.78,1-15.34,2.54-23.48,2.85-3.06.18-6.59-.53-8.59-2.15-1.47-1.32-1.79-2.87-2.85-4.28-5.77-7.51-11.27-15.19-14.34-23.09-1.82-6.23-2.26-12.49-5.08-18.68-1.87-4.14-3-8.37-5.92-12.4-1.66-2.67-3.95-5.51-3-8.25.41-1.36,2.41-2.13,4-3-2.32-3.48-2.63-8,2.32-10.18,4.83-2.58,14.09-.35,17.59-4,2.63-3.19,8.89-4.26,14.4-5.21,10.15-1.4,20.32-2.83,30.76-3.68,4.41-.26,9-.66,13.49.15,2.37.7,3.35,2.47,5.9,3A26.16,26.16,0,0,0,439.32,236ZM431.19,239a18.48,18.48,0,0,0,5.57.51c2.11-.29,4.83-.93,4.15-2.54C437.67,237.68,434.21,238.08,431.19,239Zm14.88-1.19c0,.28-.07.85-.1,1.13,1.48.38,3.56,1.41,4.71.44C451,238,447.68,237.84,446.07,237.83Zm-25.71-1.7a15.53,15.53,0,0,0,.72,2.42l3.5.37a3.6,3.6,0,0,0-1.27-2.78Zm-14.52-1.21c-2.7.84,3.2,1.53,2.79.25A4.36,4.36,0,0,0,405.84,234.92Zm1,5.47a145.34,145.34,0,0,0-17.2.81c-1.55.23-3.34.48-4.09,1.38,1,1.69,6.18,2,5.81,3.9-5.26.72-11.68-1-16.26.86-6,2.27-12.43,4.46-16.63,7.92-2.83,2.66-4.84,6.06-2.87,9.45,1,1.92,4.33,3.05,6,4.78,1.54,2.28-.3,4.47-.77,6.64a14.39,14.39,0,0,0,.48,10.82c3.84,8.72,4.28,17.84,11.53,26.18,2.38,2.65,5.51,5.64,10.65,6.6a12.72,12.72,0,0,0,9.58-2.79c4.54-.16,9.2.33,13.78.35,8.39.18,16.74-.75,23.66-3.11a52.5,52.5,0,0,1,12-2.77c12.51-1.48,26.09.94,38.56-.6,5.06-.72,10.49-1.95,12.77-4.81,1.86-2.5-.38-5.4-2.17-7.93-3.87-5.08-14-7.55-17.42-12.77-5.66-8.79-.28-17.9-6.27-26.67-1.16-1.82-4-3.14-7-3.8-5.12-1.29-11.74-1.53-15.24-4.53-.05-2,2.12-3.83.78-5.87s-5.19-2.4-8.16-2.74A299.26,299.26,0,0,0,406.83,240.39ZM462,245.63c-.43,1.44,3.67,1.4,5.24,2A5.69,5.69,0,0,0,462,245.63Zm-5.26.94c-.25,1.17,1.61,1.92,3.28,2.33C460,248,458.51,245.35,456.73,246.57Zm-87.27-5.48a19.65,19.65,0,0,0,6.65-.48l-.88-1C373.1,239.84,370.71,240,369.46,241.09Zm14.53-.53c-1.12.59,1,1.37,1.77.77C386.9,240.74,384.72,239.94,384,240.56Zm-23.69,5.07c-1.06-.14-2.32.14-2.65.73C358,247.55,362.16,246.4,360.3,245.63Zm109,10.82c.06,1.11-.41,2.9,2.4,3.1C471.35,258.45,471.26,257.14,469.34,256.45Zm-120.57-9.27c-1.92.85-3.6,1.94-4.32,3.35,3.4-.22,5.5-1.75,7.45-3.14A3.37,3.37,0,0,0,348.77,247.18ZM477.57,267c.41-1.52-.76-3-2.44-4.27C474.24,264.18,476,265.72,477.57,267ZM352.72,251.19c-1.6,0-1.14,1.53.44,1.35C354.67,252.51,354.24,251.05,352.72,251.19Zm-6.55,4.28c2.08.25,5.63-.48,3.92-2.05C348.39,253.83,346.88,254.44,346.17,255.47Zm-5.6,5.3a6.59,6.59,0,0,0,4.51-2.14C342.27,257.93,340.64,259.34,340.57,260.77Zm5.2,4.86,1.14-.36a26.54,26.54,0,0,0,3.07-6C345.48,259.89,345.45,263.29,345.77,265.63Zm136.43,8.15a3.54,3.54,0,0,0,.28,2.54c.85-.39,1.66-.81,2.45-1.25C484.73,274.21,483.32,274.05,482.2,273.78Zm-134.08-1.36c1.36-1.33.09-3-1.62-4.21C345.17,269.59,346.42,271.17,348.12,272.42Zm140.4,11.87c-.16,1.51.75,3.07,2.38,4.37a2.15,2.15,0,0,0,.42-3.08C490.88,285,489.85,283.61,488.52,284.29Zm-139-9.23a8.31,8.31,0,0,0,1.51,4c1.06,1.64.16,3.34,1.41,5a12.13,12.13,0,0,0-1.06-8.57Zm142.8,19.69c-1,.34-.11,1.65,1.12,1.3C494.5,295.72,493.57,294.39,492.34,294.75Zm6.13,5.09c2.69-1,.3-3.2-.72-4.62C496.4,296.62,497.37,298.33,498.47,299.84Zm-142-13.66c-.9.51-.11,2,1.36,1.94C358.58,287.62,357.87,286,356.42,286.18Zm139.86,18c-.78.42-.36,1.41.71,1.7C498.63,305.92,497.78,303.93,496.28,304.19ZM353.7,294.53a15.51,15.51,0,0,0,2,6.54l1.77.22a8.51,8.51,0,0,0-1-6.61Zm129.48,19.72c3.14.34,7,.48,8.76-1.2C488.78,312.63,485,312.67,483.18,314.25Zm-119.8-10.87-.9.77a4.53,4.53,0,0,0,1.46,2.69A5.83,5.83,0,0,0,363.38,303.38Zm97.82,11.89c2.9.76,6.72.39,7.18-1.58C465.77,313.86,462.73,313.91,461.2,315.27Zm-37.37,5.16c2.39.49,5.57.94,7-.4C429.12,318.44,424,318.36,423.83,320.43ZM364,313.9a5.19,5.19,0,0,0,3.3,4.72C370,317.15,365.94,315.13,364,313.9Zm26.38,8.83c2.1.4,4.59.83,5.38-.64C393.78,321.86,391.54,321.68,390.39,322.73Z" transform="translate(-333.69 -231.75)"/><path class="cls-3" d="M447.27,233.62c3.66,0,7.81.29,10.82,2,3.46,1.81,5,4.48,6.39,7,2.91.32,6.74.13,8.48,2.08,5.8,5.47,4.54,12,8.52,17.81q.7,1.26,1.38,2.52c2.22,4,4.95,7.89,7.57,11.81,1.36,2.06,2.62,4.13,4.14,6.16.3.42.57.85.86,1.29,3.86,5.62,6.27,11.48,8.62,17.31,1.43,3.81,2.66,7.66,4.9,11.38.93,1.7,2.28,3.61,1.05,5.25s-4.23,2.46-7,3c-10.08,1.76-20.67,2.51-30.95,3.88-13.34,1.77-26.66,3.57-40.12,5.07-11.65,1.42-23.53,2.32-35.08,3.93-7.85.9-15.58,2.16-23.71,2.37-3,.13-6.27-.7-8-2.4-2-2.24-2.24-4.79-3.59-7.15-4.33-8.15-9.75-16.21-12.09-24.58-2.66-9.47-5-19-9.81-28.31-2.91-4.55-7-9.24-5.74-14.07,1.36-1,3.42-1.6,5.24-2.31-.93-3-2.4-6.3.39-8.85,5.48-4.33,16.63-3.93,21.86-8.46,6-2.82,13.76-3.8,21.18-4.83,11.09-1.39,22.22-2.76,33.62-3.44a84.25,84.25,0,0,1,11.13-.08c4,.39,6.67,3,10.67,3.31C441.2,234.85,443.92,233.68,447.27,233.62ZM439.32,236a26.16,26.16,0,0,1-12.51.6c-2.55-.56-3.53-2.33-5.9-3-4.52-.81-9.08-.41-13.49-.15-10.44.85-20.61,2.28-30.76,3.68-5.51,1-11.77,2-14.4,5.21-3.5,3.67-12.76,1.44-17.59,4-4.95,2.22-4.64,6.7-2.32,10.18-1.54.85-3.54,1.62-4,3-.93,2.74,1.36,5.58,3,8.25,2.88,4,4.05,8.26,5.92,12.4,2.82,6.19,3.26,12.45,5.08,18.68,3.07,7.9,8.57,15.58,14.34,23.09,1.06,1.41,1.38,3,2.85,4.28,2,1.62,5.53,2.33,8.59,2.15,8.14-.31,15.7-1.84,23.48-2.85,16.22-2.48,33.39-3,50.09-4.55,9.19-.82,18.14-2.16,27.29-3.07,6.71-.84,13.67-1.36,20-2.84,4.39-1,5.83-4.05,5.17-6.76-1.61-8.34-5.38-16.67-10.34-24.76-5.45-7.35-12.38-14.44-16.38-22.07-3.57-5.13-3-10.93-9-15.61-1.72-1.5-4.84-1.87-7.53-2,.22-2.72-1.49-5.82-5.92-7.43A28.81,28.81,0,0,0,439.32,236Z" transform="translate(-333.69 -231.75)"/><path class="cls-4" d="M420.36,236.13h2.95a3.6,3.6,0,0,1,1.27,2.78l-3.5-.37A15.53,15.53,0,0,1,420.36,236.13Z" transform="translate(-333.69 -231.75)"/><path class="cls-4" d="M349.54,275.06l1.86.37a12.13,12.13,0,0,1,1.06,8.57c-1.25-1.62-.35-3.32-1.41-5A8.31,8.31,0,0,1,349.54,275.06Z" transform="translate(-333.69 -231.75)"/><path class="cls-4" d="M353.7,294.53l2.72.15a8.51,8.51,0,0,1,1,6.61l-1.77-.22A15.51,15.51,0,0,1,353.7,294.53Z" transform="translate(-333.69 -231.75)"/><path class="cls-4" d="M363.38,303.38a5.83,5.83,0,0,1,.56,3.46,4.53,4.53,0,0,1-1.46-2.69Z" transform="translate(-333.69 -231.75)"/><path class="cls-5" d="M406.83,240.39a299.26,299.26,0,0,1,31.47,1.3c3,.34,6.74.85,8.16,2.74s-.83,3.9-.78,5.87c3.5,3,10.12,3.24,15.24,4.53,3,.66,5.83,2,7,3.8,6,8.77.61,17.88,6.27,26.67,3.46,5.22,13.55,7.69,17.42,12.77,1.79,2.53,4,5.43,2.17,7.93-2.28,2.86-7.71,4.09-12.77,4.81-12.47,1.54-26.05-.88-38.56.6a52.5,52.5,0,0,0-12,2.77c-6.92,2.36-15.27,3.29-23.66,3.11-4.58,0-9.24-.51-13.78-.35a12.72,12.72,0,0,1-9.58,2.79c-5.14-1-8.27-4-10.65-6.6-7.25-8.34-7.69-17.46-11.53-26.18a14.39,14.39,0,0,1-.48-10.82c.47-2.17,2.31-4.36.77-6.64-1.62-1.73-5-2.86-6-4.78-2-3.39,0-6.79,2.87-9.45,4.2-3.46,10.61-5.65,16.63-7.92,4.58-1.9,11-.14,16.26-.86.37-1.85-4.83-2.21-5.81-3.9.75-.9,2.54-1.15,4.09-1.38A145.34,145.34,0,0,1,406.83,240.39Zm5,3.17c-2.85.29-5.08,1.61-4.6,3.45,6.14,1.78,12.2-.38,18.37,1,3,.55,6,1.36,9,1.36,2.54-.11,5.23-1,5.42-2.64.3-1.2-1.81-2.27-3.75-2.36C428.13,243.77,419.8,242.87,411.82,243.56Zm-44,9c-4,1.73-6.88,4.29-8.11,7.19-.64,1.51-1.35,3.3.43,4.81,1.55,1.47,5.49,2.1,7.39.94,3.8-2.21,4-5.85,7.62-8.14,3.46-1.77,9.68-2.22,10.08-5.53a12.47,12.47,0,0,1-8-3.5A73.33,73.33,0,0,0,367.83,252.55Zm114,41.38a11.74,11.74,0,0,1-2.06,1.88c1.72,2,3.86,4.12,4,6.36-.13,1.3-1.13,2.62-3.28,3.05-2.84.85-7.08,1-7.91,3.15,3.1.9,6.35.44,9.25-.06,4.35-.73,8.09-2.72,8.75-5.45.39-1.35-.78-2.74-2.11-3.91C486.39,297.2,484.59,295.32,481.79,293.93ZM375.2,305.49c-.12.43-.37,1.28-.49,1.71-.55.64-1.45,1.29-.9,2.11a14.83,14.83,0,0,0,8.27,7.18,15.44,15.44,0,0,0,9.81-.8c1.6-.49,2-2.35-.14-2.84-2.93,0-5.6.88-8.57.5C378,311.64,378.92,307.82,375.2,305.49Z" transform="translate(-333.69 -231.75)"/><path class="cls-6" d="M411.82,243.56c8-.69,16.31.21,24.48.8,1.94.09,4.05,1.16,3.75,2.36-.19,1.61-2.88,2.53-5.42,2.64-3.08,0-6.06-.81-9-1.36-6.17-1.37-12.23.79-18.37-1C406.74,245.17,409,243.85,411.82,243.56Z" transform="translate(-333.69 -231.75)"/><path class="cls-6" d="M367.83,252.55a73.33,73.33,0,0,1,9.38-4.23,12.47,12.47,0,0,0,8,3.5c-.4,3.31-6.62,3.76-10.08,5.53-3.62,2.29-3.82,5.93-7.62,8.14-1.9,1.16-5.84.53-7.39-.94-1.78-1.51-1.07-3.3-.43-4.81C361,256.84,363.82,254.28,367.83,252.55Z" transform="translate(-333.69 -231.75)"/><path class="cls-6" d="M481.79,293.93c2.8,1.39,4.6,3.27,6.63,5,1.33,1.17,2.5,2.56,2.11,3.91-.66,2.73-4.4,4.72-8.75,5.45-2.9.5-6.15,1-9.25.06.83-2.16,5.07-2.3,7.91-3.15,2.15-.43,3.15-1.75,3.28-3.05-.13-2.24-2.27-4.32-4-6.36A11.74,11.74,0,0,0,481.79,293.93Z" transform="translate(-333.69 -231.75)"/><path class="cls-6" d="M375.2,305.49c3.72,2.33,2.76,6.15,8,7.86,3,.38,5.64-.53,8.57-.5,2.17.49,1.74,2.35.14,2.84a15.44,15.44,0,0,1-9.81.8,14.83,14.83,0,0,1-8.27-7.18c-.55-.82.35-1.47.9-2.11C374.83,306.77,375.08,305.92,375.2,305.49Z" transform="translate(-333.69 -231.75)"/><path class="cls-4" d="M379.41,330.32c-1.53,1.34-3.77,1.46-5.74,1.64-2.54.07-4.28-1.77-5.46-3.58l1.65-.2c1.28.76,2.46,2.08,4.16,1.89A19.83,19.83,0,0,1,379.41,330.32Z" transform="translate(-333.69 -231.75)"/><path class="cls-4" d="M507.22,311.44c.76,1.53,0,3-.49,4.25-.87,1.59-3.33,1.85-5.55,1.78.1-.28.31-.83.41-1.1,1.22-.46,3-.6,3.4-1.73A9.84,9.84,0,0,1,507.22,311.44Z" transform="translate(-333.69 -231.75)"/><path class="cls-7" d="M421.46,266.21c2.54-.44,2.61,2,.18,2.32S419,266.53,421.46,266.21Z" transform="translate(-333.69 -231.75)"/><path class="cls-7" d="M394.38,271.65q3.56-1.25,2.68,1.08Q393.49,274,394.38,271.65Z" transform="translate(-333.69 -231.75)"/><path class="cls-8" d="M386.53,261.34c2.46-1,5.21-.79,7.78-.92a77,77,0,0,0-13.59,6.38C382,264.85,383.39,262.65,386.53,261.34Z" transform="translate(-333.69 -231.75)"/><path class="cls-8" d="M423.85,256.17c5.32-3.45,12.25-1.55,14.76,1.41A54.38,54.38,0,0,0,423.85,256.17Z" transform="translate(-333.69 -231.75)"/><path class="cls-8" d="M383.05,269.27c3.34-2.91,9.47-4.8,14.63-4.19,7.67.73,11.43,5.87,9.34,10.52-8.5,2.62-17,5.31-24.26,9.36,2.81-3.91,9.4-6.17,15.36-8l-.11-.28c-3.42-.25-7.83-1.66-5.84-4.32,1.62-2.93,8.73-3.71,10.42-1.2,1.56,1.33-1.63,3.06-1.13,4.54,1.26,0,3.75.07,5,.09.5-3.43-.11-7.32-5.3-8.83-5.64-2.24-15.11.09-18.4,4.34-2.85,3-1.22,6.05-.38,8.87C379,277.33,378.68,272.73,383.05,269.27Zm11.33,2.38q-.88,2.34,2.68,1.08Q397.93,270.4,394.38,271.65Z" transform="translate(-333.69 -231.75)"/><path class="cls-8" d="M415.26,274.29c-5-4.86,1.24-13.82,12.38-15,10.33-1,16.06,5.26,13.61,11-.54-2.89-.05-6.34-4-8.17-4.61-3.09-14.74-2.09-19.37,2.06-4.08,3-3.43,6.66-2.39,9.73,8.58-1.61,17.79-2.13,24.87.3.07.28.21.85.29,1.13C433,273.45,424,274,415.26,274.29Z" transform="translate(-333.69 -231.75)"/><path class="cls-8" d="M420.07,265.85c3.92-2.38,10.48-.39,8.74,2.63-.91,2.32-5.76,3.72-8.75,2.76S417,267.41,420.07,265.85Zm1.39.36c-2.45.32-2.35,2.74.18,2.32S424,265.77,421.46,266.21Z" transform="translate(-333.69 -231.75)"/><path class="cls-8" d="M392.81,286.2c1-1,1.27-2.63,3.42-3,3.73-1.24,6.37.66,9.55,1,3-.82,3.77-3.38,7-3.9a64.94,64.94,0,0,1,8,1.15,59.89,59.89,0,0,1,5.4-3.33,15.2,15.2,0,0,1,6.92,2l3-1.74c-1,1.28-2.13,2.54-3.32,3.78-.15-.55-.47-1.65-.62-2.21q-2.88-.48-5.72-1c-1.86,1.14-3.12,2.89-5.75,3.41a68.48,68.48,0,0,1-8.17-1.07c-1.88,1.23-3.28,2.91-5.77,3.7-3.55.5-5.92-1.2-9.09-1.49A39.67,39.67,0,0,0,392.81,286.2Z" transform="translate(-333.69 -231.75)"/><path class="cls-8" d="M389.62,287c1.87-1,5.92-.36,5.18,1.21C393,289.44,388.79,288.53,389.62,287Z" transform="translate(-333.69 -231.75)"/><path class="cls-6" d="M379.75,290.86c5.86-.79,12.89,1.7,14.68,5.31,2.63,4.14-2.93,8.57-10.21,8.15-6.09-.06-12.12-3.44-12.39-7C371.31,294.21,374.81,291.45,379.75,290.86Z" transform="translate(-333.69 -231.75)"/><path class="cls-6" d="M453.91,269.81c5.1-1.47,11,1.67,12.36,6.72,2,5.76-3,12.4-9.27,12.22-5.26.28-10.27-4.18-10.29-9.31A9.67,9.67,0,0,1,453.91,269.81Z" transform="translate(-333.69 -231.75)"/></svg>