<svg id="Livello_1" data-name="Livello 1" xmlns="http://www.w3.org/2000/svg" viewBox="0 0 247.11 144.73"><defs><style>.cls-1{fill:#ecb56e;}.cls-2{fill:#fedea8;}.cls-3{fill:#d8831f;}.cls-4{fill:#e49535;}.cls-5{fill:#e41d17;}.cls-6{fill:#ee726e;}.cls-7{fill:#fff;}.cls-8{fill:#290d0e;}</style></defs><path class="cls-1" d="M397,213.72c4.22-1.3,9-1.85,13.57-2.8,1,2.23-2.85,3.12-5.79,3.51C402.2,214.8,399.51,214.14,397,213.72Z" transform="translate(-260.69 -203.67)"/><path class="cls-1" d="M417.76,212.09c2.25,0,6.95.22,6.44,2.16-1.61,1.34-4.51-.09-6.59-.61C417.65,213.25,417.73,212.47,417.76,212.09Z" transform="translate(-260.69 -203.67)"/><path class="cls-1" d="M361.53,208.05a6.1,6.1,0,0,1,3.9.36C366,210.17,357.75,209.21,361.53,208.05Z" transform="translate(-260.69 -203.67)"/><path class="cls-1" d="M440,222.86a8,8,0,0,1,7.32,2.8C445.13,224.8,439.4,224.86,440,222.86Z" transform="translate(-260.69 -203.67)"/><path class="cls-1" d="M432.66,224.17c2.48-1.69,4.59,2,4.59,3.22C434.91,226.83,432.31,225.78,432.66,224.17Z" transform="translate(-260.69 -203.67)"/><path class="cls-1" d="M310.69,216.59c1.74-1.55,5.09-1.73,8.06-2.08l1.22,1.41A27.46,27.46,0,0,1,310.69,216.59Z" transform="translate(-260.69 -203.67)"/><path class="cls-1" d="M331,215.85c1-.85,4.07.25,2.48,1.07C332.43,217.75,329.42,216.68,331,215.85Z" transform="translate(-260.69 -203.67)"/><path class="cls-1" d="M297.89,222.86c2.59,1.07-3.17,2.66-3.72,1C294.64,223.06,296.4,222.68,297.89,222.86Z" transform="translate(-260.69 -203.67)"/><path class="cls-1" d="M450.28,237.83c2.69,1,2.8,2.77,3.35,4.29C449.71,241.85,450.37,239.37,450.28,237.83Z" transform="translate(-260.69 -203.67)"/><path class="cls-1" d="M281.77,225c1.22-.79,3-.37,4.37.29-2.73,1.93-5.66,4-10.41,4.34C276.73,227.69,279.08,226.19,281.77,225Z" transform="translate(-260.69 -203.67)"/><path class="cls-1" d="M461.79,252.38c-2.14-1.73-4.66-3.86-3.41-5.9C460.72,248.23,462.36,250.28,461.79,252.38Z" transform="translate(-260.69 -203.67)"/><path class="cls-1" d="M287.29,230.55c2.12-.18,2.72,1.83.61,1.87C285.7,232.67,285.06,230.54,287.29,230.55Z" transform="translate(-260.69 -203.67)"/><path class="cls-1" d="M278.13,236.47c1-1.42,3.11-2.26,5.49-2.82C286,235.81,281.05,236.83,278.13,236.47Z" transform="translate(-260.69 -203.67)"/><path class="cls-1" d="M270.31,243.81c.09-2,2.37-3.93,6.3-3C275.06,242.18,273.46,243.7,270.31,243.81Z" transform="translate(-260.69 -203.67)"/><path class="cls-1" d="M277.57,250.52c-.45-3.23-.4-7.92,5.89-8.77a36.06,36.06,0,0,1-4.3,8.27Z" transform="translate(-260.69 -203.67)"/><path class="cls-1" d="M468.25,261.8c1.56.37,3.54.6,3.82,1.78-1.1.61-2.23,1.19-3.42,1.73A4.83,4.83,0,0,1,468.25,261.8Z" transform="translate(-260.69 -203.67)"/><path class="cls-1" d="M428.86,263.35c2.39,1.38,5.09,2.74,6.44,4.57,1.85,2.29,1.37,4.75,1.48,7.1-3-1.06-7.49-1.72-8.21-4C427.94,268.42,428.61,265.88,428.86,263.35Z" transform="translate(-260.69 -203.67)"/><path class="cls-1" d="M280.86,259.91c-2.37-1.73-4.12-3.91-2.27-5.81C281,255.77,282.76,258.08,280.86,259.91Z" transform="translate(-260.69 -203.67)"/><path class="cls-1" d="M477.08,276.33c1.87-.93,3.3,1,3.92,1.79a3,3,0,0,1-.59,4.26C478.13,280.58,476.86,278.43,477.08,276.33Z" transform="translate(-260.69 -203.67)"/><path class="cls-1" d="M482.43,290.8c1.71-.49,3,1.34,1.56,1.8C482.27,293.08,481,291.27,482.43,290.8Z" transform="translate(-260.69 -203.67)"/><path class="cls-1" d="M491,297.83c-1.53-2.08-2.89-4.44-1-6.38C491.42,293.41,494.75,296.46,491,297.83Z" transform="translate(-260.69 -203.67)"/><path class="cls-1" d="M292.46,279c2-.2,3,2,1.9,2.68C292.3,281.74,291.2,279.66,292.46,279Z" transform="translate(-260.69 -203.67)"/><path class="cls-1" d="M487.94,303.85c2.09-.36,3.28,2.39,1,2.36C487.43,305.81,486.84,304.44,487.94,303.85Z" transform="translate(-260.69 -203.67)"/><path class="cls-1" d="M469.62,317.77c2.59-2.18,7.83-2.24,12.25-1.66C479.46,318.43,474,318.23,469.62,317.77Z" transform="translate(-260.69 -203.67)"/><path class="cls-1" d="M438.91,319.17c2.13-1.87,6.38-1.94,10-2.18C448.29,319.72,443,320.23,438.91,319.17Z" transform="translate(-260.69 -203.67)"/><path class="cls-1" d="M386.67,326.32c.18-2.87,7.4-2.76,9.85-.56C394.46,327.62,390,327,386.67,326.32Z" transform="translate(-260.69 -203.67)"/><path class="cls-1" d="M303.07,317.28c2.69,1.71,8.37,4.5,4.61,6.54A7.18,7.18,0,0,1,303.07,317.28Z" transform="translate(-260.69 -203.67)"/><path class="cls-1" d="M339.93,329.49c1.62-1.44,4.75-1.2,7.53-.88C346.35,330.65,342.88,330.05,339.93,329.49Z" transform="translate(-260.69 -203.67)"/><path class="cls-2" d="M408.32,209.51a40.54,40.54,0,0,1,21.92.54c6.19,2.22,8.58,6.51,8.28,10.27,3.75.2,8.11.71,10.52,2.79,8.43,6.46,7.61,14.48,12.6,21.58,5.59,10.55,15.28,20.35,22.89,30.53,6.94,11.19,12.21,22.71,14.45,34.24.94,3.74-1.08,8-7.21,9.34-8.8,2.05-18.52,2.77-27.9,3.94-12.8,1.26-25.29,3.1-38.15,4.24-23.34,2.08-47.33,2.85-70,6.29-10.88,1.4-21.44,3.51-32.81,4-4.28.25-9.21-.74-12-3-2.06-1.83-2.51-4-4-5.92-8.07-10.39-15.76-21-20-31.94-2.54-8.6-3.15-17.27-7.1-25.82-2.62-5.73-4.24-11.58-8.28-17.15-2.31-3.7-5.52-7.63-4.21-11.42.57-1.87,3.36-3,5.52-4.12-3.25-4.81-3.68-11,3.24-14.07,6.75-3.58,19.69-.5,24.58-5.57,3.68-4.41,12.43-5.88,20.13-7.2,14.19-1.93,28.4-3.92,43-5.09,6.16-.35,12.54-.91,18.86.21,3.31,1,4.68,3.42,8.25,4.19A37,37,0,0,0,408.32,209.51ZM397,213.72c2.54.42,5.23,1.08,7.78.71,2.94-.39,6.75-1.28,5.79-3.51C406,211.87,401.19,212.42,397,213.72Zm20.79-1.63c0,.38-.11,1.16-.15,1.55,2.08.52,5,2,6.59.61C424.71,212.31,420,212.1,417.76,212.09Zm-35.93-2.36a20,20,0,0,0,1,3.35l4.88.51a4.89,4.89,0,0,0-1.77-3.84Zm-20.3-1.68c-3.78,1.16,4.48,2.12,3.9.36A6.1,6.1,0,0,0,361.53,208.05Zm1.39,7.57a204.49,204.49,0,0,0-24,1.12c-2.17.32-4.67.67-5.72,1.91,1.37,2.34,8.64,2.84,8.12,5.4-7.35,1-16.32-1.44-22.72,1.18-8.42,3.14-17.37,6.16-23.25,11-3.95,3.68-6.77,8.37-4,13.06,1.4,2.67,6.05,4.22,8.31,6.61,2.15,3.17-.41,6.18-1.08,9.18a19.7,19.7,0,0,0,.68,15c5.36,12.06,6,24.68,16.11,36.2,3.33,3.67,7.7,7.81,14.89,9.13,5.88.84,10.24-1.58,13.38-3.85,6.36-.23,12.86.45,19.27.48,11.73.24,23.39-1,33.07-4.31a74,74,0,0,1,16.75-3.82c17.49-2,36.46,1.3,53.9-.83,7.07-1,14.65-2.7,17.84-6.65,2.6-3.46-.53-7.47-3-11-5.4-7-19.51-10.45-24.35-17.66-7.9-12.16-.39-24.76-8.76-36.88-1.62-2.52-5.57-4.35-9.77-5.26-7.15-1.78-16.4-2.12-21.3-6.26-.07-2.73,3-5.31,1.09-8.12-2-2.62-7.25-3.32-11.41-3.79A421,421,0,0,0,362.92,215.62ZM440,222.86c-.61,2,5.12,1.94,7.32,2.8A8,8,0,0,0,440,222.86Zm-7.35,1.31c-.35,1.61,2.25,2.66,4.59,3.22C437.25,226.17,435.14,222.48,432.66,224.17Zm-122-7.58a27.46,27.46,0,0,0,9.28-.67l-1.22-1.41C315.78,214.86,312.43,215,310.69,216.59Zm20.3-.74c-1.57.83,1.44,1.9,2.48,1.07C335.06,216.1,332,215,331,215.85Zm-33.1,7c-1.49-.18-3.25.2-3.72,1C294.72,225.52,300.48,223.93,297.89,222.86Zm152.39,15c.09,1.54-.57,4,3.35,4.29C453.08,240.6,453,238.79,450.28,237.83ZM281.77,225c-2.69,1.18-5,2.68-6,4.63,4.75-.29,7.68-2.41,10.41-4.34C284.77,224.64,283,224.22,281.77,225Zm180,27.37c.57-2.1-1.07-4.15-3.41-5.9C457.13,248.52,459.65,250.65,461.79,252.38Zm-174.5-21.83c-2.23,0-1.59,2.12.61,1.87C290,232.38,289.41,230.37,287.29,230.55Zm-9.16,5.92c2.92.36,7.87-.66,5.49-2.82C281.24,234.21,279.12,235.05,278.13,236.47Zm-7.82,7.34c3.15-.11,4.75-1.63,6.3-3C272.68,239.88,270.4,241.83,270.31,243.81Zm7.26,6.71,1.59-.5a36.06,36.06,0,0,0,4.3-8.27C277.17,242.6,277.12,247.29,277.57,250.52ZM468.25,261.8a4.83,4.83,0,0,0,.4,3.51c1.19-.54,2.32-1.12,3.42-1.73C471.79,262.4,469.81,262.17,468.25,261.8Zm-187.39-1.89c1.9-1.83.13-4.14-2.27-5.81C276.74,256,278.49,258.18,280.86,259.91Zm196.22,16.42c-.22,2.1,1.05,4.25,3.33,6.05a3,3,0,0,0,.59-4.26C480.38,277.29,479,275.4,477.08,276.33ZM282.84,263.57a11.47,11.47,0,0,0,2.11,5.5c1.48,2.27.23,4.62,2,6.87a16.59,16.59,0,0,0-1.48-11.86ZM482.43,290.8c-1.43.47-.16,2.28,1.56,1.8C485.44,292.14,484.14,290.31,482.43,290.8Zm8.56,7c3.76-1.37.43-4.42-1-6.38C488.1,293.39,489.46,295.75,491,297.83ZM292.46,279c-1.26.71-.16,2.79,1.9,2.68C295.48,280.94,294.48,278.75,292.46,279Zm195.48,24.9c-1.1.59-.51,2,1,2.36C491.22,306.24,490,303.49,487.94,303.85ZM288.66,290.5c.42,3,.89,6.08,2.77,9l2.48.31a11.63,11.63,0,0,0-1.46-9.15Zm181,27.27c4.39.46,9.84.66,12.25-1.66C477.45,315.53,472.21,315.59,469.62,317.77Zm-167.44-15-1.25,1.06c.41,1.27.59,2.61,2,3.72A7.76,7.76,0,0,0,302.18,302.74Zm136.73,16.43c4,1.06,9.38.55,10-2.18C445.29,317.23,441,317.3,438.91,319.17Zm-52.24,7.15c3.34.67,7.79,1.3,9.85-.56C394.07,323.56,386.85,323.45,386.67,326.32Zm-83.6-9a7.18,7.18,0,0,0,4.61,6.54C311.44,321.78,305.76,319,303.07,317.28Zm36.86,12.21c2.95.56,6.42,1.16,7.53-.88C344.68,328.29,341.55,328.05,339.93,329.49Z" transform="translate(-260.69 -203.67)"/><path class="cls-3" d="M419.43,206.26c5.12,0,10.92.4,15.13,2.72,4.83,2.51,7,6.19,8.93,9.65,4.07.43,9.41.17,11.85,2.86,8.11,7.58,6.34,16.6,11.91,24.64.65,1.16,1.3,2.32,1.92,3.48,3.11,5.52,6.93,10.92,10.58,16.34,1.9,2.85,3.66,5.71,5.79,8.52.42.58.8,1.18,1.21,1.77,5.38,7.78,8.76,15.89,12,23.95,2,5.27,3.73,10.59,6.86,15.74,1.29,2.34,3.18,5,1.46,7.25s-5.91,3.4-9.79,4.11c-14.08,2.44-28.88,3.48-43.25,5.37-18.64,2.45-37.26,4.93-56.08,7-16.27,2-32.88,3.2-49,5.42-11,1.25-21.78,3-33.14,3.28-4.14.19-8.76-1-11.16-3.31-2.84-3.1-3.12-6.63-5-9.89-6.05-11.28-13.63-22.42-16.9-34-3.72-13.09-7-26.28-13.71-39.15-4.07-6.29-9.81-12.78-8-19.45,1.9-1.45,4.78-2.22,7.32-3.2-1.31-4.12-3.35-8.71.55-12.23,7.65-6,23.24-5.45,30.54-11.71,8.38-3.9,19.24-5.26,29.6-6.68,15.51-1.93,31.07-3.82,47-4.76a120.28,120.28,0,0,1,15.55-.11c5.56.54,9.32,4.08,14.91,4.58C411,208,414.75,206.34,419.43,206.26Zm-11.11,3.25a37,37,0,0,1-17.47.83c-3.57-.77-4.94-3.23-8.25-4.19-6.32-1.12-12.7-.56-18.86-.21-14.59,1.17-28.8,3.16-43,5.09-7.7,1.32-16.45,2.79-20.13,7.2-4.89,5.07-17.83,2-24.58,5.57-6.92,3.07-6.49,9.26-3.24,14.07-2.16,1.17-4.95,2.25-5.52,4.12-1.31,3.79,1.9,7.72,4.21,11.42,4,5.57,5.66,11.42,8.28,17.15,4,8.55,4.56,17.22,7.1,25.82,4.28,10.93,12,21.55,20,31.94,1.48,1.95,1.93,4.09,4,5.92,2.8,2.24,7.73,3.23,12,3,11.37-.44,21.93-2.55,32.81-4,22.67-3.44,46.66-4.21,70-6.29,12.86-1.14,25.35-3,38.15-4.24,9.38-1.17,19.1-1.89,27.9-3.94,6.13-1.37,8.15-5.6,7.21-9.34-2.24-11.53-7.51-23-14.45-34.24-7.61-10.18-17.3-20-22.89-30.53-5-7.1-4.17-15.12-12.6-21.58-2.41-2.08-6.77-2.59-10.52-2.79.3-3.76-2.09-8-8.28-10.27A40.54,40.54,0,0,0,408.32,209.51Z" transform="translate(-260.69 -203.67)"/><path class="cls-4" d="M381.83,209.73l4.12,0a4.89,4.89,0,0,1,1.77,3.84l-4.88-.51A20,20,0,0,1,381.83,209.73Z" transform="translate(-260.69 -203.67)"/><path class="cls-4" d="M282.84,263.57l2.6.51a16.59,16.59,0,0,1,1.48,11.86c-1.74-2.25-.49-4.6-2-6.87A11.47,11.47,0,0,1,282.84,263.57Z" transform="translate(-260.69 -203.67)"/><path class="cls-4" d="M288.66,290.5l3.79.2a11.63,11.63,0,0,1,1.46,9.15l-2.48-.31C289.55,296.58,289.08,293.51,288.66,290.5Z" transform="translate(-260.69 -203.67)"/><path class="cls-4" d="M302.18,302.74a7.76,7.76,0,0,1,.78,4.78c-1.44-1.11-1.62-2.45-2-3.72Z" transform="translate(-260.69 -203.67)"/><path class="cls-5" d="M362.92,215.62a421,421,0,0,1,44,1.8c4.16.47,9.43,1.17,11.41,3.79,1.88,2.81-1.16,5.39-1.09,8.12,4.9,4.14,14.15,4.48,21.3,6.26,4.2.91,8.15,2.74,9.77,5.26,8.37,12.12.86,24.72,8.76,36.88,4.84,7.21,18.95,10.64,24.35,17.66,2.5,3.5,5.63,7.51,3,11-3.19,3.95-10.77,5.66-17.84,6.65-17.44,2.13-36.41-1.21-53.9.83a74,74,0,0,0-16.75,3.82c-9.68,3.28-21.34,4.55-33.07,4.31-6.41,0-12.91-.71-19.27-.48-3.14,2.27-7.5,4.69-13.38,3.85-7.19-1.32-11.56-5.46-14.89-9.13-10.13-11.52-10.75-24.14-16.11-36.2a19.7,19.7,0,0,1-.68-15c.67-3,3.23-6,1.08-9.18-2.26-2.39-6.91-3.94-8.31-6.61-2.76-4.69.06-9.38,4-13.06,5.88-4.8,14.83-7.82,23.25-11,6.4-2.62,15.37-.19,22.72-1.18.52-2.56-6.75-3.06-8.12-5.4,1-1.24,3.55-1.59,5.72-1.91A204.49,204.49,0,0,1,362.92,215.62Zm7,4.39c-4,.39-7.1,2.22-6.42,4.77,8.56,2.46,17-.52,25.66,1.37,4.16.76,8.34,1.88,12.64,1.88,3.55-.16,7.3-1.43,7.57-3.66.43-1.65-2.53-3.14-5.24-3.26C392.69,220.29,381,219.05,369.89,220Zm-61.48,12.43c-5.61,2.39-9.62,5.93-11.33,9.95-.91,2.07-1.9,4.56.6,6.65,2.16,2,7.66,2.9,10.32,1.3,5.31-3.07,5.6-8.1,10.65-11.26,4.84-2.46,13.53-3.08,14.08-7.65a17.45,17.45,0,0,1-11.21-4.85A103,103,0,0,0,308.41,232.44Zm159.27,57.22a16.62,16.62,0,0,1-2.88,2.61c2.4,2.82,5.39,5.69,5.58,8.79-.18,1.8-1.58,3.62-4.59,4.21-4,1.19-9.89,1.38-11.06,4.37,4.35,1.24,8.88.61,12.93-.09,6.09-1,11.31-3.75,12.24-7.54.54-1.87-1.09-3.78-2.95-5.4C474.12,294.19,471.6,291.59,467.68,289.66Zm-149,16L318,308c-.76.88-2,1.78-1.25,2.92a20.68,20.68,0,0,0,11.56,9.93c4.78,1.43,9.95.35,13.71-1.12,2.23-.67,2.84-3.24-.2-3.92-4.09-.05-7.83,1.22-12,.69C322.57,314.15,323.91,308.88,318.7,305.65Z" transform="translate(-260.69 -203.67)"/><path class="cls-6" d="M369.89,220c11.15-1,22.8.28,34.21,1.1,2.71.12,5.67,1.61,5.24,3.26-.27,2.23-4,3.5-7.57,3.66-4.3,0-8.48-1.12-12.64-1.88-8.62-1.89-17.1,1.09-25.66-1.37C362.79,222.23,365.91,220.4,369.89,220Z" transform="translate(-260.69 -203.67)"/><path class="cls-6" d="M308.41,232.44a103,103,0,0,1,13.11-5.86,17.45,17.45,0,0,0,11.21,4.85c-.55,4.57-9.24,5.19-14.08,7.65-5,3.16-5.34,8.19-10.65,11.26-2.66,1.6-8.16.73-10.32-1.3-2.5-2.09-1.51-4.58-.6-6.65C298.79,238.37,302.8,234.83,308.41,232.44Z" transform="translate(-260.69 -203.67)"/><path class="cls-6" d="M467.68,289.66c3.92,1.93,6.44,4.53,9.27,6.95,1.86,1.62,3.49,3.53,2.95,5.4-.93,3.79-6.15,6.54-12.24,7.54-4.05.7-8.58,1.33-12.93.09,1.17-3,7.09-3.18,11.06-4.37,3-.59,4.41-2.41,4.59-4.21-.19-3.1-3.18-6-5.58-8.79A16.62,16.62,0,0,0,467.68,289.66Z" transform="translate(-260.69 -203.67)"/><path class="cls-6" d="M318.7,305.65c5.21,3.23,3.87,8.5,11.16,10.87,4.15.53,7.89-.74,12-.69,3,.68,2.43,3.25.2,3.92-3.76,1.47-8.93,2.55-13.71,1.12a20.68,20.68,0,0,1-11.56-9.93c-.77-1.14.49-2,1.25-2.92Z" transform="translate(-260.69 -203.67)"/><path class="cls-4" d="M324.6,340c-2.15,1.85-5.28,2-8,2.27-3.56.09-6-2.45-7.64-4.95l2.31-.28c1.79,1.05,3.44,2.88,5.81,2.61A28.42,28.42,0,0,1,324.6,340Z" transform="translate(-260.69 -203.67)"/><path class="cls-4" d="M503.22,313.88c1.06,2.12.08,4.09-.69,5.87-1.21,2.2-4.65,2.56-7.74,2.47.14-.39.42-1.15.57-1.53,1.71-.62,4.13-.82,4.74-2.38A14,14,0,0,1,503.22,313.88Z" transform="translate(-260.69 -203.67)"/><path class="cls-7" d="M383.36,251.33c3.55-.61,3.66,2.8.25,3.21C380.08,255.12,379.94,251.78,383.36,251.33Z" transform="translate(-260.69 -203.67)"/><path class="cls-7" d="M345.51,258.85q5-1.73,3.74,1.49Q344.27,262.1,345.51,258.85Z" transform="translate(-260.69 -203.67)"/><path class="cls-8" d="M334.54,244.59c3.44-1.38,7.29-1.08,10.88-1.27a108.82,108.82,0,0,0-19,8.82C328.24,249.44,330.16,246.4,334.54,244.59Z" transform="translate(-260.69 -203.67)"/><path class="cls-8" d="M386.71,237.44c7.43-4.76,17.12-2.15,20.62,2A76.53,76.53,0,0,0,386.71,237.44Z" transform="translate(-260.69 -203.67)"/><path class="cls-8" d="M329.68,255.56c4.67-4,13.23-6.63,20.45-5.79,10.71,1,16,8.12,13,14.55-11.87,3.62-23.79,7.34-33.89,12.94,3.92-5.4,13.13-8.54,21.46-11l-.15-.39c-4.78-.35-10.95-2.3-8.17-6,2.27-4.05,12.21-5.14,14.57-1.67,2.18,1.84-2.28,4.24-1.58,6.28,1.75,0,5.24.09,7,.13.71-4.75-.16-10.13-7.4-12.22-7.89-3.1-21.12.13-25.72,6-4,4.21-1.71,8.38-.53,12.27C324.07,266.71,323.56,260.34,329.68,255.56Zm15.83,3.29q-1.25,3.24,3.74,1.49Q350.48,257.13,345.51,258.85Z" transform="translate(-260.69 -203.67)"/><path class="cls-8" d="M374.69,262.5c-7-6.71,1.74-19.11,17.31-20.69,14.44-1.36,22.44,7.28,19,15.17-.75-4-.06-8.77-5.55-11.29-6.44-4.28-20.6-2.9-27.07,2.85-5.7,4.19-4.79,9.21-3.34,13.45,12-2.22,24.86-2.95,34.76.42.1.39.3,1.17.41,1.56C399.46,261.34,386.85,262.07,374.69,262.5Z" transform="translate(-260.69 -203.67)"/><path class="cls-8" d="M381.43,250.83c5.47-3.29,14.64-.54,12.2,3.64-1.26,3.2-8,5.15-12.23,3.82S377.12,253,381.43,250.83Zm1.93.5c-3.42.45-3.28,3.79.25,3.21C387,254.13,386.91,250.72,383.36,251.33Z" transform="translate(-260.69 -203.67)"/><path class="cls-8" d="M343.32,279c1.44-1.35,1.78-3.63,4.77-4.17,5.22-1.72,8.91.91,13.35,1.43,4.15-1.14,5.27-4.68,9.75-5.4a91,91,0,0,1,11.15,1.59,84.72,84.72,0,0,1,7.55-4.61c4,0,6.91,1.48,9.67,2.78,1.07-.59,3.17-1.81,4.24-2.4-1.41,1.77-3,3.51-4.64,5.22-.21-.76-.66-2.28-.87-3.05-2.68-.44-5.35-.91-8-1.38-2.61,1.58-4.37,4-8.05,4.73a96,96,0,0,1-11.41-1.49c-2.64,1.71-4.58,4-8.07,5.13-4.95.69-8.27-1.66-12.7-2.06C347.5,276.28,345.56,277.75,343.32,279Z" transform="translate(-260.69 -203.67)"/><path class="cls-8" d="M338.87,280.07c2.6-1.34,8.26-.5,7.24,1.67C343.58,283.45,337.71,282.2,338.87,280.07Z" transform="translate(-260.69 -203.67)"/><path class="cls-6" d="M325.07,285.42c8.19-1.1,18,2.35,20.52,7.34,3.67,5.74-4.1,11.85-14.27,11.27-8.52-.08-16.95-4.75-17.32-9.73C313.26,290.06,318.16,286.24,325.07,285.42Z" transform="translate(-260.69 -203.67)"/><path class="cls-6" d="M428.71,256.31c7.13-2,15.41,2.31,17.28,9.29,2.84,8-4.22,17.15-13,16.91-7.35.38-14.35-5.79-14.38-12.88C418.26,263.62,422.71,257.88,428.71,256.31Z" transform="translate(-260.69 -203.67)"/></svg>