<svg id="Livello_1" data-name="Livello 1" xmlns="http://www.w3.org/2000/svg" viewBox="0 0 189.26 110.85"><defs><style>.cls-1{fill:#ecb56e;}.cls-2{fill:#fedea8;}.cls-3{fill:#d8831f;}.cls-4{fill:#e49535;}.cls-5{fill:#864329;}.cls-6{fill:#b87656;}.cls-7{fill:#fff;}.cls-8{fill:#290d0e;}</style></defs><path class="cls-1" d="M411.51,246.68c3.23-1,6.94-1.41,10.4-2.15.73,1.71-2.18,2.39-4.44,2.7A19.77,19.77,0,0,1,411.51,246.68Z" transform="translate(-307.14 -238.98)"/><path class="cls-1" d="M427.44,245.43c1.72,0,5.32.17,4.93,1.65-1.23,1-3.46-.06-5-.46C427.36,246.32,427.42,245.72,427.44,245.43Z" transform="translate(-307.14 -238.98)"/><path class="cls-1" d="M384.37,242.34a4.63,4.63,0,0,1,3,.27C387.8,244,381.48,243.23,384.37,242.34Z" transform="translate(-307.14 -238.98)"/><path class="cls-1" d="M444.48,253.68a6.1,6.1,0,0,1,5.6,2.15C448.4,255.17,444,255.21,444.48,253.68Z" transform="translate(-307.14 -238.98)"/><path class="cls-1" d="M438.85,254.68c1.9-1.29,3.52,1.53,3.51,2.47C440.58,256.72,438.58,255.92,438.85,254.68Z" transform="translate(-307.14 -238.98)"/><path class="cls-1" d="M345.43,248.88c1.33-1.19,3.9-1.33,6.18-1.59l.93,1.08A21.3,21.3,0,0,1,345.43,248.88Z" transform="translate(-307.14 -238.98)"/><path class="cls-1" d="M361,248.31c.79-.65,3.12.19,1.9.82C362.08,249.77,359.78,248.94,361,248.31Z" transform="translate(-307.14 -238.98)"/><path class="cls-1" d="M335.63,253.68c2,.82-2.43,2-2.85.78C333.14,253.83,334.49,253.54,335.63,253.68Z" transform="translate(-307.14 -238.98)"/><path class="cls-1" d="M452.35,265.15c2,.73,2.14,2.11,2.56,3.28C451.91,268.22,452.41,266.32,452.35,265.15Z" transform="translate(-307.14 -238.98)"/><path class="cls-1" d="M323.28,255.33c.93-.61,2.3-.28,3.35.22-2.09,1.48-4.33,3.1-8,3.32C319.42,257.38,321.22,256.23,323.28,255.33Z" transform="translate(-307.14 -238.98)"/><path class="cls-1" d="M461.16,276.29c-1.64-1.33-3.57-3-2.61-4.52C460.34,273.11,461.6,274.68,461.16,276.29Z" transform="translate(-307.14 -238.98)"/><path class="cls-1" d="M327.51,259.57c1.63-.14,2.08,1.4.47,1.43C326.29,261.19,325.8,259.56,327.51,259.57Z" transform="translate(-307.14 -238.98)"/><path class="cls-1" d="M320.49,264.11c.77-1.09,2.39-1.74,4.21-2.17C326.52,263.6,322.73,264.38,320.49,264.11Z" transform="translate(-307.14 -238.98)"/><path class="cls-1" d="M314.5,269.73c.08-1.52,1.82-3,4.83-2.27A7.17,7.17,0,0,1,314.5,269.73Z" transform="translate(-307.14 -238.98)"/><path class="cls-1" d="M320.07,274.87c-.35-2.48-.31-6.07,4.51-6.72a27.9,27.9,0,0,1-3.29,6.33Z" transform="translate(-307.14 -238.98)"/><path class="cls-1" d="M466.11,283.5c1.2.29,2.71.46,2.93,1.37-.85.47-1.72.91-2.63,1.33A3.72,3.72,0,0,1,466.11,283.5Z" transform="translate(-307.14 -238.98)"/><path class="cls-1" d="M435.94,284.69c1.83,1.06,3.89,2.1,4.93,3.5,1.42,1.76,1.05,3.64,1.13,5.44-2.26-.81-5.73-1.31-6.28-3.07C435.23,288.57,435.75,286.63,435.94,284.69Z" transform="translate(-307.14 -238.98)"/><path class="cls-1" d="M322.58,282.06c-1.81-1.32-3.15-3-1.73-4.45C322.69,278.88,324,280.66,322.58,282.06Z" transform="translate(-307.14 -238.98)"/><path class="cls-1" d="M472.87,294.63c1.43-.71,2.53.74,3,1.37a2.27,2.27,0,0,1-.45,3.27C473.68,297.89,472.7,296.24,472.87,294.63Z" transform="translate(-307.14 -238.98)"/><path class="cls-1" d="M477,305.72c1.31-.38,2.3,1,1.2,1.38C476.85,307.46,475.87,306.07,477,305.72Z" transform="translate(-307.14 -238.98)"/><path class="cls-1" d="M483.52,311.1c-1.17-1.59-2.21-3.4-.76-4.89C483.85,307.71,486.41,310.05,483.52,311.1Z" transform="translate(-307.14 -238.98)"/><path class="cls-1" d="M331.47,296.64c1.55-.15,2.31,1.53,1.45,2.06C331.35,298.78,330.5,297.18,331.47,296.64Z" transform="translate(-307.14 -238.98)"/><path class="cls-1" d="M481.19,315.71c1.6-.27,2.51,1.83.76,1.81C480.8,317.21,480.35,316.16,481.19,315.71Z" transform="translate(-307.14 -238.98)"/><path class="cls-1" d="M467.16,326.38c2-1.68,6-1.72,9.38-1.28C474.7,326.88,470.52,326.73,467.16,326.38Z" transform="translate(-307.14 -238.98)"/><path class="cls-1" d="M443.64,327.45c1.63-1.44,4.88-1.49,7.68-1.67C450.82,327.86,446.74,328.26,443.64,327.45Z" transform="translate(-307.14 -238.98)"/><path class="cls-1" d="M403.63,332.92c.13-2.2,5.66-2.12,7.54-.43C409.6,333.92,406.18,333.43,403.63,332.92Z" transform="translate(-307.14 -238.98)"/><path class="cls-1" d="M339.59,326c2.07,1.31,6.42,3.44,3.54,5A5.5,5.5,0,0,1,339.59,326Z" transform="translate(-307.14 -238.98)"/><path class="cls-1" d="M367.83,335.35c1.24-1.1,3.64-.92,5.76-.67C372.75,336.23,370.08,335.78,367.83,335.35Z" transform="translate(-307.14 -238.98)"/><path class="cls-2" d="M420.21,243.45a31.1,31.1,0,0,1,16.79.42c4.74,1.7,6.56,5,6.34,7.86,2.87.16,6.21.55,8.05,2.14,6.46,4.95,5.84,11.1,9.66,16.53,4.28,8.08,11.7,15.59,17.53,23.38,5.31,8.57,9.35,17.39,11.07,26.23.71,2.86-.84,6.1-5.53,7.15-6.74,1.57-14.18,2.12-21.37,3-9.8,1-19.37,2.38-29.22,3.25-17.87,1.59-36.24,2.18-53.61,4.81-8.33,1.08-16.42,2.69-25.13,3-3.28.19-7.06-.57-9.2-2.29-1.58-1.39-1.92-3-3-4.52-6.18-8-12.07-16.1-15.35-24.47-1.95-6.59-2.42-13.23-5.44-19.78-2-4.39-3.25-8.87-6.34-13.13-1.77-2.83-4.23-5.84-3.23-8.75.44-1.43,2.58-2.26,4.23-3.16-2.49-3.68-2.82-8.42,2.48-10.77,5.17-2.74,15.08-.38,18.83-4.26,2.82-3.38,9.52-4.51,15.41-5.52,10.87-1.48,21.76-3,32.93-3.9,4.72-.27,9.61-.69,14.45.16,2.53.74,3.58,2.62,6.31,3.21A28.26,28.26,0,0,0,420.21,243.45Zm-8.7,3.23a19.77,19.77,0,0,0,6,.55c2.26-.31,5.17-1,4.44-2.7C418.45,245.27,414.74,245.69,411.51,246.68Zm15.93-1.25c0,.29-.08.89-.11,1.19,1.58.4,3.81,1.5,5,.46C432.76,245.6,429.16,245.44,427.44,245.43Zm-27.52-1.81a15.39,15.39,0,0,0,.77,2.57l3.74.39a3.73,3.73,0,0,0-1.36-2.94Zm-15.55-1.28c-2.89.89,3.43,1.62,3,.27A4.63,4.63,0,0,0,384.37,242.34Zm1.06,5.8A155,155,0,0,0,367,249c-1.66.25-3.57.52-4.38,1.47,1.05,1.79,6.62,2.17,6.22,4.13-5.63.76-12.5-1.1-17.4.9-6.45,2.41-13.31,4.73-17.81,8.4-3,2.82-5.18,6.41-3.07,10,1.07,2,4.63,3.24,6.37,5.07,1.65,2.42-.32,4.73-.83,7a15.12,15.12,0,0,0,.52,11.47c4.11,9.23,4.58,18.89,12.34,27.72,2.55,2.81,5.9,6,11.4,7a13.65,13.65,0,0,0,10.25-2.95c4.87-.17,9.85.35,14.76.37,9,.19,17.92-.79,25.33-3.3a57.26,57.26,0,0,1,12.83-2.93c13.39-1.56,27.92,1,41.28-.63,5.41-.76,11.22-2.07,13.66-5.1,2-2.65-.4-5.72-2.32-8.4-4.13-5.38-14.94-8-18.64-13.53-6.06-9.31-.31-19-6.72-28.24-1.24-1.93-4.26-3.33-7.48-4-5.48-1.36-12.56-1.62-16.31-4.8-.06-2.09,2.27-4.06.83-6.21s-5.55-2.54-8.74-2.91A322.34,322.34,0,0,0,385.43,248.14Zm59.05,5.54c-.47,1.53,3.92,1.49,5.6,2.15A6.1,6.1,0,0,0,444.48,253.68Zm-5.63,1c-.27,1.24,1.73,2,3.51,2.47C442.37,256.21,440.75,253.39,438.85,254.68Zm-93.42-5.8a21.3,21.3,0,0,0,7.11-.51l-.93-1.08C349.33,247.55,346.76,247.69,345.43,248.88Zm15.55-.57c-1.2.63,1.1,1.46,1.9.82C364.1,248.5,361.77,247.66,361,248.31Zm-25.35,5.37c-1.14-.14-2.49.15-2.85.78C333.2,255.72,337.61,254.5,335.63,253.68Zm116.72,11.47c.06,1.17-.44,3.07,2.56,3.28C454.49,267.26,454.4,265.88,452.35,265.15Zm-129.07-9.82c-2.06.9-3.86,2-4.62,3.54,3.64-.22,5.88-1.84,8-3.32C325.58,255.05,324.21,254.72,323.28,255.33Zm137.88,21c.44-1.61-.82-3.18-2.61-4.52C457.59,273.33,459.52,275,461.16,276.29ZM327.51,259.57c-1.71,0-1.22,1.62.47,1.43C329.59,261,329.14,259.43,327.51,259.57Zm-7,4.54c2.24.27,6-.51,4.21-2.17C322.88,262.37,321.26,263,320.49,264.11Zm-6,5.62a7.17,7.17,0,0,0,4.83-2.27C316.32,266.72,314.58,268.21,314.5,269.73Zm5.57,5.14,1.22-.39a27.9,27.9,0,0,0,3.29-6.33C319.76,268.8,319.72,272.39,320.07,274.87Zm146,8.63a3.72,3.72,0,0,0,.3,2.7c.91-.42,1.78-.86,2.63-1.33C468.82,284,467.31,283.79,466.11,283.5Zm-143.53-1.44c1.46-1.4.11-3.18-1.73-4.45C319.43,279.06,320.77,280.74,322.58,282.06Zm150.29,12.57c-.17,1.61.81,3.26,2.55,4.64a2.27,2.27,0,0,0,.45-3.27C475.4,295.37,474.3,293.92,472.87,294.63ZM324.1,284.86a8.75,8.75,0,0,0,1.62,4.21c1.13,1.74.17,3.54,1.51,5.26a12.69,12.69,0,0,0-1.14-9.08ZM477,305.72c-1.1.35-.12,1.74,1.2,1.38C479.27,306.74,478.28,305.34,477,305.72Zm6.55,5.38c2.89-1.05.33-3.39-.76-4.89C481.31,307.7,482.35,309.51,483.52,311.1Zm-152-14.46c-1,.54-.12,2.14,1.45,2.06C333.78,298.17,333,296.49,331.47,296.64Zm149.72,19.07c-.84.45-.39,1.5.76,1.81C483.7,317.54,482.79,315.44,481.19,315.71ZM328.56,305.48a16.32,16.32,0,0,0,2.12,6.93l1.9.24a8.87,8.87,0,0,0-1.12-7Zm138.6,20.9c3.36.35,7.54.5,9.38-1.28C473.15,324.66,469.14,324.7,467.16,326.38ZM338.92,314.86l-1,.81a4.84,4.84,0,0,0,1.55,2.86A6,6,0,0,0,338.92,314.86Zm104.72,12.59c3.1.81,7.18.41,7.68-1.67C448.52,326,445.27,326,443.64,327.45Zm-40,5.47c2.55.51,6,1,7.54-.43C409.29,330.8,403.76,330.72,403.63,332.92Zm-64-6.92a5.5,5.5,0,0,0,3.54,5C346,329.44,341.66,327.31,339.59,326Zm28.24,9.35c2.25.43,4.92.88,5.76-.67C371.47,334.43,369.07,334.25,367.83,335.35Z" transform="translate(-307.14 -238.98)"/><path class="cls-3" d="M428.72,241c3.92,0,8.36.3,11.58,2.08,3.71,1.92,5.37,4.74,6.85,7.39,3.11.33,7.2.13,9.07,2.19,6.21,5.8,4.86,12.72,9.13,18.87.49.89,1,1.78,1.46,2.67,2.38,4.23,5.31,8.36,8.11,12.51,1.45,2.18,2.8,4.38,4.43,6.53.32.45.62.9.93,1.36,4.12,6,6.71,12.16,9.22,18.34,1.53,4,2.85,8.11,5.25,12,1,1.8,2.44,3.82,1.12,5.56s-4.52,2.6-7.5,3.15c-10.78,1.86-22.12,2.66-33.12,4.11-14.28,1.88-28.54,3.78-42.95,5.37-12.47,1.51-25.19,2.45-37.55,4.16-8.4.95-16.68,2.29-25.38,2.51-3.18.14-6.71-.74-8.55-2.54-2.17-2.37-2.39-5.08-3.84-7.58-4.63-8.63-10.43-17.16-12.94-26-2.85-10-5.35-20.13-10.5-30-3.12-4.82-7.52-9.78-6.14-14.9,1.45-1.11,3.66-1.7,5.6-2.45-1-3.16-2.56-6.67.42-9.37,5.86-4.59,17.8-4.17,23.4-9,6.42-3,14.73-4,22.67-5.12,11.87-1.47,23.79-2.92,36-3.64a90.91,90.91,0,0,1,11.91-.09c4.26.41,7.14,3.13,11.42,3.51C422.22,242.27,425.13,241,428.72,241Zm-8.51,2.48a28.26,28.26,0,0,1-13.39.64c-2.73-.59-3.78-2.47-6.31-3.21-4.84-.85-9.73-.43-14.45-.16-11.17.9-22.06,2.42-32.93,3.9-5.89,1-12.59,2.14-15.41,5.52-3.75,3.88-13.66,1.52-18.83,4.26-5.3,2.35-5,7.09-2.48,10.77-1.65.9-3.79,1.73-4.23,3.16-1,2.91,1.46,5.92,3.23,8.75,3.09,4.26,4.33,8.74,6.34,13.13,3,6.55,3.49,13.19,5.44,19.78,3.28,8.37,9.17,16.5,15.35,24.47,1.13,1.48,1.47,3.13,3,4.52,2.14,1.72,5.92,2.48,9.2,2.29,8.71-.34,16.8-1.95,25.13-3,17.37-2.63,35.74-3.22,53.61-4.81,9.85-.87,19.42-2.29,29.22-3.25,7.19-.9,14.63-1.45,21.37-3,4.69-1.05,6.24-4.29,5.53-7.15-1.72-8.84-5.76-17.66-11.07-26.23-5.83-7.79-13.25-15.3-17.53-23.38-3.82-5.43-3.2-11.58-9.66-16.53-1.84-1.59-5.18-2-8.05-2.14.22-2.88-1.6-6.16-6.34-7.86A31.1,31.1,0,0,0,420.21,243.45Z" transform="translate(-307.14 -238.98)"/><path class="cls-4" d="M399.92,243.62l3.15,0a3.73,3.73,0,0,1,1.36,2.94l-3.74-.39A15.39,15.39,0,0,1,399.92,243.62Z" transform="translate(-307.14 -238.98)"/><path class="cls-4" d="M324.1,284.86l2,.39a12.69,12.69,0,0,1,1.14,9.08c-1.34-1.72-.38-3.52-1.51-5.26A8.75,8.75,0,0,1,324.1,284.86Z" transform="translate(-307.14 -238.98)"/><path class="cls-4" d="M328.56,305.48l2.9.16a8.87,8.87,0,0,1,1.12,7l-1.9-.24A16.32,16.32,0,0,1,328.56,305.48Z" transform="translate(-307.14 -238.98)"/><path class="cls-4" d="M338.92,314.86a6,6,0,0,1,.59,3.67,4.84,4.84,0,0,1-1.55-2.86Z" transform="translate(-307.14 -238.98)"/><path class="cls-5" d="M385.43,248.14a322.34,322.34,0,0,1,33.68,1.37c3.19.37,7.23.9,8.74,2.91s-.89,4.12-.83,6.21c3.75,3.18,10.83,3.44,16.31,4.8,3.22.7,6.24,2.1,7.48,4,6.41,9.28.66,18.93,6.72,28.24,3.7,5.53,14.51,8.15,18.64,13.53,1.92,2.68,4.31,5.75,2.32,8.4-2.44,3-8.25,4.34-13.66,5.1-13.36,1.63-27.89-.93-41.28.63a57.26,57.26,0,0,0-12.83,2.93c-7.41,2.51-16.35,3.49-25.33,3.3-4.91,0-9.89-.54-14.76-.37a13.65,13.65,0,0,1-10.25,2.95c-5.5-1-8.85-4.18-11.4-7-7.76-8.83-8.23-18.49-12.34-27.72a15.12,15.12,0,0,1-.52-11.47c.51-2.3,2.48-4.61.83-7-1.74-1.83-5.3-3-6.37-5.07-2.11-3.59.05-7.18,3.07-10,4.5-3.67,11.36-6,17.81-8.4,4.9-2,11.77-.14,17.4-.9.4-2-5.17-2.34-6.22-4.13.81-1,2.72-1.22,4.38-1.47A155,155,0,0,1,385.43,248.14Zm5.35,3.36c-3.06.3-5.44,1.7-4.93,3.65,6.57,1.88,13.06-.4,19.66,1,3.19.58,6.39,1.44,9.68,1.44,2.72-.12,5.6-1.09,5.8-2.8.33-1.27-1.94-2.41-4-2.5C408.24,251.71,399.32,250.76,390.78,251.5ZM343.68,261c-4.29,1.83-7.36,4.54-8.67,7.62-.7,1.59-1.46,3.49.46,5.09,1.65,1.56,5.87,2.22,7.9,1,4.07-2.34,4.29-6.19,8.16-8.62,3.71-1.88,10.36-2.35,10.78-5.86a13.36,13.36,0,0,1-8.59-3.71A78.91,78.91,0,0,0,343.68,261Zm122,43.82a12.55,12.55,0,0,1-2.2,2c1.83,2.16,4.13,4.36,4.27,6.74-.14,1.37-1.21,2.77-3.51,3.22-3,.91-7.58,1.05-8.47,3.35,3.32.94,6.8.46,9.9-.07,4.66-.77,8.66-2.88,9.37-5.78.42-1.43-.84-2.89-2.26-4.14C470.6,308.31,468.67,306.32,465.67,304.84Zm-114.1,12.25c-.13.46-.4,1.36-.53,1.81-.58.68-1.54,1.37-1,2.24a15.84,15.84,0,0,0,8.86,7.6c3.67,1.11,7.62.27,10.5-.85,1.71-.52,2.18-2.48-.15-3-3.14,0-6,.94-9.18.53C354.53,323.6,355.55,319.56,351.57,317.09Z" transform="translate(-307.14 -238.98)"/><path class="cls-6" d="M390.78,251.5c8.54-.74,17.46.21,26.2.84,2.07.09,4.34,1.23,4,2.5-.2,1.71-3.08,2.68-5.8,2.8-3.29,0-6.49-.86-9.68-1.44-6.6-1.45-13.09.83-19.66-1C385.34,253.2,387.72,251.8,390.78,251.5Z" transform="translate(-307.14 -238.98)"/><path class="cls-6" d="M343.68,261a78.91,78.91,0,0,1,10-4.49,13.36,13.36,0,0,0,8.59,3.71c-.42,3.51-7.07,4-10.78,5.86-3.87,2.43-4.09,6.28-8.16,8.62-2,1.23-6.25.57-7.9-1-1.92-1.6-1.16-3.5-.46-5.09C336.32,265.56,339.39,262.85,343.68,261Z" transform="translate(-307.14 -238.98)"/><path class="cls-6" d="M465.67,304.84c3,1.48,4.93,3.47,7.1,5.32,1.42,1.25,2.68,2.71,2.26,4.14-.71,2.9-4.71,5-9.37,5.78-3.1.53-6.58,1-9.9.07.89-2.3,5.43-2.44,8.47-3.35,2.3-.45,3.37-1.85,3.51-3.22-.14-2.38-2.44-4.58-4.27-6.74A12.55,12.55,0,0,0,465.67,304.84Z" transform="translate(-307.14 -238.98)"/><path class="cls-6" d="M351.57,317.09c4,2.47,3,6.51,8.54,8.32,3.18.41,6-.56,9.18-.53,2.33.53,1.86,2.49.15,3-2.88,1.12-6.83,2-10.5.85a15.84,15.84,0,0,1-8.86-7.6c-.58-.87.38-1.56,1-2.24C351.17,318.45,351.44,317.55,351.57,317.09Z" transform="translate(-307.14 -238.98)"/><path class="cls-4" d="M356.08,343.39c-1.64,1.42-4,1.55-6.14,1.74-2.73.07-4.59-1.88-5.86-3.79.45-.06,1.33-.17,1.77-.21,1.38.8,2.64,2.2,4.45,2A21.45,21.45,0,0,1,356.08,343.39Z" transform="translate(-307.14 -238.98)"/><path class="cls-4" d="M492.9,323.39c.8,1.63.05,3.14-.53,4.5-.93,1.69-3.56,2-5.94,1.89l.44-1.17c1.31-.48,3.17-.63,3.64-1.82A10.26,10.26,0,0,1,492.9,323.39Z" transform="translate(-307.14 -238.98)"/><path class="cls-7" d="M401.09,275.48c2.72-.46,2.8,2.15.19,2.47S398.47,275.83,401.09,275.48Z" transform="translate(-307.14 -238.98)"/><path class="cls-7" d="M372.1,281.25c2.54-.89,3.49-.5,2.87,1.14C372.42,283.28,371.47,282.9,372.1,281.25Z" transform="translate(-307.14 -238.98)"/><path class="cls-8" d="M363.7,270.33c2.64-1.06,5.58-.84,8.33-1a83.91,83.91,0,0,0-14.55,6.76C358.88,274,360.34,271.71,363.7,270.33Z" transform="translate(-307.14 -238.98)"/><path class="cls-8" d="M403.66,264.85c5.69-3.65,13.11-1.65,15.79,1.5A58.23,58.23,0,0,0,403.66,264.85Z" transform="translate(-307.14 -238.98)"/><path class="cls-8" d="M360,278.72c3.57-3.08,10.13-5.08,15.66-4.43,8.2.78,12.24,6.22,10,11.14-9.09,2.78-18.22,5.63-26,9.91,3-4.13,10.06-6.53,16.44-8.45l-.12-.29c-3.66-.27-8.38-1.76-6.25-4.58,1.73-3.1,9.35-3.93,11.15-1.27,1.67,1.4-1.74,3.24-1.2,4.81,1.34,0,4,.07,5.33.1.54-3.64-.12-7.76-5.67-9.36-6-2.38-16.17.1-19.69,4.59-3.06,3.23-1.31,6.42-.41,9.4C355.68,287.26,355.29,282.39,360,278.72Zm12.12,2.53c-.63,1.65.32,2,2.87,1.14C375.59,280.75,374.64,280.36,372.1,281.25Z" transform="translate(-307.14 -238.98)"/><path class="cls-8" d="M394.45,284c-5.37-5.14,1.33-14.64,13.26-15.85,11.06-1,17.19,5.58,14.56,11.63-.57-3.07,0-6.72-4.24-8.66-4.94-3.27-15.78-2.21-20.74,2.19-4.36,3.21-3.67,7-2.55,10.3,9.18-1.7,19-2.26,26.61.32.09.3.23.9.32,1.2C413.42,283.15,403.77,283.71,394.45,284Z" transform="translate(-307.14 -238.98)"/><path class="cls-8" d="M399.61,275.1c4.19-2.52,11.21-.41,9.35,2.79-1,2.45-6.16,3.94-9.37,2.92S396.31,276.75,399.61,275.1Zm1.48.38c-2.62.35-2.51,2.91.19,2.47S403.81,275,401.09,275.48Z" transform="translate(-307.14 -238.98)"/><path class="cls-8" d="M370.43,296.66c1.1-1,1.36-2.79,3.65-3.2,4-1.31,6.82.7,10.22,1.1,3.18-.88,4-3.59,7.47-4.14a69.66,69.66,0,0,1,8.54,1.22,65.33,65.33,0,0,1,5.78-3.53c3.07,0,5.29,1.13,7.41,2.13.81-.46,2.43-1.39,3.25-1.84-1.09,1.35-2.29,2.69-3.56,4-.16-.58-.5-1.75-.66-2.34q-3.09-.51-6.12-1.05c-2,1.21-3.35,3.06-6.17,3.62a75.8,75.8,0,0,1-8.74-1.14c-2,1.3-3.51,3.09-6.18,3.92-3.79.53-6.34-1.27-9.72-1.57A40.28,40.28,0,0,0,370.43,296.66Z" transform="translate(-307.14 -238.98)"/><path class="cls-8" d="M367,297.49c2-1,6.33-.37,5.55,1.28C370.63,300.09,366.12,299.13,367,297.49Z" transform="translate(-307.14 -238.98)"/><path class="cls-6" d="M356.44,301.59c6.28-.83,13.81,1.81,15.72,5.63,2.81,4.39-3.14,9.08-10.93,8.63-6.53-.07-13-3.64-13.26-7.45C347.4,305.15,351.15,302.22,356.44,301.59Z" transform="translate(-307.14 -238.98)"/><path class="cls-6" d="M435.83,279.3c5.46-1.56,11.8,1.77,13.23,7.12,2.17,6.1-3.23,13.13-9.93,12.94-5.63.29-11-4.43-11-9.86A10.26,10.26,0,0,1,435.83,279.3Z" transform="translate(-307.14 -238.98)"/></svg>