<svg id="Livello_1" data-name="Livello 1" xmlns="http://www.w3.org/2000/svg" viewBox="0 0 181.21 106.14"><defs><style>.cls-1{fill:#ecb56e;}.cls-2{fill:#fedea8;}.cls-3{fill:#d8831f;}.cls-4{fill:#e49535;}.cls-5{fill:#f5d725;}.cls-6{fill:#f5eb6f;}.cls-7{fill:#fff;}.cls-8{fill:#290d0e;}</style></defs><path class="cls-1" d="M190.83,260.76c3.09-.95,6.64-1.35,9.95-2.05.7,1.64-2.09,2.28-4.25,2.58A19,19,0,0,1,190.83,260.76Z" transform="translate(-90.89 -253.39)"/><path class="cls-1" d="M206.07,259.56c1.65,0,5.1.17,4.72,1.59-1.17,1-3.3-.06-4.82-.45C206,260.42,206.05,259.85,206.07,259.56Z" transform="translate(-90.89 -253.39)"/><path class="cls-1" d="M164.84,256.61a4.43,4.43,0,0,1,2.86.26C168.12,258.16,162.07,257.46,164.84,256.61Z" transform="translate(-90.89 -253.39)"/><path class="cls-1" d="M222.39,267.47a5.84,5.84,0,0,1,5.37,2C226.15,268.89,222,268.93,222.39,267.47Z" transform="translate(-90.89 -253.39)"/><path class="cls-1" d="M217,268.42c1.82-1.23,3.37,1.47,3.36,2.37C218.65,270.37,216.74,269.61,217,268.42Z" transform="translate(-90.89 -253.39)"/><path class="cls-1" d="M127.56,262.87c1.27-1.14,3.73-1.27,5.91-1.52.23.25.68.77.89,1A20.52,20.52,0,0,1,127.56,262.87Z" transform="translate(-90.89 -253.39)"/><path class="cls-1" d="M142.44,262.32c.76-.62,3,.19,1.82.79C143.5,263.72,141.29,262.93,142.44,262.32Z" transform="translate(-90.89 -253.39)"/><path class="cls-1" d="M118.17,267.47c1.9.78-2.32,1.95-2.72.74C115.79,267.61,117.08,267.33,118.17,267.47Z" transform="translate(-90.89 -253.39)"/><path class="cls-1" d="M229.92,278.45c2,.7,2.06,2,2.46,3.14C229.5,281.39,230,279.57,229.92,278.45Z" transform="translate(-90.89 -253.39)"/><path class="cls-1" d="M106.35,269a3.46,3.46,0,0,1,3.2.22c-2,1.41-4.14,3-7.63,3.18C102.65,271,104.38,269.9,106.35,269Z" transform="translate(-90.89 -253.39)"/><path class="cls-1" d="M238.36,289.12c-1.57-1.28-3.42-2.84-2.5-4.33C237.58,286.07,238.78,287.57,238.36,289.12Z" transform="translate(-90.89 -253.39)"/><path class="cls-1" d="M110.4,273.11c1.55-.14,2,1.33.45,1.37S108.76,273.1,110.4,273.11Z" transform="translate(-90.89 -253.39)"/><path class="cls-1" d="M103.68,277.45c.73-1.05,2.28-1.66,4-2.07C109.45,277,105.82,277.71,103.68,277.45Z" transform="translate(-90.89 -253.39)"/><path class="cls-1" d="M97.94,282.83c.07-1.45,1.74-2.88,4.63-2.17A6.85,6.85,0,0,1,97.94,282.83Z" transform="translate(-90.89 -253.39)"/><path class="cls-1" d="M103.27,287.75c-.33-2.37-.29-5.81,4.32-6.43a26.54,26.54,0,0,1-3.15,6.06Z" transform="translate(-90.89 -253.39)"/><path class="cls-1" d="M243.1,296c1.15.27,2.59.44,2.8,1.3-.81.45-1.64.88-2.51,1.28A3.56,3.56,0,0,1,243.1,296Z" transform="translate(-90.89 -253.39)"/><path class="cls-1" d="M214.21,297.15c1.76,1,3.73,2,4.73,3.36,1.35,1.68,1,3.48,1.08,5.2-2.17-.77-5.49-1.25-6-2.93C213.54,300.87,214,299,214.21,297.15Z" transform="translate(-90.89 -253.39)"/><path class="cls-1" d="M105.68,294.64c-1.74-1.27-3-2.87-1.66-4.27C105.78,291.6,107.08,293.29,105.68,294.64Z" transform="translate(-90.89 -253.39)"/><path class="cls-1" d="M249.58,306.67c1.36-.68,2.41.71,2.87,1.32a2.17,2.17,0,0,1-.43,3.12C250.35,309.79,249.41,308.21,249.58,306.67Z" transform="translate(-90.89 -253.39)"/><path class="cls-1" d="M253.5,317.29c1.25-.36,2.2,1,1.14,1.32C253.38,319,252.45,317.63,253.5,317.29Z" transform="translate(-90.89 -253.39)"/><path class="cls-1" d="M259.77,322.44c-1.12-1.52-2.12-3.25-.73-4.68C260.09,319.2,262.53,321.44,259.77,322.44Z" transform="translate(-90.89 -253.39)"/><path class="cls-1" d="M114.19,308.6c1.48-.15,2.21,1.46,1.39,2C114.07,310.64,113.27,309.12,114.19,308.6Z" transform="translate(-90.89 -253.39)"/><path class="cls-1" d="M257.54,326.86c1.53-.26,2.4,1.75.72,1.73C257.16,328.29,256.73,327.29,257.54,326.86Z" transform="translate(-90.89 -253.39)"/><path class="cls-1" d="M244.1,337.07c1.9-1.61,5.75-1.65,9-1.22C251.32,337.55,247.32,337.4,244.1,337.07Z" transform="translate(-90.89 -253.39)"/><path class="cls-1" d="M221.58,338.09c1.56-1.37,4.68-1.42,7.36-1.6C228.46,338.49,224.55,338.87,221.58,338.09Z" transform="translate(-90.89 -253.39)"/><path class="cls-1" d="M183.28,343.33c.12-2.1,5.42-2,7.22-.41C189,344.29,185.73,343.82,183.28,343.33Z" transform="translate(-90.89 -253.39)"/><path class="cls-1" d="M122,336.71c2,1.25,6.14,3.29,3.38,4.79A5.26,5.26,0,0,1,122,336.71Z" transform="translate(-90.89 -253.39)"/><path class="cls-1" d="M149,345.66c1.19-1.06,3.48-.88,5.52-.65C153.71,346.51,151.16,346.07,149,345.66Z" transform="translate(-90.89 -253.39)"/><path class="cls-2" d="M199.15,257.67a29.77,29.77,0,0,1,16.08.4c4.54,1.63,6.28,4.77,6.06,7.53,2.76.15,6,.52,7.72,2,6.18,4.74,5.58,10.62,9.24,15.82,4.1,7.74,11.21,14.93,16.79,22.39,5.09,8.21,9,16.65,10.6,25.11.68,2.74-.8,5.84-5.29,6.85-6.46,1.5-13.59,2-20.46,2.89-9.39.92-18.55,2.27-28,3.11-17.11,1.52-34.71,2.09-51.33,4.61-8,1-15.72,2.57-24.06,2.9-3.14.18-6.76-.55-8.81-2.19-1.51-1.34-1.84-2.91-2.92-4.34-5.92-7.62-11.56-15.4-14.7-23.42-1.87-6.31-2.31-12.66-5.21-18.94-1.92-4.2-3.11-8.49-6.07-12.57-1.69-2.71-4-5.59-3.09-8.38.42-1.37,2.47-2.16,4-3-2.38-3.52-2.7-8.07,2.38-10.32,4.95-2.62,14.43-.36,18-4.08,2.71-3.23,9.12-4.32,14.76-5.28,10.41-1.42,20.83-2.87,31.53-3.74,4.52-.25,9.2-.66,13.83.16,2.42.71,3.43,2.51,6.05,3.08A27,27,0,0,0,199.15,257.67Zm-8.32,3.09a19,19,0,0,0,5.7.53c2.16-.3,4.95-.94,4.25-2.58C197.47,259.41,193.92,259.81,190.83,260.76Zm15.24-1.2c0,.29-.07.86-.1,1.14,1.52.39,3.65,1.44,4.82.45C211.17,259.73,207.72,259.57,206.07,259.56Zm-26.35-1.72a16.43,16.43,0,0,0,.74,2.46l3.58.37a3.59,3.59,0,0,0-1.29-2.82Zm-14.88-1.23c-2.77.85,3.28,1.55,2.86.26A4.43,4.43,0,0,0,164.84,256.61Zm1,5.55a150.42,150.42,0,0,0-17.63.81c-1.59.24-3.43.5-4.19,1.41,1,1.71,6.33,2.08,6,4-5.39.73-12-1.06-16.66.86-6.18,2.31-12.74,4.52-17.05,8-2.9,2.7-5,6.14-2.94,9.58,1,1.95,4.43,3.09,6.09,4.85,1.58,2.32-.3,4.53-.79,6.73a14.47,14.47,0,0,0,.5,11c3.93,8.84,4.38,18.09,11.81,26.54,2.44,2.69,5.65,5.73,10.92,6.7a13.14,13.14,0,0,0,9.82-2.83c4.66-.16,9.43.33,14.12.35,8.61.18,17.16-.75,24.26-3.15a54.39,54.39,0,0,1,12.28-2.81c12.83-1.5,26.74,1,39.53-.61,5.18-.72,10.74-2,13.08-4.87,1.9-2.54-.39-5.48-2.22-8.05-4-5.15-14.31-7.66-17.86-12.95-5.79-8.91-.29-18.15-6.43-27.05-1.18-1.84-4.08-3.18-7.16-3.85-5.25-1.3-12-1.55-15.62-4.59,0-2,2.18-3.89.8-5.95s-5.32-2.44-8.37-2.79A311.34,311.34,0,0,0,165.86,262.16Zm56.53,5.31c-.44,1.46,3.76,1.42,5.37,2A5.84,5.84,0,0,0,222.39,267.47Zm-5.39.95c-.26,1.19,1.65,1.95,3.36,2.37C220.37,269.89,218.82,267.19,217,268.42Zm-89.44-5.55a20.52,20.52,0,0,0,6.8-.49c-.21-.26-.66-.78-.89-1C131.29,261.6,128.83,261.73,127.56,262.87Zm14.88-.55c-1.15.61,1.06,1.4,1.82.79C145.43,262.51,143.2,261.7,142.44,262.32Zm-24.27,5.15c-1.09-.14-2.38.14-2.72.74C115.85,269.42,120.07,268.25,118.17,267.47Zm111.75,11c.06,1.12-.42,2.94,2.46,3.14C232,280.47,231.89,279.15,229.92,278.45ZM106.35,269c-2,.86-3.7,2-4.43,3.4,3.49-.22,5.63-1.77,7.63-3.18A3.46,3.46,0,0,0,106.35,269Zm132,20.08c.42-1.55-.78-3.05-2.5-4.33C234.94,286.28,236.79,287.84,238.36,289.12Zm-128-16c-1.64,0-1.17,1.55.45,1.37S112,273,110.4,273.11Zm-6.72,4.34c2.14.26,5.77-.49,4-2.07C106,275.79,104.41,276.4,103.68,277.45Zm-5.74,5.38a6.85,6.85,0,0,0,4.63-2.17C99.68,280,98,281.38,97.94,282.83Zm5.33,4.92,1.17-.37a26.54,26.54,0,0,0,3.15-6.06C103,281.94,102.94,285.38,103.27,287.75ZM243.1,296a3.56,3.56,0,0,0,.29,2.58c.87-.4,1.7-.83,2.51-1.28C245.69,296.46,244.25,296.29,243.1,296Zm-137.42-1.38c1.4-1.35.1-3-1.66-4.27C102.66,291.77,103.94,293.37,105.68,294.64Zm143.9,12c-.17,1.54.77,3.12,2.44,4.44a2.17,2.17,0,0,0,.43-3.12C252,307.38,250.94,306,249.58,306.67Zm-142.45-9.35a8.42,8.42,0,0,0,1.55,4c1.09,1.66.17,3.39,1.45,5a12.17,12.17,0,0,0-1.09-8.7Zm146.37,20c-1.05.34-.12,1.67,1.14,1.32C255.7,318.27,254.75,316.93,253.5,317.29Zm6.27,5.15c2.76-1,.32-3.24-.73-4.68C257.65,319.19,258.65,320.92,259.77,322.44ZM114.19,308.6c-.92.52-.12,2,1.39,2C116.4,310.06,115.67,308.45,114.19,308.6Zm143.35,18.26c-.81.43-.38,1.43.72,1.73C259.94,328.61,259.07,326.6,257.54,326.86Zm-146.14-9.8a15.46,15.46,0,0,0,2,6.63l1.81.23a8.52,8.52,0,0,0-1.07-6.71Zm132.7,20c3.22.33,7.22.48,9-1.22C249.85,335.42,246,335.46,244.1,337.07ZM121.32,326l-.92.78a4.65,4.65,0,0,0,1.49,2.73A5.7,5.7,0,0,0,121.32,326Zm100.26,12c3,.78,6.88.4,7.36-1.6C226.26,336.67,223.14,336.72,221.58,338.09Zm-38.3,5.24c2.45.49,5.71,1,7.22-.41C188.7,341.31,183.4,341.23,183.28,343.33ZM122,336.71a5.26,5.26,0,0,0,3.38,4.79C128.11,340,123.94,338,122,336.71Zm27,9c2.16.41,4.71.85,5.52-.65C152.48,344.78,150.19,344.6,149,345.66Z" transform="translate(-90.89 -253.39)"/><path class="cls-3" d="M207.3,255.29c3.75,0,8,.3,11.09,2,3.55,1.84,5.14,4.54,6.55,7.07,3,.32,6.91.13,8.69,2.1,6,5.56,4.65,12.18,8.74,18.07.47.85.95,1.7,1.4,2.56,2.28,4,5.09,8,7.77,12,1.39,2.09,2.68,4.19,4.24,6.25.31.43.59.87.88,1.3,3.95,5.71,6.43,11.65,8.84,17.56,1.46,3.87,2.73,7.77,5,11.54,1,1.72,2.34,3.66,1.07,5.33s-4.33,2.49-7.17,3c-10.33,1.78-21.18,2.55-31.72,3.93-13.67,1.8-27.32,3.62-41.12,5.15-11.94,1.44-24.11,2.35-36,4-8,.91-16,2.19-24.3,2.4-3,.14-6.43-.7-8.19-2.42-2.08-2.28-2.29-4.87-3.67-7.26-4.44-8.27-10-16.44-12.4-24.93-2.73-9.6-5.11-19.27-10-28.71-3-4.62-7.19-9.37-5.88-14.26,1.4-1.07,3.5-1.63,5.37-2.35-1-3-2.46-6.39.4-9,5.61-4.4,17-4,22.4-8.58,6.15-2.87,14.11-3.86,21.71-4.91,11.37-1.41,22.78-2.79,34.46-3.48a84.94,84.94,0,0,1,11.4-.08c4.08.39,6.84,3,10.94,3.35C201.08,256.54,203.87,255.35,207.3,255.29Zm-8.15,2.38a27,27,0,0,1-12.81.62c-2.62-.57-3.63-2.37-6.05-3.08-4.63-.82-9.31-.41-13.83-.16-10.7.87-21.12,2.32-31.53,3.74-5.64,1-12.05,2-14.76,5.28-3.59,3.72-13.07,1.46-18,4.08-5.08,2.25-4.76,6.8-2.38,10.32-1.58.86-3.63,1.65-4,3-1,2.79,1.4,5.67,3.09,8.38,3,4.08,4.15,8.37,6.07,12.57,2.9,6.28,3.34,12.63,5.21,18.94,3.14,8,8.78,15.8,14.7,23.42,1.08,1.43,1.41,3,2.92,4.34,2,1.64,5.67,2.37,8.81,2.19,8.34-.33,16.08-1.87,24.06-2.9,16.62-2.52,34.22-3.09,51.33-4.61,9.43-.84,18.59-2.19,28-3.11,6.87-.86,14-1.39,20.46-2.89,4.49-1,6-4.11,5.29-6.85-1.65-8.46-5.51-16.9-10.6-25.11-5.58-7.46-12.69-14.65-16.79-22.39-3.66-5.2-3.06-11.08-9.24-15.82-1.77-1.53-5-1.9-7.72-2,.22-2.76-1.52-5.9-6.06-7.53A29.77,29.77,0,0,0,199.15,257.67Z" transform="translate(-90.89 -253.39)"/><path class="cls-4" d="M179.72,257.84h3a3.59,3.59,0,0,1,1.29,2.82l-3.58-.37A16.43,16.43,0,0,1,179.72,257.84Z" transform="translate(-90.89 -253.39)"/><path class="cls-4" d="M107.13,297.32l1.91.37a12.17,12.17,0,0,1,1.09,8.7c-1.28-1.65-.36-3.38-1.45-5A8.42,8.42,0,0,1,107.13,297.32Z" transform="translate(-90.89 -253.39)"/><path class="cls-4" d="M111.4,317.06l2.78.15a8.52,8.52,0,0,1,1.07,6.71l-1.81-.23A15.46,15.46,0,0,1,111.4,317.06Z" transform="translate(-90.89 -253.39)"/><path class="cls-4" d="M121.32,326a5.7,5.7,0,0,1,.57,3.51,4.65,4.65,0,0,1-1.49-2.73Z" transform="translate(-90.89 -253.39)"/><path class="cls-5" d="M165.86,262.16a311.34,311.34,0,0,1,32.24,1.31c3.05.35,6.92.86,8.37,2.79s-.85,3.94-.8,5.95c3.59,3,10.37,3.29,15.62,4.59,3.08.67,6,2,7.16,3.85,6.14,8.9.64,18.14,6.43,27.05,3.55,5.29,13.89,7.8,17.86,12.95,1.83,2.57,4.12,5.51,2.22,8.05-2.34,2.89-7.9,4.15-13.08,4.87-12.79,1.57-26.7-.89-39.53.61A54.39,54.39,0,0,0,190.07,337c-7.1,2.4-15.65,3.33-24.26,3.15-4.69,0-9.46-.51-14.12-.35a13.14,13.14,0,0,1-9.82,2.83c-5.27-1-8.48-4-10.92-6.7-7.43-8.45-7.88-17.7-11.81-26.54a14.47,14.47,0,0,1-.5-11c.49-2.2,2.37-4.41.79-6.73-1.66-1.76-5.06-2.9-6.09-4.85-2-3.44,0-6.88,2.94-9.58,4.31-3.52,10.87-5.73,17.05-8,4.69-1.92,11.27-.13,16.66-.86.38-1.88-5-2.25-6-4,.76-.91,2.6-1.17,4.19-1.41A150.42,150.42,0,0,1,165.86,262.16Zm5.11,3.21c-2.92.29-5.2,1.64-4.71,3.5,6.28,1.81,12.5-.38,18.82,1,3,.55,6.11,1.38,9.27,1.38,2.6-.12,5.35-1.05,5.55-2.69.31-1.21-1.85-2.3-3.84-2.39C187.69,265.58,179.15,264.67,171,265.37Zm-45.09,9.12c-4.11,1.75-7,4.35-8.3,7.3-.67,1.52-1.4,3.34.44,4.87,1.58,1.49,5.62,2.13,7.57.95,3.89-2.24,4.1-5.93,7.81-8.25,3.54-1.8,9.92-2.26,10.32-5.61a12.81,12.81,0,0,1-8.22-3.55A74.35,74.35,0,0,0,125.88,274.49Zm116.8,42a11.51,11.51,0,0,1-2.11,1.91c1.76,2.07,4,4.18,4.09,6.45-.13,1.32-1.15,2.66-3.36,3.09-2.91.87-7.26,1-8.11,3.2,3.18.91,6.51.45,9.48-.06,4.46-.74,8.29-2.76,9-5.53.4-1.37-.8-2.77-2.16-4C247.4,319.77,245.55,317.87,242.68,316.45ZM133.43,328.17c-.12.44-.38,1.31-.5,1.74-.55.65-1.48,1.31-.92,2.14a15.15,15.15,0,0,0,8.48,7.28c3.51,1.06,7.3.26,10.06-.81,1.63-.5,2.08-2.38-.15-2.88-3,0-5.74.89-8.79.51C136.27,334.41,137.25,330.55,133.43,328.17Z" transform="translate(-90.89 -253.39)"/><path class="cls-6" d="M171,265.37c8.18-.7,16.72.21,25.09.81,2,.09,4.15,1.18,3.84,2.39-.2,1.64-3,2.57-5.55,2.69-3.16,0-6.22-.83-9.27-1.38-6.32-1.39-12.54.8-18.82-1C165.77,267,168.05,265.66,171,265.37Z" transform="translate(-90.89 -253.39)"/><path class="cls-6" d="M125.88,274.49a74.35,74.35,0,0,1,9.62-4.29,12.81,12.81,0,0,0,8.22,3.55c-.4,3.35-6.78,3.81-10.32,5.61-3.71,2.32-3.92,6-7.81,8.25-2,1.18-6,.54-7.57-.95-1.84-1.53-1.11-3.35-.44-4.87C118.83,278.84,121.77,276.24,125.88,274.49Z" transform="translate(-90.89 -253.39)"/><path class="cls-6" d="M242.68,316.45c2.87,1.42,4.72,3.32,6.8,5.1,1.36,1.19,2.56,2.59,2.16,4-.68,2.77-4.51,4.79-9,5.53-3,.51-6.3,1-9.48.06.85-2.19,5.2-2.33,8.11-3.2,2.21-.43,3.23-1.77,3.36-3.09-.14-2.27-2.33-4.38-4.09-6.45A11.51,11.51,0,0,0,242.68,316.45Z" transform="translate(-90.89 -253.39)"/><path class="cls-6" d="M133.43,328.17c3.82,2.38,2.84,6.24,8.18,8,3,.38,5.79-.54,8.79-.51,2.23.5,1.78,2.38.15,2.88-2.76,1.07-6.55,1.87-10.06.81a15.15,15.15,0,0,1-8.48-7.28c-.56-.83.37-1.49.92-2.14C133.05,329.48,133.31,328.61,133.43,328.17Z" transform="translate(-90.89 -253.39)"/><path class="cls-4" d="M137.76,353.36c-1.58,1.36-3.87,1.48-5.89,1.66-2.61.07-4.39-1.8-5.6-3.63l1.69-.2c1.32.77,2.53,2.11,4.26,1.92A20.94,20.94,0,0,1,137.76,353.36Z" transform="translate(-90.89 -253.39)"/><path class="cls-4" d="M268.75,334.21c.77,1.56.05,3-.51,4.31-.89,1.61-3.41,1.88-5.68,1.81.1-.29.31-.84.42-1.12,1.25-.46,3-.61,3.48-1.75A9.92,9.92,0,0,1,268.75,334.21Z" transform="translate(-90.89 -253.39)"/><path class="cls-7" d="M180.85,288.34c2.6-.44,2.68,2.06.18,2.36S178.34,288.67,180.85,288.34Z" transform="translate(-90.89 -253.39)"/><path class="cls-7" d="M153.1,293.86c2.42-.85,3.33-.48,2.74,1.09C153.4,295.81,152.49,295.44,153.1,293.86Z" transform="translate(-90.89 -253.39)"/><path class="cls-8" d="M145.05,283.4c2.52-1,5.34-.79,8-.93a80.12,80.12,0,0,0-13.94,6.47C140.43,287,141.84,284.73,145.05,283.4Z" transform="translate(-90.89 -253.39)"/><path class="cls-8" d="M183.3,278.16c5.46-3.5,12.56-1.58,15.12,1.43A55.77,55.77,0,0,0,183.3,278.16Z" transform="translate(-90.89 -253.39)"/><path class="cls-8" d="M141.48,291.44c3.43-2.95,9.71-4.86,15-4.24,7.85.74,11.72,5.95,9.56,10.67-8.7,2.65-17.44,5.38-24.85,9.49,2.88-4,9.63-6.26,15.74-8.09l-.11-.29c-3.51-.25-8-1.68-6-4.38,1.66-3,8.95-3.77,10.68-1.22,1.6,1.35-1.67,3.11-1.16,4.61,1.29,0,3.84.06,5.11.09.52-3.48-.11-7.43-5.42-9-5.79-2.27-15.49.09-18.86,4.4-2.93,3.09-1.26,6.14-.39,9C137.37,299.62,137,295,141.48,291.44Zm11.62,2.42c-.61,1.58.3,1.95,2.74,1.09C156.43,293.38,155.52,293,153.1,293.86Z" transform="translate(-90.89 -253.39)"/><path class="cls-8" d="M174.49,296.53c-5.14-4.92,1.27-14,12.69-15.17,10.6-1,16.46,5.34,13.95,11.13-.55-2.93,0-6.43-4.07-8.29-4.72-3.13-15.1-2.12-19.85,2.1-4.18,3.07-3.51,6.75-2.45,9.86,8.8-1.63,18.23-2.16,25.49.31.08.28.22.86.3,1.15C192.65,295.68,183.41,296.22,174.49,296.53Z" transform="translate(-90.89 -253.39)"/><path class="cls-8" d="M179.43,288c4-2.42,10.74-.4,8.95,2.66-.93,2.35-5.9,3.78-9,2.8S176.27,289.56,179.43,288Zm1.42.36c-2.51.33-2.41,2.78.18,2.36S183.45,287.9,180.85,288.34Z" transform="translate(-90.89 -253.39)"/><path class="cls-8" d="M151.49,308.61c1-1,1.3-2.66,3.5-3.06,3.82-1.25,6.53.67,9.79,1.05,3-.83,3.86-3.43,7.14-4a65.74,65.74,0,0,1,8.18,1.17,62.27,62.27,0,0,1,5.54-3.38,15.61,15.61,0,0,1,7.09,2c.78-.44,2.32-1.33,3.11-1.76-1,1.29-2.19,2.57-3.41,3.82-.15-.55-.48-1.67-.63-2.23l-5.86-1c-1.92,1.16-3.21,2.93-5.9,3.47a71.75,71.75,0,0,1-8.38-1.1c-1.93,1.26-3.35,3-5.91,3.76-3.63.51-6.07-1.21-9.31-1.51A40.77,40.77,0,0,0,151.49,308.61Z" transform="translate(-90.89 -253.39)"/><path class="cls-8" d="M148.22,309.42c1.91-1,6.06-.37,5.31,1.22C151.68,311.9,147.37,311,148.22,309.42Z" transform="translate(-90.89 -253.39)"/><path class="cls-6" d="M138.1,313.34c6-.8,13.21,1.73,15.05,5.39,2.69,4.2-3,8.69-10.46,8.26-6.26-.06-12.44-3.48-12.7-7.14C129.45,316.74,133,313.94,138.1,313.34Z" transform="translate(-90.89 -253.39)"/><path class="cls-6" d="M214.11,292c5.23-1.49,11.3,1.7,12.67,6.82,2.08,5.84-3.1,12.57-9.51,12.4-5.39.27-10.52-4.25-10.54-9.45A9.82,9.82,0,0,1,214.11,292Z" transform="translate(-90.89 -253.39)"/></svg>