<svg id="Livello_1" data-name="Livello 1" xmlns="http://www.w3.org/2000/svg" viewBox="0 0 49.58 55.91"><defs><style>.cls-1{fill:#e72d79;}</style></defs><path class="cls-1" d="M242.24,24.41c7.92-.65,7.92-.65,7.92,6.31V55.21c0,3.88-.78,4.55-5.27,4.56H205.58c-4.29,0-5-.6-5-4.41V29.89c0-6.16.45-6.5,7.79-5.3v-6.4c.1-8.13,7.3-14.27,16.78-14.33s16.87,5.94,17.07,14C242.28,20.06,242.24,22.23,242.24,24.41Zm-7.09,1.36c-.43-3.79-.51-7.27-1.31-10.61-.72-3.09-4.75-5.2-8.62-5.16-3.69,0-7.78,2.16-8.42,5-.77,3.44-.85,7-1.26,10.78Zm-6.65,21.8C229.1,45.12,230,43,230,41c0-1.62-.6-3.89-1.89-4.69a6.85,6.85,0,0,0-5.64,0c-1.29.81-1.85,3.09-1.84,4.72,0,2.07.92,4.15,1.52,6.54Z" transform="translate(-200.58 -3.86)"/></svg>