<?xml version="1.0" encoding="utf-8"?>
<!-- Generator: Adobe Illustrator 25.0.0, SVG Export Plug-In . SVG Version: 6.00 Build 0)  -->
<svg version="1.1" id="Livello_1" xmlns="http://www.w3.org/2000/svg" xmlns:xlink="http://www.w3.org/1999/xlink" x="0px" y="0px"
	 viewBox="0 0 55.4 62.9" style="enable-background:new 0 0 55.4 62.9;" xml:space="preserve">
<style type="text/css">
	.st0{enable-background:new    ;}
	.st1{fill:#E8307A;}
	.st2{fill:none;stroke:#E8307A;stroke-width:0.5;}
</style>
<g class="st0">
	<path class="st1" d="M21.4,18.4c-1.7,0.7-3.2,1-4.4,1.1c-0.6,0-0.9-0.2-1-0.9L16,17.6c0-0.4,0-0.7,0.2-0.9c0.2-0.2,0.6-0.5,1.3-0.8
		c0.9-0.4,2.1-1.2,3.6-2.4c1.5-1.2,3-2.8,4.4-4.7c1.1-1.5,1.7-2.3,1.9-2.4c0.2-0.1,0.6-0.2,1.1-0.2l2.4-0.2l2.7,38.8
		c0,0.4,0.4,0.7,1.1,1c0.6,0.2,0.9,0.5,1.1,0.7c0.1,0.3,0.3,1,0.3,2.2c0,0.5-0.3,0.7-1,0.8l-13.3,0.9c-0.6,0-0.9,0-1-0.2
		c-0.1-0.2-0.2-0.5-0.3-1.2c-0.1-0.9,0-1.5,0-1.7c0.1-0.2,0.5-0.5,1.2-0.7c1.1-0.4,1.6-0.8,1.5-1.4L21.4,18.4z"/>
</g>
<circle class="st2" cx="27.7" cy="29.4" r="27.4"/>
</svg>
