<?xml version="1.0" encoding="utf-8"?>
<!-- Generator: Adobe Illustrator 25.0.0, SVG Export Plug-In . SVG Version: 6.00 Build 0)  -->
<svg version="1.1" id="Livello_1" xmlns="http://www.w3.org/2000/svg" xmlns:xlink="http://www.w3.org/1999/xlink" x="0px" y="0px"
	 viewBox="0 0 55.4 63.3" style="enable-background:new 0 0 55.4 63.3;" xml:space="preserve">
<style type="text/css">
	.st0{enable-background:new    ;}
	.st1{fill:#E8307A;}
	.st2{fill:none;stroke:#E8307A;stroke-width:0.5;}
</style>
<g class="st0">
	<path class="st1" d="M40.5,33.9l2.5-0.2c0.6,0,1,0,1.2,0.2c0.2,0.2,0.3,0.6,0.4,1.2l0.1,1.6c0,0.5,0,0.8-0.2,1
		c-0.1,0.2-0.5,0.3-1.1,0.3l-2.6,0.2l0.4,5c0.1,1.2,0.7,2,1.8,2.5c0.6,0.2,1,0.7,1,1.4l0.1,1.2c0,0.4,0,0.6-0.2,0.8
		c-0.1,0.1-0.5,0.2-1.1,0.2l-12.2,0.8c-0.6,0-0.9,0-1.1-0.2c-0.1-0.2-0.3-0.8-0.3-1.9c0-0.6,0.2-1.1,0.8-1.5c0.7-0.4,1-1,1-1.7
		l-0.4-6l-11.5,0.7c-0.6,0-1,0-1.1-0.1s-0.2-0.4-0.2-0.9l-0.2-3.1c0-0.3,0-0.6,0-0.8c0-0.2,0.4-0.9,1.1-2.1L33.3,7.4
		c0.3-0.4,0.6-0.8,1-0.9c0.4-0.2,1.2-0.3,2.3-0.4C37.6,6,38.2,6,38.4,6.1c0.2,0.1,0.3,0.4,0.3,0.9L40.5,33.9z M29.4,21.4l-8,13.7
		l8.9-0.6L29.4,21.4z"/>
</g>
<circle class="st2" cx="27.7" cy="29.9" r="27.4"/>
</svg>
