<?xml version="1.0" encoding="utf-8"?>
<!-- Generator: Adobe Illustrator 25.0.0, SVG Export Plug-In . SVG Version: 6.00 Build 0)  -->
<svg version="1.1" id="Livello_1" xmlns="http://www.w3.org/2000/svg" xmlns:xlink="http://www.w3.org/1999/xlink" x="0px" y="0px"
	 viewBox="0 0 55.4 63.3" style="enable-background:new 0 0 55.4 63.3;" xml:space="preserve">
<style type="text/css">
	.st0{enable-background:new    ;}
	.st1{fill:#E8307A;}
	.st2{fill:none;stroke:#E8307A;stroke-width:0.5;}
</style>
<g class="st0">
	<path class="st1" d="M24,42.5l14.5-0.9c0.7,0,1.2-0.3,1.5-0.8c0.3-0.5,0.6-1.4,0.8-2.6c0.1-0.5,0.2-0.9,0.5-1.1
		c0.2-0.2,0.8-0.3,1.6-0.4c1.2-0.1,1.8,0.1,1.8,0.6c0,0.2,0,0.3,0,0.6c-0.1,0.5-0.2,1.7-0.4,3.5c-0.2,2-0.4,3.8-0.7,5.3
		c-0.2,1.5-0.4,2.3-0.6,2.5c-0.2,0.2-0.6,0.3-1.3,0.3l-22.8,1.5l-0.4-6.3c-0.1-0.9,0.7-2,2.2-3.5c0.8-0.7,2.5-2.9,5.2-6.5
		c2.7-3.6,4.4-6.5,5.1-8.7c0.7-2.2,1-5.1,0.7-8.7c-0.2-3-0.7-4.9-1.3-5.8c-0.7-0.8-1.6-1.2-2.8-1.1c-0.9,0.1-1.6,0.3-2,0.8
		c-0.5,0.5-0.7,1.1-0.6,1.9c0,0.4,0.1,0.9,0.3,1.5c0.2,0.8,0.3,1.6,0.3,2.3c0.1,1.6-0.2,2.9-0.9,3.9c-0.7,0.9-1.7,1.5-3,1.5
		c-1.3,0.1-2.4-0.3-3.2-1.2c-0.8-0.9-1.3-2.1-1.4-3.4c-0.2-2.8,0.8-5.3,2.9-7.4C22,8,25,6.8,28.8,6.6c3.9-0.3,7.1,0.7,9.8,2.8
		c2.7,2.1,4.1,5,4.4,8.6c0.1,2-0.2,3.9-0.9,5.8c-0.8,1.9-1.9,3.6-3.3,5.1c-1.4,1.5-3.6,3.4-6.4,5.8C28.5,37.9,25.8,40.5,24,42.5z"/>
</g>
<circle class="st2" cx="27.7" cy="29.9" r="27.4"/>
</svg>
