<?xml version="1.0" encoding="utf-8"?>
<!-- Generator: Adobe Illustrator 25.0.0, SVG Export Plug-In . SVG Version: 6.00 Build 0)  -->
<svg version="1.1" id="Livello_1" xmlns="http://www.w3.org/2000/svg" xmlns:xlink="http://www.w3.org/1999/xlink" x="0px" y="0px"
	 viewBox="0 0 55.4 63.3" style="enable-background:new 0 0 55.4 63.3;" xml:space="preserve">
<style type="text/css">
	.st0{enable-background:new    ;}
	.st1{fill:#E8307A;}
	.st2{fill:none;stroke:#E8307A;stroke-width:0.5;}
</style>
<g class="st0">
	<path class="st1" d="M33.1,26.6c7,1.2,10.7,4.7,11.2,10.6c0.2,2.5-0.3,4.7-1.5,6.7c-1.1,2-2.8,3.5-5,4.7c-2.2,1.2-4.5,1.8-7,2
		c-3.4,0.2-6.2-0.6-8.3-2.4c-2.2-1.8-3.3-4-3.5-6.5c-0.1-1.3,0.2-2.4,0.8-3.4c0.6-1,1.6-1.5,2.9-1.6c1.3-0.1,2.3,0.3,3,1
		c0.8,0.8,1.2,1.7,1.2,2.9c0,0.5,0,1.3-0.1,2.5c-0.1,0.5-0.1,1-0.1,1.4c0.1,0.8,0.4,1.4,0.9,1.9c0.6,0.5,1.3,0.7,2.2,0.7
		c1.2-0.1,2.1-0.6,2.6-1.6s0.7-2.5,0.6-4.6c0-0.5-0.1-1.1-0.2-1.6l-0.8-6.6c-0.4-1.3-0.9-2.2-1.6-2.8c-0.7-0.6-1.4-0.9-2.1-1
		c-0.7-0.1-1.9-0.1-3.5,0l-0.8,0.1c-0.6,0-0.9-0.2-1-0.7L23,27.2c0-0.1,0-0.2-0.1-0.4c-0.1-0.8,0.3-1.2,1.2-1.3
		c2.2-0.1,3.8-0.4,4.7-0.8s1.5-1,1.8-1.7c0.3-0.7,0.3-2.3,0.2-4.7c-0.2-3.4-0.6-5.7-1.1-6.8c-0.5-1.1-1.3-1.6-2.5-1.5
		c-0.7,0-1.4,0.3-1.9,0.8c-0.5,0.5-0.8,1.1-0.7,1.8c0,0.5,0.2,1.1,0.4,2c0.3,1.2,0.5,2.1,0.6,2.8c0.1,1-0.2,1.9-1,2.5
		s-1.6,1-2.6,1.1c-1.3,0.1-2.3-0.3-3.1-1.2c-0.8-0.9-1.2-2.1-1.3-3.5c-0.2-2.5,0.7-4.7,2.6-6.7c1.9-2,4.7-3.1,8.2-3.3
		C32.5,5.9,35.7,6.9,38,9c2.3,2.1,3.5,4.6,3.7,7.4c0.2,2.1-0.4,4.1-1.7,5.9c-1.3,1.8-3.3,3.1-6,4L33.1,26.6z"/>
</g>
<circle class="st2" cx="27.7" cy="29.9" r="27.4"/>
</svg>
